<?xml version="1.0" encoding="utf-8"?>
<!-- Generator: Adobe Illustrator 24.2.0, SVG Export Plug-In . SVG Version: 6.00 Build 0)  -->
<svg version="1.1" id="レイヤー_1" xmlns="http://www.w3.org/2000/svg" xmlns:xlink="http://www.w3.org/1999/xlink" x="0px"
	 y="0px" viewBox="0 0 144 144" style="enable-background:new 0 0 144 144;" xml:space="preserve">
<style type="text/css">
	.st0{fill:#231815;}
	.st1{fill:#FFF6E9;}
	.st2{fill:#595757;}
	.st3{fill:#FFFFFF;}
	.st4{fill:#B4B4B5;}
	.st5{fill:#268FCF;}
</style>
<g>
	<path class="st0" d="M-0.8,120c5.9,0,11.9,0,17.8,0c11.3,0,22.6,0,33.9,0c13.2,0,26.3,0,39.5,0c11.5,0,23,0,34.6,0
		c6.4,0,12.7,0,19.1,0c0.3,0,0.5,0,0.8,0c0.7,0,0.7-1,0-1c-5.5,0-11,0-16.5,0c-11.1,0-22.2,0-33.3,0c-13.2,0-26.3,0-39.5,0
		c-11.7,0-23.4,0-35.2,0c-6.8,0-13.5,0-20.3,0c-0.3,0-0.6,0-1,0C-1.5,119-1.5,120-0.8,120L-0.8,120z"/>
	<g>
		<g>
			<path class="st1" d="M60,61.3c0.2-0.1,0.9-0.4,1.1-0.4c1.8-0.6,1.7-1.8,1.9-3c0.2-1.2,0.4-2.4,0.4-3.6c-6-2.6-9.2-9-10.1-15.1
				c-1,0.1-2.1-0.3-2.8-1c-0.7-0.7-1.3-1.5-1.7-2.4c-0.8-1.9-1.2-3.9-1-6c0-0.5,0.1-1,0.4-1.5c0.3-0.7,1-1.1,1.7-1.3
				c1.1-0.2,2.3,0.5,2.6,1.6c5.6-5.6,8.8-8.5,14-12.8c0.1,1,1.1,3.9,1.5,4.1c0.4,0.2,4.5-2.1,7.1-3.3c6.5,1.7,12.1,6.2,15.2,11.9
				c0.4-0.4,0.7-0.6,0.7-0.6c0.5-0.5,1.3-0.8,2.1-0.6c0.7,0.1,1.4,0.6,1.7,1.3c0.2,0.5,0.3,1,0.4,1.5c0.2,2-0.2,4.1-1.1,6
				c-0.4,0.9-1,1.8-1.7,2.4c-0.8,0.7-1.9,1.2-3,1c-1.2,8.4-5.7,13.6-10.1,15.1c0,1.2,0.2,2.3,0.4,3.5c0.2,1.3,0.1,2.4,1.9,3
				c0.1,0,1.1,0.4,1.4,0.6c0,0-3.4,6.1-11.2,6.1C63.7,67.6,60,61.3,60,61.3z"/>
		</g>
		<g>
			<path class="st2" d="M60.4,21c-2.4,2.1-4.8,4.4-7.9,7.6c-0.3-1.1-1.5-1.8-2.6-1.6c-0.3,0-0.5,0.1-0.8,0.3
				c-0.3-1.5-0.5-2.8-0.5-2.8c-0.3-3.4,0.5-7.2,1.7-10.1c1.7-3.8,4.6-7.1,8.5-9.3c-1.3-0.7-2.7-1.2-4.1-1.3
				c0.9-0.9,7.7-3.3,11.7-3.2c4,0.1,8.6,0.6,11.5,4.4c0,0,0.2,0.3,0.4,0.5c1.5,0.3,3,0.5,3,0.5c1.8,0.3,4.3,1.8,6.3,3.5
				c1.5,1.3,2.5,2.8,3.3,3.9c1.7,2.7,2.6,8.9,2.4,13.8c-0.1,0-0.2,0-0.3-0.1c-1.1-0.2-2.2,0.4-2.6,1.5c-3-5.8-8.7-10.4-15.3-12.1
				c-2.6,1.2-6.7,3.5-7.1,3.3c-0.4-0.2-1.4-3.1-1.5-4.1C64.2,17.7,62.3,19.3,60.4,21z"/>
		</g>
		<path class="st0" d="M62.9,54.4c0,1-0.1,1.9-0.3,2.9c-0.1,0.6-0.2,1.2-0.3,1.8c-0.3,1.1-1.5,1.3-2.4,1.7c-0.3,0.1-0.4,0.3-0.4,0.6
			c0.1,0.2,0.4,0.5,0.6,0.4c0.6-0.2,1.1-0.4,1.7-0.7c0.6-0.3,1.1-0.9,1.3-1.5c0.2-0.6,0.3-1.3,0.4-1.9c0.2-1.1,0.3-2.1,0.4-3.2
			C63.9,53.8,62.9,53.8,62.9,54.4L62.9,54.4z"/>
		<path class="st0" d="M78.7,54.5c0,1.2,0.2,2.3,0.4,3.4c0.1,0.6,0.2,1.3,0.4,1.9c0.6,1.3,2,1.6,3.1,2.1c0.3,0.1,0.5,0.1,0.7-0.2
			c0.1-0.2,0.1-0.6-0.2-0.7c-0.5-0.2-1-0.4-1.5-0.6c-0.5-0.2-1-0.5-1.3-1.1c-0.2-0.6-0.2-1.2-0.3-1.8c-0.2-1.1-0.3-2.1-0.3-3.2
			C79.7,53.8,78.6,53.8,78.7,54.5L78.7,54.5z"/>
		<path class="st0" d="M58.7,4.5c-7,4-11.3,11.8-10.6,20c0.1,0.6,1.1,0.7,1,0c-0.6-7.8,3.3-15.2,10.1-19.1
			C59.8,5.1,59.3,4.2,58.7,4.5L58.7,4.5z"/>
		<path class="st0" d="M89,37c-0.5,6.9-3.6,15.1-10.9,17.2c-0.6,0.2-0.4,1.2,0.3,1C86.2,53,89.5,44.4,90,37
			C90.1,36.4,89.1,36.4,89,37L89,37z"/>
		<path class="st0" d="M52.6,37.2c0.6,8.2,5.1,16.8,13.8,18.5c0.6,0.1,0.9-0.9,0.3-1c-8.2-1.6-12.4-9.8-13-17.5
			C53.6,36.6,52.6,36.6,52.6,37.2L52.6,37.2z"/>
		<path class="st0" d="M52.3,27.3c-1.2-1.1-3-1.1-4.1,0c-1.2,1.2-1,3.3-0.9,4.8c0.4,3.1,2.1,7.6,5.9,7.6c0.7,0,0.7-1,0-1
			c-2.9,0-4.3-3.4-4.7-5.8c-0.2-1.3-0.4-2.8,0-4c0.4-1.4,2.1-1.8,3.1-0.8C52.1,28.4,52.8,27.7,52.3,27.3L52.3,27.3z"/>
		<path class="st0" d="M91.3,28.1c1-0.9,2.6-0.6,3.1,0.8c0.4,1.3,0.3,2.9,0,4.1c-0.5,2.4-1.9,5.8-4.8,5.8c-0.7,0-0.7,1,0,1
			c3.8,0.1,5.6-4.4,5.9-7.5c0.2-1.5,0.3-3.6-0.8-4.8c-1.1-1.2-2.9-1.1-4.1-0.1C90.1,27.8,90.8,28.6,91.3,28.1L91.3,28.1z"/>
		<path class="st0" d="M81.2,6.5c4.1,0.8,8.1,4.5,9.7,8.2c1.7,3.9,2,8.6,1.8,12.8c0,0.7,1,0.7,1,0c0.2-4.4-0.1-9.5-2-13.5
			c-1.8-3.8-6-7.6-10.2-8.4C80.9,5.4,80.6,6.4,81.2,6.5L81.2,6.5z"/>
		<path class="st0" d="M75.2,15.9c-2,0.9-4,2-6,3c-0.3,0.1-0.7,0.4-1,0.4c-0.3,0-0.1,0,0,0c-0.1-0.1-0.2-0.4-0.3-0.5
			c-0.4-0.9-0.8-2.1-0.9-3.1c0-0.4-0.5-0.7-0.9-0.4c-5.1,4.3-9.9,8.7-14.6,13.4c-0.5,0.5,0.3,1.2,0.7,0.7c4.7-4.7,9.5-9.1,14.6-13.4
			c-0.3-0.1-0.6-0.2-0.9-0.4c0.1,1.2,0.6,2.5,1.1,3.6c0.3,0.7,0.6,1.1,1.4,1c1-0.2,2.1-0.9,3-1.4c1.4-0.7,2.8-1.5,4.3-2.1
			C76.3,16.5,75.8,15.7,75.2,15.9L75.2,15.9z"/>
		<path class="st0" d="M79.3,18.6c4.8,2.4,8.8,6.2,11.1,11.1c0.3,0.6,1.2,0.1,0.9-0.5c-2.4-5-6.5-9-11.4-11.4
			C79.2,17.5,78.7,18.3,79.3,18.6L79.3,18.6z"/>
		<path class="st0" d="M78.3,4.6c-3-3.8-8.4-4.9-13.1-4.5c-2.3,0.2-4.5,0.7-6.7,1.4c-1.3,0.4-3.2,0.9-4.2,1.9
			c-0.3,0.3-0.1,0.8,0.4,0.9c1.3,0.1,2.6,0.6,3.8,1.2c0.6,0.3,1.1-0.6,0.5-0.9c-1.4-0.7-2.8-1.2-4.3-1.3c0.1,0.3,0.2,0.6,0.4,0.9
			c0.9-0.9,2.7-1.3,3.9-1.7c2-0.6,4.1-1.2,6.3-1.4c4.4-0.3,9.5,0.6,12.3,4.2C78,5.8,78.7,5.1,78.3,4.6L78.3,4.6z"/>
		<g>
			<path class="st3" d="M72.4,60.6c-0.7,0-1.4,0-2.1,0c0-0.1,0-0.2,0-0.2c0-0.2-0.2-0.3-0.4-0.3c-2.6-1.2-5.4-3.1-7.6-5.3
				c-1.2,1.1-2.1,2.5-2.8,3.8c0.7,2.6,1.8,7.2,3.4,11.9c2.9,8.3,6.8,17.6,8.9,22.3c0,0,0.1,0.2,0.2,0.4c2.5-6.1,5.9-15.5,8.3-23.2
				c1.5-4.9,2.4-9.4,2.7-11.4c-0.7-1.3-1.5-2.5-2.6-3.6c-2.2,2.2-5,4.1-7.6,5.3c-0.2,0.1-0.3,0.2-0.4,0.3c0,0.1,0,0.2,0,0.2
				C72.5,60.6,72.4,60.6,72.4,60.6z"/>
		</g>
		<g>
			<path class="st4" d="M74.9,117.9c-14.9,0-31,0-31,0c-5.7-1.1-15.9-7-16.7-8.5c-1.3-2.5-0.9-6.3,0-9.6c2.6-8.8,4.3-12.8,7.2-21.5
				c1-2.8,2-7,4.2-9.1c1.4-1.4,4.4-3,6.3-3.8c5.4-2.4,9.9-4.2,14.8-6.3c0.7,2.6,1.8,7,3.3,11.3c2.9,8.3,6.8,17.6,8.9,22.3
				c0,0,0.1,0.2,0.2,0.4c2.6-6.1,5.9-15.5,8.3-23.3c1.4-4.6,2.3-8.9,2.7-11c0.3,0.1,0.4,0.2,0.4,0.2c5,2.2,9.8,4.1,15.1,6.4
				c1.8,0.8,4.8,2.4,6.3,3.8c2.2,2.1,3.2,6.3,4.2,9.1c3,8.7,4.6,12.7,7.2,21.5c1,3.3,1.4,7.1,0,9.6c-0.8,1.5-11,7.4-16.7,8.5
				C99.6,117.9,87.7,117.9,74.9,117.9z"/>
		</g>
		<path class="st0" d="M83.3,59.3c3.3,1.4,6.5,2.8,9.8,4.1c2.8,1.2,5.7,2.3,8.4,3.9c1.1,0.7,2.3,1.4,3.3,2.4c1,1.1,1.7,2.5,2.2,3.8
			c1.1,2.7,1.9,5.5,2.8,8.2c1.9,5.4,3.9,10.8,5.5,16.3c0.9,3,1.9,6.3,1.2,9.5c-0.4,1.8-1.5,2.5-2.9,3.4c-4.2,2.7-9.1,5.4-14,6.4
			c-0.6,0.1-0.4,1.1,0.3,1c4.7-1,9.3-3.4,13.4-5.9c1.2-0.7,2.7-1.5,3.5-2.7c1.4-2.1,1.1-5.3,0.7-7.7c-0.6-3.3-1.8-6.5-2.8-9.6
			c-0.9-2.8-1.9-5.5-2.9-8.3c-1.1-3-2.1-6-3.1-9c-0.8-2.5-1.8-5.1-3.8-6.8c-2.6-2.2-5.9-3.5-9-4.9c-4-1.7-8-3.4-12-5.1
			C83.2,58.2,82.7,59.1,83.3,59.3L83.3,59.3z"/>
		<path class="st0" d="M102.2,67.8c-1.3,7.6-3.4,14.9-5.1,22.4c-0.4,1.9-0.9,3.9-1.2,5.9c-0.2,1.6-0.2,3.1-0.2,4.7
			c0,4.1,0,8.2,0,12.3c0,0.7,1,0.7,1,0c0-4,0-8,0-12c0-1.7,0-3.4,0.2-5.1c0.3-2,0.8-4,1.3-6c1.7-7.3,3.8-14.5,5-21.9
			C103.3,67.4,102.3,67.2,102.2,67.8L102.2,67.8z"/>
		<path class="st0" d="M59.7,58.5c-3.3,1.4-6.6,2.8-10,4.2c-3,1.3-6.1,2.5-8.9,4.2c-2.4,1.5-3.9,3.2-5,5.8c-1.2,2.9-2.1,5.9-3.1,8.9
			c-2.1,5.9-4.2,11.7-5.9,17.7c-0.9,2.9-1.6,6.4-0.6,9.4c0.5,1.5,1.5,2.2,2.8,3.1c2.2,1.5,4.6,2.8,7,3.9c2.4,1.2,5,2.3,7.7,2.8
			c0.6,0.1,0.9-0.8,0.3-1c-4.5-0.9-8.9-3.2-12.8-5.6c-1.2-0.7-2.7-1.5-3.6-2.6c-0.8-1.1-0.8-2.8-0.8-4.1c0-1.8,0.4-3.5,0.9-5.2
			c1.6-5.6,3.6-11.1,5.5-16.6c1-2.7,1.9-5.5,2.8-8.2c1-2.9,2.2-5.3,4.8-7c2.8-1.9,6-3.1,9.1-4.4c3.5-1.5,6.9-2.9,10.4-4.4
			C60.8,59.1,60.3,58.2,59.7,58.5L59.7,58.5z"/>
		<path class="st0" d="M40.3,68.1c1.2,7.4,3.3,14.6,5,21.9c0.5,2,0.9,4,1.3,6c0.3,1.6,0.2,3.3,0.2,4.9c0,4.1,0,8.1,0,12.2
			c0,0.7,1,0.7,1,0c0-4.1,0-8.2,0-12.3c0-1.6,0-3.2-0.2-4.7c-0.3-2-0.7-3.9-1.2-5.9c-1.7-7.5-3.8-14.8-5.1-22.4
			C41.2,67.2,40.2,67.4,40.3,68.1L40.3,68.1z"/>
		<g>
			<path class="st4" d="M71.9,92.6C69.8,88,65.8,78.7,63,70.3c-1.8-5.2-3-10.4-3.6-12.6c-1.2,0.1-6.6,7.1-7.5,9.3
				c-0.1,0.1,2.5,2.5,3.7,3.6c-0.6,0.6-2.8,3.1-2.8,3.3c0,0.2,13.8,17.3,17.8,22.4"/>
		</g>
		<g>
			<path class="st4" d="M69.4,100.8c0.1-1.2,0.5-2.4,0.8-3.6c2.5-4.9,7.2-17.5,10.1-27.4c1.7-5.5,2.6-10.6,2.9-12.1
				c1.3,0.1,6.5,7.1,7.4,9.3c0.1,0.1-2.6,2.5-3.7,3.5c0.6,0.6,2.8,3.1,2.8,3.4c0,0.2-10.4,16.3-15.9,24.5"/>
		</g>
		<path class="st0" d="M55.2,70.2c-0.9,0.8-1.7,1.8-2.4,2.8c-0.3,0.4-0.7,0.8-0.4,1.3c0.5,1.1,1.7,2.3,2.5,3.2
			c3.5,4.4,7,8.7,10.4,13.1c1.6,2,3.2,4,4.8,6.1c0.4,0.5,1.1-0.2,0.7-0.7c-5.6-7.2-11.6-14.2-17.1-21.5c-0.1-0.2-0.3-0.4-0.4-0.5
			c0,0-0.1-0.1-0.1-0.1c0,0-0.1,0.3,0.1,0.2c0.4-0.1,1.1-1.3,1.3-1.6c0.4-0.5,0.8-0.9,1.3-1.4C56.4,70.5,55.7,69.7,55.2,70.2
			L55.2,70.2z"/>
		<path class="st0" d="M59.3,57.1c-0.8,0-1.5,0.8-2,1.4c-1,1-1.8,2.1-2.7,3.2c-0.9,1.1-1.7,2.3-2.4,3.5c-0.3,0.4-0.5,0.9-0.7,1.3
			c-0.2,0.5-0.2,0.7,0.2,1.1c1.1,1.2,2.3,2.2,3.5,3.3c0.5,0.4,1.2-0.3,0.7-0.7c-1-0.9-2-1.8-2.9-2.7c-0.2-0.2-0.3-0.3-0.5-0.5
			c-0.3-0.4,0,0.1-0.1,0.1c0.1,0,0.6-1.1,0.6-1.2c1.3-2.1,2.8-4.2,4.5-6c0.4-0.4,0.8-0.8,1.2-1.2c0.1-0.1,0.3-0.2,0.4-0.3
			c0.1-0.1,0.3-0.1,0.2-0.1C60,58.1,60,57.1,59.3,57.1L59.3,57.1z"/>
		<path class="st0" d="M86.5,71c0.7,0.7,1.4,1.5,2.1,2.3c0.1,0.2,0.3,0.5,0.5,0.6c0.2,0.1,0.2,0.4,0.2,0c0-0.2,0,0.1-0.1,0.2
			c-0.8,1.1-1.5,2.4-2.2,3.5c-2.8,4.4-5.7,8.8-8.6,13.2c-1.6,2.5-3.3,5-4.9,7.4c-0.4,0.5,0.5,1.1,0.9,0.5c3.2-4.8,6.4-9.7,9.6-14.6
			c1.4-2.1,2.8-4.3,4.1-6.4c0.7-1.1,1.6-2.2,2.1-3.3c0.2-0.6,0-0.9-0.4-1.3c-0.7-1-1.5-1.9-2.4-2.8C86.8,69.9,86.1,70.6,86.5,71
			L86.5,71z"/>
		<path class="st0" d="M83.2,58.2c-0.1,0,0,0,0.1,0.1c0.1,0.1,0.3,0.2,0.4,0.3c0.3,0.3,0.7,0.6,1,1c0.9,0.9,1.7,1.9,2.4,2.9
			c0.8,1,1.5,2,2.1,3.1c0.3,0.4,0.5,0.8,0.7,1.3c0,0,0.1,0.2,0.1,0.2c0.1,0.1,0-0.2,0.1-0.2c0,0-0.2,0.3-0.3,0.3
			c-1.1,1.1-2.2,2-3.3,3c-0.5,0.4,0.2,1.2,0.7,0.7c1.1-1,2.2-2,3.3-3c0.3-0.3,0.7-0.6,0.6-1c-0.1-0.4-0.4-0.9-0.6-1.3
			c-1.4-2.4-3.1-4.7-5-6.7c-0.6-0.6-1.4-1.7-2.3-1.7C82.6,57.1,82.6,58.1,83.2,58.2L83.2,58.2z"/>
		<path class="st0" d="M42,101.2c-0.9,0.1-1.8,0.4-2.7,0.6c-0.3,0.1-0.4,0.4-0.4,0.6c0.1,0.3,0.3,0.4,0.6,0.4
			c0.5-0.1,0.9-0.2,1.3-0.3c0.2-0.1,0.4-0.1,0.6-0.1c0.1,0,0.2,0,0.3-0.1c0,0,0.1,0,0.1,0c-0.1,0-0.1,0,0,0c0,0,0,0,0.1,0
			c0.3,0,0.5-0.2,0.5-0.5C42.5,101.5,42.3,101.2,42,101.2L42,101.2z"/>
		<path class="st0" d="M101.7,102.4c0.2,0,0.4,0,0.6,0.1c-0.1,0,0.1,0,0.1,0c0.1,0,0.1,0,0.2,0c0.1,0,0.2,0,0.3,0.1
			c0.5,0.1,1,0.2,1.5,0.2c0.3,0,0.6-0.1,0.6-0.4c0.1-0.2-0.1-0.6-0.4-0.6c-1-0.1-1.9-0.4-2.9-0.4c-0.3,0-0.5,0.2-0.5,0.5
			C101.2,102.2,101.4,102.4,101.7,102.4L101.7,102.4z"/>
		<g id="tie_2_">
			<g>
				<path class="st5" d="M73.2,61.6c-0.3-0.4-0.5-0.7-0.6-0.8c0-0.1-0.1-0.1-0.1-0.2c-0.8,0-1.5,0-2.2,0c0,0.1,0,0.1-0.1,0.2
					c-0.1,0.2-0.8,1.1-1.7,2.2c0.1,0.7,0.3,1.3,0.4,2c0,0.2,0.1,0.3,0.1,0.5c0.1,0.3,0.2,0.7,0.2,1c0,0.3-1.1,8.8-1.9,15.3
					c1.9,4.6,3.7,8.6,4.9,11.2c0,0,0,0,0,0c1.3-3.1,2.8-7,4.3-11.2c-0.9-6.4-2.2-14.9-2.2-15.2c0-0.6,0.2-1.2,0.4-1.8
					c0.1-0.3,0.2-0.7,0.3-1C74.3,63,73.6,62.2,73.2,61.6z"/>
			</g>
			<path class="st0" d="M69.2,66.9c1.7,0,3.3,0,5,0c0.7,0,0.7-1,0-1c-1.7,0-3.3,0-5,0C68.6,65.9,68.6,66.9,69.2,66.9L69.2,66.9z"/>
			<path class="st0" d="M72.6,60.1c-0.8,0-1.7,0-2.5,0c-0.3,0-0.5,0.2-0.5,0.5c0,0.3,0.2,0.5,0.5,0.5c0.8,0,1.7,0,2.5,0
				c0.3,0,0.5-0.2,0.5-0.5C73.1,60.3,72.9,60.1,72.6,60.1L72.6,60.1z"/>
			<path class="st0" d="M76.9,81.8c-0.5-3.6-1-7.2-1.6-10.8c-0.2-1.2-0.3-2.4-0.5-3.6c-0.2-1.2,0.2-2.2,0.5-3.4
				c0.2-0.6-0.8-0.9-1-0.3c-0.3,1.2-0.8,2.3-0.6,3.5c0.2,1.2,0.3,2.4,0.5,3.6c0.5,3.7,1.1,7.5,1.6,11.2C76.1,82.7,77,82.4,76.9,81.8
				L76.9,81.8z"/>
			<path class="st0" d="M68,63.1c0.3,1.3,0.8,2.6,0.6,3.9c-0.1,1.1-0.3,2.3-0.4,3.4c-0.5,3.7-0.9,7.4-1.4,11.1c-0.1,0.6,0.9,0.6,1,0
				c0.5-3.8,1-7.6,1.4-11.4c0.1-1.1,0.3-2.2,0.4-3.3c0.2-1.3-0.4-2.7-0.7-4C68.9,62.2,67.9,62.5,68,63.1L68,63.1z"/>
		</g>
		<path class="st0" d="M65.8,66.2c-2.4-2.4-4-5.4-5.7-8.2c0,0.2,0,0.3,0,0.5c0.7-1.3,1.5-2.5,2.6-3.5c-0.2,0-0.5,0-0.7,0
			c1.4,1.4,2.9,2.6,4.5,3.6c0.7,0.5,1.5,0.9,2.3,1.3c0.1,0.1,1,0.4,1,0.5c0,0-0.2,0.2-0.2,0.3c-1.4,1.9-3,3.6-4.5,5.4
			c-0.4,0.5,0.3,1.2,0.7,0.7c0.9-1.1,1.7-2.1,2.6-3.1c0.7-0.9,1.5-1.7,2.1-2.7c0.3-0.5,0.3-1.1-0.2-1.5c-0.4-0.2-0.8-0.4-1.2-0.6
			c-0.5-0.2-0.9-0.5-1.3-0.7c-1.9-1.1-3.6-2.4-5.1-4c-0.2-0.2-0.5-0.2-0.7,0c-0.9,0.9-1.7,1.9-2.4,3c-0.1,0.2-0.4,0.5-0.4,0.8
			c-0.1,0.3,0.1,0.5,0.3,0.8c0.3,0.6,0.7,1.1,1,1.7c1.4,2.3,2.8,4.5,4.6,6.4C65.6,67.4,66.3,66.7,65.8,66.2z"/>
		<path class="st0" d="M77.6,67c1.9-1.9,3.3-4.1,4.7-6.3c0.3-0.6,0.7-1.1,1-1.7c0.1-0.2,0.3-0.4,0.3-0.7c0-0.3-0.3-0.6-0.4-0.8
			c-0.6-1.1-1.4-2.2-2.4-3.1c-0.2-0.2-0.5-0.2-0.7,0c-1.5,1.5-3.2,2.8-5,3.9c-0.8,0.5-1.8,0.9-2.6,1.4c-0.6,0.3-0.6,0.9-0.3,1.5
			c0.6,0.9,1.4,1.8,2.1,2.6c0.9,1.1,1.8,2.1,2.6,3.2c0.4,0.5,1.1-0.2,0.7-0.7c-1.5-1.8-3.1-3.6-4.4-5.5c0,0-0.2-0.2-0.2-0.3
			c0-0.1,0.8-0.4,0.9-0.4c0.8-0.4,1.6-0.9,2.4-1.4c1.6-1,3.2-2.2,4.5-3.6c-0.2,0-0.5,0-0.7,0c1.1,1,1.9,2.2,2.6,3.5
			c0-0.2,0-0.3,0-0.5c-1.8,2.8-3.4,5.8-5.8,8.2C76.5,66.7,77.2,67.5,77.6,67z"/>
		<path class="st0" d="M58.8,57.8c0.8,2.9,1.5,5.8,2.3,8.6c1,3.5,2.3,6.9,3.6,10.3c2.1,5.6,4.5,11.1,7,16.5c0.3,0.6,1.1,0.1,0.9-0.5
			c-2.5-5.5-4.9-11-7-16.6c-1.3-3.3-2.5-6.7-3.5-10.1c-0.8-2.8-1.5-5.6-2.3-8.4C59.6,56.9,58.6,57.2,58.8,57.8L58.8,57.8z"/>
		<path class="st0" d="M82.8,57.5c-1.4,7.6-3.6,15-6.2,22.3c-1.3,3.8-2.7,7.5-4.2,11.2c-1.3,3.2-3,6.2-3.5,9.6
			c-0.1,0.6,0.9,0.9,1,0.3c0.5-3.4,2.1-6.3,3.4-9.4c1.5-3.7,2.9-7.5,4.2-11.4c2.5-7.3,4.8-14.7,6.2-22.3
			C83.9,57.2,82.9,56.9,82.8,57.5L82.8,57.5z"/>
		<g id="face_2_">
			<path class="st0" d="M71.1,36.3c0.2,0.9,0.4,1.9,0.6,2.8c0,0.1,0,0.2,0.1,0.3c0,0,0,0.1,0,0.1c0-0.1,0,0.1,0,0.1c0,0,0,0.1,0,0.1
				c0-0.1,0,0,0,0c0,0,0,0,0,0c0,0,0,0,0,0c-0.2,0.1-0.2,0.1-0.4,0.1c0,0-0.1,0-0.1,0c0.1,0-0.1,0-0.1,0c-0.1,0-0.1,0-0.2,0
				c-0.3,0-0.5,0.1-0.6,0.4c-0.1,0.2,0.1,0.6,0.4,0.6c0.4,0.1,0.8,0.1,1.3,0c0.3-0.1,0.5-0.3,0.7-0.6c0.1-0.2,0.1-0.4,0.1-0.6
				c-0.1-0.6-0.2-1.1-0.3-1.6c-0.1-0.6-0.2-1.2-0.4-1.7C71.9,35.4,71,35.6,71.1,36.3L71.1,36.3z"/>
			<g>
				<path class="st0" d="M61.6,32.6c-0.3,1-0.1,3.3,1.8,3.5c2.5,0,2.7-2.8,1.8-4.1C64.5,30.9,62.5,30.4,61.6,32.6z"/>
			</g>
			<g>
				<path class="st0" d="M81.7,32.7c0.3,1,0.1,3.3-1.8,3.5c-2.5,0-2.7-2.8-1.8-4.2C78.8,30.9,80.8,30.5,81.7,32.7z"/>
			</g>
			<path class="st0" d="M67.8,46.7c1,0.9,2.5,1.2,3.8,1.2c1.3,0,2.8-0.2,3.9-1.1c0.5-0.4-0.2-1.2-0.7-0.7c0,0-0.1,0.1-0.1,0.1
				c0.1,0,0,0,0,0c-0.1,0.1-0.2,0.1-0.2,0.2c-0.2,0.1-0.4,0.2-0.6,0.3c-0.7,0.2-1.4,0.3-2.2,0.3c-0.7,0-1.5-0.1-2.1-0.3
				c-0.2-0.1-0.4-0.2-0.6-0.3c-0.2-0.1-0.2-0.1-0.3-0.2C68,45.6,67.3,46.3,67.8,46.7L67.8,46.7z"/>
		</g>
	</g>
	<g id="pc_2_">
		<g>
			<path class="st3" d="M71.9,100.2c-12.3,0.1-24.6,0.2-29,0.2c-0.7,0-1.3,0.6-1.3,1.3c0,7.1,0.4,31.6,0.6,40.6
				c0,0.7,0.6,1.2,1.3,1.2c3.9-0.1,16.2,0,28.3,0c12.2,0,24.4-0.1,28.3,0c0.7,0,1.3-0.5,1.3-1.2c0.3-9,0.6-33.5,0.6-40.6
				c0-0.7-0.6-1.3-1.3-1.3C96.5,100.4,84.2,100.3,71.9,100.2z"/>
		</g>
		<path class="st0" d="M71.9,99.7c-8.8,0.1-17.5,0.1-26.3,0.2c-1,0-2.5-0.2-3.4,0.2c-1.1,0.5-1,1.7-1,2.8c0,2.5,0,4.9,0.1,7.4
			c0.1,6.6,0.2,13.2,0.3,19.8c0.1,3,0.1,5.9,0.2,8.9c0,1.1,0,2.3,0.1,3.4c0.2,1.4,1.2,1.7,2.4,1.7c7.9-0.1,15.9,0,23.8,0
			c9.2,0,18.5-0.1,27.7,0c1.3,0,2.7,0,4,0c1.2,0,2.2-0.5,2.3-1.8c0.2-2.5,0.1-5,0.2-7.5c0.1-6.7,0.2-13.3,0.3-20
			c0-2.9,0.1-5.7,0.1-8.6c0-1.1,0-2.2,0-3.3c0-1,0.1-2.2-1-2.7c-0.9-0.4-2.4-0.2-3.4-0.2c-1.7,0-3.4,0-5.1,0
			c-4.5,0-9.1-0.1-13.6-0.1C76.9,99.7,74.4,99.7,71.9,99.7c-0.7,0-0.7,1,0,1c8.3,0.1,16.6,0.1,24.9,0.2c1.2,0,2.6-0.2,3.7,0
			c1.5,0.3,1.1,1.8,1.1,2.9c0,2.4,0,4.8-0.1,7.1c-0.1,6.1-0.2,12.3-0.3,18.4c0,2.8-0.1,5.6-0.2,8.4c0,1.1,0,2.2-0.1,3.4
			c0,0.8-0.1,1.6-1,1.9c-0.4,0.1-1.1,0-1.5,0c-16.4-0.1-32.8,0-49.2,0c-1.4,0-2.8,0-4.1,0c-0.4,0-1,0.1-1.4,0
			c-1.1-0.2-1-1.1-1.1-1.9c-0.1-2.4-0.1-4.9-0.2-7.3c-0.1-6.2-0.2-12.3-0.3-18.5c0-2.8-0.1-5.6-0.1-8.4c0-1.1,0-2.1,0-3.2
			c0-1.2-0.4-2.5,1.2-2.8c1.1-0.2,2.5,0,3.6,0c1.7,0,3.3,0,5,0c4.3,0,8.5-0.1,12.8-0.1c2.4,0,4.7,0,7.1,0
			C72.5,100.7,72.5,99.7,71.9,99.7z"/>
		<g>
			<path class="st4" d="M47.6,139c4.7,0,14.5,0,24.3,0c9.8,0,19.6-0.1,24.3,0"/>
			<path class="st0" d="M47.6,139.6c16.2-0.1,32.4-0.1,48.6,0c0.7,0,0.7-1,0-1c-16.2-0.1-32.4-0.1-48.6,0
				C46.9,138.5,46.9,139.6,47.6,139.6L47.6,139.6z"/>
		</g>
		<path class="st0" d="M71.9,117.9c-0.9,0-1.8,0-2.7,0c-0.3,0-0.5,0.2-0.5,0.5c0,1.7,0,3.5,0,5.2c0,0.3,0.2,0.5,0.5,0.5
			c0.3,0,0.6,0,0.9,0c0.6,0,1.2,0,1.8,0c0.6,0,1.2,0,1.7,0c0.3,0,0.6,0,0.9,0c0.3,0,0.5-0.3,0.5-0.5c0-1.7,0-3.5,0-5.2
			c0-0.3-0.2-0.5-0.5-0.5C73.7,117.9,72.8,117.9,71.9,117.9c-0.7,0-0.7,1,0,1c0.9,0,1.8,0,2.7,0c-0.2-0.2-0.3-0.3-0.5-0.5
			c0,1.7,0,3.5,0,5.2c0.2-0.2,0.3-0.3,0.5-0.5c-0.3,0-0.6,0-0.9,0c-0.6,0-1.2,0-1.8,0c-0.6,0-1.2,0-1.7,0c-0.3,0-0.6,0-0.9,0
			c0.2,0.2,0.3,0.3,0.5,0.5c0-1.7,0-3.5,0-5.2c-0.2,0.2-0.3,0.3-0.5,0.5c0.9,0,1.8,0,2.7,0C72.5,118.9,72.5,117.8,71.9,117.9z"/>
	</g>
</g>
</svg>
