<?xml version="1.0" encoding="utf-8"?>
<!-- Generator: Adobe Illustrator 24.2.0, SVG Export Plug-In . SVG Version: 6.00 Build 0)  -->
<svg version="1.1" id="レイヤー_1" xmlns="http://www.w3.org/2000/svg" xmlns:xlink="http://www.w3.org/1999/xlink" x="0px"
	 y="0px" viewBox="0 0 144 144" style="enable-background:new 0 0 144 144;" xml:space="preserve">
<style type="text/css">
	.st0{fill:#A87452;}
	.st1{fill:#FFF6E9;}
	.st2{fill:#231815;}
	.st3{fill:#FFFFFF;}
	.st4{fill:none;stroke:#231815;stroke-width:0.2564;stroke-miterlimit:10;}
	.st5{fill:#7DCCF3;}
	.st6{fill:#B4B4B5;}
	.st7{fill:#595757;}
	.st8{fill:#9E9E9F;}
	.st9{fill:#8FAF58;}
	.st10{fill:#656464;}
	.st11{fill:#6E60A7;}
	.st12{fill:#D0A48F;}
	.st13{fill:#A499C9;}
	.st14{fill:#C8C9CA;}
</style>
<g>
	<g>
		<path class="st0" d="M39.9,24.1c-1.7,2.2-4.7,2-5.6-1.2c-0.9-3.2,2.4-4,2.4-4s2.7,0.2,2.5,0.3c-0.2,0.2,1.3,3.4,1.3,3.4L39.9,24.1
			z"/>
	</g>
	<g>
		<g>
			<path class="st1" d="M64.8,47.4c0.2,1.5,0.5,3.4,0.7,4.4c0.3,1.6,0.4,6.9,0.8,9.7c0.3,0.4-0.1,0.9,1.1,1.7c0.8,0.6,1.9,0.7,2,0.8
				c3.4,1.1,4.4,6.1,1.1,7.8c-0.7,0.3-1,0.5-1.6,0c-0.8-0.8-0.2-1.9-0.1-2.8c0.2-1.6-1.8-2.7-2.9-1.3c-0.5,0.7,0.1,2-1.4,1.3
				c-0.7-0.4-1-1.5-1-2.3c0-0.1-0.7-3.8-0.7-3.9l0,0.1c-0.5-2-3.1-9.5-3.5-11.6c-0.2-1-0.4-1.7-0.5-2.4"/>
		</g>
		<g>
			<path class="st1" d="M29.8,47.5c-0.2,1.4-0.5,3.3-0.6,4.3c-0.3,1.6-0.4,6.9-0.8,9.6c-0.3,0.4,0.1,0.9-1.1,1.7
				c-0.8,0.6-1.9,0.7-2,0.8c-3.4,1.1-4.4,6.1-1.1,7.8c0.7,0.3,1,0.5,1.6,0c0.8-0.8,0.2-1.9,0.1-2.8c-0.2-1.6,1.8-2.7,2.9-1.3
				c0.5,0.7-0.1,2,1.4,1.3c0.7-0.4,1-1.5,1-2.3c0-0.1,0.7-3.8,0.7-3.9l0,0.1c0.5-2,3.1-9.5,3.5-11.6c0.2-1,0.4-1.7,0.5-2.4"/>
		</g>
		<path class="st2" d="M35.2,48.6c-0.2,0.8-0.4,1.6-0.5,2.4c0,0.2,0,0.4,0.1,0.5c0.1,0.1,0.2,0.3,0.4,0.3c0.3,0.1,0.8-0.1,0.9-0.5
			c0.1-0.8,0.3-1.6,0.5-2.4c0.1-0.4-0.1-0.8-0.5-0.9C35.7,48,35.3,48.2,35.2,48.6L35.2,48.6z"/>
		<path class="st2" d="M34.7,51c-0.4,2-1.1,3.9-1.7,5.8c-0.6,1.9-1.3,3.8-1.8,5.8c-0.2,0.9,1.1,1.2,1.3,0.4c0.5-2,1.2-3.9,1.8-5.8
			c0.6-1.9,1.3-3.8,1.7-5.8C36.2,50.4,34.9,50.1,34.7,51L34.7,51z"/>
		<path class="st2" d="M29.1,47.3c-0.2,1.4-0.4,2.9-0.6,4.3c-0.1,0.4,0.1,0.8,0.5,0.9c0.3,0.1,0.8-0.1,0.9-0.5
			c0.2-1.4,0.4-2.9,0.6-4.3c0.1-0.4-0.1-0.8-0.5-0.9C29.6,46.8,29.2,46.9,29.1,47.3L29.1,47.3z"/>
		<path class="st2" d="M28.5,51.6c-0.3,1.5-0.3,3.1-0.4,4.6c-0.1,1.8-0.2,3.6-0.4,5.4c0,0.4,0.4,0.7,0.7,0.7c0.4,0,0.6-0.3,0.7-0.7
			c0.2-1.7,0.3-3.5,0.4-5.2c0.1-1.4,0.1-3.1,0.4-4.4C30,51.1,28.6,50.7,28.5,51.6L28.5,51.6z"/>
		<path class="st2" d="M27.8,61.1c-0.2,0.3-0.2,0.8-0.4,1.1c-0.4,0.6-1.3,0.9-1.9,1c-1.1,0.3-2.1,0.9-2.8,1.8
			c-1.5,1.9-1.7,4.9,0.2,6.6c0.5,0.4,1.1,0.8,1.7,1c0.8,0.3,1.6-0.1,2-0.8c0.5-0.7,0.4-1.5,0.2-2.2c-0.1-0.6-0.3-1.1,0.1-1.6
			c0.3-0.4,0.8-0.5,1.2-0.2c0.3,0.3,0.3,0.7,0.4,1.1c0.5,1.5,2.3,0.7,2.9-0.3c0.2-0.4,0.3-0.8,0.4-1.2c0-0.2,0.1-0.4,0.1-0.6
			c0-0.1,0-0.2,0-0.3c0,0.3,0,0.2,0,0.1c0.1-0.4,0.1-0.8,0.2-1.2c0.2-0.9,0.4-1.9,0.5-2.8c0.1-0.9-1.3-0.9-1.4,0c0-0.3,0,0,0,0.1
			c0,0.2-0.1,0.3-0.1,0.5c-0.1,0.5-0.2,0.9-0.2,1.4c-0.1,0.7-0.3,1.5-0.4,2.2c0,0.5-0.1,1.2-0.6,1.5c-0.1,0-0.4,0.1-0.4,0.1
			c0-0.1,0.3,0.2,0.3,0.2c0.1,0,0,0.1,0,0c0,0,0-0.1,0-0.1c0-0.1,0-0.2-0.1-0.3c-0.2-1.2-1.3-2-2.5-1.8c-1.2,0.2-2,1.4-1.9,2.6
			c0.1,0.6,0.4,1.3,0.3,1.9c-0.1,0.8-0.8,0.4-1.2,0.2c-1.9-1-1.8-3.5-0.6-5.1c0.3-0.5,0.8-0.8,1.3-1.1c0.5-0.3,1-0.3,1.5-0.5
			c0.8-0.3,1.6-0.7,2.1-1.4c0.2-0.2,0.3-0.5,0.3-0.7c0-0.1,0-0.2,0.1-0.3c0-0.1,0-0.1,0.1-0.2C29.5,61,28.3,60.4,27.8,61.1
			L27.8,61.1z"/>
		<path class="st2" d="M58.1,49c0.2,0.8,0.4,1.6,0.5,2.4c0,0.2,0.2,0.3,0.3,0.4c0.1,0.1,0.4,0.1,0.5,0.1c0.4-0.1,0.6-0.5,0.5-0.9
			c-0.1-0.8-0.3-1.6-0.5-2.4c-0.1-0.4-0.5-0.6-0.9-0.5C58.2,48.2,58,48.6,58.1,49L58.1,49z"/>
		<path class="st2" d="M58.6,51.3c0.4,2,1.1,3.9,1.7,5.8c0.6,1.9,1.3,3.8,1.8,5.8c0.2,0.9,1.6,0.5,1.3-0.4c-0.5-2-1.2-3.9-1.8-5.8
			c-0.6-1.9-1.3-3.8-1.7-5.8C59.8,50.1,58.4,50.4,58.6,51.3L58.6,51.3z"/>
		<path class="st2" d="M64.2,47.6c0.2,1.5,0.4,2.9,0.7,4.4c0.1,0.4,0.5,0.6,0.9,0.5c0.4-0.1,0.5-0.5,0.5-0.9
			c-0.2-1.5-0.4-2.9-0.7-4.4c-0.1-0.4-0.5-0.6-0.9-0.5C64.3,46.9,64.1,47.2,64.2,47.6L64.2,47.6z"/>
		<path class="st2" d="M64.8,52c0.2,1.3,0.3,3,0.4,4.4c0.1,1.7,0.2,3.5,0.4,5.2c0,0.4,0.3,0.7,0.7,0.7c0.3,0,0.7-0.3,0.7-0.7
			c-0.2-1.8-0.3-3.6-0.4-5.4c-0.1-1.5-0.1-3.1-0.4-4.6C66,50.7,64.7,51.1,64.8,52L64.8,52z"/>
		<path class="st2" d="M65.7,61.8C65.7,61.9,65.7,61.7,65.7,61.8c0.1,0.2,0.1,0.2,0.1,0.3c0.1,0.2,0.1,0.4,0.2,0.6
			c0.4,0.6,1,1.1,1.6,1.4c1,0.5,2,0.5,2.9,1.3c1.4,1.3,2,3.8,0.5,5.2c-0.2,0.2-0.4,0.3-0.6,0.4c-0.2,0.1-0.6,0.4-0.8,0.4
			c-0.7-0.1-0.4-1.1-0.3-1.4c0.2-0.6,0.3-1.3,0.1-1.9c-0.2-0.6-0.6-1.1-1.1-1.4c-1-0.6-2.5-0.3-3.1,0.8c-0.1,0.1-0.4,1.1-0.3,1.2
			c0,0,0.3-0.3,0.3-0.2c0,0-0.3-0.1-0.3-0.1c-0.2-0.1-0.4-0.4-0.5-0.6c-0.2-0.5-0.2-1-0.3-1.4C64.1,65.8,64,65.4,64,65
			c-0.1-0.5-0.2-1.1-0.3-1.6c0-0.2-0.1-0.4-0.1-0.6c0-0.1-0.1-0.4,0-0.2c-0.1-0.9-1.5-0.9-1.4,0c0.1,0.8,0.3,1.6,0.4,2.4
			c0.1,0.5,0.2,0.9,0.2,1.4c0,0.1,0,0.2,0.1,0.3c0-0.3,0,0.1,0,0.2c0,0.2,0.1,0.4,0.1,0.7c0.1,0.7,0.5,1.4,1.1,1.8
			c0.5,0.3,1.2,0.6,1.7,0.2c0.7-0.5,0.3-2.1,1.5-1.9c1.5,0.3,0.5,2.2,0.5,3.1c0,0.8,0.5,1.6,1.3,1.9c0.7,0.3,1.4-0.1,2.1-0.4
			c2.2-1.3,2.6-4.2,1.5-6.3c-0.6-1.2-1.7-2.2-3-2.6c-0.7-0.2-1.5-0.4-2-0.9c-0.4-0.4-0.3-0.9-0.6-1.3C66.4,60.4,65.2,61,65.7,61.8
			L65.7,61.8z"/>
		<g>
			<g>
				<path class="st3" d="M58.2,48.9c1.6-0.3,7-1.5,8.3-1.8c-0.2-1.3-1.7-6.3-2.1-7.5c-0.1-0.4-0.3-0.7-0.4-1.1
					c-0.2-0.3-0.3-0.5-0.3-0.5c-0.7-1.2-1.9-2.1-3.1-2.9c-2.3-1.5-4-2.5-6.5-3.5H40.4c-2.5,1-4.3,2-6.5,3.5
					c-1.2,0.8-2.4,1.7-3.1,2.9c0,0-0.1,0.2-0.3,0.5c-0.1,0.4-0.7,1.7-0.9,2.1c-0.5,1.6-1.6,4.8-1.8,6.5c1.3,0.3,6.9,1.6,8.4,1.8"/>
			</g>
			<g>
				<path class="st1" d="M37.5,14c-0.2-0.2-0.6-0.2-0.8-0.2c-0.4,0.1-0.7,0.3-0.8,0.6c-0.1,0.2-0.2,0.5-0.2,0.7
					c-0.1,1,0.1,2,0.5,2.9c0.2,0.4,0.5,0.9,0.8,1.2c0.4,0.3,0.9,0.5,1.4,0.5c0.4,2.8,1.9,5.8,4.6,7.2c0,0.8,0,1.6-0.2,2.4
					c-0.1,0.6-0.1,1.2-0.9,1.5c-0.1,0-2.6,1-2.7,1.1c3.9,2.8,11,3.4,15.7,0.2c0,0-2.8-1.2-2.9-1.2c-0.9-0.3-0.8-0.9-0.9-1.5
					c-0.1-0.7-0.2-1.5-0.2-2.2c2.2-0.7,4.3-3.2,4.9-7.4c0.5,0.1,1.1-0.1,1.5-0.5c0.4-0.3,0.6-0.7,0.8-1.2c0.4-0.9,0.6-1.9,0.5-2.9
					c0-0.3-0.1-0.5-0.2-0.7c-0.2-0.3-0.5-0.6-0.8-0.6c-0.2,0-0.3,0-0.5,0c-2.8-1.4-3.7-1.7-4.9-3.5c-0.8-1.2-1.2-2.6-1.7-4
					c-1.8,2.3-4,3.9-6.8,4.7c-0.7,0.2,0-1.9,0.1-2.9c-1.8,1.7-4.3,4.3-6.2,6C37.6,14.1,37.5,14,37.5,14z"/>
			</g>
			<path class="st2" d="M42.2,27.4c0,0.7-0.1,1.4-0.2,2.1c0,0.1,0,0.2-0.1,0.3c0,0,0,0.1,0,0.1c0,0.1,0,0,0,0c0,0,0,0.1,0,0.1
				c0,0.1,0.1-0.1,0,0c0,0,0,0-0.1,0.1c0,0,0.1-0.1,0,0c-0.1,0-0.1,0.1-0.2,0.1c0.1,0,0,0,0,0c-0.6,0.2-1.2,0.5-1.9,0.7
				c-0.3,0.1-0.6,0.2-0.8,0.3c-0.3,0.1-0.6,0.5-0.5,0.9c0.1,0.3,0.5,0.6,0.9,0.5c0.7-0.2,1.4-0.5,2-0.8c0.2-0.1,0.5-0.2,0.7-0.3
				c0.4-0.1,0.7-0.3,0.9-0.6c0.2-0.3,0.3-0.6,0.4-0.9c0.2-0.9,0.3-1.8,0.3-2.6c0-0.4-0.3-0.7-0.7-0.7C42.6,26.7,42.2,27,42.2,27.4
				L42.2,27.4z"/>
			<path class="st2" d="M50.1,27.4c0,0.8,0.1,1.7,0.3,2.5c0,0.3,0.1,0.6,0.3,0.8c0.2,0.4,0.6,0.6,1,0.7c0,0,0.1,0,0.1,0
				c0.1,0-0.1,0-0.1,0c0,0,0.1,0,0.1,0c0.2,0.1,0.3,0.1,0.5,0.2c0.4,0.2,0.8,0.4,1.3,0.5c0.3,0.1,0.6,0.3,0.9,0.4
				c0.3,0.1,0.7,0.1,1-0.2c0.2-0.3,0.1-0.8-0.2-1c-0.6-0.3-1.3-0.5-1.9-0.8c-0.4-0.2-0.7-0.3-1.1-0.5c0,0-0.1,0-0.1,0c0,0,0,0,0,0
				c-0.1,0,0,0,0,0c0,0-0.1-0.1-0.1-0.1c-0.1,0,0,0,0,0c0,0-0.1-0.1-0.1-0.1c0,0-0.1-0.1,0,0c0,0,0,0,0-0.1c0-0.1-0.1-0.2,0,0
				c0-0.1,0-0.1-0.1-0.2c-0.2-0.8-0.3-1.6-0.3-2.4c0-0.4-0.3-0.7-0.7-0.7C50.4,26.7,50.1,27,50.1,27.4L50.1,27.4z"/>
			<g>
				<path class="st0" d="M50.5,6.3c0.5,1.4,0.8,2.8,1.7,4c1,1.5,1.1,1.4,2.9,2.5c0.4,0.2,1,1.1,1.5,1.3c0.1-0.2,0.4-0.4,1.1-0.3
					c0.2-0.6,0.2-1.9,0.1-2.5c-0.2-2.7-1.3-5.8-3-7.4c-2.2-2.2-4-3.1-8.2-3.1c-3.4,0-6,1.6-7.3,3c-2.4,2.3-2.9,5.3-2.9,7.9
					c0,0.6,0.1,1.2,0.3,2.2c0.4-0.1,0.7-0.1,1.1,0.3c1.8-1.6,4.2-4.1,6.2-6c-0.1,1-0.7,3.1-0.1,2.9C46.5,10.2,48.7,8.6,50.5,6.3"/>
			</g>
			<path class="st2" d="M58.1,13.8c0.7-2.6-0.1-5.7-1.2-8.1c-1-2-2.8-3.8-4.9-4.7c-4.4-2-10.4-1-13.7,2.6c-2.1,2.2-3.1,5.3-2.8,8.4
				c0.1,0.9,1.5,0.9,1.4,0c-0.3-3,0.8-6,3.1-8c2.3-2,5.2-2.6,8.1-2.4c2.5,0.2,4.6,1.2,6.3,3c2,2.1,3.1,6.1,2.4,8.9
				C56.6,14.3,57.9,14.7,58.1,13.8L58.1,13.8z"/>
			<path class="st2" d="M49.8,6.5c0.5,1.5,0.9,3.1,1.9,4.4c0.4,0.5,0.8,1,1.3,1.4c0.5,0.4,1.1,0.8,1.7,1.1c0.8,0.4,1.5-0.8,0.7-1.2
				c-1-0.6-1.9-1.2-2.6-2.1c-0.8-1.2-1.2-2.6-1.7-4c-0.1-0.4-0.5-0.6-0.9-0.5C49.9,5.7,49.7,6.1,49.8,6.5L49.8,6.5z"/>
			<path class="st2" d="M50,5.8c-1.2,1.6-2.7,2.9-4.6,3.8c-0.4,0.2-0.9,0.4-1.3,0.5c-0.1,0-0.3,0.1-0.4,0.1
				c-0.4,0.1-0.3,0.2,0.4,0.4c0,0,0-0.3,0-0.4c0.1-0.7,0.3-1.4,0.4-2.2c0.1-0.6-0.8-0.9-1.2-0.5c-2,2-4.1,4.1-6.2,6
				c-0.7,0.6,0.3,1.6,1,1c2.1-2,4.1-4,6.2-6c-0.4-0.2-0.8-0.3-1.2-0.5C43,9,42.6,9.8,42.7,10.7c0,0.4,0.2,0.8,0.7,0.9
				c0.5,0.1,1.1-0.2,1.6-0.4c2.4-0.9,4.4-2.5,6-4.5C51.5,6.1,50.5,5.1,50,5.8L50,5.8z"/>
			<path class="st2" d="M44.7,22.7c0.6,0.6,1.5,0.7,2.3,0.7c0.8,0,1.7-0.1,2.3-0.7c0.4-0.4-0.2-1-0.6-0.6c0,0,0,0,0,0
				c-0.1,0.1,0.1,0,0,0c0,0-0.1,0.1-0.1,0.1c-0.1,0-0.1,0.1-0.2,0.1c0,0-0.1,0.1,0,0c0,0-0.1,0-0.1,0c-0.4,0.1-0.8,0.2-1.2,0.2
				c-0.4,0-0.8,0-1.2-0.2c-0.1,0-0.2-0.1-0.3-0.2c0,0-0.1-0.1-0.1-0.1c-0.1,0,0.1,0.1,0,0c0,0,0,0,0,0
				C44.9,21.7,44.3,22.3,44.7,22.7L44.7,22.7z"/>
			<path class="st2" d="M46.6,17.2c0.1,0.4,0.2,0.9,0.3,1.3c0,0.1,0,0.1,0,0.2c0,0,0,0.1,0,0c0-0.1,0,0,0,0c0,0,0,0,0,0
				c0,0.1,0-0.1,0,0c0,0,0,0,0,0c0,0,0-0.1,0.1-0.1c0,0,0.1,0,0,0c0.1,0,0,0,0,0c0,0-0.1,0-0.1,0c0,0,0.1,0,0,0c0,0,0,0-0.1,0
				c-0.1,0,0.1,0,0,0c0,0-0.1,0-0.1,0c-0.1,0-0.2,0-0.3,0c-0.1,0.1-0.2,0.2-0.2,0.3c0,0.2,0.1,0.5,0.3,0.5c0.2,0,0.5,0.1,0.7,0
				c0.2-0.1,0.4-0.2,0.5-0.4c0-0.1,0-0.2,0-0.4c0-0.3-0.1-0.6-0.2-0.8c-0.1-0.3-0.1-0.6-0.2-0.8c-0.1-0.2-0.3-0.4-0.5-0.3
				C46.6,16.7,46.5,17,46.6,17.2L46.6,17.2z"/>
			<path class="st2" d="M51,27.7c4.1-1.4,5.6-6.3,5.6-10.2c0-0.9-1.4-0.9-1.4,0c0,2.1-0.4,4.3-1.5,6.1c-0.7,1.2-1.8,2.3-3.1,2.8
				C49.7,26.7,50.1,28,51,27.7L51,27.7z"/>
			<path class="st2" d="M37.5,18.1c0.1,4.3,2.4,9.1,7.1,10c0.9,0.2,1.2-1.2,0.4-1.3c-4-0.8-5.9-4.9-6-8.7
				C38.8,17.2,37.5,17.2,37.5,18.1L37.5,18.1z"/>
			<g>
				<path class="st2" d="M42.2,15.4c-0.2,0.5-0.1,1.6,0.9,1.7c1.2,0,1.3-1.4,0.9-2C43.6,14.6,42.6,14.4,42.2,15.4z"/>
			</g>
			<g>
				<path class="st2" d="M51.7,15.4c0.2,0.5,0.1,1.6-0.9,1.7c-1.2,0-1.3-1.4-0.9-2C50.3,14.6,51.3,14.4,51.7,15.4z"/>
			</g>
			<path class="st2" d="M38.1,13.6c-0.8-0.7-1.9-0.7-2.6,0c-0.7,0.7-0.6,1.8-0.5,2.7c0.2,1.8,1.2,4.1,3.3,4.1c0.9,0,0.9-1.4,0-1.4
				c-1.2,0-1.7-1.5-1.9-2.5c-0.1-0.3-0.1-0.6-0.1-0.9c0-0.3,0-0.6,0.1-0.9c0.1-0.3,0.5-0.5,0.8-0.2c0.3,0.3,0.7,0.3,1,0
				C38.4,14.4,38.4,13.9,38.1,13.6L38.1,13.6z"/>
			<path class="st2" d="M57,14.6c0.3-0.2,0.6-0.1,0.7,0.2c0.1,0.3,0.1,0.6,0.1,0.8c0,0.3,0,0.6-0.1,0.9C57.5,17.5,57,19,55.8,19
				c-0.9,0-0.9,1.4,0,1.4c2.1,0,3.1-2.3,3.3-4.1c0.1-0.9,0.1-2-0.5-2.7c-0.7-0.8-1.9-0.7-2.6,0c-0.3,0.3-0.3,0.7,0,1
				C56.3,14.9,56.7,14.9,57,14.6L57,14.6z"/>
			<g>
				<g>
					<path class="st2" d="M36.6,14.3c0.7,0,0.7-1,0-1C36,13.3,36,14.3,36.6,14.3L36.6,14.3z"/>
				</g>
			</g>
			<path class="st4" d="M56.1,32.9"/>
			<path class="st2" d="M37,63c6.8,0,13.6,0,20.4,0c0.9,0,0.9-1.4,0-1.4c-6.8,0-13.6,0-20.4,0C36.2,61.6,36.2,63,37,63L37,63z"/>
			<path class="st2" d="M57.9,66.2c0.2,0.6,0.3,1.3,0.4,2c0-0.1,0-0.1,0-0.2c0,0.1,0,0.3,0,0.4c0,0.2,0.1,0.4,0.2,0.5
				c0.1,0.1,0.3,0.2,0.5,0.2c0.2,0,0.4-0.1,0.5-0.2c0.1-0.1,0.2-0.3,0.2-0.5c-0.1-0.9-0.2-1.7-0.5-2.6c-0.1-0.4-0.5-0.6-0.9-0.5
				C58,65.5,57.8,65.9,57.9,66.2L57.9,66.2z"/>
			<path class="st2" d="M35.3,65.9c-0.2,0.8-0.4,1.7-0.5,2.6c0,0.2,0.1,0.4,0.2,0.5c0.1,0.1,0.3,0.2,0.5,0.2c0.2,0,0.4-0.1,0.5-0.2
				c0.1-0.1,0.2-0.3,0.2-0.5c0-0.1,0-0.3,0-0.4c0,0.1,0,0.1,0,0.2c0.1-0.7,0.2-1.3,0.4-2c0.1-0.4-0.1-0.8-0.5-0.9
				C35.8,65.3,35.4,65.5,35.3,65.9L35.3,65.9z"/>
			<g>
				<path class="st3" d="M50.4,35.7c1.3-1.3,2.1-2.8,3.1-4.3c-0.3-0.7-0.8-1.3-1.4-1.9c-1.1,1.2-2.6,2.1-4,2.8
					c-0.1,0-0.2,0.1-0.2,0.2c0,0.1,0,0.2,0.1,0.3c0.1,0.1,0.4,0.5,0.8,1C49.3,34.4,50,35.2,50.4,35.7z"/>
				<path class="st2" d="M50.9,36.2c1-1,1.8-2.2,2.5-3.4c0.2-0.3,0.4-0.6,0.5-0.9c0.1-0.2,0.2-0.4,0.2-0.6c0-0.2-0.2-0.4-0.3-0.6
					c-0.4-0.6-0.8-1.2-1.3-1.7c-0.3-0.3-0.7-0.3-1,0c-0.7,0.7-1.4,1.2-2.2,1.7c-0.4,0.3-0.8,0.5-1.2,0.7c-0.4,0.2-0.9,0.4-1,0.9
					c-0.1,0.4,0.1,0.7,0.3,0.9c0.3,0.3,0.5,0.7,0.8,1c0.5,0.6,1.1,1.3,1.6,1.9C50.2,36.4,50.7,36.4,50.9,36.2c0.3-0.3,0.2-0.7,0-1
					c-0.4-0.5-0.9-1.1-1.4-1.6c-0.2-0.3-0.5-0.6-0.7-0.9c0-0.1-0.1-0.1-0.1-0.2c0.1,0.1,0,0,0-0.1c0-0.1-0.1-0.2-0.1-0.1
					c0,0.1-0.1,0.2-0.1,0.4c-0.1,0.1-0.2,0.1,0,0.1c0,0,0.1,0,0.1,0c0.1,0,0.2-0.1,0.3-0.1c0.2-0.1,0.4-0.2,0.6-0.3
					c0.4-0.2,0.7-0.4,1.1-0.7c0.7-0.5,1.4-1.1,2.1-1.7c-0.3,0-0.7,0-1,0c0.5,0.5,0.9,1.1,1.3,1.7c0-0.2,0-0.5,0-0.7
					c-0.9,1.5-1.7,3-3,4.2C49.3,35.8,50.3,36.8,50.9,36.2z"/>
			</g>
			<g>
				<path class="st3" d="M44,35.7c-1.3-1.3-2.1-2.8-3.1-4.3c0.3-0.7,0.8-1.3,1.4-1.9c1.1,1.2,2.6,2.1,3.9,2.8c0.1,0,0.2,0.1,0.3,0.2
					c0,0.1-0.1,0.3-0.1,0.3c-0.1,0.2-0.3,0.4-0.7,1C45.1,34.4,44.4,35.2,44,35.7z"/>
				<path class="st2" d="M44.5,35.2c-1.2-1.2-2.1-2.7-3-4.2c0,0.2,0,0.5,0,0.7c0.3-0.6,0.7-1.2,1.3-1.7c-0.3,0-0.7,0-1,0
					c0.6,0.6,1.4,1.2,2.1,1.7c0.4,0.2,0.7,0.5,1.1,0.7c0.2,0.1,0.4,0.2,0.5,0.3c0.1,0,0.2,0.1,0.3,0.1c0,0,0.1,0,0.1,0
					c0.1,0.1,0.1,0-0.1-0.1c0-0.1-0.1-0.2-0.1-0.4c0-0.1,0.1-0.1,0-0.1c0,0,0,0.1-0.1,0.1c0,0-0.1,0.1-0.1,0.1
					c-0.1,0.1,0.1-0.1,0,0.1c-0.2,0.3-0.5,0.6-0.7,0.9c-0.5,0.6-0.9,1.1-1.4,1.7c-0.2,0.3-0.3,0.7,0,1c0.2,0.2,0.7,0.3,1,0
					c0.5-0.7,1.1-1.3,1.6-2c0.2-0.3,0.5-0.6,0.7-0.9c0.2-0.2,0.3-0.5,0.3-0.9c0-0.6-0.5-0.8-1-1c-0.4-0.2-0.8-0.4-1.2-0.7
					c-0.8-0.5-1.6-1.1-2.2-1.8c-0.3-0.3-0.7-0.3-1,0c-0.5,0.5-0.9,1-1.3,1.7c-0.1,0.2-0.2,0.3-0.3,0.5c-0.1,0.3,0,0.5,0.2,0.7
					c0.2,0.3,0.4,0.6,0.5,0.9c0.7,1.2,1.5,2.4,2.5,3.4C44.2,36.8,45.2,35.8,44.5,35.2z"/>
			</g>
			<path class="st2" d="M46.6,32.6c0,1.3-0.1,2.6,0,3.9c0,0.4,0.3,0.7,0.7,0.7c0.4,0,0.7-0.3,0.7-0.7c-0.1-1.3,0-2.6,0-3.9
				c0-0.4-0.3-0.7-0.7-0.7C46.9,32,46.6,32.3,46.6,32.6L46.6,32.6z"/>
			<path class="st2" d="M59.8,69.9c-2.4,0-4.8,0-7.2,0.2c-0.4,0-0.8,0.1-1,0.5c-0.2,0.3-0.2,0.8-0.2,1.1c0,0.8,0,1.7,0,2.5
				c0,0.8,0.1,1.6,0.4,2.4c0.3,0.8,0.9,1.2,1.7,1.5c2.3,0.7,5.1,0.4,7.2-0.9c0.8-0.5,0.1-1.7-0.7-1.2c-1.5,1-3.6,1.3-5.3,1
				c-0.4-0.1-0.8-0.2-1.2-0.3c-0.2-0.1-0.2-0.1-0.3-0.2c0.1,0.2-0.1-0.2-0.1-0.1c-0.2-0.6-0.3-1.3-0.3-1.9c0-0.8-0.1-1.5,0-2.3
				c0-0.1,0-0.3,0-0.4c0-0.1,0-0.3,0-0.4c-0.1-0.2-0.2,0.3-0.3,0.2c0,0,0,0,0,0c0,0,0.2,0,0.2,0c1.1,0,2.2-0.1,3.3-0.1
				c1.2,0,2.5-0.1,3.7-0.1C60.7,71.2,60.7,69.8,59.8,69.9L59.8,69.9z"/>
			<path class="st2" d="M36.4,48.2c-2.8-0.5-5.6-1.2-8.4-1.8c0.2,0.2,0.3,0.4,0.5,0.7c0.2-1.6,0.8-3.2,1.2-4.7
				c0.4-1.2,0.7-2.5,1.3-3.6C32,37,33.7,36,35.3,35c1.7-1.1,3.5-2,5.4-2.8c0.8-0.3,0.5-1.7-0.4-1.3c-2,0.8-3.9,1.8-5.7,2.9
				c-1.7,1.1-3.5,2.2-4.5,4c-0.7,1.2-1.1,2.7-1.6,4c-0.5,1.7-1.1,3.4-1.3,5.2c0,0.3,0.2,0.6,0.5,0.7c2.8,0.6,5.6,1.3,8.4,1.8
				C37,49.7,37.3,48.4,36.4,48.2L36.4,48.2z"/>
			<path class="st2" d="M58.3,49.5c2.8-0.5,5.5-1.2,8.3-1.8c0.4-0.1,0.5-0.5,0.5-0.9c-0.2-1.4-0.7-2.7-1.1-4.1
				c-0.4-1.4-0.7-2.9-1.3-4.2c-0.8-2-2.6-3.3-4.4-4.4c-2-1.3-4-2.4-6.2-3.2c-0.8-0.3-1.2,1-0.4,1.3c2,0.8,3.9,1.8,5.7,3
				c1.8,1.2,3.5,2.4,4.2,4.6c0.8,2.4,1.6,4.9,2,7.4c0.2-0.3,0.3-0.6,0.5-0.9c-2.8,0.6-5.5,1.4-8.3,1.8
				C57.1,48.4,57.5,49.7,58.3,49.5L58.3,49.5z"/>
			<g>
				<path class="st5" d="M39.9,38.6c0.8,0.2,13.1,0.1,14.7-0.2c0.2-1.1,0.5-5.7,0.7-6.8c1.1,0.3,2.6,1.1,3.4,1.9
					c0.1,1.2-0.2,7-0.2,7.9c0,2.9-0.7,9.1-0.4,12.4c0.3,3.2,4.1,35.2,3.6,45c0,0.2-0.1,0.3-0.3,0.3c-2.4,0.4-10.4,0.6-13.6,0.6
					c0,0-11.9-0.2-13.6-0.6c-0.2,0-0.3-0.1-0.3-0.3c-0.5-12.7,2.6-41.4,2.8-45c-0.1-3.4-1-9.3-1-12.2c0-0.9-0.3-6.9-0.1-8.1
					c0.7-0.6,2.8-1.9,3.5-2C39.2,32.2,39.6,37.3,39.9,38.6z"/>
				<path class="st2" d="M39.7,39.3c2.2,0.5,5,0.2,7.2,0.1c2.6,0,5.3,0.1,7.8-0.3c0.2,0,0.5-0.3,0.5-0.5c0.3-2.2,0.2-4.6,0.7-6.8
					c-0.3,0.2-0.6,0.3-0.9,0.5c0.6,0.2,1.1,0.4,1.7,0.7c0.2,0.1,1.2,0.5,1.3,0.7c0.2,0.3,0,1.3,0,1.6c0,1.5-0.1,3-0.2,4.5
					c-0.1,2.9-0.3,5.8-0.5,8.7c-0.2,4,0.2,7.9,0.6,11.9c1.2,11.4,2.6,23,2.9,34.5c0,1.1,0,2.1,0,3.2c0,0.7,0.1,0.4-0.4,0.6
					c-0.7,0.2-1.7,0.2-2.4,0.2c-3.2,0.2-6.4,0.3-9.6,0.3c-4.2,0-8.4-0.1-12.6-0.4c-0.3,0-1,0.1-1.4-0.1c-0.3-0.2-0.2-0.3-0.2-0.9
					c0-1.4,0-2.8,0-4.2c0.1-3.2,0.2-6.3,0.4-9.5c0.4-6.5,0.9-13,1.5-19.5c0.2-2.6,0.5-5.3,0.7-7.9c0.2-2.3,0.1-4.4-0.1-6.7
					c-0.3-3.4-0.6-6.8-0.7-10.3c-0.1-1.6-0.1-3.2-0.1-4.8c0-0.2,0-0.5,0-0.7c0.1-0.6,0-0.2,0.5-0.6c0.8-0.5,1.6-1.1,2.5-1.3
					c-0.3-0.2-0.6-0.3-0.9-0.5c0.5,2.3,0.4,4.7,0.8,7.1c0.1,0.9,1.5,0.5,1.3-0.4c-0.4-2.3-0.3-4.8-0.8-7.1c-0.1-0.4-0.5-0.6-0.9-0.5
					c-1.2,0.4-2.9,1.2-3.7,2.1c-0.6,0.7-0.4,2.1-0.4,3c0.1,2.8,0.1,5.7,0.3,8.5c0.3,3.3,1,6.7,0.8,10c-0.1,1.9-0.3,3.7-0.5,5.6
					c-0.6,6.7-1.2,13.3-1.7,20c-0.2,3.6-0.5,7.1-0.6,10.7c-0.1,1.6-0.1,3.2-0.1,4.7c0,1-0.3,2.8,0.2,3.8c0.7,1.4,4.4,0.9,5.6,1
					c2.6,0.1,5.3,0.2,7.9,0.2c2.4,0.1,4.9,0,7.3-0.1c1.7-0.1,3.5-0.1,5.2-0.3c0.8-0.1,2.3,0.1,2.8-0.8c0.4-0.7,0.2-2,0.2-2.8
					c0-1.2,0-2.5-0.1-3.7c-0.1-3.1-0.3-6.1-0.6-9.2c-0.5-6.5-1.2-13.1-1.9-19.6c-0.4-4-1.1-8-1.2-12c0-3.6,0.4-7.2,0.5-10.8
					c0-1.3,0.1-2.7,0.2-4c0-1.1,0.4-2.7,0-3.8c-0.4-1.3-2.7-2.1-3.9-2.5c-0.3-0.1-0.8,0.1-0.9,0.5c-0.5,2.2-0.4,4.5-0.7,6.8
					c0.2-0.2,0.3-0.3,0.5-0.5c-2.4,0.4-5,0.2-7.5,0.2c-2.1,0-4.8,0.4-6.9-0.1C39.2,37.8,38.8,39.1,39.7,39.3z"/>
			</g>
		</g>
	</g>
	<g>
		<g>
			<path class="st3" d="M25.6,70.5c0-0.2,0-0.4,0-0.6c0.8,0,1.8,0,2.7,0c0,3.5-0.1,9.5-0.1,14.2l-0.1,4c0,2.9,0.1,10.7,0.1,13.9
				c0,2.9,0,13.3,0,15.4c0,1.4,0,10.3,0,14.6c-0.6,0-1.5,0-2.6,0c0-0.2,0-0.4,0-0.4c0-3.3,0-12.7,0-14.2c0-2.1,0-12.6,0-15.4
				c0-3.2-0.1-11-0.1-13.9c0,0,0-2.1,0-7C25.6,76.5,25.6,73.2,25.6,70.5z"/>
		</g>
		<g>
			<path class="st3" d="M69,70.5c0-0.2,0-0.4,0-0.6c-0.8,0-1.8,0-2.7,0c0,3.5,0.1,9.5,0.1,14.2l0.1,4c0,2.9-0.1,10.7-0.1,13.9
				c0,2.9,0,13.3,0,15.4c0,1.4,0,10.3,0,14.6c0.6,0,1.5,0,2.6,0c0-0.2,0-0.4,0-0.4c0-3.3,0-12.7,0-14.2c0-2.1,0-12.6,0-15.4
				c0-3.2,0.1-11,0.1-13.9c0,0,0-2.1,0-7C69,76.5,69,73.2,69,70.5z"/>
		</g>
		<g>
			<path class="st6" d="M63.9,72c-7.8,0-31.8,0-35.8,0c0,5.9-0.1,9.6,0,13.7l-0.1,4.4c0,3.2,0.1,11.8,0.1,15.3c0,0.3,0,0.6,0,0.9
				c12.8-0.1,25.1-0.1,37.9-0.2c0-0.2,0-0.4,0-0.6c0-3.6,0.1-12.1,0.1-15.3l0-4.4c0-4.1-0.1-7.8-0.1-13.7C65.5,72,64.8,72,63.9,72z"
				/>
		</g>
		<g>
			<path class="st3" d="M29,106.4c8.4,0,31.3-0.2,37.2-0.2c0,1,0,2.4,0,4c-4.9,0-13.1,0.2-18.4,0.2c-3.8,0-14.7,0.2-19.5,0.2
				c0-1.7,0-3.2,0-4.2C28.5,106.4,28.7,106.4,29,106.4z"/>
		</g>
		<g>
			<path class="st6" d="M65.6,118.5c-4.3,0-15.3,0-18.1,0c-5.4,0-11.9,0-19.2,0c0,0.3,0,0.6,0,0.8c0,0.9,0,4.3,0,7.7
				c4.6,0,14-0.2,18.8-0.2c2.9,0,15.4-0.1,19.1-0.1c0-3.3,0-6.5,0-7.4c0-0.2,0-0.4,0-0.8C66,118.5,65.8,118.5,65.6,118.5z"/>
		</g>
		<path class="st2" d="M24.8,91.5c0,13.2,0.1,26.4,0.1,39.6c0,0.9,1.4,0.9,1.4,0c0-13.2-0.1-26.4-0.1-39.6
			C26.2,90.6,24.8,90.6,24.8,91.5L24.8,91.5z"/>
		<path class="st2" d="M28.3,72.9c10.7,0,21.4,0,32.1,0c1.9,0,3.9,0,5.8,0c0.9,0,0.9-1.4,0-1.4c-10.6,0-21.1,0-31.7,0
			c-2.1,0-4.1,0-6.2,0C27.4,71.5,27.4,72.9,28.3,72.9L28.3,72.9z"/>
		<path class="st2" d="M27.6,69.7c0,6.1-0.1,12.3-0.1,18.4c0,0.9,1.4,0.9,1.4,0C28.9,82,29,75.8,29,69.7
			C29,68.8,27.6,68.8,27.6,69.7L27.6,69.7z"/>
		<path class="st2" d="M24.9,69.5c0,6.1-0.1,12.1-0.1,18.2c0,0.9,1.4,0.9,1.4,0c0.1-6.1,0.2-12.1,0.1-18.2
			C26.3,68.6,24.9,68.6,24.9,69.5L24.9,69.5z"/>
		<path class="st2" d="M68.2,91.5c0,13.2-0.1,26.4-0.1,39.6c0,0.9,1.4,0.9,1.4,0c0-13.2,0.1-26.4,0.1-39.6
			C69.6,90.6,68.2,90.6,68.2,91.5L68.2,91.5z"/>
		<path class="st2" d="M28.3,107.1c12.6-0.1,25.2-0.1,37.7-0.2c0.9,0,0.9-1.4,0-1.4c-12.6,0.1-25.2,0.1-37.7,0.2
			C27.4,105.7,27.4,107.1,28.3,107.1L28.3,107.1z"/>
		<path class="st2" d="M28.3,111.3c12.6-0.1,25.2-0.2,37.8-0.4c0.9,0,0.9-1.4,0-1.4c-12.6,0.2-25.2,0.2-37.8,0.4
			C27.4,109.9,27.4,111.3,28.3,111.3L28.3,111.3z"/>
		<path class="st2" d="M59.7,119.2c2.1,0,4.3,0,6.4-0.1c0.9,0,0.9-1.4,0-1.4c-2.1,0-4.3,0-6.4,0.1C58.8,117.8,58.8,119.2,59.7,119.2
			L59.7,119.2z"/>
		<path class="st2" d="M28.3,119.2c2.2,0,4.4,0,6.7,0c0.9,0,0.9-1.4,0-1.4c-2.2,0-4.4,0-6.7,0C27.4,117.8,27.4,119.2,28.3,119.2
			L28.3,119.2z"/>
		<path class="st2" d="M28.3,127.6c12.6,0,25.2-0.1,37.7-0.1c0.9,0,0.9-1.4,0-1.4c-12.6,0-25.2,0.1-37.7,0.1
			C27.5,126.2,27.5,127.6,28.3,127.6L28.3,127.6z"/>
		<path class="st2" d="M27.5,88.1c0,14.3,0.1,28.7,0.1,43c0,0.9,1.4,0.9,1.4,0c0-14.3-0.1-28.7-0.1-43
			C28.9,87.2,27.5,87.2,27.5,88.1L27.5,88.1z"/>
		<path class="st2" d="M65.6,88.1c0,14.3-0.1,28.7-0.1,43c0,0.9,1.4,0.9,1.4,0c0-14.3,0.1-28.7,0.1-43C67,87.2,65.6,87.2,65.6,88.1
			L65.6,88.1z"/>
		<path class="st2" d="M65.4,69.6c0,6.2,0.2,12.3,0.1,18.5c0,0.9,1.4,0.9,1.4,0c0.1-6.2-0.1-12.3-0.1-18.5
			C66.8,68.7,65.4,68.7,65.4,69.6L65.4,69.6z"/>
		<path class="st2" d="M68.2,69.6c0,6,0.1,12,0.1,18.1c0,0.9,1.4,0.9,1.4,0c-0.1-6-0.2-12-0.1-18.1C69.6,68.7,68.2,68.7,68.2,69.6
			L68.2,69.6z"/>
		<g>
			<path class="st7" d="M29.8,91.4c-1.5,0-4.9,0.1-6.7,0c-0.4,0-0.6-0.3-0.6-0.7c0-0.4,0-0.8,0-1.1c0-1.1,0.9-1.9,2-1.9
				c1.8,0,3.9,0,5.4,0c0.4,0,0.7,0.3,0.7,0.7v2.4C30.4,91.1,30.1,91.4,29.8,91.4z"/>
			<path class="st2" d="M29.8,90.7c-1.3,0-2.6,0-4,0c-0.7,0-1.4,0-2.1,0c-0.1,0-0.3,0-0.4,0c-0.1,0-0.2,0-0.2,0c0,0,0.1,0,0,0
				c0.1,0.1,0-0.2,0-0.2c0-0.3,0-0.5,0-0.8c0-0.5,0.3-1,0.8-1.2c0.3-0.1,0.7-0.1,1-0.1c0.5,0,0.9,0,1.4,0c0.8,0,1.6,0,2.5,0
				c0.2,0,0.4,0,0.6,0c0.1,0,0.4,0,0.3,0c0,0,0-0.1,0,0c0,0,0,0.1,0,0.1c0,0.5,0,1,0,1.5c0,0.2,0,0.4,0,0.6
				C29.7,90.6,29.7,90.7,29.8,90.7C29.7,90.8,29.7,90.7,29.8,90.7c-0.4,0-0.7,0.3-0.7,0.7c0,0.4,0.3,0.7,0.7,0.7
				c0.9-0.1,1.3-0.7,1.3-1.5c0-0.5,0-1.1,0-1.6c0-0.6,0-1.1-0.5-1.6C30.3,87,29.8,87,29.3,87c-0.5,0-1,0-1.5,0c-1.1,0-2.2,0-3.4,0
				c-0.9,0-1.8,0.5-2.3,1.3c-0.2,0.4-0.4,0.8-0.4,1.2c0,0.5-0.1,1.2,0,1.6c0.3,1,1.4,1,2.3,1c1.9,0,3.8,0,5.7,0
				C30.7,92.1,30.7,90.7,29.8,90.7z"/>
		</g>
		<g>
			<path class="st7" d="M64.7,91.4c1.5,0,4.9,0.1,6.7,0c0.4,0,0.6-0.3,0.6-0.7c0-0.3,0-0.6,0-0.9c0-1.2-1-2.2-2.2-2.2
				c-1.7,0-3.7,0-5.1,0c-0.4,0-0.7,0.3-0.7,0.7v2.4C64,91.1,64.3,91.4,64.7,91.4z"/>
			<path class="st2" d="M64.7,92.1c1.7,0,3.4,0,5.1,0c0.4,0,0.8,0,1.2,0c0.5,0,1,0,1.3-0.3c0.4-0.4,0.5-0.8,0.5-1.3
				c0-0.5,0-1-0.2-1.5c-0.3-0.9-1-1.5-1.8-1.8C70.3,87,69.8,87,69.4,87c-0.6,0-1.2,0-1.7,0c-0.5,0-1,0-1.6,0c-0.5,0-1.1-0.1-1.6,0
				c-0.8,0.1-1.1,0.8-1.1,1.6c0,0.6,0,1.2,0,1.8c0,0.2,0,0.4,0,0.6C63.5,91.7,64.1,92,64.7,92.1c0.4,0,0.7-0.3,0.7-0.7
				c0-0.4-0.3-0.7-0.7-0.7c0.1,0,0,0.1,0.1,0c0-0.2,0-0.4,0-0.5c0-0.4,0-0.9,0-1.3c0-0.1,0-0.3,0-0.4c0,0,0-0.1,0,0c0,0,0,0.1,0,0
				c0.1,0,0.3,0,0.4,0c0.8,0,1.6,0,2.4,0c0.4,0,0.9,0,1.3,0c0.4,0,0.8,0,1.2,0c0.5,0.1,1,0.4,1.2,0.9c0.1,0.3,0.1,0.7,0.1,1
				c0,0.1,0,0.2,0,0.3c0-0.2,0,0.3,0,0.1c0,0,0,0,0.1,0c-0.1,0-0.2,0-0.2,0c-0.7,0-1.3,0-2,0c-1.5,0-3,0-4.5,0
				C63.8,90.7,63.8,92.1,64.7,92.1z"/>
		</g>
		<g>
			<path class="st7" d="M68.2,67c1,0.2,1.2,0.9,1.2,1.4c0,0.9-0.3,1.5-1.4,1.5c-0.7,0-0.3,0-1.1,0c-0.6,0-1.2-0.5-1.2-1.4
				c0-1.1,0.7-1.4,1.1-1.4C67.6,67,68,67,68.2,67z"/>
			<path class="st2" d="M68,67.7c0.1,0,0.2,0.1,0.3,0.1c0.2,0-0.1-0.1,0,0c0,0,0.1,0,0.1,0.1c0,0,0,0,0,0c0.1,0,0,0,0,0
				c0,0,0.1,0.1,0.1,0.1c0.1,0.1,0.1,0.1,0,0c0,0,0.1,0.1,0.1,0.1c0,0,0,0.1,0,0.1c0.1,0.1,0-0.2,0,0c0,0.1,0,0.1,0.1,0.2
				c0,0.1,0,0.1,0-0.1c0,0,0,0.1,0,0.1c0,0.1,0,0.2,0,0.2c0,0,0,0.1,0,0.1c0,0.1-0.1,0.1,0,0c0,0.1,0,0.2-0.1,0.2c0,0,0,0.1,0,0.1
				c0-0.2,0-0.1,0,0c0,0,0,0.1-0.1,0.1c0,0.1,0.1-0.1,0,0c0,0,0,0-0.1,0c-0.1,0.1,0.1-0.1,0,0c0,0-0.1,0-0.1,0.1c-0.1,0.1,0.2,0,0,0
				c-0.1,0-0.2,0-0.2,0.1c-0.2,0,0.2,0,0,0c-0.1,0-0.1,0-0.2,0c-0.2,0-0.5,0-0.7,0c-0.1,0-0.2,0-0.2,0c-0.1,0-0.1,0-0.2,0
				c-0.1,0-0.1,0,0,0c-0.1,0-0.2-0.1-0.2-0.1c0.1,0,0.1,0,0,0c0,0,0,0-0.1,0c-0.1,0,0,0,0,0c0,0-0.1-0.1-0.1-0.1c0,0,0,0,0.1,0.1
				c0,0,0,0,0-0.1c0,0-0.1-0.1-0.1-0.1c0,0,0,0.1,0,0.1c0,0,0-0.1,0-0.1c0,0,0-0.1,0-0.1c0,0-0.1-0.2,0,0c0-0.1,0-0.2,0-0.2
				c0-0.1,0-0.1,0-0.2c0-0.1,0-0.1,0,0c0-0.1,0-0.2,0.1-0.3c0-0.1-0.1,0.1,0,0c0,0,0-0.1,0.1-0.1c0-0.1,0.1-0.1,0,0
				c0,0,0.1-0.1,0.1-0.1c0,0,0.1-0.1,0.1-0.1c0,0-0.1,0.1,0,0c0,0,0.1,0,0.1,0c0.1-0.1-0.1,0,0,0c0,0,0.1,0,0.1,0c0,0,0,0,0,0
				c0.1,0,0,0-0.1,0c0,0,0.3,0,0.3,0c0.2,0,0.4,0,0.7,0C67.8,67.7,67.9,67.7,68,67.7C68,67.7,68,67.7,68,67.7
				C68.2,67.7,67.9,67.7,68,67.7c0.4,0.1,0.8-0.1,0.9-0.5c0.1-0.3-0.1-0.8-0.5-0.9c-0.4-0.1-0.8,0-1.3,0c-0.5,0-0.9,0.1-1.3,0.4
				c-0.4,0.3-0.7,0.8-0.8,1.4c-0.1,0.6,0,1.2,0.4,1.7c0.4,0.5,0.9,0.8,1.5,0.8c0.3,0,0.6,0,0.9,0c0.6,0,1.1-0.1,1.6-0.4
				c0.4-0.3,0.6-0.7,0.7-1.2c0.1-0.5,0.1-1.1-0.2-1.6c-0.3-0.6-0.9-0.9-1.5-1c-0.4-0.1-0.8,0.1-0.9,0.5C67.4,67.2,67.6,67.6,68,67.7
				z"/>
		</g>
		<g>
			<path class="st7" d="M27.7,67c1,0.2,1.2,0.9,1.2,1.4c0,0.9-0.3,1.5-1.4,1.5c-0.7,0-0.3,0-1.1,0c-0.6,0-1.2-0.5-1.2-1.4
				c0-1.1,0.7-1.4,1.1-1.4C27.2,67,27.6,67,27.7,67z"/>
			<path class="st2" d="M27.5,67.7c0.1,0,0.2,0.1,0.3,0.1c0.2,0-0.1-0.1,0,0c0,0,0.1,0,0.1,0.1c0,0,0,0,0,0c0.1,0,0,0,0,0
				c0,0,0.1,0.1,0.1,0.1c0.1,0.1,0.1,0.1,0,0c0,0,0.1,0.1,0.1,0.1c0,0,0,0.1,0,0.1c0.1,0.1,0-0.2,0,0c0,0.1,0,0.1,0.1,0.2
				c0,0.1,0,0.1,0-0.1c0,0,0,0.1,0,0.1c0,0.1,0,0.2,0,0.2c0,0,0,0.1,0,0.1c0,0.1-0.1,0.1,0,0c0,0.1,0,0.2-0.1,0.2c0,0,0,0.1,0,0.1
				c0-0.2,0-0.1,0,0c0,0,0,0.1-0.1,0.1c0,0.1,0.1-0.1,0,0c0,0,0,0-0.1,0c-0.1,0.1,0.1-0.1,0,0c0,0-0.1,0-0.1,0.1c-0.1,0.1,0.2,0,0,0
				c-0.1,0-0.2,0-0.2,0.1c-0.2,0,0.2,0,0,0c-0.1,0-0.1,0-0.2,0c-0.2,0-0.5,0-0.7,0c-0.1,0-0.2,0-0.2,0c-0.1,0-0.1,0-0.2,0
				c-0.1,0-0.1,0,0,0c-0.1,0-0.2-0.1-0.2-0.1c0.1,0,0.1,0,0,0c0,0,0,0-0.1,0c-0.1,0,0,0,0,0c0,0-0.1-0.1-0.1-0.1c0,0,0,0,0.1,0.1
				c0,0,0,0,0-0.1c0,0-0.1-0.1-0.1-0.1c0,0,0,0.1,0,0.1c0,0,0-0.1,0-0.1c0,0,0-0.1,0-0.1c0,0-0.1-0.2,0,0c0-0.1,0-0.2,0-0.2
				c0-0.1,0-0.1,0-0.2c0-0.1,0-0.1,0,0c0-0.1,0-0.2,0.1-0.3c0-0.1-0.1,0.1,0,0c0,0,0-0.1,0.1-0.1c0-0.1,0.1-0.1,0,0
				c0,0,0.1-0.1,0.1-0.1c0,0,0.1-0.1,0.1-0.1c0,0-0.1,0.1,0,0c0,0,0.1,0,0.1,0c0.1-0.1-0.1,0,0,0c0,0,0.1,0,0.1,0c0,0,0,0,0,0
				c0.1,0,0,0-0.1,0c0,0,0.3,0,0.3,0c0.2,0,0.4,0,0.7,0C27.4,67.7,27.5,67.7,27.5,67.7C27.6,67.7,27.6,67.7,27.5,67.7
				C27.8,67.7,27.5,67.7,27.5,67.7c0.4,0.1,0.8-0.1,0.9-0.5c0.1-0.3-0.1-0.8-0.5-0.9c-0.4-0.1-0.8,0-1.3,0c-0.5,0-0.9,0.1-1.2,0.4
				c-0.4,0.3-0.7,0.8-0.8,1.4c-0.1,0.6,0,1.2,0.4,1.7c0.4,0.5,0.9,0.8,1.5,0.8c0.3,0,0.6,0,0.9,0c0.6,0,1.1-0.1,1.6-0.4
				c0.4-0.3,0.6-0.7,0.7-1.2c0.1-0.5,0.1-1.1-0.2-1.6c-0.3-0.6-0.9-0.9-1.5-1c-0.4-0.1-0.8,0.1-0.9,0.5C27,67.2,27.2,67.6,27.5,67.7
				z"/>
		</g>
		<g>
			<path class="st7" d="M48.5,135.3c0,0,6.8,0,10.6,0c2.1,0,8.5-0.1,10.3-0.1c0-1.3,0-3.5,0-4.7c-4.9,0-51.6,0-34.6,0
				c-1.6,0-6.4,0-9.8,0c0,1.2,0,3.4,0,4.7c1.9,0,8.3,0.1,10.3,0.1c3.9,0,13.3,0,13.3,0"/>
			<path class="st2" d="M48.5,136c7,0,14,0,21,0c0.4,0,0.7-0.3,0.7-0.7c0-1.6,0-3.1,0-4.7c0-0.4-0.3-0.7-0.7-0.7
				c-11.3,0-22.6,0-34,0c-1.4,0-2.9,0-4.3,0c-0.9,0-0.9,1.4,0,1.4c1.2,0,2.5,0,3.7,0c0.9,0,0.9-1.4,0-1.4c-3.3,0-6.5,0-9.8,0
				c-0.4,0-0.7,0.3-0.7,0.7c0,1.6,0,3.1,0,4.7c0,0.4,0.3,0.7,0.7,0.7c7.9,0,15.8,0.1,23.7,0c0.9,0,0.9-1.4,0-1.4
				c-7.9,0-15.8,0-23.7,0c0.2,0.2,0.5,0.5,0.7,0.7c0-1.6,0-3.1,0-4.7c-0.2,0.2-0.5,0.5-0.7,0.7c3.3,0,6.5,0,9.8,0c0-0.5,0-0.9,0-1.4
				c-1.2,0-2.5,0-3.7,0c0,0.5,0,0.9,0,1.4c10.6,0,21.3,0,31.9,0c2.1,0,4.3,0,6.4,0c-0.2-0.2-0.5-0.5-0.7-0.7c0,1.6,0,3.1,0,4.7
				c0.2-0.2,0.5-0.5,0.7-0.7c-7,0-14,0.1-21,0C47.6,134.6,47.6,136,48.5,136L48.5,136z"/>
		</g>
		<path class="st2" d="M46.5,130.6c0,1.4,0,2.8,0,4.3c0,0.4,0.3,0.7,0.7,0.7c0.4,0,0.7-0.3,0.7-0.7c0-1.4,0-2.8,0-4.3
			c0-0.4-0.3-0.7-0.7-0.7C46.8,129.9,46.5,130.2,46.5,130.6L46.5,130.6z"/>
		<path class="st2" d="M80.1,102.7c0,11.1-0.2,22.3,0.2,33.4c0,0.9,1.4,0.9,1.4,0c-0.3-11.1-0.2-22.3-0.2-33.4
			C81.5,101.8,80.1,101.8,80.1,102.7L80.1,102.7z"/>
		<g>
			<path class="st7" d="M77.5,119.8c0-3-0.1-18-0.1-21c0-1.3-0.6-2.9-2.1-2.9c-1.5,0-2.1,1-2.3,2.3c-0.2,2.5-0.1,20.1-0.1,21.8
				c0,2.8,0,17.4,0,20.4c0,1.2,0.3,2.9,2.2,2.9c1.8,0,2.3-1.8,2.3-3.1C77.5,138.4,77.5,120.2,77.5,119.8z"/>
			<path class="st2" d="M78.2,119.8c0-3.7,0-7.4,0-11.1c0-2.2,0-4.3,0-6.5c0-1.4,0.2-3-0.1-4.4c-0.4-1.9-2.1-3.3-4.1-2.3
				c-1.4,0.7-1.5,2.3-1.6,3.7c-0.1,3.8-0.1,7.5-0.1,11.3c0,6.7,0,13.3,0,20c0,2.2,0,4.4,0,6.6c0,1.4-0.2,2.9,0.1,4.3
				c0.3,1.8,1.9,3.2,3.8,2.5c1.6-0.6,1.9-2.3,2-3.8C78.3,133.3,78.2,126.6,78.2,119.8c0-0.9-1.4-0.9-1.4,0c0,5.5,0,10.9,0,16.4
				c0,1.1,0,2.3,0,3.4c0,0.5,0,1-0.1,1.4c-0.4,1.9-2.6,2-3,0.1c-0.2-1.2-0.1-2.6-0.1-3.8c0-1.8,0-3.6,0-5.5c0-5.6,0-11.3,0-16.9
				c0-3.6,0-7.3,0-10.9c0-1.5,0-3,0.1-4.4c0-0.4,0-0.8,0-1.2c0-0.5,0.1-0.8,0.4-1.2c1.1-1.4,2.4,0,2.5,1.2c0.2,1.4,0,2.9,0,4.3
				c0,2.1,0,4.2,0,6.2c0,3.6,0,7.3,0,10.9C76.8,120.7,78.2,120.7,78.2,119.8z"/>
		</g>
		<path class="st2" d="M12.9,102.7c0,11.1,0.2,22.3-0.2,33.4c0,0.9,1.4,0.9,1.4,0c0.3-11.1,0.2-22.3,0.2-33.4
			C14.3,101.8,12.9,101.8,12.9,102.7L12.9,102.7z"/>
		<g>
			<path class="st7" d="M17,119.8c0-3,0.1-18,0.1-21c0-1.3,0.6-2.9,2.1-2.9c1.5,0,2.1,1,2.3,2.3c0.2,2.5,0.1,20.1,0.1,21.8
				c0,2.8,0,17.4,0,20.4c0,1.2-0.3,2.9-2.2,2.9c-1.8,0-2.3-1.8-2.3-3.1C17,138.4,17,120.2,17,119.8z"/>
			<path class="st2" d="M17.7,119.8c0-6.6,0-13.2,0.1-19.8c0-0.5,0-1.1,0-1.6c0.3-2.1,2.7-2.3,2.9-0.1c0.1,1.1,0.1,2.2,0.1,3.3
				c0,3.6,0,7.1,0,10.7c0,5.5,0,11,0,16.5c0,3.5,0,7,0,10.5c0,0.6,0.1,1.2-0.1,1.8c-0.4,2-2.6,1.8-3-0.1c-0.2-0.9-0.1-1.9-0.1-2.8
				C17.7,132.1,17.7,126,17.7,119.8c0-0.9-1.4-0.9-1.4,0c0,6.3,0,12.5,0,18.8c0,1.2-0.1,2.4,0.4,3.5c0.7,1.7,2.9,2.4,4.4,1.2
				c1.2-0.9,1.2-2.5,1.2-3.9c0-1.9,0-3.7,0-5.6c0-6.7,0-13.5,0-20.2c0-4.1,0-8.2,0-12.4c0-1.2,0.1-2.5-0.2-3.6c-0.4-1.8-2.3-3-4-2.1
				c-1.8,0.9-1.6,3.2-1.6,4.9c0,2.2,0,4.4,0,6.6c0,4.3,0,8.6,0,12.9C16.3,120.7,17.7,120.7,17.7,119.8z"/>
		</g>
	</g>
	<g>
		<g>
			<path class="st3" d="M50.2,125.6c1.1,0.8,3.1,1.4,4.8,1.4c0.5,0,1-0.1,1.4-0.3c0.3-0.2,0.5-0.4,0.6-0.7c0,0,0-0.1,0-0.1
				c-0.1-0.1-0.3-0.4-0.3-0.6c-0.1-0.3-0.1-0.7-0.2-1.1c0-0.2-0.1-0.7-0.1-1c-1.5,0-4.2,0-5.9,0C50.3,123.3,50.2,125.9,50.2,125.6z"
				/>
		</g>
		<g>
			<path class="st8" d="M63.3,136c0,0,0.1-0.1,0.1-0.1c0.4-0.7,0.4-1.6,0.2-2.3c-0.2-0.8-0.7-1.4-1.2-2.1c-1.2-1.6-2.4-3.1-3.7-4.6
				c-0.5-0.6-1.1-1.2-1.8-1.3c0.1,0.5-0.2,0.9-0.6,1.2c-0.4,0.2-0.9,0.3-1.4,0.3c-2.2,0-4.1-1-5.3-2.1c0,1.6,0,2.1,0,3.7
				c0,0.4,0,0.8,0.1,1.1c0.3,0.9,1.3,1.3,2.1,1.8c2,1.4,3.1,3.9,5.2,5.1c1.5,0.9,3.5,0.9,5,0.2C62.6,136.7,63,136.4,63.3,136z"/>
			<path class="st2" d="M63.9,136.3c1.6-2.2-0.4-4.7-1.8-6.4c-0.8-1-1.6-2-2.4-3c-0.7-0.9-1.5-1.8-2.6-2.1c-0.6-0.1-0.9,0.3-0.9,0.9
				c0.2,1.1-2.9,0.4-3.4,0.3c-1-0.3-1.9-0.8-2.6-1.6c-0.4-0.4-1.2-0.1-1.2,0.5c0,1,0,1.9,0,2.9c0,1-0.1,2.1,0.6,2.9
				c0.6,0.7,1.4,1.1,2.1,1.6c0.8,0.6,1.4,1.3,2,2.1c1.2,1.5,2.5,3,4.4,3.5c1.9,0.5,4.3,0.2,5.7-1.4c0.6-0.7-0.4-1.7-1-1
				c-1.1,1.4-3.4,1.5-5,0.8c-1.5-0.7-2.5-2.2-3.5-3.4c-0.5-0.6-1.1-1.2-1.7-1.7c-0.6-0.5-1.4-0.8-1.9-1.3c-0.5-0.6-0.3-1.7-0.3-2.5
				c0-0.8,0-1.7,0-2.5c-0.4,0.2-0.8,0.3-1.2,0.5c1.2,1.2,2.9,2,4.6,2.2c1.6,0.2,4-0.1,3.7-2.3c-0.3,0.3-0.6,0.6-0.9,0.9
				c0.9,0.2,1.5,1.1,2,1.7c0.7,0.8,1.4,1.7,2,2.5c1,1.3,3.1,3.5,1.9,5.2C62.2,136.4,63.4,137.1,63.9,136.3z"/>
		</g>
		<path class="st2" d="M55.6,123.2c0,0.5,0.1,1.1,0.1,1.6c0,0.3,0.1,0.5,0.2,0.8c0.1,0.3,0.3,0.6,0.5,0.8c0.2,0.3,0.7,0.3,1,0
			c0.3-0.3,0.3-0.7,0-1c-0.1-0.1,0.1,0.1,0.1,0.1c0,0,0,0,0-0.1c0,0-0.1-0.1-0.1-0.1c0,0-0.1-0.1-0.1-0.1c0,0,0-0.1,0,0
			c0,0.1,0,0,0,0c0-0.1-0.1-0.2-0.1-0.3c0-0.1,0-0.1,0-0.2c0,0,0-0.1,0-0.1c0,0,0-0.2,0-0.1c0,0.1,0,0,0,0c0,0,0-0.1,0-0.1
			c0-0.1,0-0.1,0-0.2c0-0.1,0-0.2,0-0.3c0-0.2,0-0.5,0-0.7c0-0.4-0.3-0.7-0.7-0.7C55.9,122.5,55.6,122.8,55.6,123.2L55.6,123.2z"/>
		<path class="st2" d="M49.6,123.3c0,0.4,0,0.8-0.1,1.1c0,0.4,0,0.7,0,1.1c0,0.4,0.3,0.7,0.7,0.7c0.4,0,0.7-0.3,0.7-0.7
			c0-0.4,0-0.7,0-1.1c0-0.4,0-0.8,0.1-1.1c0-0.2-0.1-0.4-0.2-0.5c-0.1-0.1-0.3-0.2-0.5-0.2c-0.2,0-0.4,0.1-0.5,0.2
			C49.7,123,49.7,123.1,49.6,123.3L49.6,123.3z"/>
		<g>
			<path class="st3" d="M44.5,125.6c-1.1,0.8-3.1,1.4-4.8,1.4c-0.5,0-1-0.1-1.4-0.3c-0.3-0.2-0.5-0.4-0.6-0.7c0,0,0-0.1,0-0.1
				c0.1-0.1,0.3-0.4,0.3-0.6c0.1-0.3,0.1-0.7,0.2-1.1c0-0.2,0.1-0.7,0.1-1c1.5,0,4.2,0,5.9,0C44.5,123.3,44.6,125.9,44.5,125.6z"/>
		</g>
		<g>
			<path class="st8" d="M31.5,136c0,0-0.1-0.1-0.1-0.1c-0.4-0.7-0.4-1.6-0.2-2.3c0.2-0.8,0.7-1.4,1.2-2.1c1.2-1.6,2.4-3.1,3.7-4.6
				c0.5-0.6,1.1-1.2,1.8-1.3c-0.1,0.5,0.2,0.9,0.6,1.2c0.4,0.2,0.9,0.3,1.4,0.3c2.2,0,4.1-1,5.3-2.1c0,1.6,0,2.1,0,3.7
				c0,0.4,0,0.8-0.1,1.1c-0.3,0.9-1.3,1.3-2.1,1.8c-2,1.4-3.1,3.9-5.2,5.1c-1.5,0.9-3.5,0.9-5,0.2C32.2,136.7,31.8,136.4,31.5,136z"
				/>
			<path class="st2" d="M32.1,135.6c-1.2-1.7,0.9-3.9,1.9-5.2c0.6-0.8,1.3-1.6,2-2.4c0.6-0.7,1.2-1.6,2.1-1.8
				c-0.3-0.3-0.6-0.6-0.9-0.9c-0.3,2.2,2.1,2.5,3.7,2.3c1.7-0.2,3.4-1,4.6-2.2c-0.4-0.2-0.8-0.3-1.2-0.5c0,0.8,0,1.6,0,2.4
				c0,0.8,0.2,1.9-0.3,2.6c-0.5,0.6-1.3,0.9-1.9,1.3c-0.6,0.5-1.2,1.1-1.7,1.7c-1,1.2-2,2.7-3.5,3.4c-1.5,0.7-3.8,0.6-5-0.8
				c-0.6-0.7-1.6,0.3-1,1c1.3,1.6,3.8,1.9,5.7,1.4c1.9-0.5,3.2-2,4.4-3.5c0.6-0.7,1.2-1.5,2-2.1c0.7-0.5,1.5-0.9,2.1-1.6
				c0.7-0.8,0.6-1.8,0.6-2.8c0-1,0-2,0-3c0-0.6-0.8-0.9-1.2-0.5c-0.7,0.7-1.7,1.3-2.6,1.6c-0.5,0.2-3.5,0.8-3.4-0.3
				c0.1-0.5-0.3-1-0.9-0.9c-1.2,0.3-1.9,1.2-2.6,2.1c-0.8,1-1.6,2-2.4,3c-1.3,1.7-3.3,4.2-1.8,6.4C31.4,137.1,32.6,136.4,32.1,135.6
				z"/>
		</g>
		<path class="st2" d="M37.8,123.2c0,0.2,0,0.5,0,0.7c0,0.1,0,0.2,0,0.3c0,0,0,0.1,0,0.1c0,0,0,0.1,0,0.1c0,0,0,0.2,0,0.1
			c0-0.1,0,0,0,0c0,0,0,0.1,0,0.1c0,0.1,0,0.1,0,0.2c0,0.1,0,0.2-0.1,0.3c0,0,0,0,0,0.1c0,0,0.1-0.1,0-0.1c0,0,0,0.1-0.1,0.1
			c0,0.1-0.1,0.1-0.1,0.1c0,0,0,0,0,0.1c0,0.1,0.1-0.1,0-0.1c-0.1,0.1-0.2,0.3-0.2,0.5c0,0.2,0.1,0.4,0.2,0.5c0.3,0.2,0.7,0.3,1,0
			c0.2-0.2,0.4-0.5,0.5-0.8c0.1-0.2,0.1-0.5,0.2-0.8c0.1-0.5,0.1-1.1,0.1-1.6c0-0.4-0.3-0.7-0.7-0.7
			C38.1,122.5,37.8,122.8,37.8,123.2L37.8,123.2z"/>
		<path class="st2" d="M43.8,123.3c0,0.4,0,0.8,0.1,1.1c0,0.4,0,0.7,0,1.1c0,0.4,0.3,0.7,0.7,0.7c0.4,0,0.7-0.3,0.7-0.7
			c0-0.4,0-0.7,0-1.1c0-0.4,0-0.8-0.1-1.1c0-0.2-0.1-0.4-0.2-0.5c-0.1-0.1-0.3-0.2-0.5-0.2C44.1,122.7,43.7,123,43.8,123.3
			L43.8,123.3z"/>
		<g>
			<path class="st9" d="M56.1,93.6c1.3,1.4,2.8,2.8,3.3,3.2c1.2-0.9,8-7.2,9.1-9.2c0.8-1.4,0.2-5.3-0.3-7.1c-0.5-1.7-1.1-4.4-1.6-6
				c0,0,0-0.1-0.1-0.2c-0.7-1.9-1.9-4.2-2.9-5c-0.5-0.4-0.9-0.8-1.5-1.1c-3-1.6-5.2-2.5-8.7-3.7c-0.5,0.6-5.9,6.5-6.4,7.2
				c-0.5-0.6-5.9-6.5-6.5-7.2c-3.6,1.2-5.7,2.1-8.7,3.7c-0.5,0.3-1,0.7-1.5,1.1c-1,0.7-2.2,3.1-2.9,5c0,0.1-0.1,0.2-0.1,0.2
				c-0.5,1.6-1.1,4.3-1.6,6c-0.5,1.8-1.1,5.6-0.3,7.1c1.1,2,7,8,8.2,8.9c0.4-0.3,1.7-1.3,3-2.3"/>
		</g>
		<g>
			<path class="st3" d="M46.3,65.7c0,0.1,0,0.2,0,0.2c-0.1,0.1-0.4,0.6-0.9,1.1c-0.4,0.5-0.8,1-1.2,1.4c0.6,0.7,2.4,2.6,2.9,3.1
				c0.5-0.6,2.2-2.5,2.8-3.2c-0.4-0.4-0.8-1-1.2-1.4c-0.5-0.6-0.8-1-0.9-1.1c0-0.1-0.1-0.2,0-0.2"/>
		</g>
		<g>
			<path class="st1" d="M41.6,41.8c-0.3,0.1-0.5,0.2-0.6,0.3c-2.8,1.2-2.7,4.1-3,6.4L37.2,49c-0.3-0.3-0.7-0.4-1-0.3
				c-0.4,0.1-0.7,0.3-0.9,0.6c-0.1,0.2-0.2,0.5-0.2,0.7c-0.1,1,0.1,2,0.5,3c0.2,0.4,0.5,0.9,0.8,1.2c0.4,0.3,0.9,0.6,1.4,0.5
				c0.4,2.7,1.7,5.6,4.2,7c0,2.3,0.9,5.9,4.7,5.9c3.6,0,4.4-2.9,4.4-5.6c2-0.9,4-3.4,4.6-7.4c0.5,0.1,1.1-0.1,1.5-0.5
				c0.4-0.3,0.6-0.8,0.8-1.2c0.4-0.9,0.6-1.9,0.5-3c0-0.3-0.1-0.5-0.2-0.7c-0.2-0.3-0.5-0.6-0.9-0.6c-0.4-0.1-0.8,0.1-1,0.3
				l-0.9-0.4c0.1-1.5-1.6-6.6-4.6-7.2c0,0-2.5-0.7-5.2-0.5C43.7,41,42.4,41.5,41.6,41.8z"/>
		</g>
		<path class="st2" d="M60.7,86.5c0.4,0.1,0.8,0.2,1.2,0.4c-0.1,0-0.1,0-0.2-0.1c0.4,0.2,0.7,0.4,1.1,0.5c0.3,0.2,0.8,0.1,1-0.2
			c0.2-0.3,0.1-0.8-0.2-1c-0.3-0.2-0.7-0.4-1.1-0.5c-0.5-0.2-0.9-0.3-1.4-0.5c-0.3-0.1-0.8,0.1-0.9,0.5
			C60.1,86.1,60.3,86.4,60.7,86.5L60.7,86.5z"/>
		<g>
			<path class="st3" d="M50.4,69.1c1.4-1.3,2.2-3,3.2-4.6c-0.4-0.7-0.9-1.4-1.5-2c-1.2,1.2-2.7,2.3-4.2,2.9c-0.1,0-0.2,0.1-0.2,0.2
				c0,0.1,0,0.2,0,0.2c0.1,0.1,0.4,0.6,0.9,1.1C49.3,67.7,50,68.6,50.4,69.1z"/>
			<path class="st2" d="M50.9,69.6c1.1-1.1,1.9-2.3,2.7-3.6c0.2-0.3,0.4-0.6,0.6-0.9c0.1-0.2,0.2-0.4,0.2-0.6c0-0.2-0.2-0.4-0.3-0.6
				c-0.4-0.7-0.8-1.3-1.4-1.8c-0.3-0.3-0.7-0.3-1,0c-0.7,0.7-1.4,1.3-2.3,1.8c-0.4,0.3-0.8,0.5-1.2,0.7c-0.4,0.2-1,0.4-1.1,0.9
				c-0.1,0.4,0.1,0.7,0.3,1c0.3,0.4,0.6,0.7,0.9,1.1c0.6,0.7,1.1,1.3,1.7,2C50.2,69.9,50.7,69.9,50.9,69.6c0.3-0.3,0.2-0.7,0-1
				c-0.5-0.6-0.9-1.1-1.4-1.7c-0.3-0.3-0.5-0.6-0.8-1c-0.1-0.1-0.1-0.2-0.2-0.3c0,0-0.1-0.1-0.1-0.1c-0.1-0.1,0-0.1,0,0.1
				c0,0.1-0.1,0.2-0.1,0.4c-0.1,0.1-0.1,0.1,0,0.1c0,0,0.1,0,0.1,0c0.1,0,0.2-0.1,0.3-0.1c0.2-0.1,0.4-0.2,0.6-0.3
				c0.4-0.2,0.8-0.5,1.2-0.7c0.8-0.5,1.5-1.1,2.2-1.8c-0.3,0-0.7,0-1,0c0.6,0.5,1,1.2,1.4,1.8c0-0.2,0-0.5,0-0.7
				c-1,1.6-1.8,3.2-3.1,4.5C49.3,69.3,50.3,70.3,50.9,69.6z"/>
		</g>
		<g>
			<path class="st3" d="M43.7,69.1c-1.4-1.3-2.2-3-3.2-4.6c0.4-0.7,0.9-1.4,1.5-2c1.2,1.2,2.7,2.3,4.2,2.9c0.1,0,0.2,0.1,0.2,0.2
				c0,0.1,0,0.2,0,0.2c-0.1,0.1-0.4,0.6-0.9,1.1C44.8,67.7,44.1,68.6,43.7,69.1z"/>
			<path class="st2" d="M44.2,68.6c-1.3-1.3-2.2-2.9-3.1-4.5c0,0.2,0,0.5,0,0.7c0.4-0.7,0.8-1.3,1.4-1.8c-0.3,0-0.7,0-1,0
				c0.7,0.7,1.4,1.3,2.2,1.8c0.4,0.3,0.8,0.5,1.2,0.7c0.2,0.1,0.4,0.2,0.5,0.3c0.1,0,0.2,0.1,0.3,0.1c0,0,0.1,0,0.1,0.1
				c0.1,0.1,0.1,0,0-0.1c0-0.1-0.1-0.2-0.1-0.4c0-0.1,0.1-0.1,0-0.1c0,0,0,0.1-0.1,0.1c-0.1,0.1-0.1,0.2-0.2,0.3
				c-0.3,0.3-0.5,0.6-0.8,1c-0.5,0.6-0.9,1.1-1.4,1.7c-0.2,0.3-0.3,0.7,0,1c0.2,0.2,0.7,0.3,1,0c0.5-0.7,1.1-1.3,1.6-2
				c0.3-0.4,0.6-0.7,0.9-1.1c0.2-0.3,0.4-0.7,0.3-1.1c-0.1-0.5-0.7-0.6-1.1-0.9c-0.4-0.2-0.8-0.5-1.2-0.7c-0.8-0.5-1.6-1.2-2.3-1.9
				c-0.3-0.3-0.7-0.3-1,0c-0.5,0.5-1,1.1-1.4,1.7c-0.1,0.2-0.2,0.4-0.3,0.5c-0.1,0.3,0.1,0.5,0.2,0.7c0.2,0.3,0.4,0.6,0.6,0.9
				c0.8,1.3,1.6,2.5,2.7,3.6C43.8,70.3,44.8,69.3,44.2,68.6z"/>
		</g>
		<path class="st2" d="M42.4,52.2c0.3-0.1,0.6-0.2,0.8-0.3c0,0-0.1,0-0.1,0c0.1,0,0.2-0.1,0.3-0.1c0.1,0,0.2-0.1,0.3-0.2
			c0.1-0.1,0.1-0.2,0-0.3c0-0.1-0.1-0.2-0.2-0.3c-0.1-0.1-0.2-0.1-0.3,0c-0.3,0.1-0.5,0.2-0.8,0.3c0,0,0.1,0,0.1,0
			c-0.1,0-0.2,0.1-0.3,0.1c-0.1,0-0.2,0.1-0.3,0.2c-0.1,0.1-0.1,0.2,0,0.3c0,0.1,0.1,0.2,0.2,0.3C42.1,52.2,42.2,52.2,42.4,52.2
			L42.4,52.2z"/>
		<path class="st2" d="M51.7,51.3c-0.1,0-0.2-0.1-0.3-0.1c0,0,0.1,0,0.1,0c-0.3-0.1-0.5-0.3-0.8-0.3c-0.2-0.1-0.5,0.1-0.5,0.3
			c-0.1,0.2,0.1,0.5,0.3,0.5c0.1,0,0.2,0.1,0.3,0.1c0,0-0.1,0-0.1,0c0.3,0.1,0.6,0.3,0.8,0.3c0.2,0.1,0.5-0.1,0.5-0.3
			C52,51.6,51.9,51.4,51.7,51.3L51.7,51.3z"/>
		<g>
			<path class="st6" d="M41,42.1c-2.8,1.2-2.7,4.1-3,6.4L37.2,49c-0.2-0.2-0.6-0.3-0.9-0.3c0-2.4,0.2-5,1-6.9c0.7-1.6,1.7-3,3.1-4.1
				c1.1-0.8,2.3-1.3,3.6-1.6c1.6-0.3,3.6-0.6,5.1,0.1c0.3,0.1,0.6,0.3,0.8,0.4c0.3,0.1,0.7,0.2,1.1,0.3c4.7,1.2,6.5,7.4,5.9,11.7
				c0,0,0,0.1,0,0.2c-0.1,0.1-0.3,0.1-0.4,0.3l-0.9-0.4c0.1-1.5-1.6-6.6-4.6-7.2c0,0-2.5-0.7-5.2-0.5C43,41.1,41.6,41.8,41,42.1z"/>
		</g>
		<path class="st2" d="M37,48.5c0-3.4,0.5-6.9,3-9.5c2.3-2.3,6.3-3.3,9.4-1.9c1.2,0.6,2.5,0.6,3.6,1.5c0.9,0.7,1.6,1.7,2.1,2.8
			c1.1,2.2,1.5,4.8,1.1,7.2c-0.1,0.9,1.3,0.9,1.4,0c0.5-4.1-0.8-9.4-4.6-11.6c-1.1-0.6-2.4-0.8-3.5-1.3c-1.3-0.6-2.7-0.6-4-0.5
			c-3,0.4-5.5,1.5-7.4,3.9c-2.1,2.7-2.5,6.1-2.5,9.4C35.6,49.4,37,49.4,37,48.5L37,48.5z"/>
		<path class="st2" d="M46.4,52.6c0.1,0.5,0.2,0.9,0.3,1.4c0,0.1,0,0.1,0,0.2c0,0.1,0,0,0,0c0,0,0,0,0,0.1c0,0.1,0,0,0,0
			c0,0,0,0,0,0c0-0.1,0.1-0.1,0.1-0.1c0,0,0,0,0,0c0,0,0,0,0,0c0,0,0,0-0.1,0c0,0-0.1,0,0,0c0.1,0,0,0,0,0c0,0,0,0,0,0
			c-0.1,0,0.1,0,0,0c0,0,0,0-0.1,0c-0.1,0-0.1,0-0.2,0c-0.1,0-0.2,0.1-0.3,0.1c-0.1,0.1-0.1,0.2-0.1,0.3c0,0.1,0,0.2,0.1,0.3
			c0.1,0.1,0.2,0.1,0.3,0.1c-0.2,0,0,0,0,0c0.1,0,0.1,0,0.2,0c0.1,0,0.3,0,0.4-0.1c0.2-0.1,0.4-0.2,0.4-0.4c0.1-0.1,0-0.3,0-0.4
			c0-0.3-0.1-0.6-0.2-0.8c-0.1-0.3-0.1-0.6-0.2-0.8c-0.1-0.2-0.3-0.4-0.5-0.3C46.4,52.1,46.3,52.3,46.4,52.6L46.4,52.6z"/>
		<path class="st2" d="M50.8,63c4.2-1.4,5.7-6.5,5.7-10.5c0-0.9-1.4-0.9-1.4,0c0,2.2-0.4,4.4-1.5,6.3c-0.7,1.2-1.8,2.4-3.2,2.9
			C49.6,61.9,50,63.3,50.8,63L50.8,63z"/>
		<path class="st2" d="M37.1,53.1c0.1,4.4,2.5,9.3,7.2,10.2c0.9,0.2,1.2-1.2,0.4-1.3c-4.1-0.8-6.1-5-6.2-8.9
			C38.4,52.2,37,52.2,37.1,53.1L37.1,53.1z"/>
		<path class="st2" d="M37.7,48.6c-0.8-0.7-1.9-0.7-2.7,0c-0.7,0.7-0.7,1.8-0.6,2.7c0.2,1.8,1.2,4.2,3.4,4.2c0.9,0,0.9-1.4,0-1.4
			c-1.2,0-1.7-1.6-1.9-2.5c-0.1-0.5-0.2-1.2,0-1.8c0.1-0.3,0.5-0.5,0.8-0.2c0.3,0.3,0.7,0.3,1,0C37.9,49.3,37.9,48.8,37.7,48.6
			L37.7,48.6z"/>
		<path class="st2" d="M57,49.5c0.3-0.3,0.7-0.1,0.8,0.2c0.1,0.3,0.1,0.6,0.1,0.9c0,0.3,0,0.6-0.1,0.9c-0.2,1-0.7,2.6-1.9,2.5
			c-0.9,0-0.9,1.4,0,1.4c2.2,0,3.2-2.4,3.4-4.2c0.1-0.9,0.1-2-0.6-2.7c-0.7-0.8-1.9-0.7-2.7,0c-0.3,0.3-0.3,0.7,0,1
			C56.3,49.8,56.7,49.8,57,49.5L57,49.5z"/>
		<path class="st2" d="M44.7,58c0.6,0.5,1.5,0.7,2.2,0.7c0.8,0,1.6-0.1,2.2-0.7c0.4-0.4-0.2-1-0.6-0.6c0,0,0,0,0,0c0,0.1,0.1,0,0,0
			c0,0-0.1,0.1-0.1,0.1c-0.1,0-0.1,0.1-0.2,0.1c0,0-0.1,0,0,0c0,0-0.1,0-0.1,0c-0.4,0.1-0.8,0.2-1.2,0.2c-0.4,0-0.8,0-1.1-0.2
			c0,0-0.1,0-0.1,0c0.1,0,0,0,0,0c-0.1,0-0.1-0.1-0.2-0.1c0,0-0.1-0.1-0.1-0.1c-0.1-0.1,0.1,0.1,0,0C44.9,57,44.3,57.6,44.7,58
			L44.7,58z"/>
		<path class="st2" d="M38.7,48.5c0-0.1,0-0.2,0-0.3c0-0.1,0-0.1,0-0.2c0-0.2,0,0.1,0-0.1c0-0.3,0.1-0.5,0.1-0.8
			c0.1-0.6,0.3-1.2,0.5-1.8c0.1-0.2,0.2-0.5,0.4-0.8c0.1-0.2,0.3-0.6,0.5-0.7c0.2-0.2,0.4-0.5,0.7-0.7c-0.1,0.1,0.1-0.1,0.1-0.1
			c0.1,0,0.1-0.1,0.2-0.1c0.1-0.1,0.3-0.2,0.4-0.2c0.4-0.1,0.6-0.5,0.5-0.9c-0.1-0.3-0.5-0.6-0.9-0.5c-2.8,1-3.7,4.4-3.9,7.1
			c0,0.4,0.3,0.7,0.7,0.7C38.4,49.2,38.7,48.9,38.7,48.5L38.7,48.5z"/>
		<path class="st2" d="M51.9,42.7c1,0.7,1.8,1.9,2.2,3c0.2,0.5,0.4,1.1,0.5,1.7c0,0.1,0.1,0.2,0.1,0.4c0,0.1,0,0.1,0,0.2
			c0,0,0,0.2,0,0c0,0.2,0,0.4,0,0.6c0,0.9,1.4,0.9,1.4,0c0-1.1-0.4-2.3-0.8-3.3c-0.6-1.5-1.5-2.8-2.8-3.7c-0.3-0.2-0.8-0.1-1,0.2
			C51.5,42.1,51.6,42.4,51.9,42.7L51.9,42.7z"/>
		<path class="st2" d="M50.3,57.1c0.1,0.1,0.2,0.2,0.3,0.3c0,0,0-0.1-0.1-0.1c0.1,0.1,0.2,0.3,0.2,0.4c0,0,0-0.1,0-0.1
			c0,0.1,0.1,0.2,0.1,0.3c0.1,0.2,0.3,0.4,0.5,0.3c0.2-0.1,0.4-0.3,0.3-0.5c-0.1-0.5-0.4-0.9-0.8-1.2c-0.1-0.1-0.2-0.1-0.3-0.1
			c-0.1,0-0.2,0-0.3,0.1c-0.1,0.1-0.1,0.2-0.1,0.3C50.2,56.9,50.2,57,50.3,57.1L50.3,57.1z"/>
		<path class="st2" d="M43.3,56.4c-0.5,0.2-0.8,0.7-1,1.2c0,0.1,0,0.2,0,0.3c0.1,0.1,0.2,0.2,0.3,0.2c0.2,0.1,0.5-0.1,0.5-0.3
			c0,0,0-0.1,0.1-0.1c0,0,0,0.1,0,0.1c0.1-0.1,0.1-0.2,0.2-0.3c0,0,0,0.1-0.1,0.1c0.1-0.1,0.2-0.2,0.3-0.3c0,0-0.1,0-0.1,0.1
			c0.1-0.1,0.2-0.1,0.2-0.1c0.1,0,0.2-0.2,0.2-0.3c0-0.1,0-0.2,0-0.3c-0.1-0.1-0.1-0.2-0.3-0.2C43.5,56.3,43.4,56.3,43.3,56.4
			L43.3,56.4z"/>
		<path class="st2" d="M45.1,41.2c0-0.1,0-0.1,0.1-0.2C45.1,41.1,45.1,41.2,45.1,41.2c0.1-0.2,0.2-0.5,0.4-0.7c0,0-0.1,0.1-0.1,0.1
			c0.2-0.2,0.3-0.4,0.5-0.5c0,0-0.1,0.1-0.1,0.1c0.2-0.2,0.4-0.3,0.6-0.4c-0.1,0-0.1,0-0.2,0.1c0,0,0.1,0,0.1,0
			c0.2-0.1,0.3-0.2,0.4-0.3c0.1-0.1,0.1-0.4,0.1-0.5c-0.1-0.2-0.2-0.3-0.3-0.4c-0.2-0.1-0.4-0.1-0.5-0.1c-0.5,0.2-1,0.5-1.4,0.9
			c-0.4,0.4-0.7,0.9-0.9,1.4c-0.1,0.2,0,0.4,0.1,0.5c0.1,0.1,0.2,0.3,0.4,0.3c0.2,0,0.4,0,0.5-0.1C44.9,41.5,45,41.4,45.1,41.2
			L45.1,41.2z"/>
		<path class="st2" d="M47.5,41.7c0.2-0.2,0.4-0.3,0.7-0.4c0.1,0,0.1-0.1,0.2-0.1c0.1,0,0.1,0,0,0c0,0,0.1,0,0.1,0
			c0.1,0,0.2-0.1,0.4-0.1c0.1,0,0.3-0.1,0.4-0.1c0.1,0,0.1,0,0.2,0c0,0,0.1,0,0.1,0c-0.1,0-0.1,0-0.1,0c0.3,0,0.5,0,0.8,0
			c0.4,0,0.7-0.3,0.7-0.7c0-0.4-0.3-0.7-0.7-0.7c-1.2-0.1-2.5,0.3-3.5,1c-0.3,0.2-0.5,0.6-0.2,1C46.8,41.7,47.2,41.9,47.5,41.7
			L47.5,41.7z"/>
		<path class="st2" d="M43.7,68.9c0.9,1.1,1.9,2.1,2.9,3.2c0.2,0.3,0.8,0.3,1,0c0.9-1.1,1.9-2.1,2.8-3.2c0.2-0.3,0.3-0.7,0-1
			c-0.2-0.2-0.7-0.3-1,0c-0.9,1.1-1.9,2.1-2.8,3.2c0.3,0,0.7,0,1,0c-1-1.1-2-2.1-2.9-3.2c-0.2-0.3-0.7-0.2-1,0
			C43.4,68.2,43.5,68.6,43.7,68.9L43.7,68.9z"/>
		<g>
			<path class="st10" d="M52.4,93.6c-1.2,0.1-3.1,0.5-3.9,1.9c-0.6,1-0.9,2.4-0.9,3.5c0,2.8,0.4,13.8,0.5,15.5
				c0.1,2.6,0.3,6,0.4,8.5c0.3,0.4,8.9,0,9.5,0c0.8-0.1,0.9-0.5,1-1.3c0.3-1.8,1.1-15,0.8-18.6c-0.2-2.5,0-4.9-1.6-7.2
				C57.3,94.5,56.1,93.3,52.4,93.6z"/>
			<path class="st2" d="M52.4,92.9c-1.3,0.1-2.8,0.4-3.8,1.4C47.4,95.5,47,97.4,47,99c0,2.5,0.1,5,0.2,7.5c0.1,2.5,0.2,5.1,0.3,7.6
				c0.1,1.7,0.2,3.5,0.3,5.2c0,1,0.1,2.1,0.1,3.1c0,0.5-0.1,1,0.4,1.3c0.5,0.4,1.6,0.2,2.2,0.2c1.3,0,2.7,0,4-0.1
				c1.4,0,4.5,0.4,5.2-1.3c0.7-1.7,0.5-4.1,0.6-6c0.2-3.1,0.4-6.1,0.4-9.2c0.1-3.1,0.3-6.8-0.7-9.8c-0.5-1.4-1.3-2.9-2.6-3.8
				C55.9,92.9,54.1,92.8,52.4,92.9c-0.9,0.1-0.9,1.4,0,1.4c1.7-0.1,3.5-0.1,4.8,1.3c1.5,1.6,1.8,3.8,2,5.9c0.2,2.7,0.2,5.4,0.1,8.1
				c-0.1,3-0.3,6.1-0.5,9.1c-0.1,0.9-0.1,1.8-0.2,2.7c-0.3,1.2-1,0.9-2.1,1c-1.5,0.1-2.9,0.1-4.4,0.1c-0.7,0-2.7,0.2-3.1-0.1
				c0.1,0.2,0.2,0.4,0.3,0.6c-0.1-5.1-0.5-10.3-0.7-15.4c-0.1-2.4-0.2-4.7-0.2-7.1c0-1.1-0.1-2.2,0.2-3.3c0.5-2,1.8-2.9,3.8-3.1
				C53.3,94.2,53.3,92.9,52.4,92.9z"/>
		</g>
		<g>
			<path class="st10" d="M41.8,93.6c1.1,0.1,3,0.4,3.8,1.8c0.6,1,0.9,2.3,0.9,3.5c0.1,2.8-0.1,13.8-0.1,15.5c-0.1,2.6-0.2,6-0.2,8.6
				c-0.3,0.4-8.8,0.2-9.3,0.2c-0.8,0-0.9-0.5-1.1-1.3c-0.3-1.8-1.5-14.9-1.3-18.6c0.1-2.5-0.1-4.9,1.4-7.2
				C37.1,94.6,38.1,93.4,41.8,93.6z"/>
			<path class="st2" d="M41.8,94.3c2,0.1,3.3,1,3.8,3c0.3,1.1,0.3,2.2,0.3,3.3c0,2.4,0,4.8,0,7.2c-0.1,5.1-0.2,10.1-0.3,15.2
				c0.1-0.2,0.2-0.4,0.3-0.6c-0.3,0.2-1.9,0.1-2.4,0.1c-1.4,0-2.7,0-4.1,0c-0.7,0-2.1,0.3-2.6-0.2c-0.5-0.5-0.4-1.9-0.5-2.6
				c-0.6-5.4-1.2-10.9-1-16.4c0.1-2.5,0-5.1,1.6-7.3C38.1,94.4,39.9,94.2,41.8,94.3c0.9,0,0.9-1.4,0-1.4c-3-0.1-5.3,0.7-6.7,3.5
				c-1.4,2.7-1.2,6.2-1.1,9.2c0.1,5.3,0.5,10.7,1.2,16c0.1,0.9,0.3,1.8,1.2,2.2c0.6,0.2,1.5,0.1,2.2,0.1c2.4,0,4.8,0.2,7.2-0.1
				c0.9-0.1,1.2-0.3,1.3-1.3c0.1-2.1,0.1-4.2,0.1-6.3c0.1-2.4,0.1-4.9,0.1-7.3c0-3.1,0.1-6.2,0.1-9.4c0-1.7-0.2-3.5-1.3-4.9
				c-1-1.3-2.7-1.7-4.2-1.8C40.9,92.8,40.9,94.2,41.8,94.3z"/>
		</g>
		<path class="st2" d="M61.4,97.1c0.4,1.8,0.7,3.7,1.1,5.6c0-0.1,0-0.2,0-0.4c-0.1,0.6-0.3,1.2-0.6,1.7c-0.3,0.5-0.8,0.8-1.3,1.2
			c-0.3,0.2-0.5,0.6-0.2,1c0.2,0.3,0.6,0.5,1,0.2c0.7-0.5,1.3-1,1.8-1.7c0.4-0.6,0.9-1.6,0.8-2.4c-0.3-1.9-0.6-3.7-1.1-5.6
			C62.5,95.9,61.2,96.3,61.4,97.1L61.4,97.1z"/>
		<path class="st2" d="M31.8,97.4c-0.4,1.6-0.7,3.3-1,4.9c-0.1,0.8,0.3,1.8,0.8,2.4c0.5,0.7,1.1,1.2,1.8,1.7c0.3,0.2,0.8,0,1-0.2
			c0.2-0.4,0.1-0.7-0.2-1c-0.5-0.3-0.9-0.7-1.3-1.2c-0.4-0.5-0.5-1.1-0.6-1.7c0,0.1,0,0.2,0,0.4c0.3-1.7,0.6-3.3,1-4.9
			C33.3,96.9,32,96.5,31.8,97.4L31.8,97.4z"/>
		<g>
			<path class="st1" d="M54,92.2c-0.3,0.2-0.7,0.2-1.1,0.3c-0.8,0.2-1.6,0.2-2.4,0.3c-0.9,0.2-1.6,0.1-2.4,0.9
				c-0.9,0.8-1.2,1.7-0.8,2.8c0.4,0.9,1.1,2.9,2.1,2.6c1.3-0.3,2.7-0.9,3.4-0.9c1.5,0,3.3,0.3,4.3-1.3c0.3-0.6,0.8-0.9,1.2-1.3"/>
			<path class="st2" d="M53.6,91.6c-0.4,0.2-1,0.2-1.4,0.3c-0.5,0.1-1.1,0.1-1.6,0.2c-0.8,0.1-1.7,0.2-2.4,0.6
				c-0.8,0.4-1.4,1.2-1.7,2c-0.3,0.8-0.1,1.6,0.2,2.3c0.5,1.1,1.2,3,2.7,2.7c0.9-0.2,1.8-0.6,2.8-0.8c0.7-0.2,1.4-0.1,2.1-0.1
				c0.8,0,1.7-0.1,2.4-0.6c0.4-0.3,0.7-0.6,1-1c0.3-0.5,0.7-0.8,1.1-1.2c0.6-0.6-0.3-1.6-1-1c-0.3,0.3-0.5,0.5-0.8,0.8
				c-0.3,0.3-0.5,0.7-0.7,1c-0.4,0.4-1,0.6-1.5,0.7c-0.6,0-1.3,0-1.9,0c-0.7,0-1.4,0.2-2,0.4c-0.4,0.1-0.7,0.2-1.1,0.3
				c-0.2,0.1-0.5,0.2-0.7,0.1c-0.4-0.2-0.7-1-0.8-1.3c-0.2-0.5-0.6-1.1-0.5-1.7c0.1-0.7,0.7-1.3,1.3-1.5c0.7-0.3,1.6-0.4,2.4-0.4
				c0.5-0.1,1-0.1,1.5-0.2c0.5-0.1,0.9-0.1,1.3-0.3C55.1,92.4,54.4,91.2,53.6,91.6L53.6,91.6z"/>
		</g>
		<path class="st2" d="M33.1,85.2c-0.4,0.1-0.9,0.3-1.3,0.4c-0.4,0.2-0.8,0.4-1.1,0.6c-0.3,0.2-0.4,0.6-0.2,1c0.2,0.3,0.6,0.4,1,0.2
			c0.3-0.2,0.7-0.4,1-0.5c-0.1,0-0.1,0-0.2,0.1c0.4-0.2,0.8-0.3,1.3-0.4c0.3-0.1,0.6-0.5,0.5-0.9C33.8,85.3,33.5,85.1,33.1,85.2
			L33.1,85.2z"/>
		<g>
			<path class="st1" d="M40.1,92.4c0.3,0.2,0.8,0.2,1.3,0.3c0.9,0.2,1.9,0.2,2.8,0.4c1.1,0.2,1.8,0.2,2.7,0.9c1,0.8,1.7,1.8,2.6,2.7
				c0.5,0.5,0.9,0.8,1.2,1.3c0.2,0.4,0.4,1.4-0.6,1.1c0.3,0.8-1,0.6-1.2,0.6c0,1.8-2.6,0-3.2-0.3c0.4,0.5,0,1-0.5,1
				c-0.5,0-1-0.4-1.3-0.7c-0.7-0.5-1.6-1.3-2.4-1.3c-1.7,0-3.8,0.3-4.8-1.4c-0.5-0.7-0.8-1-1.2-1.6"/>
			<path class="st2" d="M39.8,93c0.9,0.5,2.2,0.5,3.3,0.6c1,0.1,2.3,0.2,3.1,0.8c1,0.7,1.7,1.7,2.5,2.6c0.4,0.4,0.8,0.7,1.1,1.2
				c0,0,0.2,0.3,0.2,0.4c0,0.1,0,0.1,0,0.2c0,0.1,0,0.1,0.1-0.2c-0.5-0.1-1,0.3-0.9,0.9c0.2-0.2,0.3-0.3,0.1-0.3c-0.1,0-0.1,0-0.2,0
				c-0.1,0-0.2,0-0.3,0c-0.5-0.1-0.9,0.2-0.9,0.7c0,0.2,0.1,0.2-0.1,0.1c-0.3-0.1-0.5-0.2-0.8-0.3c-0.4-0.2-0.9-0.5-1.3-0.7
				c-0.6-0.3-1.3,0.3-1,1c0.1-0.1,0.1-0.2-0.2-0.2c-0.1-0.1-0.2-0.1-0.3-0.2c-0.2-0.1-0.4-0.3-0.5-0.4c-0.4-0.3-0.8-0.6-1.2-0.9
				c-0.8-0.4-1.6-0.4-2.5-0.4c-0.8,0-1.8,0-2.5-0.4c-0.4-0.3-0.6-0.6-0.9-1c-0.3-0.4-0.6-0.7-0.9-1.1c-0.5-0.7-1.7,0-1.2,0.7
				c0.4,0.5,0.8,1,1.2,1.6c0.4,0.5,0.8,0.9,1.3,1.2c1.1,0.6,2.4,0.5,3.6,0.5c1.6,0,2.2,1.3,3.5,1.9c1.2,0.5,2.6-0.6,1.8-1.9
				c-0.3,0.3-0.6,0.6-1,1c1.2,0.7,4.2,2.3,4.3-0.3c-0.3,0.2-0.6,0.4-0.9,0.7c1,0.3,2.3-0.1,2.1-1.4c-0.3,0.3-0.6,0.6-0.9,0.9
				c1.1,0.2,1.9-0.5,1.6-1.6c-0.3-1.3-1.8-2.2-2.6-3.1c-1-1.1-2-2.2-3.5-2.5c-0.8-0.1-1.5-0.3-2.3-0.4c-0.5-0.1-1-0.1-1.5-0.2
				c-0.4-0.1-0.8,0-1.1-0.2C39.7,91.4,39,92.6,39.8,93L39.8,93z"/>
		</g>
		<path class="st2" d="M47.8,97.4c-0.7-0.6-1.4-1.2-2.1-1.8c-0.2-0.2-0.5-0.2-0.6,0c-0.2,0.2-0.2,0.5,0,0.6c0.7,0.6,1.4,1.2,2.1,1.8
			c0.2,0.2,0.5,0.2,0.6,0C47.9,97.9,47.9,97.6,47.8,97.4L47.8,97.4z"/>
		<g>
			<path class="st9" d="M61,76.8c0,0.9-0.5,7.9-0.5,8.8c0,0,0,0.1,0,0.1c-1.2,1.5-7,5.2-7,5.2c0.1,0,4.9,5.2,5.9,5.9"/>
		</g>
		<g>
			<path class="st9" d="M33.1,76.8c0,0.9,0.5,7.9,0.5,8.8c0,0,0,0.1,0,0.1c1.2,1.5,7,5.5,7,5.6c-0.1,0-5.8,4.4-6.8,5.1"/>
		</g>
		<path class="st2" d="M60.3,76.8c0,3-0.5,5.9-0.5,8.9c0.1-0.2,0.1-0.3,0.2-0.5c-1.1,1.3-2.6,2.2-3.9,3.1c-1,0.7-2,1.3-3,2
			c-0.4,0.2-0.5,0.8-0.1,1.1c2.1,1.9,3.7,4.3,6,6c0.7,0.5,1.4-0.7,0.7-1.2c-2.1-1.6-3.7-4-5.7-5.8c0,0.4-0.1,0.7-0.1,1.1
			c1.2-0.8,2.4-1.6,3.5-2.4c0.8-0.5,1.6-1.1,2.3-1.7c0.5-0.4,1.4-1,1.5-1.7c0.2-1.3,0.1-2.8,0.2-4.2c0.1-1.6,0.3-3.2,0.3-4.8
			C61.7,75.9,60.3,75.9,60.3,76.8L60.3,76.8z"/>
		<path class="st2" d="M32.4,76.8c0,1.6,0.2,3.2,0.3,4.9c0.1,0.9,0.1,1.8,0.2,2.7c0,0.5-0.1,1.1,0.1,1.5c0.2,0.6,1.1,1.2,1.5,1.6
			c0.8,0.6,1.6,1.3,2.4,1.9c1.1,0.9,2.3,1.7,3.4,2.5c0-0.4,0-0.8,0-1.2c-2.3,1.6-4.5,3.5-6.8,5.1c-0.7,0.5,0,1.7,0.7,1.2
			c2.3-1.7,4.5-3.5,6.8-5.1c0.4-0.3,0.4-0.9,0-1.2c-1-0.7-2-1.4-3-2.2c-1.3-1-2.8-2-3.9-3.3c0.1,0.2,0.1,0.3,0.2,0.5
			c0-3-0.5-5.9-0.5-8.9C33.8,75.9,32.4,75.9,32.4,76.8L32.4,76.8z"/>
		<path class="st2" d="M59.7,97.4c2.5-1.9,4.7-4.2,6.8-6.4c0.9-0.9,1.9-1.9,2.5-3.1c0.8-1.5,0.5-3.5,0.3-5c-0.3-2.2-0.9-4.3-1.5-6.4
			c-0.5-2.1-1.2-4.2-2.4-6.1c-2.4-3.7-7.8-5.3-11.8-6.6c-0.8-0.3-1.2,1.1-0.4,1.3c3.8,1.3,9.1,2.7,11.2,6.4c1.1,1.8,1.7,3.8,2.2,5.9
			c0.5,1.8,1,3.6,1.3,5.4c0.2,1.6,0.5,3.5-0.4,4.9c-0.8,1.1-1.8,2.1-2.8,3.1c-1.8,1.9-3.7,3.8-5.8,5.4C58.3,96.8,59,98,59.7,97.4
			L59.7,97.4z"/>
		<path class="st2" d="M34.3,96c-2-1.6-3.7-3.5-5.4-5.4c-0.9-1-2-2-2.6-3.2c-0.8-1.5-0.4-3.6-0.1-5.2c0.6-3.6,1.6-7.7,3.5-10.9
			c1.1-1.8,2.9-2.8,4.8-3.7c2-1,4.2-1.8,6.3-2.5c0.8-0.3,0.5-1.6-0.4-1.3c-2.3,0.8-4.5,1.6-6.6,2.7c-1.7,0.8-3.5,1.7-4.7,3.3
			c-1.3,1.7-2.1,3.8-2.7,5.9c-0.6,2.1-1.2,4.2-1.5,6.3c-0.3,1.7-0.6,3.7-0.1,5.4c0.3,1.2,1.3,2.2,2.1,3.1c2,2.3,4.1,4.8,6.5,6.6
			C34.1,97.5,35,96.5,34.3,96L34.3,96z"/>
	</g>
	<g>
		<g>
			<path class="st1" d="M125.4,78.8c-0.3,2.1,0.1,5.4,0.2,7.5c0,0.6,0.4,0.8,0.8,0.4c0.2-0.2,0.9-1.2,1.1-1.4c0.1,0.9,0.1,1,0.2,1.6
				c0.1,1.9,0.1,2.4,0.1,3.7c0,0.5,0.1,1,0.2,1c0.5,0.3,1.1,0.3,1.6-0.1c0.5-0.5,0.7-1,0.9-1.7c0.1-0.5,0.2-2.5,0.2-3
				c-0.1-1-0.3-1.9-0.6-2.8c-0.7-1.9-1.2-3.3-1.5-5.2"/>
		</g>
		<g>
			<path class="st11" d="M98.1,140c0,0-0.1-0.1-0.1-0.1c-0.4-0.6-0.4-1.5-0.2-2.2c0.2-0.7,0.7-1.4,1.1-2c1.1-1.5,2.3-3,3.5-4.4
				c0.5-0.5,1-1.1,1.7-1.3c-0.1,0.4,0.2,0.9,0.5,1.1c0.4,0.2,0.8,0.3,1.3,0.3c2.1,0,4-0.9,5-2c0,1.5,0,2,0,3.5c0,0.4,0,0.7-0.1,1.1
				c-0.3,0.8-1.2,1.2-2,1.7c-1.9,1.3-2.9,3.7-4.9,4.9c-1.4,0.8-3.3,0.9-4.8,0.2C98.7,140.6,98.3,140.3,98.1,140z"/>
		</g>
		<g>
			<path class="st11" d="M126.5,140c0,0,0.1-0.1,0.1-0.1c0.4-0.6,0.4-1.5,0.2-2.2c-0.2-0.7-0.7-1.4-1.1-2c-1.1-1.5-2.3-3-3.5-4.4
				c-0.5-0.5-1-1.1-1.7-1.3c0.1,0.4-0.2,0.9-0.5,1.1c-0.4,0.2-0.8,0.3-1.3,0.3c-2.1,0-4-0.9-5-2c0,1.5,0,2,0,3.5
				c0,0.4,0,0.7,0.1,1.1c0.3,0.8,1.2,1.2,2,1.7c1.9,1.3,2.9,3.7,4.9,4.9c1.4,0.8,3.3,0.9,4.8,0.2C125.8,140.6,126.2,140.3,126.5,140
				z"/>
		</g>
		<g>
			<path class="st12" d="M90.9,134.1c0.5-9.7,2.2-48.1,2.4-49.6l-3-0.6c-0.1,1.6-2.2,42.7-2.5,49.6L90.9,134.1z"/>
		</g>
		<path class="st2" d="M88.6,132.9c0.7-14.5,1.3-29,1.9-43.5c0.1-2,0.1-4,0.3-6c0.1-0.9-1.3-0.9-1.4,0c-0.8,13.7-1.2,27.4-1.8,41
			c-0.1,2.8-0.2,5.7-0.4,8.5C87.1,133.8,88.5,133.8,88.6,132.9L88.6,132.9z"/>
		<path class="st2" d="M92.6,84.3c-0.7,4.8-0.6,9.9-0.8,14.8c-0.4,8.3-0.8,16.6-1.2,24.9c-0.2,3.4-0.3,6.7-0.5,10.1
			c0,0.9,1.3,0.9,1.4,0c0.7-14.6,1.3-29.2,2.1-43.8c0.1-1.3,0.1-2.6,0.2-3.9c0-0.4,0-0.8,0.1-1.2c0-0.1,0.1-0.8,0-0.6
			C94.1,83.8,92.8,83.4,92.6,84.3L92.6,84.3z"/>
		<g>
			<path class="st7" d="M90.7,139.5c0.3-0.6,0.5-4.7,0.4-5.8c-0.7-0.1-2.8-0.1-3.4-0.2c-0.3,1-0.4,5.1-0.3,5.8
				C87.7,139.8,90.2,140.1,90.7,139.5z"/>
			<path class="st2" d="M91.3,139.9c0.2-0.4,0.2-0.8,0.3-1.3c0.1-0.6,0.1-1.1,0.2-1.7c0.1-1,0.2-2.1,0.1-3.1c0-0.4-0.3-0.7-0.7-0.7
				c-1.1-0.1-2.3-0.1-3.4-0.2c-0.3,0-0.6,0.2-0.7,0.5c-0.2,0.6-0.2,1.3-0.3,1.9c-0.1,0.8-0.1,1.6-0.1,2.4c0,0.6-0.1,1.2,0.1,1.8
				c0.2,0.8,1.3,0.9,1.9,0.9c0.8,0.1,1.9,0.2,2.5-0.5c0.6-0.6-0.3-1.6-1-1c-0.1,0.1,0.2-0.1,0,0c-0.1,0.1,0.1,0,0,0
				c-0.1,0-0.1,0-0.2,0c0,0-0.1,0-0.1,0c0.1,0,0.1,0,0,0c-0.3,0-0.6,0-0.9,0c-0.1,0-0.2,0-0.2,0c-0.2,0,0,0-0.1,0
				c-0.1,0-0.3,0-0.4-0.1c-0.1,0-0.2-0.1-0.3-0.1c0.2,0.1,0,0,0,0c-0.1-0.1,0.1,0.1,0,0c0.1,0.1,0.1,0.2,0.2,0.3c0-0.1,0,0.2,0,0.1
				c0,0,0-0.1,0-0.1c0-0.1,0-0.2,0-0.2c0-0.2,0-0.4,0-0.7c0-0.6,0-1.1,0-1.7c0-0.6,0.1-1.2,0.1-1.8c0-0.1,0-0.2,0-0.4
				c0,0,0-0.2,0-0.1c0,0.1,0-0.1,0-0.1c0-0.2,0.1-0.3,0.1-0.5c-0.2,0.2-0.4,0.3-0.7,0.5c1.1,0.1,2.3,0.1,3.4,0.2
				c-0.2-0.2-0.5-0.5-0.7-0.7c0.1,1,0,2-0.1,3c0,0.6-0.1,1.1-0.1,1.7c0,0.1,0,0.1,0,0.2c0,0.2,0-0.1,0,0c0,0.1,0,0.2-0.1,0.3
				c0,0.1,0,0.1,0,0.2c0,0.1-0.1,0.3,0,0c-0.2,0.3-0.1,0.7,0.2,1C90.6,140.3,91.1,140.2,91.3,139.9z"/>
		</g>
		<g>
			<path class="st7" d="M92.1,78.5c1.2,0.1,1.7,0.8,1.7,2.7c0,0.9-0.2,3-0.3,3.9c-0.1,1.4-0.8,1.9-1.6,1.8c-1.2-0.1-1.9-0.4-1.9-1.7
				c0-0.5,0.1-3.7,0.2-4.2C90.2,78.8,91.2,78.4,92.1,78.5z"/>
			<path class="st2" d="M92.1,79.2c0.5,0,0.7,0.2,0.9,0.7c0.2,0.7,0.1,1.4,0.1,2.2c-0.1,0.8-0.1,1.6-0.2,2.3c0,0.5,0,1.3-0.4,1.7
				c-0.3,0.3-1,0.2-1.4,0c-0.2-0.1-0.3-0.2-0.3-0.4c-0.1-0.2,0-0.4,0-0.7c0-1.2,0.1-2.3,0.1-3.5c0-0.6,0.1-1.3,0.4-1.9
				c0.1-0.1,0.1-0.2,0.2-0.3c0,0,0.1-0.1,0,0c0,0,0.2-0.1,0.1-0.1c0,0,0.1,0,0.1,0c0,0,0.2-0.1,0.2,0C91.8,79.2,92,79.2,92.1,79.2
				c0.9,0,0.9-1.4,0-1.4c-0.7,0-1.4,0.2-1.8,0.7c-0.6,0.7-0.8,1.7-0.9,2.6c-0.1,1.3-0.1,2.6-0.2,3.9c0,0.8,0.2,1.6,0.9,2.1
				c0.7,0.5,1.8,0.6,2.5,0.4c1-0.3,1.4-1.3,1.5-2.3c0.1-0.9,0.2-1.8,0.2-2.7c0.1-1,0.2-2.1-0.2-3.1c-0.4-1-1.1-1.5-2.1-1.6
				C91.2,77.7,91.2,79.1,92.1,79.2z"/>
		</g>
		<g>
			<path class="st1" d="M93.1,73.8c-0.5,0.6-1.8,1.3-2.5,1.6c-1.4,0.6-2.3,1.1-3.1,2.5c-0.7,1.2-0.7,1.7-1,3.3
				c-0.1,0.6-0.1,1.8,0.1,2.3c0.2,0.6,0.8,1.3,1.4,0.7c0.4,0.8,0.6,0.9,0.9,1.1c0.3,0.2,1.1-0.2,1.3-0.7c0.3-0.7,0.5-1.8,0.9-2.7
				c0.3-0.7,0.7-1.3,1.1-1.7c0.1,0.1,0.2,0.1,0.2,0.1c1.3,1.7,2.7,0.5,3.2-0.3c0.6-1.1,0.7-3.5,1.5-4.7"/>
		</g>
		<path class="st2" d="M92.5,78.6c-1,1.2-1.9,2.5-2.4,3.9c-0.1,0.4-0.2,0.8-0.4,1.2c-0.1,0.3-0.2,0.6-0.4,0.8
			c-0.2,0.2-0.3,0-0.1,0.2c0,0-0.2-0.1-0.2-0.1c-0.2-0.2-0.4-0.5-0.5-0.7c-0.2-0.4-0.8-0.4-1.1-0.1c0.1-0.1,0-0.1-0.1-0.3
			c-0.1-0.1-0.1-0.2-0.1-0.3c-0.1-0.2-0.1-0.5-0.1-0.7c0-0.6,0.1-1.1,0.2-1.7c0.2-1.1,0.5-2.1,1.1-3c0.6-0.9,1.4-1.3,2.4-1.7
			c1-0.4,2.1-1,2.9-1.8c0.6-0.7-0.4-1.6-1-1c-1,1-2.4,1.4-3.6,2.1c-1.2,0.7-2.1,1.9-2.6,3.2c-0.5,1.2-0.7,2.8-0.7,4.1
			c0,0.7,0.2,1.4,0.7,1.9c0.6,0.7,1.4,0.7,2,0.1c-0.4,0-0.7-0.1-1.1-0.1c0.3,0.6,0.8,1.3,1.5,1.4c0.9,0.2,1.7-0.6,2-1.3
			c0.4-1,0.6-2.1,1.1-3c0.4-0.8,1-1.5,1.5-2.2C94.1,78.9,93.1,77.9,92.5,78.6L92.5,78.6z"/>
		<path class="st2" d="M88.8,79.2c-0.7,1.6-1.2,3.2-1.6,4.9c-0.1,0.4,0.1,0.8,0.5,0.9c0.3,0.1,0.8-0.1,0.9-0.5
			c0.2-0.8,0.4-1.6,0.7-2.4c0.1-0.4,0.3-0.8,0.4-1.2c0.1-0.2,0.1-0.4,0.2-0.5c0-0.1,0.1-0.2,0.1-0.3c0,0,0-0.1,0-0.1
			c-0.1,0.2,0,0,0,0c0.1-0.3,0.1-0.7-0.2-1C89.5,78.8,88.9,78.9,88.8,79.2L88.8,79.2z"/>
		<g>
			<path class="st3" d="M117.7,43.1c0.2-0.1,0.4-0.1,0.6-0.2c-0.3,3.1-0.8,9.6-0.9,16.3c-0.1,4.6,0.1,9.2,0.3,12.7
				c-3.5,0-7.8,0-11.6,0c0.2-3.5,0.4-8.1,0.3-12.7c-0.1-6.7-0.6-13.2-0.9-16.4c1.8,0.8,4.2,1.4,6.4,1.4
				C113.8,44.1,116,43.7,117.7,43.1z"/>
		</g>
		<g>
			<path class="st1" d="M115.6,18.2c0.5,1.4,0.8,2.7,1.6,3.9c1.2,1.7,1.5,2,4.6,3.4c0.1,0,0.2,0,0.3,0c0.3,0.1,0.7,0.3,0.8,0.6
				c0.1,0.2,0.1,0.5,0.2,0.7c0.1,1-0.1,1.9-0.5,2.8c-0.2,0.4-0.4,0.8-0.8,1.1c-0.4,0.3-0.9,0.6-1.4,0.5c-0.5,3.9-2.5,6.3-4.6,7.1
				c0,0.3,0.1,0.6,0.1,0.8c0.1,0.6,0.1,1.2,0.9,1.5c0.1,0,1,0.4,1.1,0.4c0,0,0.2,0.1,0.4,0.2c0,0.3-0.1,0.8-0.1,1.5
				c-1.8,0.7-4.3,1.3-6.3,1.3c-2.3,0-4.6-0.6-6.4-1.4c-0.1-0.7-0.1-1.2-0.1-1.5c0.4-0.1,0.7-0.2,0.7-0.2c0.2-0.1,0.6-0.2,0.6-0.2
				c0.9-0.3,0.8-0.9,0.9-1.5c0.1-0.3,0.1-0.6,0.1-1c-2.6-1.3-4-4.2-4.5-7c-0.5,0-1-0.2-1.3-0.5c-0.4-0.3-0.6-0.7-0.8-1.1
				c-0.4-0.9-0.6-1.9-0.5-2.8c0-0.2,0.1-0.5,0.2-0.7c0.2-0.3,0.5-0.5,0.8-0.6c0.3,0,0.6,0,0.8,0.2c0.2-0.1,0.3-0.2,0.3-0.2
				c0.4-0.3,2.4-2.6,2.7-3.9c1.3-0.6,4.4-1.8,6.1-2.7c0,0,0.6,1.6,0.6,1.6C113.5,20.6,114.9,19.1,115.6,18.2"/>
		</g>
		<path class="st2" d="M103.5,42.5c2.6,1.7,6.1,2.5,9.2,2.4c2.6-0.1,5.8-0.8,7.9-2.5c0.7-0.6-0.3-1.5-1-1c-0.9,0.7-2,1.1-3.1,1.4
			c-1.3,0.4-2.7,0.7-4.1,0.7c-2.8,0.1-5.9-0.7-8.2-2.2C103.4,40.8,102.7,42,103.5,42.5L103.5,42.5z"/>
		<g>
			<path class="st3" d="M119.7,127.1c0,1.5,0.4,2.9,1,4.2l-6.7-0.1c0-1.3,0-2.5,0-3.8"/>
		</g>
		<g>
			<path class="st3" d="M105,127.1c0,1.5-0.4,2.9-1,4.2l6.7-0.1c0-1.3,0-2.5,0-3.8"/>
		</g>
		<path class="st2" d="M104.2,127.1c0,1.3-0.3,2.7-0.9,3.9c-0.2,0.3-0.1,0.8,0.2,1c0.3,0.2,0.8,0.1,1-0.2c0.7-1.4,1.1-3,1.1-4.6
			c0-0.4-0.3-0.7-0.7-0.7C104.5,126.4,104.2,126.7,104.2,127.1L104.2,127.1z"/>
		<path class="st2" d="M109.8,127.4c0,1.3,0,2.5,0,3.8c0,0.4,0.3,0.7,0.7,0.7c0.4,0,0.7-0.3,0.7-0.7c0-1.3,0-2.5,0-3.8
			c0-0.4-0.3-0.7-0.7-0.7C110.1,126.8,109.8,127,109.8,127.4L109.8,127.4z"/>
		<path class="st2" d="M98.7,139.6c-1.1-1.6,0.9-3.7,1.8-5c0.6-0.8,1.2-1.5,1.9-2.3c0.5-0.6,1.1-1.5,2-1.7c-0.3-0.3-0.6-0.6-0.9-0.9
			c-0.3,2.1,2,2.4,3.6,2.2c1.6-0.2,3.2-1,4.4-2.1c-0.4-0.2-0.8-0.3-1.2-0.5c0,0.8,0,1.5,0,2.3c0,0.7,0.2,1.8-0.3,2.4
			c-0.5,0.6-1.2,0.8-1.8,1.3c-0.6,0.5-1.1,1-1.6,1.6c-1,1.2-1.9,2.6-3.4,3.2c-1.5,0.7-3.6,0.5-4.7-0.8c-0.6-0.7-1.6,0.3-1,1
			c1.3,1.5,3.6,1.8,5.4,1.3c1.8-0.5,3-1.9,4.2-3.4c0.6-0.7,1.2-1.4,1.9-2c0.7-0.5,1.5-0.8,2-1.5c0.6-0.8,0.6-1.8,0.6-2.7
			c0-0.9,0-1.9,0-2.8c0-0.6-0.8-0.9-1.2-0.5c-0.7,0.7-1.6,1.2-2.5,1.5c-0.5,0.1-3.3,0.8-3.2-0.2c0.1-0.5-0.3-1-0.9-0.9
			c-1.1,0.3-1.8,1.2-2.5,2c-0.8,0.9-1.6,1.9-2.3,2.9c-1.3,1.7-3.2,4-1.7,6.1C98,141,99.2,140.3,98.7,139.6z"/>
		<path class="st2" d="M119,127.1c0,1.6,0.4,3.1,1.1,4.6c0.2,0.3,0.6,0.4,1,0.2c0.3-0.2,0.4-0.6,0.2-1c-0.6-1.2-0.9-2.5-0.9-3.9
			c0-0.4-0.3-0.7-0.7-0.7C119.3,126.4,119,126.7,119,127.1L119,127.1z"/>
		<path class="st2" d="M113.4,127.4c0,1.3,0,2.5,0,3.8c0,0.4,0.3,0.7,0.7,0.7c0.4,0,0.7-0.3,0.7-0.7c0-1.3,0-2.5,0-3.8
			c0-0.4-0.3-0.7-0.7-0.7C113.7,126.8,113.4,127,113.4,127.4L113.4,127.4z"/>
		<path class="st2" d="M127.1,140.3c1.5-2.1-0.4-4.5-1.7-6.1c-0.8-1-1.5-1.9-2.3-2.9c-0.7-0.8-1.4-1.7-2.5-2
			c-0.6-0.1-0.9,0.3-0.9,0.9c0.1,1-2.7,0.4-3.2,0.2c-0.9-0.3-1.8-0.8-2.5-1.5c-0.4-0.4-1.2-0.1-1.2,0.5c0,0.9,0,1.8,0,2.7
			c0,1-0.1,2,0.6,2.8c0.5,0.7,1.3,1,2,1.5c0.7,0.5,1.3,1.3,1.9,2c1.2,1.4,2.4,2.8,4.2,3.4c1.8,0.5,4.2,0.2,5.4-1.3
			c0.6-0.7-0.4-1.7-1-1c-1.1,1.3-3.2,1.4-4.7,0.8c-1.4-0.7-2.4-2.1-3.4-3.2c-0.5-0.6-1-1.1-1.6-1.6c-0.6-0.4-1.3-0.7-1.8-1.3
			c-0.5-0.6-0.3-1.6-0.3-2.3c0-0.8,0-1.6,0-2.4c-0.4,0.2-0.8,0.3-1.2,0.5c1.2,1.2,2.8,1.9,4.4,2.1c1.6,0.2,3.9-0.1,3.6-2.2
			c-0.3,0.3-0.6,0.6-0.9,0.9c0.8,0.2,1.4,1,1.9,1.6c0.7,0.8,1.3,1.6,1.9,2.4c1,1.2,3,3.3,1.8,5C125.4,140.3,126.6,141,127.1,140.3z"
			/>
		<g>
			<path class="st6" d="M122.3,71.9c0.4,1.6,1,4.1,1.3,6.2c1.7,9.9,0.1,20-0.7,29.6c-0.8,10-1.3,10.5-2,20.6
				c-3.1,0.3-5.6,0.3-8.8,0.1c-3.2,0.3-5.7,0.2-8.9-0.1c-0.8-10-1.3-10.5-2-20.6c-0.8-9.7-2.4-19.8-0.7-29.6c0.4-2,0.9-4.6,1.3-6.2"
				/>
		</g>
		<path class="st2" d="M111.6,90.1c-0.6,6.6-0.1,13.4-0.1,20.1c0,3.9,0,7.7,0,11.6c0,1.6,0,3.2,0,4.8c0,0.6-0.1,1.4,0.1,2
			c0.3,0.8,1.7,0.5,1.3-0.4c0.1,0.3,0-0.4,0-0.6c0-0.5,0-1,0-1.5c0-1.7,0-3.4,0-5c0-3.7,0-7.4,0-11.1c0-6.5-0.5-13.2,0.1-19.8
			C113.1,89.2,111.7,89.2,111.6,90.1L111.6,90.1z"/>
		<path class="st2" d="M101.1,71.7c-2.9,10.4-2.1,20.9-1.1,31.5c0.8,8.3,1.8,16.7,2.4,25c0,0.4,0.3,0.7,0.7,0.7
			c2.8,0.3,5.6,0.3,8.4,0.1c0.9-0.1,0.9-1.5,0-1.4c-2.8,0.2-5.6,0.2-8.4-0.1c0.2,0.2,0.5,0.5,0.7,0.7c-0.6-8.1-1.6-16.2-2.4-24.4
			c-1-10.7-2-21.3,1-31.8C102.7,71.2,101.3,70.8,101.1,71.7L101.1,71.7z"/>
		<path class="st2" d="M121.6,72.1c2.9,10.6,2,21.1,1,31.8c-0.8,8.1-1.7,16.2-2.4,24.4c0.2-0.2,0.5-0.5,0.7-0.7
			c-2.8,0.3-5.6,0.3-8.4,0.1c-0.9-0.1-0.9,1.3,0,1.4c2.8,0.2,5.6,0.2,8.4-0.1c0.4,0,0.7-0.3,0.7-0.7c0.7-8.3,1.6-16.7,2.4-25
			c1-10.7,1.8-21.1-1.1-31.5C122.7,70.8,121.4,71.2,121.6,72.1L121.6,72.1z"/>
		<path class="st2" d="M101.8,72.5c6.8,0,13.6,0,20.4,0c0.9,0,0.9-1.4,0-1.4c-6.8,0-13.6,0-20.4,0C100.9,71.1,100.9,72.5,101.8,72.5
			L101.8,72.5z"/>
		<g>
			<path class="st13" d="M95.3,54c-0.5,2.7-1.1,5.9-1.2,6.8c-0.3,1.5-2.5,11.3-2.8,12.6c0.2,0.3,5.4,2.2,6.3,2.2
				c1.1-3,3.5-11,3.6-14.2c0,0,0-0.2,0-0.5c0.2,1.8,0.5,3.7,0.5,3.7c0.2,1.4-0.7,6.8-1.5,10.8c0.1,0.1,0.3,0.1,0.3,0.1
				c1.3,0.8,3.8,1.1,5.3,1.2c0.1,0,0.1-0.7,0.1-0.8c0.1-3.5,0.6-10.1,0.5-16.6c-0.2-8.4-0.9-16.3-1-18c-1,0.4-2,0.8-3,1.3
				c-1.7,0.8-3.5,2-4.7,3.5c-1,1.3-1.6,4.2-2,6C95.6,52.5,95.5,53.2,95.3,54z"/>
		</g>
		<path class="st2" d="M96.3,74.9c-0.8,1.2-0.8,2.8-1.2,4.1c0,0.1,0,0.1-0.1,0.2c0,0-0.1,0.3,0,0.1c-0.1,0.1-0.1,0.3-0.2,0.4
			c-0.2,0.2-0.4,0.5-0.7,0.6c-0.1,0-0.1,0,0,0c0,0-0.1,0-0.1,0c-0.1,0-0.1,0-0.2,0c0.2,0-0.1,0-0.1,0c-0.1,0,0,0,0,0
			c0,0-0.1,0-0.1,0c-0.1,0-0.2-0.1-0.3-0.1c-0.2-0.1-0.3-0.3-0.5-0.5c-0.2-0.3-0.7-0.2-1,0c-0.3,0.3-0.2,0.7,0,1
			c0.6,0.8,1.5,1.3,2.4,1c0.8-0.2,1.6-0.9,1.9-1.7c0.3-0.7,0.5-1.5,0.7-2.3c0.1-0.4,0.2-0.8,0.3-1.2c0.1-0.4,0.2-0.6,0.4-0.9
			C98,74.9,96.8,74.2,96.3,74.9L96.3,74.9z"/>
		<path class="st2" d="M107.1,38.3c0,0.1,0,0.2,0,0.3c0,0.1,0,0,0-0.1c0,0,0,0.1,0,0.1c0,0.1,0,0.1,0,0.2c0,0.2-0.1,0.3-0.1,0.5
			c0,0.1,0,0.2-0.1,0.3c0,0.1,0,0.1,0,0.2c0,0,0,0.1,0,0.1c0,0.1,0.1-0.2,0-0.1c0,0,0,0,0,0.1c0,0-0.1,0.1,0,0c0.1-0.1,0,0,0,0
			c0,0-0.1,0.1-0.1,0.1c-0.1,0.1,0.1-0.1,0,0c0,0-0.1,0-0.1,0.1c0,0-0.1,0-0.1,0.1c-0.1,0.1,0.2-0.1,0,0c-0.2,0.1-0.4,0.2-0.7,0.2
			c-0.3,0.1-0.6,0.5-0.5,0.9c0.1,0.3,0.5,0.6,0.9,0.5c0.7-0.2,1.4-0.4,1.8-1.1c0.2-0.3,0.2-0.6,0.3-0.9c0.1-0.5,0.1-0.9,0.2-1.4
			c0-0.4-0.3-0.7-0.7-0.7C107.4,37.6,107.2,37.9,107.1,38.3L107.1,38.3z"/>
		<path class="st2" d="M115.1,38.4c0.1,0.4,0.1,0.9,0.2,1.3c0,0.3,0.1,0.6,0.3,0.9c0.3,0.4,0.6,0.6,1.1,0.8c0.2,0.1,0.3,0.1,0.5,0.2
			c0.2,0.1,0.4,0.2,0.6,0.2c0.2,0.1,0.4,0,0.5-0.1c0.1-0.1,0.3-0.2,0.3-0.4c0-0.2,0-0.4-0.1-0.5c-0.1-0.2-0.2-0.2-0.4-0.3
			c-0.2-0.1-0.4-0.2-0.7-0.3c-0.1,0-0.2-0.1-0.4-0.1c0,0-0.1,0-0.1,0c0,0,0,0,0,0c-0.1,0-0.1,0,0,0c0,0-0.1,0-0.1-0.1
			c0,0-0.1,0-0.1-0.1c-0.1-0.1,0.1,0.1,0,0c0,0-0.1-0.1-0.1-0.1c0.1,0.1,0.1,0.1,0,0c0,0,0-0.1-0.1-0.1c0.1,0.2,0,0.1,0,0
			c0-0.1,0-0.1-0.1-0.2c0-0.2-0.1-0.3-0.1-0.5c0-0.1,0-0.3-0.1-0.4c0,0,0-0.1,0-0.1c0,0.1,0,0.1,0,0c0-0.1,0-0.1,0-0.2
			c0-0.2-0.1-0.4-0.2-0.5c-0.1-0.1-0.3-0.2-0.5-0.2C115.5,37.8,115.1,38,115.1,38.4L115.1,38.4z"/>
		<g>
			<path class="st14" d="M115.6,18.3c0.5,1.4,0.8,2.7,1.6,3.9c0.8,1.2,1.2,1.7,2.5,2.4l1.3,1.3c0.2-0.2,0.6-0.4,0.9-0.3
				c0.2-0.6,0.3-1.6,0.3-2.5c-0.2-2.7-1.2-5.6-2.9-7.3c-2.2-2.1-4-3-8-3c-3.3,0-5.9,1.6-7.2,2.9c-2.3,2.3-3.3,5.7-2.8,8.5l0.3,1.4
				c0.3,0,0.6,0,0.8,0.2c0.2-0.1,0.3-0.2,0.3-0.2c0.4-0.2,2.2-2.4,2.6-3.8c0.9-0.6,4.2-1.7,6.1-2.8c0.1,0.2,0.6,1.6,0.6,1.6
				C113.5,20.6,114.9,19.2,115.6,18.3"/>
		</g>
		<path class="st2" d="M122.8,25.6c0.7-2.5-0.1-5.5-1.2-7.8c-1-2-2.7-3.8-4.7-4.7c-4.2-2-10-1.1-13.3,2.2c-2.1,2.1-3.2,5.2-3,8.2
			c0.1,0.9,1.5,0.9,1.4,0c-0.2-2.9,0.9-5.9,3.2-7.8c2.2-1.9,5-2.4,7.9-2.2c2.4,0.2,4.4,1.2,6,2.9c1.9,2.1,3.1,6,2.3,8.7
			C121.2,26.1,122.5,26.5,122.8,25.6L122.8,25.6z"/>
		<path class="st2" d="M114.9,18.4c0.5,1.5,0.9,3,1.8,4.3c0.3,0.5,0.7,1,1.1,1.4c0.5,0.4,1,0.8,1.6,1.1c0.8,0.4,1.5-0.8,0.7-1.2
			c-0.5-0.3-0.9-0.5-1.3-0.9c-0.4-0.4-0.6-0.8-1-1.2c-0.8-1.2-1.2-2.5-1.6-3.9c-0.1-0.4-0.5-0.6-0.9-0.5
			C115.1,17.6,114.8,18,114.9,18.4L114.9,18.4z"/>
		<path class="st2" d="M115,17.9C115.1,17.7,115,17.9,115,17.9c-0.1,0.1-0.2,0.2-0.2,0.3c-0.1,0.1-0.2,0.2-0.3,0.4
			c-0.2,0.3-0.5,0.5-0.8,0.8c0,0-0.1,0.1,0,0c0,0-0.1,0.1-0.1,0.1c-0.1,0.1-0.2,0.1-0.2,0.2c-0.1,0.1-0.3,0.2-0.5,0.3
			c0,0-0.1,0-0.1,0.1c0.2-0.1,0,0,0,0c-0.1,0-0.2,0.1-0.2,0.1c0,0-0.2,0.1-0.2,0c0.1,0,0.1,0,0.1,0c0,0,0,0-0.1,0c0,0-0.1,0-0.1,0
			c-0.4,0-0.7,0.3-0.7,0.7c0,0.4,0.3,0.7,0.7,0.7c0.9,0,1.7-0.5,2.4-1c0.6-0.5,1.1-1.1,1.6-1.7c0.2-0.3,0.1-0.8-0.2-1
			C115.6,17.4,115.2,17.6,115,17.9L115,17.9z"/>
		<path class="st2" d="M104.8,21.6c0,0.1,0,0.2-0.1,0.2c0,0.1-0.1,0.2,0,0c0,0,0,0.1-0.1,0.1c-0.1,0.2-0.2,0.4-0.3,0.6
			c-0.2,0.4-0.5,0.8-0.8,1.2c0,0-0.1,0.1-0.1,0.1c0,0,0,0.1-0.1,0.1c0.1-0.1,0.1-0.1,0,0c-0.1,0.1-0.1,0.2-0.2,0.3
			c-0.1,0.2-0.2,0.3-0.4,0.4c-0.1,0.1-0.2,0.2-0.3,0.3c0,0-0.1,0.1-0.1,0.1c-0.1,0.1,0.1-0.1,0,0c-0.3,0.2-0.5,0.6-0.2,1
			c0.2,0.3,0.6,0.5,1,0.2c0.3-0.2,0.5-0.4,0.7-0.6c0.3-0.4,0.6-0.7,0.9-1.1c0.6-0.7,1.1-1.6,1.4-2.5c0.1-0.4-0.1-0.8-0.5-0.9
			C105.3,21,104.9,21.2,104.8,21.6L104.8,21.6z"/>
		<path class="st2" d="M112,17.9C112,17.9,112,18,112,17.9C111.8,18.1,112,18,112,17.9c-0.2,0.1-0.2,0.2-0.3,0.2
			c-0.2,0.1-0.5,0.3-0.7,0.4c-0.6,0.3-1.2,0.6-1.8,0.8c-1.2,0.5-2.5,1-3.7,1.6c-0.4,0.2-0.9,0.4-1.1,0.7c-0.5,0.8,0.7,1.5,1.2,0.7
			c0-0.1-0.1,0.2-0.1,0.1c0,0-0.2,0.1-0.1,0.1c0.1,0,0.1-0.1,0.2-0.1c0.2-0.1,0.4-0.2,0.6-0.3c0.6-0.3,1-0.4,1.6-0.7
			c1.3-0.5,2.7-1.1,3.9-1.7c0.5-0.2,1-0.5,1.4-0.9C113.6,18.2,112.6,17.3,112,17.9L112,17.9z"/>
		<path class="st2" d="M109.6,34.5c0.6,0.5,1.5,0.7,2.3,0.7c0.8,0,1.7-0.1,2.3-0.7c0.4-0.4-0.2-1-0.6-0.6c0,0,0,0,0,0
			c-0.1,0.1,0.1,0,0,0c0,0-0.1,0.1-0.1,0.1c-0.1,0-0.1,0.1-0.2,0.1c-0.1,0.1,0.1,0,0,0c0,0-0.1,0-0.1,0c-0.4,0.1-0.8,0.2-1.2,0.2
			c-0.4,0-0.8,0-1.2-0.2c-0.1,0-0.2-0.1-0.3-0.1c0,0-0.1-0.1-0.1-0.1c-0.1,0,0.1,0.1,0,0c0,0,0,0,0,0
			C109.8,33.5,109.2,34.1,109.6,34.5L109.6,34.5z"/>
		<path class="st2" d="M111.4,28.9c0.1,0.4,0.2,0.9,0.3,1.3c0,0.1,0,0.1,0,0.2c0,0,0,0.1,0,0c0-0.1,0,0,0,0c0,0,0,0,0,0
			c0,0.1,0-0.1,0,0c0,0,0,0,0,0c0,0,0-0.1,0.1-0.1c0,0,0.1,0,0,0c0.1,0,0,0,0,0c0,0-0.1,0-0.1,0c0,0,0.1,0,0,0c0,0,0,0-0.1,0
			c-0.1,0,0.1,0,0,0c0,0-0.1,0-0.1,0c-0.1,0-0.2,0-0.3,0c-0.1,0.1-0.2,0.2-0.2,0.3c0,0.2,0.1,0.5,0.3,0.5c0.2,0,0.5,0.1,0.7,0
			c0.2-0.1,0.4-0.2,0.5-0.4c0-0.1,0-0.2,0-0.3c0-0.3-0.1-0.6-0.2-0.8c-0.1-0.3-0.1-0.5-0.2-0.8c-0.1-0.2-0.3-0.4-0.5-0.3
			C111.5,28.4,111.4,28.7,111.4,28.9L111.4,28.9z"/>
		<path class="st2" d="M115.7,39.2c4-1.4,5.5-6.2,5.5-10c0-0.9-1.4-0.9-1.4,0c0,2.1-0.4,4.2-1.4,6c-0.7,1.2-1.7,2.3-3,2.7
			C114.5,38.1,114.9,39.5,115.7,39.2L115.7,39.2z"/>
		<path class="st2" d="M102.5,29.8c0.1,4.3,2.4,8.9,6.9,9.8c0.9,0.2,1.2-1.2,0.4-1.3c-3.9-0.8-5.8-4.8-5.9-8.5
			C103.9,28.9,102.5,28.9,102.5,29.8L102.5,29.8z"/>
		<path class="st2" d="M103.2,25.4c-0.7-0.7-1.9-0.7-2.6,0c-0.6,0.7-0.6,1.7-0.5,2.6c0.2,1.7,1.2,4.1,3.2,4c0.9,0,0.9-1.4,0-1.4
			c-1.1,0-1.6-1.5-1.8-2.4c-0.1-0.5-0.2-1.2,0-1.7c0.1-0.2,0.2-0.2,0.3-0.3c0.1-0.1,0.3,0,0.5,0.1c0.3,0.3,0.7,0.3,1,0
			C103.4,26.1,103.4,25.6,103.2,25.4L103.2,25.4z"/>
		<path class="st2" d="M121.6,26.4c0.3-0.2,0.6-0.1,0.7,0.2c0.1,0.3,0.1,0.6,0.1,0.8c0,0.3,0,0.6-0.1,0.9c-0.2,0.9-0.7,2.4-1.8,2.4
			c-0.9,0-0.9,1.4,0,1.4c2.1,0,3-2.3,3.2-4c0.1-0.9,0.1-1.9-0.5-2.6c-0.7-0.7-1.9-0.7-2.6,0c-0.3,0.3-0.3,0.7,0,1
			C120.9,26.6,121.3,26.6,121.6,26.4L121.6,26.4z"/>
		<g>
			<g>
				<path class="st2" d="M101.7,26.1c0.7,0,0.7-1,0-1C101,25.1,101,26.1,101.7,26.1L101.7,26.1z"/>
			</g>
		</g>
		<path class="st2" d="M115,33.1c0,0,0.1,0,0.1,0.1C115.1,33.1,115.1,33.1,115,33.1c0.1,0.1,0.2,0.2,0.3,0.3c0,0,0-0.1-0.1-0.1
			c0.1,0.1,0.2,0.3,0.2,0.4c0,0,0-0.1,0-0.1c0.1,0.1,0.1,0.3,0.1,0.4c0,0.1,0.1,0.2,0.2,0.3c0.1,0.1,0.2,0.1,0.3,0
			c0.1,0,0.2-0.1,0.3-0.2c0,0,0-0.1,0-0.1c0-0.1,0-0.2,0-0.2c-0.1-0.6-0.5-1.2-1-1.5c-0.2-0.1-0.5,0-0.6,0.2
			C114.8,32.7,114.8,32.9,115,33.1L115,33.1z"/>
		<path class="st2" d="M108.3,32.3c-0.5,0.3-0.9,0.9-1,1.5c0,0.1,0,0.2,0,0.3c0.1,0.1,0.2,0.2,0.3,0.2c0.1,0,0.2,0,0.3,0
			c0.1-0.1,0.2-0.2,0.2-0.3c0-0.1,0.1-0.3,0.1-0.4c0,0,0,0.1,0,0.1c0.1-0.1,0.1-0.3,0.2-0.4c0,0,0,0.1-0.1,0.1
			c0.1-0.1,0.2-0.2,0.3-0.3c0,0-0.1,0-0.1,0.1c0,0,0.1-0.1,0.1-0.1c0.1-0.1,0.2-0.1,0.2-0.3c0-0.1,0-0.2,0-0.3
			C108.7,32.3,108.5,32.2,108.3,32.3L108.3,32.3z"/>
		<path class="st2" d="M107.6,28.8c0.3-0.1,0.6-0.2,0.9-0.4c0,0-0.1,0-0.1,0c0.1,0,0.2-0.1,0.3-0.1c0.1,0,0.2-0.1,0.3-0.2
			c0.1-0.1,0.1-0.2,0-0.3c-0.1-0.2-0.3-0.4-0.5-0.3c-0.3,0.1-0.6,0.2-0.8,0.3c0,0,0.1,0,0.1,0c-0.1,0-0.2,0.1-0.3,0.1
			c-0.1,0-0.2,0.1-0.3,0.2c-0.1,0.1-0.1,0.2,0,0.3C107.1,28.7,107.3,28.9,107.6,28.8L107.6,28.8z"/>
		<path class="st2" d="M116.5,28c-0.1,0-0.2-0.1-0.3-0.1c0,0,0.1,0,0.1,0c-0.3-0.1-0.5-0.3-0.8-0.3c-0.2-0.1-0.5,0.1-0.5,0.3
			c-0.1,0.2,0.1,0.5,0.3,0.5c0.1,0,0.2,0.1,0.3,0.1c0,0-0.1,0-0.1,0c0.3,0.1,0.6,0.3,0.9,0.4c0.2,0.1,0.5-0.1,0.5-0.3
			C116.8,28.3,116.7,28,116.5,28L116.5,28z"/>
		<g>
			<path class="st13" d="M125.6,78.6c1.3-0.1,2.8-0.2,3.9-0.2c0.2,0,0.4-0.2,0.4-0.4c-0.8-4.8-1-16.4-2-25.7
				c-0.2-1.7-0.5-4.7-2.3-6.7c-1.7-1.9-5.9-4-7.2-4.5c-0.1,1.4-0.9,9.5-1,18.1c-0.1,6.6,0.4,13.2,0.5,16.6c0,0.2,0,0.8,0.1,0.8
				c1.6,0,4.4-0.4,5.5-1.3c0.3,1.4,0.5,2.6,0.7,3.4C124.7,78.6,125.1,78.6,125.6,78.6z"/>
		</g>
		<path class="st2" d="M124.7,78.8c-0.3,2.3,0.1,4.7,0.2,7c0,0.5,0,1,0.3,1.4c0.3,0.4,0.8,0.5,1.2,0.4c0.7-0.3,1.1-1.2,1.6-1.8
			c-0.4-0.2-0.8-0.3-1.2-0.5c0.1,1.4,0.3,2.8,0.3,4.2c0,0.7-0.1,1.5,0.1,2.1c0.2,0.7,1.1,1,1.8,0.9c1.5-0.2,2.1-2.1,2.2-3.3
			c0.1-1.4,0.2-2.7-0.1-4.1c-0.5-2.2-1.5-4.1-1.8-6.3c-0.1-0.9-1.5-0.9-1.4,0c0.3,2,1,3.8,1.6,5.7c0.5,1.5,0.5,3.1,0.4,4.7
			c-0.1,0.6-0.2,1.3-0.6,1.8c-0.2,0.2-0.4,0.4-0.7,0.3c0,0,0,0,0,0.1c0-0.1,0-0.2,0-0.4c0-0.4,0-0.8,0-1.1c0-1.5-0.1-2.9-0.3-4.4
			c-0.1-0.6-0.7-1-1.2-0.5c-0.2,0.2-0.4,0.5-0.5,0.7c-0.1,0.1-0.6,0.7-0.6,0.8c0.1-0.1,0.2-0.1,0.4,0c0-0.1,0-0.1,0-0.2
			c0.1-0.2,0-0.5,0-0.7c0-0.4,0-0.8-0.1-1.3c-0.1-1.8-0.3-3.6-0.1-5.4C126.2,77.9,124.8,77.9,124.7,78.8L124.7,78.8z"/>
		<path class="st2" d="M118.2,41.7c3.1,1.3,6.9,3.3,8.2,6.6c0.7,1.8,0.8,3.7,0.9,5.6c0.2,2.2,0.4,4.3,0.5,6.5
			c0.3,4.1,0.5,8.1,0.8,12.2c0.1,1.5,0.2,3,0.4,4.5c0,0.1,0.2,0.8,0.1,0.8c0.2-0.2-1.3-0.1-1.3-0.1c-1.2,0.1-2.3,0.1-3.5,0.2
			c-0.9,0-0.9,1.4,0,1.4c1.4,0,2.7-0.1,4.1-0.2c0.6,0,1.5,0.1,1.9-0.5c0.4-0.5,0.1-1.3,0-1.8c-0.1-0.9-0.2-1.8-0.3-2.7
			c-0.4-4.7-0.6-9.5-0.9-14.3c-0.2-2.5-0.4-5-0.6-7.6c-0.2-1.8-0.4-3.7-1.3-5.4c-1.6-3.2-5.5-5.2-8.7-6.5
			C117.8,40,117.4,41.4,118.2,41.7L118.2,41.7z"/>
		<path class="st2" d="M122,52.5c0.3,2.3,0,4.9-0.1,7.2c-0.2,2-0.6,4.1-0.5,6.1c0.3,4.4,1.2,8.8,2.2,13c0.2,0.9,1.5,0.5,1.3-0.4
			c-1-4.2-2-8.7-2.2-13.1c-0.1-2.1,0.4-4.3,0.5-6.4c0.2-2.3,0.4-4.6,0-6.8C123.2,51.2,121.9,51.6,122,52.5L122,52.5z"/>
		<path class="st2" d="M117.7,41.1c-0.3,5.7-0.9,11.3-1,17c-0.1,3.8,0,7.5,0.2,11.3c0.1,1.5,0.1,3,0.2,4.5c0,0.9-0.1,2.1,0.3,2.9
			c0.1,0.2,0.4,0.4,0.6,0.3c1.9-0.1,3.9-0.3,5.6-1.2c0.8-0.4,0.1-1.6-0.7-1.2c-1.5,0.8-3.3,1-4.9,1.1c0.2,0.1,0.4,0.2,0.6,0.3
			c-0.4-0.7-0.1-2.3-0.2-3.1c-0.1-1.6-0.2-3.2-0.2-4.8c-0.1-3.7-0.2-7.4-0.1-11.1c0.2-5.3,0.6-10.7,1-16
			C119.2,40.2,117.8,40.2,117.7,41.1L117.7,41.1z"/>
		<path class="st2" d="M100.5,52.1c-0.5,3.6,0,7.6,0.4,11.2c0.4,3.9-0.6,8-1.3,11.8c-0.2,0.9,1.2,1.2,1.3,0.4c0.5-2.3,0.9-4.7,1.2-7
			c0.2-1.6,0.4-3.1,0.2-4.7c-0.2-2-0.4-4-0.5-5.9c-0.1-1.8-0.3-3.6,0-5.4C102,51.6,100.6,51.2,100.5,52.1L100.5,52.1z"/>
		<path class="st2" d="M104.7,41.1c0.3,5.3,0.8,10.7,1,16c0.1,3.6,0.1,7.2-0.1,10.9c-0.1,1.6-0.1,3.2-0.2,4.8c0,0.9,0.2,2.6-0.2,3.4
			c0.2-0.1,0.4-0.2,0.6-0.3c-1.7,0-3.5-0.2-4.9-1.1c-0.8-0.4-1.5,0.8-0.7,1.2c1.7,0.9,3.7,1.2,5.6,1.2c0.2,0,0.5-0.1,0.6-0.3
			c0.4-0.8,0.2-1.9,0.3-2.7c0.1-1.5,0.1-3,0.2-4.5c0.2-3.9,0.3-7.7,0.2-11.6c-0.1-5.7-0.6-11.3-1-17
			C106.1,40.2,104.7,40.2,104.7,41.1L104.7,41.1z"/>
		<path class="st2" d="M105.2,40.5c-3.8,1.5-7.8,3.3-9.1,7.4c-1.2,3.6-1.7,7.5-2.4,11.2c-0.8,4.7-1.8,9.5-3.1,14.1
			c-0.1,0.2,0,0.5,0.2,0.7c0.8,0.7,2.1,1,3,1.3c1.2,0.4,2.5,1,3.8,1.1c0.3,0,0.6-0.2,0.7-0.5c1.6-4.5,3.3-9.5,3.7-14.4
			c0.1-0.9-1.3-0.9-1.4,0c-0.3,4.7-2,9.6-3.6,14c0.2-0.2,0.4-0.3,0.7-0.5c-1-0.1-2.1-0.6-3.1-0.9c-0.8-0.3-2.1-0.5-2.8-1.1
			c0.1,0.2,0.1,0.5,0.2,0.7c1.1-4.2,2.1-8.6,2.9-12.9c0.6-3.1,1-6.2,1.8-9.3c0.5-2,0.9-4.2,2.3-5.7c1.8-1.8,4.3-2.9,6.7-3.8
			C106.4,41.5,106.1,40.1,105.2,40.5L105.2,40.5z"/>
		<g>
			<path class="st2" d="M92,69.6c0.5,0.4,5.6,2,6.9,2.3c0.1-0.3,0.3-1.1,0.3-1.4c-1.4-0.5-5.5-1.7-7-2.2
				C92.2,68.5,92.1,69.2,92,69.6z"/>
			<path class="st2" d="M91.7,70.2c0.4,0.2,0.8,0.4,1.3,0.5c0.7,0.2,1.4,0.5,2,0.7c1.3,0.4,2.5,0.8,3.8,1.1c0.4,0.1,0.7-0.1,0.9-0.5
				c0.2-0.4,0.3-0.9,0.3-1.4c0.1-0.4-0.1-0.7-0.5-0.9c-2.3-0.8-4.6-1.5-7-2.2c-0.4-0.1-0.7,0.1-0.9,0.5c-0.2,0.5-0.3,1-0.3,1.5
				c0,0.4,0.4,0.7,0.7,0.7c0.4,0,0.7-0.3,0.7-0.7c0-0.4,0.1-0.8,0.3-1.1c-0.3,0.2-0.6,0.3-0.9,0.5c2.3,0.7,4.7,1.4,7,2.2
				c-0.2-0.3-0.3-0.6-0.5-0.9c-0.1,0.5-0.2,1-0.3,1.4c0.3-0.2,0.6-0.3,0.9-0.5c-1.3-0.3-2.5-0.7-3.7-1.1c-0.7-0.2-1.4-0.4-2-0.7
				c-0.2-0.1-0.5-0.2-0.7-0.3c0,0-0.1,0-0.1-0.1c0.2,0.1,0,0,0,0c-0.1,0-0.1-0.1-0.2-0.1C91.6,68.5,90.9,69.7,91.7,70.2z"/>
		</g>
	</g>
	<path class="st2" d="M36.5,18.3c-1.3,0.3-2.6,1.3-2.9,2.7c-0.3,1.2,0,2.6,0.7,3.6c0.6,1,1.6,1.6,2.8,1.6c1.3,0.1,2.5-0.7,3.3-1.6
		c0.2-0.3,0.3-0.7,0-1c-0.2-0.2-0.7-0.3-1,0c-0.2,0.2-0.3,0.4-0.5,0.5c-0.2,0.1-0.2,0.2-0.5,0.3c-0.1,0.1-0.2,0.1-0.3,0.2
		c-0.1,0,0.2-0.1,0,0c-0.1,0-0.1,0-0.2,0.1c-0.1,0-0.2,0.1-0.3,0.1c-0.1,0-0.1,0-0.2,0c0.1,0,0,0,0,0c-0.1,0-0.2,0-0.3,0
		c-0.1,0-0.4,0-0.2,0c-0.1,0-0.2,0-0.3-0.1c0,0-0.1,0-0.1,0c0,0-0.2-0.1-0.1,0c-0.1,0-0.2-0.1-0.3-0.1c-0.1,0-0.1-0.1-0.1-0.1
		c0,0-0.2-0.1-0.1-0.1c0.1,0.1-0.1-0.1-0.1-0.1c0,0-0.1-0.1-0.1-0.1c-0.1-0.1-0.2-0.2-0.3-0.3c0.1,0.1,0,0,0,0c0,0-0.1-0.1-0.1-0.1
		c-0.1-0.1-0.1-0.2-0.2-0.3C35.1,23.3,35,23,35,22.7c0-0.1-0.1-0.2-0.1-0.4c0-0.2,0,0.1,0-0.1c0,0,0-0.1,0-0.1c0-0.1,0-0.3,0-0.4
		c0,0,0-0.1,0-0.1c0,0.2,0-0.1,0-0.1c0-0.1,0-0.2,0.1-0.3c0,0,0.1-0.2,0,0c0,0,0-0.1,0-0.1c0-0.1,0.1-0.2,0.1-0.2c0,0,0-0.1,0.1-0.1
		c0.1-0.2,0,0,0-0.1c0.1-0.1,0.2-0.2,0.3-0.3c0.1,0,0.2-0.2,0.1-0.1c0.1-0.1,0.2-0.1,0.2-0.2c0.1-0.1,0.3-0.2,0.4-0.2
		c0.1,0,0.1-0.1,0.2-0.1c0.1-0.1-0.1,0.1-0.1,0c0,0,0.1,0,0.1,0c0.1,0,0.2-0.1,0.3-0.1C37.8,19.5,37.4,18.1,36.5,18.3L36.5,18.3z"/>
</g>
</svg>
