<?xml version="1.0" encoding="utf-8"?>
<!-- Generator: Adobe Illustrator 24.2.0, SVG Export Plug-In . SVG Version: 6.00 Build 0)  -->
<svg version="1.1" id="レイヤー_1" xmlns="http://www.w3.org/2000/svg" xmlns:xlink="http://www.w3.org/1999/xlink" x="0px"
	 y="0px" viewBox="0 0 144 144" style="enable-background:new 0 0 144 144;" xml:space="preserve">
<style type="text/css">
	.st0{fill:#FFF6E9;}
	.st1{fill:#795D28;}
	.st2{fill:#231815;}
	.st3{fill:#FFFAC8;}
	.st4{fill:#A87452;}
	.st5{fill:#FBE0C6;}
	.st6{fill:none;}
	.st7{fill:#656464;}
	.st8{fill:#94D4F5;}
	.st9{fill:#FFFFFF;}
</style>
<g>
	<g id="お父さん_2_">
		<g>
			<path class="st0" d="M25,65.6c0.3-0.1,4.5-2.6,5.5-4.9c0.6-1.5,0.5-3.7,0.5-5.4c-1.3-1-2.6-2.1-3.8-3.5c-2.2-2.6-3.3-5.4-3.9-7.8
				c-0.3,0.1-0.5,0.1-0.5,0.1c-0.8-0.1-1.6-0.5-2.2-1c-0.8-0.7-1.4-1.5-1.9-2.4c-0.9-1.8-1.3-3.9-1.2-5.9c0-0.5,0.1-1,0.4-1.5
				c0.4-0.7,1.1-1.1,1.9-1.3c0.8-0.1,1.7,0.1,2.3,0.7l3.2-0.4c-1.1-3.3,5.6-5.1,6.8-8.1c1.2-3,7.8-4.4,10.3-6.3l8.8,0.6
				c2.2,0.4,3.4,2,4,4.5c0.7,2.6,3.2,8,3,10.4c0.1,0,0.1,0,0.1,0l1.8-0.1c0.6-0.5,1.5-0.8,2.3-0.7c0.8,0.1,1.6,0.6,1.9,1.3
				c0.3,0.5,0.3,1,0.4,1.5c0.2,2-0.2,4.1-1.2,5.9c-0.5,0.9-1,1.8-1.9,2.4c-0.6,0.5-1.4,0.9-2.2,1c0,0-0.1,0-0.4,0.1
				c-0.2,0.6-0.4,1.2-0.5,1.5c-0.6,1.6-3.8,7-7.9,9.6c0,1.6-0.1,3.5,0.5,4.9c0.9,2.3,5.9,5.2,6.2,5.3c0,0-3.8,11.1-16.9,11.1
				C27.5,77.1,25,65.6,25,65.6z"/>
		</g>
		<g>
			<path class="st1" d="M51.2,18.4c2.2,0.4,3.4,2,4,4.5c0.7,2.6,3.2,8,3,10.4c0.1,0,0.1,0,0.1,0l1.8-0.1c0.6-0.5,1.5-0.8,2.3-0.7
				c0.5,0.1,0.9,0.3,1.3,0.6c0.8-1.5,1.6-2.9,1.6-2.9c0.9-2.3,1.7-3.6,0.7-5.3c-1.6-2.7-0.7-4.4-1.1-6.1c-0.9-3.5-1.9-4.5-3.4-6
				c-0.9-0.8-2.1-3.2-3.2-3.8c-1.1-0.5-2.6-0.2-3.1,0.9L51.9,7c-0.3-1.9-4.3-4.2-8-5.3c-2.9-0.9-6.2-1.5-8.8,0.1
				c-2,1.2-3.6,3.5-5.9,3.5c-0.6,0-1.2-0.1-1.8-0.1c-1.4,0.1-2.4,1.3-3.1,2.6c-0.6,1.2-1.1,2.6-2,3.7c0,0,0.2,0.6,0.4,1.4
				c-1.6,1.4-3.1,2.9-4.4,4.6c-1,1.3-1.9,2.9-1.4,4.4c0.2,0.7,0.8,1.3,0.8,2.1c0,0.7,0,2.1-0.3,2.8c-1.2,2.9,0.6,3.9,1.3,5.7
				c0.3-0.2,0.7-0.3,1-0.4c0.8-0.1,1.7,0.1,2.3,0.7l3.2-0.4c-1.1-3.3,5.6-5.1,6.8-8.1c1.2-3,7.8-4.4,10.3-6.3L51.2,18.4z"/>
		</g>
		<path class="st2" d="M50,56.1c0,1.6-0.1,3.4,0.6,5c0.4,1,1.2,1.8,2,2.5c0.9,0.8,1.9,1.5,2.9,2.1c0.5,0.3,1.1,0.7,1.6,1
			c0.4,0.2,0.8,0.1,1-0.3c0.2-0.3,0.1-0.9-0.3-1c-0.5-0.2-1-0.6-1.5-0.9c-0.9-0.6-1.7-1.2-2.5-1.8c-0.7-0.6-1.5-1.3-1.9-2.2
			c-0.6-1.3-0.5-3-0.5-4.4C51.5,55.1,50,55.1,50,56.1L50,56.1z"/>
		<path class="st2" d="M30.2,55.9c0,1.4,0.1,2.8-0.3,4.1c-0.3,0.9-0.9,1.7-1.6,2.3c-0.7,0.7-1.5,1.2-2.3,1.8
			c-0.5,0.3-0.9,0.6-1.4,0.9c-0.4,0.2-0.5,0.7-0.3,1c0.2,0.4,0.7,0.4,1,0.3c0.6-0.3,1.1-0.6,1.6-1c0.9-0.6,1.8-1.3,2.6-2.1
			c0.8-0.8,1.5-1.7,1.8-2.7c0.4-1.5,0.4-3.1,0.4-4.6C31.7,54.9,30.2,54.9,30.2,55.9L30.2,55.9z"/>
		<path class="st2" d="M60.7,33.8c0.9-0.7,2.4-0.6,3,0.5c0.3,0.6,0.3,1.3,0.3,2c0,0.7,0,1.3-0.2,2c-0.5,2.5-1.8,5.3-4.5,5.8
			c-1,0.2-0.6,1.6,0.4,1.5c3.7-0.6,5.5-4.7,5.8-8.1c0.2-1.6,0.1-3.6-1.3-4.8c-1.4-1.1-3.3-1-4.6,0.1C58.9,33.4,59.9,34.4,60.7,33.8
			L60.7,33.8z"/>
		<path class="st2" d="M42.1,17.2c-2.8,2.1-6.5,2.6-9.2,4.9c-1.1,1-1.5,2.4-2.6,3.4c-1.2,1.1-2.7,1.9-3.9,3c-1.2,1-2.2,2.4-1.7,4.1
			c0.3,0.9,1.7,0.5,1.5-0.4c-0.5-1.6,1.6-2.8,2.7-3.6c1.5-1.1,3.2-2.1,4-3.8c0.9-1.8,2.8-2.6,4.5-3.4c1.9-0.8,3.9-1.5,5.6-2.7
			C43.6,17.9,42.9,16.6,42.1,17.2L42.1,17.2z"/>
		<path class="st2" d="M51,19.2c2.9,0.6,3.3,3.6,4.2,6c0.5,1.3,1,2.7,1.4,4c0.4,1.2,0.8,2.5,0.9,3.8c0,1,1.6,1,1.5,0
			c-0.1-3-1.6-5.9-2.5-8.7c-0.5-1.4-0.7-2.9-1.6-4.1c-0.8-1.3-2-2.1-3.5-2.4C50.5,17.5,50.1,19,51,19.2L51,19.2z"/>
		<path class="st2" d="M55.8,10.5c0.5-1.1,1.9-0.9,2.6-0.2c0.7,0.7,1.2,1.7,1.9,2.5c0.5,0.7,1.2,1.2,1.7,1.8
			c0.6,0.7,1.1,1.5,1.4,2.3c0.4,1,0.8,2.1,0.8,3.1c0,1-0.1,2,0.1,3c0.1,0.5,0.3,1.1,0.5,1.5c0.3,0.6,0.7,1.1,0.8,1.7
			c0.2,1.3-0.7,2.7-1.1,3.8c-0.4,0.9,1.1,1.3,1.5,0.4c0.5-1.3,1.3-2.8,1.2-4.3c-0.1-0.8-0.4-1.3-0.8-2c-0.4-0.7-0.6-1.5-0.7-2.3
			c-0.1-1.1,0.1-2.2-0.1-3.2c-0.3-1.3-0.7-2.6-1.4-3.8c-0.5-0.9-1.2-1.6-1.9-2.3c-0.9-0.8-1.5-1.9-2.2-2.8c-0.7-0.9-1.4-1.6-2.6-1.7
			c-1.2-0.1-2.4,0.4-3,1.5C54.1,10.6,55.4,11.4,55.8,10.5L55.8,10.5z"/>
		<path class="st2" d="M52.6,6.8c-0.7-2.6-4-4.1-6.2-5c-3-1.2-6.8-2.4-10-1.4c-1.4,0.4-2.6,1.3-3.7,2.2c-0.6,0.5-1.3,1.1-2,1.5
			c-1,0.5-1.8,0.3-2.8,0.3c-3.7,0-4.2,4.2-6,6.5c-0.6,0.8,0.5,1.8,1.1,1.1c1.8-2.2,2.1-6.2,5.6-6c2.8,0.2,4.3-1.7,6.4-3.2
			c2.7-1.9,6.2-1.2,9.2-0.2c1.5,0.5,2.9,1.1,4.2,1.9c1,0.6,2.5,1.5,2.8,2.7C51.4,8.1,52.9,7.7,52.6,6.8L52.6,6.8z"/>
		<path class="st2" d="M27.8,8.4c-2.3,1.3-4.5,2.9-6.4,4.7c-1.8,1.7-3.9,3.8-4.9,6.1c-0.4,1.1-0.5,2.3,0,3.4c0.3,0.6,0.6,1,0.6,1.6
			c0,0.6,0,1.3-0.2,1.9c-0.3,1.1-0.7,1.9-0.5,3.1c0.1,1,0.7,1.8,1.2,2.6c0.5,0.8,1.8,0.1,1.3-0.8c-0.5-0.7-1-1.4-1-2.3
			c0-1,0.5-1.9,0.7-2.9c0.1-0.9,0.2-1.8-0.1-2.7c-0.2-0.5-0.5-0.9-0.7-1.4c-0.3-0.7-0.1-1.5,0.3-2.2c1-2.1,2.9-3.9,4.6-5.4
			c1.8-1.7,3.8-3.1,6-4.3C29.4,9.2,28.7,7.9,27.8,8.4L27.8,8.4z"/>
		<path class="st2" d="M36.4,11.5c3,0.1,6.9,1.1,8.1,4.2c0.2,0.4,0.5,0.6,0.9,0.5c0.4-0.1,0.7-0.6,0.5-0.9c-1.5-3.8-5.8-5.2-9.6-5.3
			C35.4,9.9,35.4,11.4,36.4,11.5L36.4,11.5z"/>
		<path class="st2" d="M44.9,10.2c1,0.5,1.8,1.2,2.3,2.2c0.2,0.4,0.4,1,0.5,1.5c0.1,0.4,0.1,1.1,0,1.5c-0.1,0.4,0.1,0.8,0.5,0.9
			c0.4,0.1,0.9-0.1,0.9-0.5c0.5-2.7-0.8-5.7-3.4-6.9c-0.4-0.2-0.8-0.1-1,0.3C44.4,9.5,44.5,10,44.9,10.2L44.9,10.2z"/>
		<path class="st2" d="M31.1,14.8c-1.3,0.1-2.6,0.3-3.7,1c-1,0.7-1.9,1.7-2.7,2.5c-0.5,0.5-0.1,1.2,0.5,1.3c0.4,0-0.2,0.8-0.3,1
			c-0.3,0.5-0.5,1-0.8,1.5c-0.3,0.6-0.6,1.1-0.8,1.7c-0.1,0.2-0.3,0.5-0.4,0.7c-0.1,0.1-0.1,0.2-0.2,0.3c-0.1,0.1,0.1-0.1,0,0
			c0,0-0.1,0.1-0.1,0.1c-0.7,0.7,0.4,1.8,1.1,1.1c0.4-0.4,0.7-1,1-1.6c0.4-0.7,0.7-1.5,1.1-2.2c0.3-0.6,0.6-1.1,0.9-1.7
			c0.5-1.2-0.2-2.3-1.5-2.5c0.2,0.4,0.4,0.9,0.5,1.3c0.6-0.6,1.2-1.2,1.8-1.7c0.1-0.1,0.2-0.2,0.3-0.3c0,0,0.1-0.1,0.2-0.1
			c0.1-0.1,0,0,0.1-0.1c0.9-0.6,1.9-0.8,3-0.9C32.1,16.3,32.1,14.7,31.1,14.8L31.1,14.8z"/>
		<path class="st2" d="M58.7,42.6c-0.1,2.9-1.6,5.3-3.2,7.6c-1.9,2.6-4.5,5.4-7.7,6.1c-1,0.2-0.5,1.7,0.4,1.5
			c3.6-0.8,6.4-3.8,8.5-6.7c1.8-2.5,3.4-5.3,3.5-8.5C60.3,41.6,58.8,41.6,58.7,42.6L58.7,42.6z"/>
		<path class="st2" d="M22.6,32.1c-1.3-1.1-3.2-1.2-4.5-0.2c-1.5,1.1-1.5,3.1-1.3,4.8c0.3,3.3,2.1,7.4,5.8,8.1
			c1,0.2,1.4-1.3,0.4-1.5c-2.7-0.5-4.1-3.3-4.5-5.8c-0.2-1.1-0.4-2.8,0.1-3.9c0.5-1.1,2.1-1.3,3-0.5C22.3,33.8,23.4,32.8,22.6,32.1
			L22.6,32.1z"/>
		<path class="st2" d="M21.9,40.3c0.5,3.8,1.5,7.5,3.7,10.7c2.5,3.6,6.4,6.8,10.9,7.4c1,0.1,1.4-1.3,0.4-1.5
			c-4.2-0.6-7.8-3.6-10.1-7c-2-2.9-2.9-6.3-3.3-9.7C23.3,39.3,21.7,39.3,21.9,40.3L21.9,40.3z"/>
		<path class="st2" d="M37.4,48.2c1.1,1,2.7,1.3,4.1,1.3c1.4,0,3.1-0.3,4.1-1.3c0.7-0.7-0.4-1.8-1.1-1.1c0,0-0.2,0.2-0.1,0.1
			c0.1-0.1,0,0,0,0c0,0-0.1,0.1-0.1,0.1c-0.1,0.1-0.2,0.1-0.3,0.2c-0.2,0.1-0.2,0.1-0.3,0.1C43,47.9,42.3,48,41.5,48
			c-0.7,0-1.5-0.1-2.1-0.3c-0.2-0.1-0.4-0.1-0.6-0.3c-0.1,0-0.2-0.1-0.2-0.2c0.2,0.1,0,0-0.1-0.1C37.8,46.4,36.7,47.5,37.4,48.2
			L37.4,48.2z"/>
		<path class="st2" d="M41.5,38.4c0.2,0.6,0.3,1.2,0.4,1.8c0-0.1,0-0.1,0-0.2c0,0.1,0,0.2,0,0.3c0-0.1,0-0.1,0-0.2c0,0,0,0.1,0,0.1
			c0-0.1,0.1-0.1,0.1-0.2c0,0,0,0,0,0.1c0-0.1,0.1-0.1,0.1-0.2c0,0,0,0-0.1,0.1c0.1,0,0.1-0.1,0.2-0.1c0,0-0.1,0.1-0.1,0.1
			c0.1,0,0.1-0.1,0.2-0.1c-0.1,0-0.2,0.1-0.2,0.1c0.1,0,0.1,0,0.2,0c-0.1,0-0.2,0-0.2,0c0.1,0,0.1,0,0.2,0c-0.2,0-0.3-0.1-0.5-0.1
			c-0.2,0-0.4,0.1-0.5,0.2c-0.1,0.1-0.2,0.3-0.2,0.5c0,0.2,0.1,0.4,0.2,0.5c0.1,0,0.1,0.1,0.2,0.1c0.1,0.1,0.2,0.1,0.4,0.1
			c0,0,0,0,0,0c-0.1,0-0.1,0-0.2,0c0.2,0,0.4,0.1,0.6,0.1c0.3,0,0.5-0.1,0.8-0.2c0.3-0.1,0.5-0.4,0.6-0.7c0.1-0.3,0-0.5,0-0.8
			c-0.1-0.6-0.2-1.2-0.4-1.7c-0.1-0.4-0.5-0.7-0.9-0.5C41.7,37.6,41.4,38,41.5,38.4L41.5,38.4z"/>
		<g>
			<path class="st2" d="M31,33.5c-0.3,1-0.1,3.3,1.8,3.5c2.5,0,2.6-2.8,1.8-4.1C33.9,31.8,31.9,31.4,31,33.5z"/>
		</g>
		<g>
			<path class="st2" d="M52.1,33.5c0.3,1,0.1,3.3-1.8,3.5c-2.5,0-2.6-2.8-1.8-4.1C49.2,31.8,51.2,31.4,52.1,33.5z"/>
		</g>
		<g>
			<path class="st3" d="M14.6,138c-0.1-0.1-0.1-0.3-0.2-0.4c-0.4-0.7-0.8-1.4-1.2-2.1c-0.2-0.4-0.4-0.7-0.6-1.1c0,0,0,0,0,0
				c-0.2-0.4-0.4-0.7-0.6-1.1c-0.6-1.1-1.3-2.2-1.9-3.3c-0.2-0.3-0.3-0.5-0.5-0.8c-0.2-0.3-0.3-0.6-0.5-0.9c-0.3-0.5-0.6-1-0.8-1.5
				c-0.8-1.5-1.6-2.8-2.3-4.1c-0.1-0.2-0.2-0.3-0.3-0.5c-0.2-0.3-0.3-0.6-0.5-0.9c-0.2-0.4-0.4-0.8-0.6-1.2
				c-0.1-0.1-0.1-0.3-0.2-0.4c-0.2-0.3-0.3-0.6-0.4-0.9c-0.2-0.4-0.4-0.8-0.5-1.1c-0.6-1.3-1.6-6.9-1.6-11.4
				c0-8.6,0.9-24.3,1.8-26.2c2.5-5.8,7.5-8.1,11.3-10.5c3.5-2.2,9-4.6,12.4-5.9c0,0,0.3-0.1,0.5-0.2c0,0,0-0.1,0-0.1
				c0.2-0.6,1.3-2.8,1.9-3.6c0,0,0-0.1,0.1-0.1c0.1-0.1,0.1-0.2,0.2-0.3c0.1,0,0.2,0.1,0.3,0.1c0.1,0.1,0.2,0.2,0.3,0.3
				c0.3,0.2,0.6,0.5,1,0.8c0.1,0.1,0.3,0.2,0.4,0.3c0.3,0.2,0.6,0.4,0.9,0.7c0.1,0.1,0.2,0.2,0.3,0.2c0.4,0.3,0.9,0.6,1.3,1
				c0.1,0.1,0.3,0.2,0.4,0.3c0.7,0.5,1.4,1.1,1.9,1.5c0.1,0.1,0.2,0.1,0.3,0.2c0.2,0.2,0.4,0.4,0.6,0.5c0,0,0,0,0,0c0,0,0,0,0.1,0.1
				c0.4,1,1,2.2,1.1,2.7c0,0,0,0.1,0.1,0.2c0,0,0,0.1,0.1,0.2c0,0,0,0.1,0,0.1c0,0.1,0.1,0.1,0.1,0.2c0,0.1,0.1,0.2,0.1,0.2
				c0,0.1,0.1,0.2,0.1,0.3c0,0,0.1,0.1,0.1,0.2c0.3,0.6,0.6,1.3,0.9,1.9c0.1,0.1,0.1,0.3,0.2,0.4c0.1,0.1,0.1,0.3,0.2,0.4
				c0.1-0.1,0.1-0.2,0.2-0.3c0.1-0.2,0.2-0.4,0.3-0.6c0.1-0.3,0.3-0.6,0.4-0.9c0-0.1,0.1-0.2,0.1-0.3c0.2-0.4,0.3-0.7,0.5-1
				c0-0.1,0.1-0.2,0.1-0.2c0.1-0.2,0.1-0.3,0.2-0.4c0-0.1,0-0.1,0.1-0.1c0,0,0-0.1,0-0.1c0.1-0.5,0.7-1.7,1.1-2.7
				c0.1-0.1,0.2-0.2,0.3-0.3c0.1-0.1,0.2-0.2,0.3-0.3c0.1-0.1,0.1-0.1,0.2-0.2c0.1-0.1,0.1-0.1,0.2-0.2c0.1-0.1,0.2-0.1,0.2-0.2
				c0.2-0.1,0.4-0.3,0.6-0.4c0.7-0.5,1.6-1.1,2.5-1.7c0.1-0.1,0.2-0.1,0.3-0.2c0.5-0.3,0.9-0.6,1.3-0.9c0.1-0.1,0.2-0.1,0.3-0.2
				c0.3-0.2,0.6-0.4,0.8-0.6c0.1-0.1,0.2-0.1,0.3-0.2c0.1-0.1,0.2-0.1,0.2-0.2c0.1-0.1,0.2-0.2,0.3-0.3c0.1-0.1,0.2-0.2,0.3-0.1
				c0.1,0,0.1,0.2,0.2,0.3c0.1,0.1,0.1,0.2,0.2,0.3c0.3,0.5,0.8,1.1,1.2,1.7c0.1,0.1,0.2,0.3,0.3,0.4c0.1,0.1,0.1,0.2,0.2,0.3
				c0.1,0.1,0.1,0.2,0.1,0.2c0.1,0.1,0.1,0.2,0.1,0.3c0,0,0,0.1,0.1,0.2c0.5,0.2,1,0.4,1,0.4c0.7,0.3,1.4,0.6,2.2,0.9
				c0.2,0.1,0.3,0.1,0.5,0.2c1.5,0.6,3.1,1.4,4.7,2.1c0.2,0.1,0.4,0.2,0.6,0.3c0.3,0.1,0.6,0.3,0.9,0.4c0.2,0.1,0.4,0.2,0.6,0.3
				c0.1,0.1,0.3,0.1,0.4,0.2c0.3,0.1,0.5,0.3,0.8,0.4c0.6,0.3,1.2,0.7,1.8,1c1.1,0.7,2.2,1.3,3.3,1.9c0.2,0.1,0.3,0.2,0.5,0.3
				c0.3,0.2,0.6,0.4,0.9,0.5c0.2,0.1,0.3,0.2,0.5,0.3c0.2,0.1,0.4,0.2,0.6,0.4c0.1,0.1,0.3,0.2,0.4,0.3c0.1,0.1,0.2,0.2,0.3,0.2
				c0.5,0.4,1,0.8,1.5,1.3c0.1,0.1,0.1,0.1,0.2,0.2c0.1,0.1,0.2,0.2,0.3,0.4c0.2,0.2,0.3,0.3,0.4,0.5c0.1,0.1,0.2,0.3,0.3,0.4
				c0.2,0.2,0.3,0.4,0.5,0.7c0.1,0.1,0.2,0.3,0.3,0.4c0.1,0.2,0.2,0.3,0.3,0.5c0.2,0.4,0.5,0.9,0.7,1.6l0.1,0.3
				c0.1,0.3,0.2,0.6,0.3,0.9c0.1,0.3,0.1,0.5,0.2,0.8c0,0.1,0.1,0.2,0.1,0.4c0.1,0.2,0.1,0.5,0.2,0.7c0.2,0.7,0.3,1.4,0.5,2.1
				c0.1,0.3,0.1,0.7,0.2,1c0.1,0.4,0.2,0.8,0.2,1.2c0.1,0.3,0.1,0.7,0.2,1c0.2,1.2,0.4,2.5,0.6,3.8c0,0.3,0.1,0.6,0.1,0.8
				c0,0.2,0.1,0.4,0.1,0.7c0.1,0.4,0.1,0.8,0.2,1.2c0,0.2,0.1,0.4,0.1,0.6c0.1,0.6,0.2,1.2,0.2,1.8c0,0,0,0,0,0
				c0.1,0.4,0.1,0.8,0.2,1.2c0,0,0,0.1,0,0.1c0,0.2,0.1,0.4,0.1,0.6c0.1,0.8,0.2,1.5,0.3,2.2c0,0.4,0.1,0.8,0.1,1.2
				c0,0.3,0.1,0.6,0.1,0.9c0,0.4,0.1,0.7,0.1,1c0.1,0.6,0.1,1.2,0.1,1.8c0,0.1,0,0.2,0,0.3c0.1,1.3,0.1,2.4,0.1,3.2
				c-0.1,1-0.2,2.1-0.3,3.3c0,0.4-0.1,0.8-0.1,1.3c-0.1,1-0.2,2-0.4,3c0,0.2-0.1,0.4-0.1,0.7c-0.1,0.9-0.2,1.7-0.4,2.6
				c0,0.3-0.1,0.6-0.1,1c-0.1,0.6-0.2,1.1-0.2,1.7c-0.1,0.6-0.2,1.1-0.3,1.6c0,0.2-0.1,0.4-0.1,0.5c0,0.3-0.1,0.6-0.1,0.9
				c0,0.2-0.1,0.3-0.1,0.5c0,0,0,0,0,0c-0.1,0.3-0.1,0.6-0.2,0.9c0,0.3-0.1,0.6-0.1,0.9c0,0.1,0,0.2-0.1,0.3c0,0.2-0.1,0.3-0.1,0.5
				c0,0,0,0,0,0c0,0.3-0.1,0.5-0.1,0.8c-0.1,0.8-0.3,1.5-0.4,2.2c0,0.1-0.1,0.3-0.1,0.4c-0.1,0.4-0.2,0.8-0.2,1.1
				c0,0.2-0.1,0.4-0.1,0.5c0,0.2-0.1,0.3-0.1,0.5c0,0.1,0,0.2-0.1,0.3c-0.1,0.3-0.1,0.5-0.2,0.7c0,0.2-0.1,0.3-0.1,0.4l-3.4,6.6
				c-2.9,0-56.6,0.5-57.4,0.5L14.6,138z"/>
		</g>
		<path class="st2" d="M27.1,63.1c-5,2.1-9.8,4.4-14.5,7.2c-3.9,2.4-8.4,5.5-9.8,10.1c-1,3.4-0.9,7.3-1.2,10.8
			c-0.3,5.1-0.6,10.2-0.6,15.4c0,1,1.5,1,1.5,0c0-4.7,0.2-9.4,0.5-14.1c0.2-3.6,0.2-7.6,1.1-11.1c1.1-4.5,5.6-7.5,9.3-9.7
			c4.5-2.8,9.2-5,14.1-7C28.4,64.2,28,62.7,27.1,63.1L27.1,63.1z"/>
		<path class="st2" d="M41.8,117.8c0-15.1-0.1-30.3-0.1-45.4c0-1-1.5-1-1.5,0c0,15.1,0,30.3,0.1,45.4
			C40.3,118.8,41.8,118.8,41.8,117.8L41.8,117.8z"/>
		<path class="st2" d="M41.8,72.1c-0.6-1.3-1.5-2.8-2-4.1c-0.5-1.3-0.9-2.7-1.9-3.6c-2-1.7-4.3-3.2-6.4-4.8
			c-0.4-0.3-0.8-0.8-1.3-0.9c-0.8-0.1-1.3,0.9-1.6,1.5c-0.4,0.6-0.8,1.3-1.2,1.9c-0.2,0.4-0.5,0.9-0.3,1.4c0.1,0.4,0.4,0.8,0.6,1.2
			c0.4,0.7,0.8,1.3,1.2,2c0.9,1.5,1.9,3,2.9,4.4c0.6,0.8,1.5,0.8,2.1,0c0.3-0.5,0.7-1,1.1-1.5c0.9-1.2,2.1-2.5,2.6-4
			c0.3-0.9-1.1-1.3-1.5-0.4c-0.4,1.1-1.4,2.2-2.1,3.1c-0.4,0.5-0.7,1-1.1,1.5c-0.1,0.1-0.3,0.3-0.3,0.5c0,0.2-0.3,0.2,0.2,0.1
			c0.5-0.1,0.2,0,0.1-0.2c0-0.1-0.1-0.2-0.2-0.3c-1-1.3-1.9-2.7-2.7-4.2c-0.3-0.6-0.7-1.2-1-1.7c-0.1-0.2-0.2-0.4-0.3-0.6
			c0-0.1-0.1-0.1-0.1-0.2c-0.1-0.2,0,0,0,0c0,0.1-0.1,0.3,0,0.1c0-0.1,0.1-0.2,0.1-0.3c0.2-0.3,0.4-0.7,0.6-1
			c0.4-0.6,0.8-1.4,1.3-1.9c-0.2,0.1-0.5,0.1-0.7,0.2c0.3,0.1,0.9,0.7,1.1,0.9c0.6,0.4,1.2,0.9,1.7,1.3c1.2,0.9,2.4,1.8,3.6,2.7
			c0.3,0.3,0.8,0.5,1,0.9c0.2,0.3,0.3,0.8,0.5,1.2c0.2,0.4,0.3,0.8,0.5,1.3c0.6,1.5,1.4,3,2.1,4.5C40.9,73.8,42.2,73,41.8,72.1
			L41.8,72.1z"/>
		<path class="st2" d="M41.6,72.9c0.7-1.5,1.6-3,2.1-4.6c0.2-0.5,0.4-0.9,0.6-1.4c0.1-0.3,0.2-0.7,0.4-1c0.2-0.3,0.7-0.6,1.1-0.8
			c1.3-0.9,2.5-1.8,3.8-2.6c0.6-0.4,1.2-0.8,1.7-1.2c0.2-0.2,0.5-0.3,0.7-0.5c0.1-0.1,0.2-0.2,0.3-0.3c0.1-0.1,0.3-0.1,0-0.1
			c-0.2-0.1-0.4-0.1-0.5-0.2c0.5,0.4,0.8,1.1,1.2,1.6c0.2,0.3,0.4,0.6,0.6,0.9c0.1,0.2,0.3,0.6,0.4,0.8c0.1,0.1,0-0.1,0.1-0.2
			c-0.1,0.1-0.2,0.4-0.3,0.5c-0.3,0.6-0.6,1.1-0.9,1.7c-0.9,1.4-1.8,2.8-2.7,4.2c-0.1,0.1-0.2,0.3-0.3,0.4c-0.2,0.2-0.4,0.3,0,0.4
			c0.4,0.1,0.1-0.1,0-0.3c-0.3-0.5-0.6-1-0.9-1.4c-0.8-1.2-1.8-2.5-2.3-3.8c-0.4-0.9-1.8-0.5-1.5,0.4c0.5,1.3,1.4,2.5,2.2,3.7
			c0.4,0.6,0.8,1.1,1.1,1.7c0.3,0.5,0.5,1,1.1,1.1c0.9,0.2,1.4-0.7,1.8-1.3c0.5-0.7,1.1-1.5,1.6-2.3c0.8-1.3,1.7-2.6,2.3-3.9
			c0.2-0.4,0.4-0.7,0.3-1.2c-0.2-0.6-0.6-1.2-0.9-1.7c-0.4-0.7-0.9-1.3-1.4-1.9c-0.5-0.8-1.1-0.8-1.9-0.2c-1.9,1.5-4.4,3-6.4,4.5
			c-0.4,0.3-0.9,0.6-1.3,1c-0.6,0.6-0.9,1.7-1.2,2.4c-0.7,1.6-1.5,3.2-2.2,4.8C39.8,73,41.1,73.8,41.6,72.9L41.6,72.9z"/>
		<path class="st2" d="M16.1,84.7c0.3,7.5,0.6,15.1,0.6,22.7c0,1,1.5,1,1.5,0c0-7.6-0.3-15.1-0.6-22.7
			C17.6,83.7,16.1,83.7,16.1,84.7L16.1,84.7z"/>
		<path class="st2" d="M16.7,107.4c0.1,3.3,1.7,6.4,3.2,9.3c1.6,3.2,3.3,6.2,5,9.3c3.3,5.9,6.7,11.7,9.9,17.6
			c0.5,0.9,1.8,0.1,1.3-0.8c-3-5.6-6.3-11.2-9.4-16.8c-1.7-3-3.4-6.1-5-9.2c-1.5-2.9-3.4-6.2-3.5-9.6
			C18.2,106.4,16.7,106.4,16.7,107.4L16.7,107.4z"/>
		<path class="st2" d="M16.2,139.2c-3.4-5.7-6.7-11.4-9.9-17.3c-1.1-2-2.2-3.9-2.7-6.1c-0.7-3-1-6.2-1-9.3c0-1-1.5-1-1.5,0
			c0,3.1,0.3,6.1,1,9.1c0.5,2.3,1.5,4.1,2.5,6.2c3.3,6.1,6.8,12.2,10.3,18.2C15.4,140.8,16.7,140,16.2,139.2L16.2,139.2z"/>
		<path class="st2" d="M17.3,141.3c1.7-1.6,3.5-3.1,5.4-4.4c1.9-1.4,3.9-2.8,6.1-3.7c0.4-0.2,0.6-0.5,0.5-0.9
			c-0.1-0.4-0.6-0.7-0.9-0.5c-2.3,1-4.4,2.4-6.5,3.9c-2,1.4-3.9,3-5.7,4.7C15.6,140.9,16.6,142,17.3,141.3L17.3,141.3z"/>
		<path class="st2" d="M56.7,16.3C56.5,16.3,56.7,16.3,56.7,16.3c0.1,0,0.3,0.1,0.2,0.1c-0.1,0,0.1,0,0.1,0.1c0.1,0,0.1,0.1,0.2,0.1
			c-0.1-0.1,0,0,0,0c0,0,0.1,0.1,0.1,0.1c0.1,0.1,0.1,0.1,0.1,0.2c-0.1-0.1,0,0,0,0.1c0.2,0.2,0.3,0.5,0.4,0.7c0-0.1,0,0.1,0,0.1
			c0,0,0,0.1,0.1,0.1c0,0.1,0.1,0.2,0.1,0.3c0.4,1,0.9,2,1.5,3c0.2,0.3,0.7,0.5,1,0.3c0.3-0.2,0.5-0.7,0.3-1c-0.3-0.5-0.6-1-0.8-1.5
			c-0.1-0.3-0.3-0.6-0.4-0.8c0-0.1-0.1-0.1-0.1-0.2c0,0-0.1-0.2,0-0.1c-0.1-0.1-0.1-0.2-0.2-0.4c-0.2-0.6-0.5-1.2-0.9-1.7
			c-0.5-0.6-1.1-0.9-1.8-1c-0.4-0.1-0.8,0.4-0.8,0.8C55.9,16,56.3,16.2,56.7,16.3L56.7,16.3z"/>
		<path class="st2" d="M55,64.5c0.8,0.3,1.5,0.6,2.3,0.9c0.4,0.2,0.9,0.3,1.3,0.5c0.2,0.1,0.4,0.2,0.6,0.3c0,0,0.1,0,0.1,0.1
			c0,0,0.2,0.1,0.1,0c-0.1,0,0.1,0,0.1,0c0.1,0,0.1,0,0.2,0.1c0.4,0.2,0.8,0.1,1-0.3c0.2-0.3,0.1-0.9-0.3-1c-1.7-0.7-3.4-1.3-5.1-2
			c-0.4-0.1-0.8,0.2-0.9,0.5C54.4,64.1,54.6,64.4,55,64.5L55,64.5z"/>
	</g>
	<g>
		<path class="st4" d="M128.5,59.1c-0.6-3-1.1-6.9-1.1-12.1c0.2-2.7,0-6.7-0.1-8.2c-0.4-5.3-2.7-11.2-6.1-14.5
			c-1.5-1.4-1.9-2.1-3.5-2.9c0,0-1.3-0.7-2.5-1.4c-0.7-0.3-1.3-0.5-1.3-0.5c-2.4-0.9-4.6-1.3-8.7-1.3c-6.8,0-12.8,3.5-15.5,6.1
			c-4.5,4.3-7.3,12-6.9,22.8c0,7.8-0.6,13.5-1.4,16.7c-0.6,2.2-1.1,5.8-1.1,8.1c0,3.6,3.6,7.6,9.1,6.4c0,0,6.4-1.6,14.4-1.9
			c8-0.2,18.8,0.8,18.8,0.8c4.8,1.9,8.8-2.5,8.7-6.1c0-2.2-0.4-4-1-6.1C129.6,63.7,129,61.8,128.5,59.1z"/>
	</g>
	<g>
		<path class="st0" d="M89.6,78.5c0.3-0.1,7.3-3.7,8-5.4c0.5-1.3,0.3-3.2,0.4-4.5c-2-1-3.8-2.5-5.5-4.5c-2-2.3-3-5-3.5-7.2
			c-0.3,0-0.5,0-0.5,0c-0.7-0.1-1.5-0.5-2-0.9c-0.8-0.6-1.3-1.4-1.7-2.2c-0.9-1.7-1.2-3.6-1.1-5.5c0-0.5,0.1-1,0.4-1.4
			c0.3-0.6,1-1.1,1.8-1.2c0.7-0.1,1.4,0.1,1.9,0.5c4-4.3,8.8-7.7,12.9-11.7c-0.2,1.8-1.4,5.6-0.1,5.3c5.1-1.4,9.2-4.4,12.4-8.6
			c0.7,2.2,1.5,5.4,2.3,6.9c1.2,2.3,4.1,8,7.7,8.1c0.5-0.4,1.2-0.6,1.9-0.5c0.7,0.1,1.4,0.6,1.8,1.2c0.2,0.4,0.3,0.9,0.4,1.4
			c0.2,1.9-0.2,3.8-1.1,5.5c-0.4,0.8-1,1.6-1.7,2.2c-0.6,0.5-1.4,0.9-2.2,0.9c-0.2,0.9-0.5,1.6-0.6,2c-0.6,1.7-4.1,7.7-8.5,9.6
			c0.1,1.3-0.1,3.2,0.4,4.6c0.7,1.7,7.1,5.3,7.3,5.4c0,0-5.2,13-14.6,13C96.5,91.5,89.6,78.5,89.6,78.5z"/>
	</g>
	<path class="st2" d="M81.9,47c0,4.1-0.1,8.1-0.6,12.1c-0.4,3-1.2,6-1.6,9c-0.4,3-0.5,5.8,1.5,8.2c2.1,2.4,5.2,3.1,8.2,2.5
		c1-0.2,0.6-1.7-0.4-1.5c-3.1,0.6-6.4-0.6-7.7-3.7c-0.5-1.3-0.4-2.6-0.3-3.9c0.1-1.7,0.4-3.5,0.8-5.2C83,58.9,83.4,53,83.4,47
		C83.4,46.1,81.9,46,81.9,47L81.9,47z"/>
	<path class="st2" d="M126.6,47c0.1,5.7,0.7,11.4,2.3,16.8c0.8,2.7,2,5.9,1.2,8.7c-1,3.3-4.3,5-7.6,3.9c-0.9-0.3-1.3,1.1-0.4,1.5
		c3,1.1,6.2,0.1,8.2-2.5c2.1-2.8,1.7-6.4,0.8-9.6c-0.6-2.2-1.3-4.4-1.8-6.7c-0.8-4-1.1-8-1.2-12.1C128.1,46.1,126.6,46,126.6,47
		L126.6,47z"/>
	<path class="st2" d="M123.2,46.9c0.8-0.6,2-0.5,2.6,0.3c0.3,0.5,0.3,1.1,0.3,1.7c0,0.6,0,1.3-0.1,1.9c-0.4,2.3-1.6,5-4.1,5.4
		c-1,0.2-0.6,1.6,0.4,1.5c3.5-0.6,5.1-4.5,5.3-7.7c0.1-1.5,0.1-3.4-1.3-4.4c-1.3-1-3-0.8-4.2,0.2C121.4,46.4,122.5,47.5,123.2,46.9
		L123.2,46.9z"/>
	<path class="st2" d="M121.3,55.6c-0.1,2.6-1.4,4.9-2.9,7c-1.7,2.4-4,5-7,5.7c-0.9,0.2-0.5,1.7,0.4,1.5c3.3-0.8,5.9-3.6,7.8-6.3
		c1.7-2.3,3.1-4.9,3.2-7.9C122.9,54.6,121.3,54.6,121.3,55.6L121.3,55.6z"/>
	<path class="st2" d="M88.5,45.8c-1.2-1-2.9-1.2-4.2-0.2c-1.3,1-1.4,2.8-1.3,4.4c0.3,3.1,1.9,7,5.4,7.7c1,0.2,1.4-1.3,0.4-1.5
		c-2.5-0.5-3.7-3.1-4.1-5.4c-0.1-0.6-0.1-1.2-0.1-1.8c0-0.6,0-1.2,0.3-1.7c0.5-0.9,1.9-1.1,2.6-0.4C88.1,47.5,89.2,46.4,88.5,45.8
		L88.5,45.8z"/>
	<path class="st2" d="M87.6,53.4c0.4,3.5,1.4,7,3.4,10c2.3,3.3,5.9,6.3,10,6.9c1,0.1,1.4-1.3,0.4-1.5c-3.8-0.6-7.1-3.3-9.2-6.5
		c-1.8-2.7-2.7-5.8-3-9C89,52.5,87.5,52.5,87.6,53.4L87.6,53.4z"/>
	<path class="st2" d="M112.2,31.6c0.5,1.8,1,3.6,1.7,5.4c0.5,1.2,1.1,2.4,1.7,3.5c1.4,2.5,3.4,5.5,6.3,6.3c0.9,0.3,1.3-1.2,0.4-1.5
		c-2.6-0.7-4.3-3.7-5.5-5.9c-0.6-1-1.2-2.1-1.6-3.2c-0.6-1.7-1-3.3-1.5-5C113.4,30.2,111.9,30.6,112.2,31.6L112.2,31.6z"/>
	<path class="st2" d="M112.3,30.6c-2.2,2.9-5,5.3-8.2,6.9c-0.9,0.4-1.7,0.8-2.7,1.1c-0.3,0.1-0.8,0.2-1.1,0.4
		c0.4,0.3,0.5,0.2,0.4-0.1c0-0.2,0-0.3,0-0.5c0.1-1.3,0.5-2.7,0.7-4c0.1-0.7-0.9-1-1.3-0.5c-4.1,4.1-8.6,7.8-12.9,11.7
		c-0.7,0.7,0.4,1.7,1.1,1.1c4.2-4,8.7-7.7,12.9-11.7c-0.4-0.2-0.9-0.4-1.3-0.5c-0.2,1.6-0.9,3.3-0.7,4.9c0.3,1.9,2.3,0.9,3.5,0.5
		c4.3-1.7,7.9-4.5,10.7-8.1C114,30.9,112.9,29.9,112.3,30.6L112.3,30.6z"/>
	<path class="st2" d="M114,18.8c-8.1-3-18.2-1.2-24.6,4.6c-6.4,5.8-7.7,15.5-7.5,23.6c0,1,1.5,1,1.5,0c-0.2-7.7,0.9-16.8,6.8-22.3
		c6-5.6,15.7-7.3,23.4-4.4C114.5,20.6,114.9,19.1,114,18.8L114,18.8z"/>
	<path class="st2" d="M128.1,47c0.4-4.8,0.1-10.1-1.4-14.7c-1.5-4.5-4.4-9.2-8.7-11.6c-0.9-0.5-1.6,0.8-0.8,1.3
		c1.9,1.1,3.6,2.9,4.9,4.6c1.5,2.1,2.6,4.4,3.3,6.9c1.3,4.2,1.5,9.1,1.1,13.5C126.5,48,128,48,128.1,47L128.1,47z"/>
	<path class="st2" d="M101.5,60.8c1,1,2.5,1.2,3.8,1.2c1.3,0,2.9-0.3,3.8-1.2c0.7-0.7-0.4-1.8-1.1-1.1c0,0-0.2,0.2-0.1,0.1
		c0.1-0.1-0.1,0.1-0.2,0.1c-0.1,0.1-0.2,0.1-0.3,0.1c-0.1,0-0.1,0.1-0.2,0.1c0.1,0,0,0-0.1,0c-0.6,0.2-1.3,0.3-2,0.3
		c-0.7,0-1.3-0.1-1.9-0.3c0,0-0.2-0.1-0.1,0c-0.1,0-0.1,0-0.2-0.1c-0.1,0-0.2-0.1-0.3-0.2c-0.1,0-0.1-0.1-0.2-0.1
		c0.2,0.1,0,0-0.1-0.1C101.9,59,100.8,60.1,101.5,60.8L101.5,60.8z"/>
	<path class="st2" d="M105.2,51.6c0.1,0.6,0.3,1.1,0.4,1.7c0-0.1,0-0.1,0-0.2c0,0.1,0,0.2,0,0.2c0-0.1,0-0.1,0-0.2c0,0,0,0.1,0,0.1
		c0-0.1,0.1-0.1,0.1-0.2c0,0,0,0,0,0c0-0.1,0.1-0.1,0.1-0.2c0,0,0,0-0.1,0.1c0.1,0,0.1-0.1,0.2-0.1c0,0-0.1,0.1-0.1,0.1
		c0.1,0,0.1-0.1,0.2-0.1c-0.1,0-0.1,0.1-0.2,0.1c0.1,0,0.1,0,0.2,0c-0.1,0-0.1,0-0.2,0c0.1,0,0.1,0,0.2,0c-0.1,0-0.2,0-0.2,0
		c-0.2,0-0.4,0-0.6,0.1c-0.2,0.1-0.3,0.3-0.3,0.5c0,0.2,0,0.4,0.1,0.6c0.1,0.2,0.3,0.3,0.5,0.3c0.2,0,0.3,0.1,0.5,0.1
		c0.3,0,0.5-0.1,0.7-0.2c0.3-0.1,0.5-0.4,0.6-0.7c0.1-0.3,0-0.5,0-0.8c-0.1-0.5-0.2-1.1-0.4-1.6c-0.1-0.4-0.5-0.7-0.9-0.5
		C105.4,50.8,105.1,51.2,105.2,51.6L105.2,51.6z"/>
	<g>
		<path class="st2" d="M95.6,47c-0.3,0.9-0.1,3.1,1.7,3.3c2.4,0,2.5-2.6,1.7-3.9C98.3,45.5,96.4,45,95.6,47z"/>
	</g>
	<g>
		<path class="st2" d="M115,47c0.3,0.9,0.1,3.1-1.7,3.3c-2.4,0-2.5-2.6-1.7-3.9C112.3,45.5,114.2,45,115,47z"/>
	</g>
	<path class="st2" d="M112.1,69c0,1.4-0.1,3,0.4,4.3c0.3,0.7,0.9,1.3,1.4,1.7c1.5,1.3,3.2,2.3,4.8,3.3c0.5,0.3,0.9,0.6,1.4,0.8
		c0.4,0.2,0.8,0.1,1-0.3c0.2-0.3,0.1-0.9-0.3-1c-1.1-0.5-2.2-1.2-3.2-1.9c-0.8-0.5-1.6-1-2.3-1.6c-0.3-0.3-0.6-0.5-0.9-0.8
		c-0.1-0.1-0.2-0.2-0.3-0.4c0-0.1-0.1-0.1-0.1-0.2c0.1,0.1,0-0.1-0.1-0.1c-0.3-0.4-0.3-1-0.4-1.6c-0.1-0.8,0-1.6,0-2.4
		C113.6,68,112.1,68,112.1,69L112.1,69z"/>
	<path class="st2" d="M97.2,69c0,0.7,0,1.5,0,2.2c0,0.5-0.1,1.2-0.3,1.7c0,0.1-0.1,0.1-0.1,0.2c-0.1,0.1,0,0,0,0.1
		c-0.1,0.1-0.2,0.3-0.4,0.4c-0.3,0.3-0.6,0.5-0.9,0.7c-1.5,1.1-3.2,2.1-4.9,3c-0.5,0.2-0.9,0.5-1.4,0.7c-0.4,0.2-0.5,0.7-0.3,1
		c0.2,0.4,0.7,0.4,1,0.3c1.3-0.6,2.5-1.3,3.7-2c0.9-0.5,1.8-1.1,2.7-1.7c0.7-0.5,1.4-1,1.8-1.7c0.4-0.6,0.5-1.4,0.5-2.1
		c0.1-0.9,0-1.8,0.1-2.6C98.8,68,97.2,68,97.2,69L97.2,69z"/>
	<g>
		<path class="st5" d="M142.1,115.8c0,0.2-0.1,0.4-0.1,0.6c-0.4,1.5-1.7,3.3-3.3,3.6c-2.4,0.5-5.4,0.2-7.3-1
			c-0.1-0.1-0.2-0.1-0.3-0.2c-0.1-0.1-0.2-0.2-0.4-0.3c-0.1-0.1-0.3-0.2-0.4-0.3c-0.1-0.1-0.2-0.2-0.3-0.3c0,0,0,0,0,0c0,0,0,0,0,0
			c-0.5-0.4-1-0.8-1.5-1.2c-0.3,0.8-0.6,1.7-0.9,2.5c-0.1,0.2-0.2,0.4-0.2,0.7c0,0.1-0.1,0.2-0.1,0.3c0,0.1-0.1,0.2-0.1,0.2
			c-0.2,0.5-0.3,0.9-0.5,1.3v0c0,0.1-0.1,0.2-0.1,0.3c-0.5,1.3-0.8,2.2-0.8,2.2c0.5,3.2,2.4,14.5,3,18.4L84,143
			c0.2-0.6,0.3-3.4,0.5-4.2c0.1-0.6,0.3-1.3,0.4-2c0-0.2,0.1-0.4,0.1-0.5c0.1-0.4,0.2-0.8,0.2-1.2c0.1-0.3,0.1-0.7,0.2-1
			c0-0.1,0-0.1,0-0.2c0.1-0.5,0.2-1,0.3-1.6c0-0.2,0.1-0.4,0.1-0.6c0.3-1.9,0.6-3.7,0.8-5.1c0.1-0.4,0.1-0.8,0.2-1.2
			c0-0.1,0-0.3,0.1-0.4c0,0,0,0,0,0c-0.4-0.1-0.7-0.2-1.1-0.2c-0.3-0.1-0.7-0.2-1-0.3c-0.2,0-0.3-0.1-0.5-0.1
			c-0.5-0.1-1-0.3-1.6-0.5c-0.4-0.1-0.7-0.2-1.1-0.4c-0.2-0.1-0.5-0.2-0.7-0.3c-0.2-0.1-0.4-0.2-0.7-0.3c-0.5-0.2-1.1-0.4-1.7-0.7
			c-1.2-0.5-2.3-1.6-2.9-3.2c-0.2-0.6-0.4-1.2-0.5-1.9c-0.1-0.9-0.2-1.8-0.2-2.9c-0.1-2,0-4.3,0.1-7c0,0,0,0,0,0
			c0-0.6,0.1-1.1,0.1-1.7c0.1-2.1,0.3-4.5,0.5-7.2c0.4-3.8,1.1-9.9,4.9-13.9c0.1-0.1,0.2-0.2,0.2-0.2c0.6-0.6,1.2-1.2,1.9-1.7
			c1.3-1,2.6-1.9,3.9-2.6c1.2-0.6,2.3-1.1,3.2-1.3c0.4-0.1,0.7-0.2,1-0.2c3.2,2.1,9.8,13.1,15.5,13.3c0.3,0,0,0,0.3,0
			c4,0,9-5.1,13.2-10.6c0.9-1.2,1.8-2,2.5-2.7l0.9,0.6l2.2,1.6l1.6,1.1l4.6,3.3c0.1,0.1,0.3,0.3,0.4,0.4c0.1,0,0.1,0.1,0.2,0.2
			c0,0,0.1,0.1,0.1,0.1c0.2,0.2,0.3,0.3,0.5,0.5c0.1,0.1,0.1,0.1,0.2,0.2c0.1,0.1,0.2,0.2,0.3,0.3l0,0c0.1,0.1,0.1,0.1,0.2,0.2
			c0.1,0.1,0.1,0.1,0.1,0.2c0.1,0.1,0.3,0.3,0.4,0.5c0.1,0.1,0.2,0.3,0.3,0.4c0.1,0.1,0.1,0.2,0.2,0.2c0.1,0.2,0.3,0.3,0.4,0.5
			c0.1,0.1,0.1,0.1,0.2,0.2c0.1,0.1,0.2,0.3,0.3,0.4c0.1,0.1,0.2,0.3,0.3,0.4c0.1,0.1,0.1,0.2,0.2,0.3c0.1,0.2,0.2,0.4,0.4,0.5
			c0.2,0.3,0.4,0.7,0.6,1c0.1,0.2,0.3,0.5,0.4,0.7c0.2,0.3,0.4,0.7,0.5,1c0.1,0.2,0.2,0.4,0.3,0.6c0.2,0.4,0.4,0.7,0.5,1.1
			c0.1,0.2,0.2,0.4,0.2,0.5c0.1,0.2,0.2,0.4,0.3,0.6c0.1,0.3,0.2,0.6,0.4,0.9c0.1,0.2,0.2,0.5,0.3,0.7c0.1,0.3,0.2,0.5,0.3,0.8
			c0.1,0.2,0.2,0.5,0.2,0.7c0.2,0.7,0.4,1.4,0.6,2.1c0.1,0.3,0.2,0.6,0.3,1c0.1,0.3,0.1,0.6,0.2,0.9c0,0,0,0,0,0.1
			c0.1,0.3,0.1,0.5,0.2,0.8c0,0,0,0.1,0,0.1c0,0,0,0,0,0c0.1,0.6,0.3,1.3,0.4,1.9c0,0.3,0.1,0.6,0.1,1c0,0.3,0.1,0.6,0.1,0.9
			c0,0,0,0.1,0,0.1c0,0.1,0,0.1,0,0.2c0,0.3,0.1,0.5,0.1,0.8c0,0.1,0,0.2,0,0.2c0,0.1,0,0.1,0,0.2c0,0.2,0,0.3,0,0.5c0,0,0,0,0,0
			c0,0.3,0,0.6,0.1,0.9C142.2,112.7,142.2,114.3,142.1,115.8z"/>
	</g>
	<path class="st2" d="M90.3,79.1c1.3,0.9,2.3,2.2,3.4,3.4c1.4,1.6,2.8,3.2,4.2,4.7c2.3,2.4,5.5,5.3,9.1,5c3.5-0.3,6.5-3.4,8.8-5.7
		c2.4-2.4,4.4-5.3,6.9-7.5c0.7-0.6-0.3-1.7-1.1-1.1c-2.3,2-4.2,4.7-6.4,6.9c-2.2,2.3-5.2,5.7-8.6,5.9c-3.5,0.2-6.7-3.4-8.9-5.8
		c-2.2-2.4-4.1-5.3-6.8-7.2C90.2,77.3,89.5,78.6,90.3,79.1L90.3,79.1z"/>
	<path class="st2" d="M90.5,77.7C88.5,78,86.6,79,85,80c-2.3,1.4-4.5,3.1-6.1,5.3c-2.8,3.8-3.6,8.6-4,13.2c-0.1,1,1.4,1,1.5,0
		c0.4-4.2,1.1-8.7,3.7-12.2c1.5-2,3.6-3.7,5.7-5c1.5-0.9,3.3-1.9,5.1-2.1C91.8,79.1,91.4,77.6,90.5,77.7L90.5,77.7z"/>
	<g>
		<path class="st6" d="M126.4,92.2c-0.2,5.8-0.5,7.7-1.1,13.6c-0.3,2.7-1,9.5-1.3,12.2c-0.3,3.1,0.2,5.7,0.8,8.8"/>
	</g>
	<g>
		<path class="st6" d="M109.3,76.9c2.4-1.8,6.5-1.8,9-1.2c2.5,0.6,4.7,2.4,5.4,4.9"/>
	</g>
	<g id="子ども_2_">
		<g>
			<path class="st0" d="M80.8,114.2c0,0-3.1,11.5-11.1,11.5S58.4,114,58.4,114c0.2-0.1,2.4-1.1,2.5-1.2c1.6-0.6,1.5-1.6,1.7-2.7
				c0.2-1,0.2-1.5,0.3-2.3c-5-2-7.6-7-8.3-11.6c0,0,0,0,0-0.1c-0.8,0.1-1.6-0.3-2.3-0.8c-0.6-0.5-1-1.1-1.4-1.8
				c-0.7-1.4-1-2.9-0.9-4.4c0-0.4,0.1-0.8,0.3-1.1c0.3-0.5,0.8-0.8,1.4-0.9c0.5-0.1,1,0,1.4,0.3c0,0,0,0,0,0c0.7,0,1.3,0,1.3,0
				c1.2,0,1.4-1.8,2.4-2.3c0.5-0.2,1-0.2,1.6-0.1c4.4,0.2,8.3-2.7,11.7-5.4c-0.1,0.7,0.4,1.4,1.1,1.6c0.7,0.2,1.4,0,2.1-0.2
				c1.7-0.6,3.1-1.9,4.4-3.2c2,0,6,3.4,7.4,10.3c0.3-0.6,1-0.9,1.7-0.9c0.1,0,0.2,0,0.3,0c0.6,0.1,1.2,0.4,1.4,0.9
				c0.2,0.3,0.3,0.7,0.3,1.1c0.1,1.5-0.2,3-0.9,4.4c-0.3,0.7-0.8,1.3-1.4,1.8c-0.7,0.5-1.5,0.9-2.4,0.8c0,0,0,0,0,0
				c-0.8,6.2-4.3,10.2-7.9,11.5c0,0,0,0,0,0c0.1,0.8,0.2,1.5,0.4,2.7c0.2,1.1,0.3,2,1.8,2.8C79.1,113.4,80.2,113.9,80.8,114.2
				c0.1,0,0.2,0.1,0.2,0.1c0,0,0.1,0,0.1,0L80.8,114.2z"/>
		</g>
		<g>
			<path class="st7" d="M51.6,78.6c0.4-1.9,0.9-3.5,1.3-4.5c1.7-4.2,6.8-9.5,17.4-9.4c3.8,0,7.3,0.1,10.7,4.8
				c1.2,0.5,2.7,0.9,3.4,1.8c4.4,5.7,4.1,10.3,3.7,16.1c-0.2-0.1-0.4-0.2-0.7-0.2c-0.1,0-0.2,0-0.3,0c-0.7,0-1.4,0.3-1.7,0.9
				C84,81.2,80,77.7,78,77.7c-1.3,1.3-2.7,2.6-4.4,3.2c-0.7,0.2-1.4,0.4-2.1,0.2c-0.7-0.2-1.3-0.9-1.1-1.6
				c-3.4,2.8-7.3,5.7-11.7,5.4c-0.5,0-1.1-0.1-1.6,0.1c-1,0.5-1.3,2.3-2.4,2.3c0,0-0.6,0-1.3,0c-0.4-0.3-0.9-0.4-1.4-0.3
				C50.9,84.7,51,81.4,51.6,78.6z"/>
		</g>
		<g>
			<path class="st8" d="M98.3,142.1c0,0.3,0.1,0.6,0.1,0.9H40.6c0.4-4.4,0.9-8.4,1.4-11.3c0.1-0.6,0.2-1.1,0.3-1.6
				c0.3-1.4,0.6-2.7,1.1-4.1c0.4-1.2,0.9-2.3,1.6-3.4c0.1-0.2,0.2-0.3,0.3-0.5c0.1-0.1,0.2-0.2,0.3-0.4c0.1-0.1,0.1-0.2,0.2-0.3
				c0.4-0.4,0.7-0.9,1.1-1.3c0.1-0.1,0.3-0.3,0.4-0.4c0.2-0.1,0.3-0.3,0.5-0.4c0.1-0.1,0.3-0.2,0.4-0.4c0,0,0,0,0,0
				c0.2-0.1,0.3-0.3,0.5-0.4c0.1-0.1,0.2-0.2,0.3-0.2c0.1-0.1,0.2-0.1,0.3-0.2c0.1-0.1,0.3-0.2,0.4-0.3c0.5-0.3,1-0.6,1.5-0.9
				c0.2-0.1,0.4-0.2,0.5-0.3c0.2-0.1,0.4-0.2,0.6-0.3c0.2-0.1,0.4-0.2,0.6-0.3c0.2-0.1,0.5-0.2,0.7-0.3c0.7-0.3,1.4-0.6,2-0.9
				c0.2-0.1,0.5-0.2,0.7-0.3c0.5-0.2,0.9-0.4,1.4-0.5c0,0,0.4-0.2,0.9-0.3c0,0,0,0,0,0c0.2,0.2,0.4,0.3,0.4,0.3
				c1.2,0.9,5.6,3.2,11,3.2c0.3,0,0.5,0,0.8,0c0.3,0,0.5,0,0.8,0c0.1,0,0.2,0,0.4,0c0.3,0,0.6-0.1,0.9-0.1c0.2,0,0.4-0.1,0.7-0.1
				c0,0,0.1,0,0.1,0c0.2,0,0.4-0.1,0.7-0.1c0.6-0.1,1.1-0.2,1.6-0.4c0.2-0.1,0.5-0.1,0.7-0.2c0.1,0,0.2-0.1,0.3-0.1
				c1.6-0.5,2.8-1.1,3.5-1.6c0.1,0,0.1-0.1,0.1-0.1l0,0c0,0,0.1,0,0.1-0.1c0.1-0.1,0.2-0.1,0.2-0.2c0,0,0.1-0.1,0.1-0.1c0,0,0,0,0,0
				c1.1,0.4,2.3,0.9,3.4,1.4c0.4,0.2,0.8,0.3,1.1,0.5c0,0,0,0,0,0c0.3,0.1,0.6,0.3,0.9,0.4c0.3,0.2,0.6,0.3,0.9,0.5
				c0.3,0.2,0.6,0.3,0.9,0.5c0.4,0.2,0.8,0.5,1.1,0.7c0,0,0,0,0,0c0.2,0.1,0.4,0.2,0.5,0.4c0,0,0.1,0,0.1,0.1
				c0.2,0.1,0.4,0.3,0.6,0.4c0,0,0,0,0.1,0c0,0,0.1,0,0.1,0.1c0.1,0.1,0.3,0.2,0.4,0.3c0.1,0.1,0.2,0.2,0.3,0.3
				c0.1,0.1,0.2,0.2,0.4,0.3c0.1,0,0.1,0.1,0.2,0.1c0.1,0.1,0.2,0.2,0.2,0.2c0.2,0.2,0.4,0.4,0.6,0.6c0.2,0.3,0.5,0.5,0.7,0.8
				c0.2,0.3,0.4,0.5,0.6,0.8c0.2,0.3,0.4,0.6,0.5,0.9c0.1,0.1,0.1,0.3,0.2,0.4c0.1,0.1,0.1,0.3,0.2,0.4c0,0,0,0,0,0
				c0.1,0.1,0.1,0.3,0.2,0.4c0.1,0.2,0.2,0.5,0.3,0.7c0.1,0.2,0.2,0.5,0.3,0.7c0.1,0.3,0.2,0.5,0.3,0.8c0.1,0.3,0.2,0.5,0.2,0.8
				c0.1,0.3,0.1,0.5,0.2,0.8c0.1,0.5,0.2,1,0.3,1.5c0,0.1,0.1,0.3,0.1,0.4c0.2,1.1,0.4,2.4,0.6,3.9c0.1,0.5,0.1,1,0.2,1.6
				c0.1,0.4,0.1,0.8,0.1,1.3c0.1,0.4,0.1,0.8,0.1,1.2c0.1,0.6,0.1,1.2,0.2,1.8c0,0.1,0,0.1,0,0.2C98.2,141,98.3,141.5,98.3,142.1z"
				/>
		</g>
		<path class="st2" d="M75.8,108c0.1,0.9,0.3,1.8,0.4,2.7c0.1,0.7,0.2,1.4,0.6,1.9c0.5,0.7,1.1,1.1,1.9,1.4c0.7,0.3,1.4,0.7,2.1,1
			c0.4,0.1,0.8-0.2,0.9-0.5c0.1-0.4-0.1-0.8-0.5-0.9c0.2,0.1,0,0,0,0c-0.1,0-0.2-0.1-0.2-0.1c-0.2-0.1-0.3-0.1-0.5-0.2
			c-0.3-0.1-0.6-0.3-0.9-0.4c-0.3-0.1-0.6-0.3-0.9-0.4c-0.2-0.2-0.5-0.4-0.6-0.5c0-0.1-0.1-0.1-0.1-0.2c0,0-0.1-0.2,0-0.1
			c-0.1-0.1-0.1-0.3-0.1-0.4c-0.1-0.3-0.1-0.6-0.2-0.9c-0.1-0.8-0.3-1.6-0.4-2.2c0-0.4-0.3-0.8-0.8-0.8
			C76.2,107.2,75.8,107.6,75.8,108L75.8,108z"/>
		<path class="st2" d="M62.2,107.8c-0.1,0.8-0.2,1.3-0.3,2.1c0,0.3-0.1,0.6-0.1,0.9c0,0.1-0.1,0.3-0.1,0.4c0,0-0.1,0.2,0,0.1
			c0,0.1-0.1,0.1-0.1,0.2c0,0-0.1,0.2-0.1,0.1c0-0.1-0.1,0.1-0.1,0.1c0,0-0.1,0.1-0.1,0.1c0,0-0.1,0.1-0.2,0.1
			c-0.2,0.1-0.4,0.2-0.6,0.3c-0.4,0.2-0.8,0.4-1.2,0.6c-0.4,0.2-0.8,0.4-1.2,0.6c-0.4,0.2-0.5,0.7-0.3,1c0.2,0.4,0.7,0.4,1,0.3
			c0.8-0.3,1.6-0.8,2.4-1.1c0.2-0.1,0.1,0-0.1,0c0.2,0,0.5-0.2,0.7-0.3c0.4-0.2,0.7-0.5,0.9-0.9c0.4-0.5,0.5-1.2,0.6-1.8
			c0.1-0.9,0.3-1.8,0.4-2.7c0-0.4-0.4-0.8-0.8-0.8C62.5,107,62.3,107.4,62.2,107.8L62.2,107.8z"/>
		<path class="st2" d="M52.2,85.9c-1-4.4,0-10.3,2.7-14.1c2.8-3.9,7.5-5.8,12.2-6.3c2.5-0.3,5.3-0.4,7.8,0.3
			c1.5,0.4,2.8,1.2,3.9,2.2c0.9,0.8,1.3,1.8,2.4,2.3c0.8,0.3,1.6,0.5,2.3,1.1c0.7,0.6,1.2,1.6,1.7,2.4c0.7,1.2,1.3,2.6,1.7,4
			c0.8,2.8,0.6,5.8,0.4,8.7c-0.1,1,1.5,1,1.5,0c0.3-5.2,0-10.1-3.1-14.5c-0.6-0.9-1.2-1.7-2.2-2.3c-1.2-0.7-2.1-0.8-3-1.9
			c-1.5-1.7-3.4-3-5.6-3.6c-4.4-1.1-9.8-0.5-14,1.1c-3.3,1.3-6.3,3.6-8.1,6.7c-2.3,4-3.2,9.7-2.2,14.1C51,87.2,52.5,86.8,52.2,85.9
			L52.2,85.9z"/>
		<path class="st2" d="M50,143c-0.1-3.2-0.3-6.3-0.3-9.5c0-1-1.5-1-1.5,0c0,3.2,0.1,6.4,0.3,9.5C48.5,144,50,144,50,143L50,143z"/>
		<path class="st2" d="M90.7,143c0.1-3.7,0.3-7.4,0.3-11.2c0-1-1.5-1-1.5,0c0,3.7-0.2,7.4-0.3,11.2C89.2,144,90.7,144,90.7,143
			L90.7,143z"/>
		<path class="st2" d="M83.9,93.2c0,5.8-2.6,12.9-8.9,14.2c-1,0.2-0.6,1.7,0.4,1.5c7-1.4,10-9.2,10.1-15.6
			C85.4,92.3,83.9,92.3,83.9,93.2L83.9,93.2z"/>
		<path class="st2" d="M53.8,94.2c0.1,3.3,1.1,6.8,3,9.5c2.1,3,5.1,4.9,8.7,5.6c1,0.2,1.4-1.3,0.4-1.5c-3.2-0.6-6-2.3-7.9-5.1
			c-1.7-2.5-2.6-5.6-2.7-8.6C55.3,93.2,53.8,93.2,53.8,94.2L53.8,94.2z"/>
		<path class="st2" d="M54.1,87.1c-1.1-0.9-2.7-1-3.8,0c-1.1,0.9-1.1,2.7-0.9,4c0.4,2.7,2.1,5.9,5.2,5.9c1,0,1-1.5,0-1.5
			c-2.1,0-3.2-2.2-3.6-3.9c-0.1-0.5-0.2-1-0.2-1.5c0-0.5,0-1,0.2-1.5c0.3-0.7,1.4-0.9,2-0.4c0.3,0.3,0.8,0.3,1.1,0
			C54.4,87.9,54.4,87.4,54.1,87.1L54.1,87.1z"/>
		<path class="st2" d="M86.2,88.2c0.6-0.5,1.7-0.3,2,0.4c0.2,0.4,0.2,0.9,0.2,1.4c0,0.5-0.1,1-0.2,1.6c-0.4,1.7-1.5,4-3.6,3.9
			c-1,0-1,1.5,0,1.5c3.1,0.1,4.8-3.2,5.2-5.9c0.2-1.3,0.2-3-0.8-4c-1.1-1-2.7-0.9-3.8,0c-0.3,0.3-0.3,0.8,0,1.1
			C85.5,88.5,85.9,88.5,86.2,88.2L86.2,88.2z"/>
		<path class="st2" d="M57.6,113.4c-5.1,2-10.7,4.3-13.6,9.2c-1.7,2.9-2.4,6.3-2.9,9.6c-0.6,3.6-0.9,7.1-1.3,10.7
			c-0.1,1,1.4,1,1.5,0c0.3-3.4,0.6-6.8,1.2-10.1c0.5-3.1,1.1-6.3,2.6-9.1c2.6-4.8,8.1-7,12.9-8.9C58.9,114.5,58.5,113.1,57.6,113.4
			L57.6,113.4z"/>
		<path class="st2" d="M58.8,114.8c4.7,3.3,11.3,3.9,16.7,2.7c1.8-0.4,4.5-1.1,5.9-2.5c0.3-0.3-0.6-0.1-0.1,0c0.3,0,0.2,0,0.5,0.1
			c5.2,0.9,9.5,4.7,12,9.2c3.1,5.7,3.9,12.4,3.9,18.8c0,1,1.5,1,1.5,0c0-9.2-1.8-20-9.6-26c-1.8-1.4-4-2.5-6.2-3.1
			c-1.5-0.4-2.2-0.6-3.4,0.3c-2.9,2-7.1,2.5-10.5,2.4c-3.4-0.1-7.1-1.1-10-3.1C58.7,112.9,58,114.2,58.8,114.8L58.8,114.8z"/>
		<path class="st2" d="M78.2,78.5c-0.2,0,0.2,0,0.2,0.1c0.1,0,0.1,0,0.2,0.1c0,0,0.3,0.1,0.1,0c0.3,0.1,0.6,0.3,0.8,0.5
			c0.6,0.4,1.2,1,1.7,1.6c1.5,1.8,2.5,4,3.1,6.2c0.3,0.9,1.7,0.5,1.5-0.4c-0.7-2.5-1.8-5-3.5-7c-1.1-1.2-2.4-2.4-4.1-2.6
			c-0.4-0.1-0.8,0.4-0.8,0.8C77.5,78.2,77.8,78.4,78.2,78.5L78.2,78.5z"/>
		<path class="st2" d="M77.5,77.1c-0.8,0.9-1.7,1.7-2.7,2.3c-0.8,0.5-3.9,1.9-3.7,0.1c0-0.7-0.8-0.9-1.3-0.5c-2.6,2.1-5.4,4.3-8.7,5
			c-0.8,0.2-1.6,0.2-2.4,0.2c-0.7,0-1.3-0.1-2,0.2c-0.9,0.5-1.3,2.1-2.2,2.2c-1,0.1-0.6,1.6,0.4,1.5c1.4-0.2,1.4-1.5,2.4-2.2
			c0.7-0.5,1.8-0.2,2.6-0.2c0.8-0.1,1.6-0.2,2.4-0.4c3.3-1,6-3.1,8.6-5.2c-0.4-0.2-0.9-0.4-1.3-0.5c-0.1,2.1,2.1,2.7,3.8,2.2
			c2.1-0.6,3.8-2.1,5.2-3.6C79.2,77.5,78.2,76.4,77.5,77.1L77.5,77.1z"/>
		<path class="st2" d="M66.8,101.3c0.8,0.7,2,1,3.1,1c1.1,0,2.3-0.2,3.1-1c0.3-0.3,0.3-0.8,0-1.1c-0.3-0.3-0.8-0.3-1.1,0
			c0,0-0.1,0-0.1,0.1c0,0.1,0.1-0.1,0.1-0.1c-0.1,0-0.1,0.1-0.2,0.1c-0.1,0-0.1,0.1-0.2,0.1c0,0-0.2,0.1,0,0c0,0-0.1,0-0.1,0
			c-0.2,0.1-0.4,0.1-0.7,0.2c0,0-0.2,0-0.1,0c-0.1,0-0.1,0-0.2,0c-0.2,0-0.3,0-0.5,0c-0.2,0-0.3,0-0.5,0c-0.1,0-0.2,0-0.3,0
			c0.1,0,0,0-0.1,0c-0.2,0-0.5-0.1-0.7-0.2c-0.1,0-0.1,0-0.2-0.1c0.1,0,0.1,0,0,0c-0.1,0-0.2-0.1-0.2-0.1c-0.1,0-0.1-0.1-0.2-0.1
			c-0.1,0,0.1,0.1,0.1,0c0,0,0,0-0.1-0.1c-0.3-0.3-0.8-0.3-1.1,0C66.5,100.6,66.5,101.1,66.8,101.3L66.8,101.3z"/>
		<path class="st2" d="M69.3,93.4c0.1,0.2,0.1,0.4,0.2,0.7c0,0.2,0.1,0.5,0.1,0.7c0-0.1,0-0.1,0-0.2c0,0.1,0,0.1,0,0.2
			c0-0.1,0-0.1,0-0.2c0,0,0,0.1,0,0.1c0-0.1,0.1-0.1,0.1-0.2c0,0,0,0,0,0.1c0-0.1,0.1-0.1,0.1-0.2c0,0,0,0,0,0
			c0.1,0,0.1-0.1,0.2-0.1c0,0-0.1,0-0.1,0.1c0.1,0,0.1-0.1,0.2-0.1c-0.1,0-0.1,0-0.2,0.1c0.1,0,0.1,0,0.2,0c-0.1,0-0.2,0-0.2,0
			c0.1,0,0.1,0,0.2,0c-0.1,0-0.3,0-0.4-0.1c-0.2,0-0.4,0.1-0.5,0.2c-0.1,0.1-0.2,0.3-0.2,0.5c0,0.2,0.1,0.4,0.2,0.5
			c0.1,0,0.1,0.1,0.2,0.1c0.1,0.1,0.2,0.1,0.4,0.1c0,0,0,0,0,0c-0.1,0-0.1,0-0.2,0c0.2,0,0.3,0.1,0.5,0.1c0.2,0,0.4,0,0.5-0.1
			c0.2-0.1,0.3-0.1,0.5-0.3c0.1-0.1,0.2-0.3,0.3-0.4c0.1-0.2,0-0.4,0-0.7c-0.1-0.4-0.2-0.9-0.3-1.3c0-0.2-0.2-0.4-0.3-0.5
			c-0.2-0.1-0.4-0.1-0.6-0.1C69.5,92.6,69.2,93,69.3,93.4L69.3,93.4z"/>
		<path class="st2" d="M78.2,89.1c0.3,0.9,0.1,2.8-1.5,3c-2.1,0-2.3-2.4-1.5-3.5C75.7,87.6,77.5,87.2,78.2,89.1z"/>
		<path class="st2" d="M64.8,89.1c0.3,0.9,0.1,2.8-1.5,3c-2.1,0-2.3-2.4-1.5-3.5C62.4,87.6,64.1,87.2,64.8,89.1z"/>
		<path class="st2" d="M65.1,74.8c-0.2,0.1-0.3,0.3-0.5,0.4c-0.1,0.1-0.2,0.1-0.2,0.2c0,0-0.1,0.1-0.1,0.1c-0.1,0.1,0.1-0.1,0,0
			c-0.4,0.3-0.8,0.6-1.2,0.9c-0.7,0.5-1.5,1.1-2.3,1.5c-0.3,0.2-0.5,0.7-0.3,1c0.2,0.3,0.7,0.5,1,0.3c0.8-0.5,1.6-1,2.3-1.5
			c0.8-0.6,1.6-1.2,2.4-1.8c0.3-0.3,0.3-0.8,0-1.1C65.8,74.5,65.4,74.6,65.1,74.8L65.1,74.8z"/>
	</g>
	<g>
		<g>
			<path class="st2" d="M98.1,77.7c0,0.5-0.4,0.9-0.9,0.9c-0.5,0-0.9-0.4-0.9-0.9c0-0.5,0.4-0.9,0.9-0.9
				C97.7,76.9,98.1,77.3,98.1,77.7z"/>
		</g>
		<g>
			<path class="st2" d="M100,79.6c0,0.5-0.4,0.9-0.9,0.9c-0.5,0-0.9-0.4-0.9-0.9c0-0.5,0.4-0.9,0.9-0.9C99.6,78.8,100,79.2,100,79.6
				z"/>
		</g>
		<g>
			<path class="st2" d="M102.7,80.7c0,0.5-0.4,0.9-0.9,0.9s-0.9-0.4-0.9-0.9c0-0.5,0.4-0.9,0.9-0.9S102.7,80.2,102.7,80.7z"/>
		</g>
		<g>
			<path class="st2" d="M105.7,80.7c0,0.5-0.4,0.9-0.9,0.9c-0.5,0-0.9-0.4-0.9-0.9c0-0.5,0.4-0.9,0.9-0.9
				C105.3,79.8,105.7,80.2,105.7,80.7z"/>
		</g>
		<g>
			<path class="st2" d="M108.6,79.8c0,0.5-0.4,0.9-0.9,0.9c-0.5,0-0.9-0.4-0.9-0.9c0-0.5,0.4-0.9,0.9-0.9
				C108.2,78.9,108.6,79.3,108.6,79.8z"/>
		</g>
		<g>
			<path class="st2" d="M111.5,78.7c0,0.5-0.4,0.9-0.9,0.9c-0.5,0-0.9-0.4-0.9-0.9c0-0.5,0.4-0.9,0.9-0.9
				C111.1,77.9,111.5,78.3,111.5,78.7z"/>
		</g>
		<g>
			<path class="st2" d="M114.2,77.4c0,0.5-0.4,0.9-0.9,0.9c-0.5,0-0.9-0.4-0.9-0.9c0-0.5,0.4-0.9,0.9-0.9
				C113.8,76.5,114.2,76.9,114.2,77.4z"/>
		</g>
	</g>
	<g>
		<path class="st9" d="M115.3,115.4c-2.4-25,10.7-34.7,10.7-34.7l2.3,1.7c0,0-10.9,11.8-8.5,31.9"/>
		<path class="st2" d="M116.1,115.4c-0.8-8.9,0-18.3,4.3-26.3c1.1-2.1,2.5-4.1,4.1-5.9c0.5-0.5,0.9-1,1.4-1.4
			c0.1-0.1,0.7-0.5,0.4-0.4c-0.3,0-0.5,0-0.8,0c0.8,0.6,1.5,1.1,2.3,1.7c-0.1-0.4-0.1-0.8-0.2-1.2c-2.3,2.5-4,5.7-5.4,8.7
			c-3.3,7.5-4.3,15.6-3.4,23.7c0.1,1,1.6,1,1.5,0c-0.9-7.9,0.1-16,3.4-23.3c1.3-2.8,2.9-5.8,5-8.1c0.4-0.4,0.2-0.9-0.2-1.2
			c-0.8-0.6-1.5-1.1-2.3-1.7c-0.2-0.1-0.6-0.1-0.8,0c-2.8,2.1-4.9,5.2-6.5,8.2c-4.4,8.3-5.4,17.9-4.5,27.1
			C114.6,116.3,116.2,116.4,116.1,115.4L116.1,115.4z"/>
	</g>
	<path class="st9" d="M140.5,143.2c2.4-11.8-6.2-30.6-6.2-30.6l-20.5,2.8c0,0-2.4,15.1-1.4,27.4"/>
	<path class="st2" d="M141.2,143.4c1.3-6.6-0.3-13.6-2.2-19.9c-1.1-3.8-2.5-7.6-4.2-11.2c-0.1-0.2-0.4-0.4-0.7-0.4
		c-6.8,0.9-13.7,1.8-20.5,2.8c-0.3,0-0.7,0.2-0.7,0.6c-1.5,9.1-2.2,18.5-1.5,27.6c0.1,1,1.6,1,1.5,0c-0.7-9,0-18.3,1.4-27.2
		c-0.2,0.2-0.5,0.4-0.7,0.6c6.8-0.9,13.7-1.8,20.5-2.8c-0.2-0.1-0.4-0.3-0.7-0.4c1.6,3.4,2.8,6.9,3.9,10.5
		c1.9,6.2,3.5,13.1,2.3,19.5C139.6,144,141.1,144.4,141.2,143.4L141.2,143.4z"/>
	<g>
		<path class="st0" d="M127.8,107c-1-2.8-3.2-6.6-4.3-7c-0.3-0.1-1.1-1-1.4-1c-0.3,0-0.7-0.2-0.8,0c-1.1,1.2,0,2.7,0.7,4.1
			c-1.9-0.5-3.2-1.1-4.8-1.9c-1.5-0.8-3.7-2.2-4.6-1.2c-1.4,0.1-1.9,1.5-1.6,2.5c-0.5,0.7-0.4,1.6-0.1,2.5c1.5,5.2,4.4,6.6,9.6,8.1
			c0.5,0.1,2.2,1.4,2.6,1.6L127.8,107z"/>
	</g>
	<path class="st2" d="M122.3,113.4c-0.9-0.6-1.7-0.9-2.8-1.3c-0.9-0.3-1.7-0.6-2.6-0.9c-1.4-0.6-2.7-1.5-3.7-2.7
		c-0.5-0.7-0.9-1.5-1.2-2.3c-0.2-0.5-0.4-1-0.5-1.5c-0.2-0.7-0.2-1.2,0.1-1.8c0.3-0.8-0.4-1.7,0.8-2.1c0.3-0.1,0.6-0.3,0.9-0.4
		c0.4-0.1,1,0.3,1.4,0.4c1.1,0.5,2.1,1.1,3.2,1.6c1.2,0.5,2.5,1,3.8,1.4c0.7,0.2,1.1-0.5,0.9-1.1c-0.5-1.1-1.4-2.3-0.6-3.4
		c-0.2,0.1-0.3,0.2-0.5,0.3c0,0,0.1,0,0.1,0c-0.2,0-0.4-0.1-0.6-0.1c1.1,0.6,2.1,1,2.9,2c1.2,1.4,2.2,3.2,2.9,4.9
		c0.3,0.9,1.8,0.5,1.5-0.4c-0.6-1.6-1.4-3.1-2.4-4.5c-0.7-0.9-1.4-1.9-2.4-2.5c-0.5-0.3-1-0.5-1.5-0.7c-0.7-0.3-1.1-0.3-1.6,0.4
		c-1,1.6,0.1,3.3,0.8,4.7c0.3-0.4,0.6-0.7,0.9-1.1c-2-0.6-3.9-1.4-5.7-2.4c-1.2-0.7-3.1-1.7-4.4-0.5c0.2-0.1,0.4-0.1,0.5-0.2
		c-1.7,0.2-2.7,1.8-2.3,3.5c0-0.2,0.1-0.4,0.1-0.6c-1,1.5-0.1,3.6,0.5,5.1c0.6,1.3,1.4,2.5,2.4,3.4c1,0.9,2.2,1.5,3.5,2.1
		c0.7,0.3,1.4,0.5,2.2,0.8c0.4,0.1,0.9,0.2,1.3,0.4c0.5,0.2,0.9,0.5,1.3,0.8C122.3,115.3,123.1,113.9,122.3,113.4L122.3,113.4z"/>
	<g>
		<path class="st5" d="M132.2,108.8c-1.5-1.2-2.7-2.1-3.4-2.8c-1.6,1.7-6.4,5.9-7.9,7.9c1.6,1.7,6,4.6,8.7,6.3
			c1.9,1.2,6.7,0.2,9.1-0.2c1.8-0.4,3.2-2.6,3.4-4.2L132.2,108.8z"/>
	</g>
	<path class="st2" d="M134,109.2c-1.6-1.2-3.2-2.4-4.7-3.7c-0.3-0.3-0.8-0.3-1.1,0c-2.6,2.7-5.7,5-8,8.1c-0.2,0.3-0.1,0.7,0.1,0.9
		c1.9,2.1,4.5,3.5,6.7,5.2c1.6,1.2,3.3,1.5,5.1,1.9c1.3,0.3,2.4,0.3,3.7,0c1.4-0.3,3.1-0.6,4.3-1.3c2.1-1.3,2.7-3.6,2.8-5.9
		c0.4-10.3-3.1-22.4-10.9-29.6c-2.7-2.5-6.4-6.2-10.2-6.7c-1-0.1-1,1.4,0,1.5c1.6,0.2,3.2,1.5,4.4,2.4c1.4,1,2.7,2.1,3.9,3.2
		c2.8,2.5,4.9,5.4,6.6,8.7c2.3,4.6,3.8,9.6,4.3,14.7c0.3,2.3,0.4,4.8,0.1,7.1c-0.4,3.2-3.4,3.9-6.1,4.5c-1.4,0.3-2.7-0.2-4-0.2
		c-1.2-0.1-2.3-0.7-3.2-1.4c-2.2-1.6-4.7-3.1-6.6-5.1c0,0.3,0.1,0.6,0.1,0.9c2.2-2.9,5.2-5.1,7.8-7.8c-0.4,0-0.7,0-1.1,0
		c1.5,1.3,3.1,2.5,4.7,3.7C133.7,110.9,134.7,109.8,134,109.2L134,109.2z"/>
</g>
</svg>
