<?xml version="1.0" encoding="utf-8"?>
<!-- Generator: Adobe Illustrator 24.2.0, SVG Export Plug-In . SVG Version: 6.00 Build 0)  -->
<svg version="1.1" id="レイヤー_1" xmlns="http://www.w3.org/2000/svg" xmlns:xlink="http://www.w3.org/1999/xlink" x="0px"
	 y="0px" viewBox="0 0 144 144" style="enable-background:new 0 0 144 144;" xml:space="preserve">
<style type="text/css">
	.st0{fill:#231815;}
	.st1{fill:#A87452;}
	.st2{fill:#FFF6E9;}
	.st3{fill:#F8D1DA;}
	.st4{fill:#FFFFFF;}
	.st5{fill:#C6C7C7;}
	.st6{fill:#6BBB6E;}
	.st7{fill:#C98C39;}
</style>
<g>
	<g id="woman_1_">
		<g>
			<path class="st0" d="M95.3,115.1c0.1,0.6,0.2,1.3,0.3,2c2.3,0,4.5,0,6.5,0c0-0.7,0-1.3,0-1.3c-0.2,0-0.4,0-0.6,0
				c-2-0.1-4.2-0.5-6.2-1.4C95.3,114.6,95.3,114.8,95.3,115.1z"/>
		</g>
		<g>
			<path class="st1" d="M88.5,61.1c2.5,0.9,7.9-0.7,9.6-2c0.7-0.5-2.8-4-2.4-4.7l5.2,0.9c0,0-2.6-5.2-3.4-7.3
				c-0.9-2.6-2.6-7.9-2.8-17.4c0.3-2.9,0-7-0.1-8.6c-0.4-5.5-2.9-11.7-6.4-15.1c-1.5-1.5-2-2.2-3.7-3.1c0,0-0.9-0.5-1.9-1
				c-0.5-0.2-0.9-0.4-0.9-0.4c-2.9-1.2-6-2-10.3-2c-7.1,0-13.4,3.7-16.2,6.3c-4.7,4.5-7.6,12.6-7.2,23.8c0,7.6-0.6,13.1-1.5,16.2
				c-0.6,2.1-3.1,5.3-3.2,7.5c0,0,2.9,0.8,5.4,0.1c1.1-0.3-4.3,4.2-3.3,5c1.8,1.4,7.2,2,9.4,1.6c0,0,6.2,3.9,16.5,3.9
				C81.8,64.8,88.5,61.1,88.5,61.1z"/>
		</g>
		<g>
			<path class="st2" d="M54.7,61.8c0.4-0.1,6.2-2.9,6.3-2.9c1.9-0.7,1.8-1.9,2-3.2c0.2-1.2,0.3-2.2,0.4-3.5c-1.8-1-3.5-2.5-5.1-4.3
				c-1.9-2.2-2.9-4.7-3.5-6.9c-0.4,0-0.7,0-0.7,0c-0.8-0.1-1.5-0.5-2.1-1c-0.8-0.6-1.3-1.5-1.8-2.3c-0.9-1.8-1.3-3.8-1.1-5.7
				c0-0.5,0.1-1,0.4-1.5c0.4-0.6,1.1-1.1,1.8-1.2c1-0.1,2,0.3,2.5,1.1c3.6-3.3,9.7-8.6,12.9-11.8c-0.2,1.9-1.4,5.9-0.2,5.5
				c5.3-1.5,9.6-4.6,12.9-9c0.7,2.3,1.6,5.7,2.4,7.2c1.1,2.1,4.3,7.4,7.5,8.6c0.5-0.8,1.6-1.2,2.5-1.1c0.8,0.1,1.5,0.6,1.8,1.2
				c0.3,0.4,0.3,1,0.4,1.5c0.2,2-0.2,4-1.1,5.7c-0.4,0.9-1,1.7-1.8,2.3c-0.6,0.5-1.3,0.8-2.1,1c0,0-0.2,0-0.5,0.1
				c-0.2,0.8-0.4,1.4-0.5,1.7c-0.6,1.7-2.7,6.8-8,8.9c0.1,1.1,0.2,2.3,0.4,3.4c0.2,1.3,0.2,2.5,2,3.2c0.1,0,5.4,2.5,5.6,2.6
				c0,0-3.7,10-18.3,10C59.1,71.5,54.7,61.8,54.7,61.8z"/>
		</g>
		<path class="st0" d="M90.3,30.8c1-0.8,2.6-0.6,3.2,0.5c0.6,1.1,0.4,2.8,0.2,3.9c-0.5,2.5-1.8,5.4-4.5,5.8c-0.6,0.1-0.4,1.1,0.3,1
			c3.5-0.6,5.1-4.6,5.4-7.7c0.1-1.5,0.1-3.4-1.2-4.4c-1.2-1-2.9-0.8-4.1,0.1C89.1,30.5,89.8,31.3,90.3,30.8L90.3,30.8z"/>
		<path class="st0" d="M88.8,38.9c-0.1,1.5-0.6,3.1-1.1,4.5c-0.4,1-0.8,1.9-1.4,2.8c-1.8,3.1-4.6,5.3-8.2,6.1
			c-0.6,0.1-0.4,1.1,0.3,1c5-1.1,8.7-5.2,10.3-9.9c0.5-1.5,1-3,1-4.6C89.8,38.2,88.8,38.2,88.8,38.9L88.8,38.9z"/>
		<path class="st0" d="M53.9,29.5c-1.2-1-2.8-1.1-4.1-0.1c-1.3,1-1.3,2.8-1.2,4.3c0.3,3.2,1.9,7.1,5.4,7.7c0.6,0.1,0.9-0.9,0.3-1
			c-2.7-0.5-4.1-3.4-4.5-5.9c-0.2-1.1-0.4-2.8,0.2-3.9c0.6-1.1,2.2-1.3,3.2-0.5C53.7,30.7,54.4,29.9,53.9,29.5L53.9,29.5z"/>
		<path class="st0" d="M53.5,36.7c0.4,3.6,1.4,7.2,3.5,10.3c2.4,3.4,6,6.5,10.3,7.1c0.6,0.1,0.9-0.9,0.3-1c-4.1-0.6-7.6-3.5-9.8-6.9
			c-1.9-2.8-2.8-6.2-3.2-9.5C54.5,36,53.5,36,53.5,36.7L53.5,36.7z"/>
		<path class="st0" d="M79.2,15.4c0.6,1.9,1.1,3.9,1.8,5.8c0.5,1.3,1.2,2.5,1.9,3.7c1.6,2.6,3.8,5.8,6.9,6.7c0.6,0.2,0.9-0.8,0.3-1
			c-1.5-0.4-2.6-1.5-3.6-2.6c-1.1-1.2-2-2.5-2.9-3.9c-0.7-1.1-1.3-2.3-1.8-3.5c-0.6-1.8-1.1-3.6-1.7-5.4C80,14.5,79,14.8,79.2,15.4
			L79.2,15.4z"/>
		<path class="st0" d="M79.3,14.7c-2.4,3.1-5.3,5.7-8.9,7.4c-0.9,0.4-1.8,0.8-2.7,1.1c-0.3,0.1-1.1,0.3-1,0.3c-0.1-0.2,0-0.7,0-0.9
			c0.1-1.4,0.5-2.7,0.7-4.1c0.1-0.5-0.6-0.6-0.9-0.4c-4.3,4.2-8.9,8-13.2,12.1c-0.5,0.4,0.2,1.2,0.7,0.7c4.4-4.1,9-7.9,13.2-12.1
			c-0.3-0.1-0.6-0.2-0.9-0.4c-0.2,1.6-0.9,3.4-0.7,5c0.2,1.8,2.1,0.7,3.2,0.3c4.5-1.7,8.2-4.7,11.1-8.4C80.4,15,79.7,14.2,79.3,14.7
			L79.3,14.7z"/>
		<path class="st0" d="M82,1.9C74.6-1,66.5-0.6,59.6,3.2C54.1,6.1,50.7,11,49,17c-1.3,4.4-1.6,9-1.5,13.6c0,0.7,1,0.7,1,0
			c-0.2-6.9,0.6-14.2,4.4-20.2C56.5,5,63,1.7,69.4,1.1c4.2-0.4,8.4,0.3,12.3,1.9C82.3,3.2,82.6,2.2,82,1.9L82,1.9z"/>
		<path class="st0" d="M95.3,30.6c0.4-5,0.1-10.4-1.4-15.2c-0.9-2.6-2.1-5.1-3.7-7.2c-1.4-1.8-3.2-3.7-5.3-4.8
			c-0.6-0.3-1.1,0.6-0.5,0.9c2.1,1.2,3.9,3.2,5.3,5.1c1.6,2.1,2.7,4.6,3.4,7.1c1.3,4.5,1.5,9.5,1.2,14.1
			C94.2,31.3,95.3,31.3,95.3,30.6L95.3,30.6z"/>
		<path class="st0" d="M47.5,30.6c0,5-0.1,10.2-1.2,15.1c-0.3,1.1-0.6,2.2-1,3.3c-0.6,1.6-1.1,3.7-2.3,4.9c-0.2,0.2-0.2,0.6,0.1,0.8
			c1.6,0.9,3.8,1.3,5.3,0.1c0.1-0.1,0.3-0.2,0.4-0.3c0.3-0.2,0.1-0.3-0.4-0.5c0,0-0.1,0.4-0.1,0.4c-0.3,0.4-0.5,0.9-0.7,1.3
			c-0.6,0.9-1.3,1.7-2.2,2.2c-1.6,0.9,0.3,2.1,1.3,2.6c2.7,1.2,5.8,1.6,8.7,1c0.6-0.1,0.4-1.1-0.3-1c-2.8,0.6-6.2,0.3-8.7-1.2
			c-0.2-0.1-0.3-0.2-0.5-0.4c-0.2-0.2-0.1-0.2-0.2,0c0.1-0.1,0.8-0.4,0.9-0.5c0.7-0.6,1.3-1.4,1.9-2.2c0.2-0.4,1.9-3.1,0.3-2.8
			c-0.2,0-0.4,0.2-0.6,0.4c-0.6,0.5-1.1,0.8-1.9,0.8c-0.9,0-1.8-0.3-2.5-0.7c0,0.3,0.1,0.5,0.1,0.8c1.1-1.2,1.7-3.1,2.3-4.6
			c0.5-1.3,0.9-2.5,1.2-3.8c1.2-5.1,1.3-10.4,1.3-15.6C48.6,30,47.5,29.9,47.5,30.6L47.5,30.6z"/>
		<path class="st0" d="M94.3,30.6c0.1,5.5,0.7,11,2.4,16.2c0.4,1.3,0.9,2.5,1.4,3.7c0.7,1.7,1.3,3.8,2.5,5.1
			c0.1-0.3,0.2-0.6,0.4-0.9c-1.5,0-3.8,0.2-5-0.9c-0.5-0.4-1,0.1-0.8,0.6c0.7,1.6,1.4,3.6,2.6,4.9c0.1-0.3,0.1-0.6,0.2-0.8
			c-1.4,0.3-2.8,0.7-4.2,1c-1.7,0.4-3.7,1-5.5,0.9c-0.7-0.1-0.6,1,0,1c1.8,0.2,3.8-0.5,5.5-0.8c1.5-0.3,3-0.7,4.5-1
			c0.4-0.1,0.5-0.6,0.2-0.8c-1.1-1.3-1.8-3.2-2.5-4.7c-0.3,0.2-0.5,0.4-0.8,0.6c1.4,1.2,4,1.2,5.7,1.2c0.5,0,0.7-0.5,0.4-0.9
			c-1.2-1.3-1.8-3.5-2.5-5.1c-0.5-1.1-0.9-2.3-1.3-3.4C96,41.3,95.4,36,95.3,30.6C95.3,30,94.3,30,94.3,30.6L94.3,30.6z"/>
		<path class="st0" d="M56.4,61.6c1.1-0.5,2.2-1,3.2-1.5c0.4-0.2,0.9-0.4,1.3-0.6c0.1,0,0.2-0.1,0.3-0.1c0,0,0.1,0,0.1,0
			c-0.3,0.1,0.2-0.1,0.3-0.1c1-0.5,1.6-1.3,1.8-2.4c0.3-1.3,0.5-2.7,0.5-4.1c0-0.7-1-0.6-1,0c-0.1,1.3-0.3,2.5-0.5,3.8
			c-0.1,0.4-0.2,0.8-0.5,1.2c-0.3,0.4-0.7,0.5-1.2,0.7c-1.7,0.7-3.3,1.5-4.9,2.3C55.3,61,55.8,61.9,56.4,61.6L56.4,61.6z"/>
		<path class="st0" d="M87.2,60.6C87.6,60.6,87.3,60.5,87.2,60.6c-0.2-0.1-0.3-0.2-0.4-0.2c-0.2-0.1-0.5-0.2-0.7-0.3
			c-0.5-0.2-1-0.5-1.5-0.7c-0.6-0.3-1.2-0.6-1.9-0.9c-0.4-0.2-0.9-0.4-1.2-0.8c-0.2-0.3-0.3-0.8-0.4-1.2c-0.2-1.4-0.4-2.8-0.5-4.2
			c0-0.7-1.1-0.7-1,0c0.1,1.5,0.3,3,0.6,4.5c0.2,1.1,0.8,2,1.8,2.4c0,0,0.6,0.2,0.3,0.1c0,0,0.1,0,0.1,0c0.1,0.1,0.2,0.1,0.3,0.2
			c0.5,0.2,0.9,0.4,1.3,0.6c0.5,0.2,1.1,0.5,1.6,0.7c0.3,0.1,0.5,0.3,0.8,0.4c0.2,0.1,0.5,0.3,0.7,0.3
			C87.9,61.6,87.9,60.6,87.2,60.6L87.2,60.6z"/>
		<g>
			<path class="st3" d="M42.7,66.8c-0.1,0.1-0.1,0.1-0.2,0.2c-0.1,0.1-1.1,0.9-1.5,1.3c-2,2-3,4.8-3.8,7.5
				c-1.5,3.9-5.2,16.5-5.9,22.1c-0.5,4.2-0.5,8.5,0.8,12.4c0.3,1,1.8,3.7,4.9,4.3c2.6,0.5,5.9,0.2,7.8-1.5c1-0.8,1.9-2.1,2.8-3.5
				c-0.3,2.2-0.8,4.9-1.2,7.2c0,0,0,0.1-0.1,0.3c14.4,0,34.3,0,49.1,0c0-0.1,0-0.2,0-0.2c-0.1-0.9-0.2-1.7-0.3-2.6
				c3.2,1.5,6.9,1.7,9.7,1.1c0.1,0,0.2-0.1,0.2-0.1c4-1.4,6.2-4.2,6.6-9.1c0.2-6.2-0.6-11.8-2.2-17.2c-1.8-6.2-2.5-8.6-3.4-10.8
				c-1.4-4.1-3.1-7.7-5.4-10.2c-1.7-1.8-3.6-3.2-6-4.3c-2.4-1-4.6-1.9-6.9-2.9c-3.7,2.2-10.9,4.1-16.3,4c-5.8,0-11.8-1.8-15.9-3.9
				C51,62.6,45.8,64.7,42.7,66.8z"/>
		</g>
		<path class="st0" d="M96.1,116.9c-0.1-0.9-0.2-1.7-0.3-2.6c0-0.3-0.2-0.5-0.5-0.5c-0.2,0-0.5,0.2-0.5,0.5c0.1,0.9,0.2,1.7,0.3,2.6
			c0,0.1,0,0.3,0.1,0.4c0.1,0.1,0.2,0.2,0.4,0.1C95.8,117.4,96.1,117.2,96.1,116.9L96.1,116.9z"/>
		<path class="st0" d="M96.5,95.9c1.1-7.2,2.1-14.3,3.1-21.5c0.1-0.6-0.9-0.6-1,0c-0.9,7.1-2,14.2-3,21.2
			C95.5,96.3,96.4,96.6,96.5,95.9L96.5,95.9z"/>
		<path class="st0" d="M47.2,109.4c-0.4,2.4-0.8,4.8-1.2,7.2c-0.1,0.6,0.9,0.9,1,0.3c0.5-2.4,0.9-4.8,1.2-7.2c0-0.3-0.1-0.5-0.4-0.6
			C47.6,109,47.3,109.2,47.2,109.4L47.2,109.4z"/>
		<g id="left_x5F_hand_2_">
			<g>
				<path class="st2" d="M88.4,94.2c-1.8,2.4-3.6,5-5.3,7.5c0,0,0,0,0,0c-0.1-0.1-0.2-0.1-0.3-0.2c-0.4-0.3-0.8-0.5-1.2-0.7l-0.1,0
					c-0.1,0-0.1-0.1-0.2-0.1h-0.1c-2.9-0.1-6.5,0.3-9.3,0.1c-1.5-0.1-6-0.3-7.5-1.3c-0.7-0.4-0.9-1.5-0.5-2.2
					c0.5-0.9,1.5-0.8,2.5-0.7c0.7,0,1.7,0.2,2.7,0.3c0,0,0,0,0,0c0.9,0.1,1.7,0.2,2.3,0.2c1.8-0.2,3.5-0.2,6-1.1
					c0.4-0.1,0.8-0.3,1.3-0.5l2.7-2.8c0-0.3-0.2-0.7-0.3-1.2c-0.1-0.5-0.3-1-0.4-1.3c-0.1-0.5-0.4-1.1-0.6-1.8c0,0,0,0,0,0
					c-0.2-0.7-0.4-1.5-0.2-2.1c0.1-0.2,0.2-0.3,0.3-0.5c0.2-0.2,0.6-0.2,0.9-0.2c0,0,0,0,0,0c0,0,0.1,0,0.1,0c1,0.3,1.7,1.1,2.2,2
					c0.5,0.9,1.3,1.9,2.2,2.4l0.3,0.2c1,0.7,1.8,1.9,2,3.1c0.1,0.3,0.1,0.6,0.2,0.8C88.3,94.1,88.3,94.2,88.4,94.2z"/>
			</g>
			<g>
				<path class="st4" d="M63.1,87c-0.4,2.8,0.6,6.2,2.9,8c2.6,2,5.3,2.6,8.5,2c2.1-0.4,4.5-2,5.7-3.8c1.2-1.7,1.6-4.2,1.5-6.2
					c-1.1,2-5.4,2.4-9,2.4C69.4,89.5,64.4,88.2,63.1,87L63.1,87z"/>
			</g>
			<g>
				<path class="st4" d="M64.5,84.1C64.5,84.1,64.6,84.1,64.5,84.1c0.5-0.6,1.5-1.1,2.2-1.1c0.2,0,0.4,0,0.6-0.1
					c0.1-0.1,0.1-0.2,0.2-0.3c0.4-1.1,1.3-2,2.5-2.2c1.1-0.3,2.4,0.1,3.2,0.9c0.1,0.1,0.2,0.2,0.4,0.3c0.2,0,0.4-0.1,0.5-0.2
					c1.1-0.8,2.7-0.4,3.4,0.7c0.1,0.2,0.2,0.4,0.4,0.4c0.1,0.1,0.3,0.1,0.5,0.1c1.1,0,2,1.1,2.4,2.1c0.5,1.2,0.7,1.5,0.3,3.2
					c-1.6,1.3-5.3,1.6-8.4,1.7c-2.8,0-6.8-0.8-8.8-1.9c-0.1-0.5-0.1-0.8-0.1-0.8C63.6,85.7,64.1,84.7,64.5,84.1z"/>
			</g>
			<path class="st0" d="M62.8,87.3c1,1,2.6,1.4,3.9,1.7c1.9,0.5,3.8,0.8,5.7,0.8c2,0,4-0.1,6-0.5c1.4-0.3,3.1-0.8,3.9-2.2
				c0.3-0.6-0.5-1.1-0.9-0.5c-0.7,1.2-2.5,1.6-3.8,1.8c-1.8,0.3-3.6,0.4-5.4,0.4c-1.7,0-3.3-0.3-5-0.7c-1.2-0.3-2.7-0.7-3.7-1.5
				C63,86.2,62.3,86.9,62.8,87.3L62.8,87.3z"/>
			<path class="st0" d="M62.6,87c-0.3,2.5,0.3,5.3,1.9,7.2c1.7,2.1,4.6,3.3,7.3,3.5c3,0.1,5.8-0.9,7.9-3c2-2,2.6-4.9,2.5-7.7
				c0-0.7-1-0.7-1,0c0.1,2.5-0.4,5.1-2.2,6.9c-1.9,1.9-4.4,2.9-7.1,2.7c-2.4-0.1-5.1-1.2-6.6-3.2c-1.4-1.8-1.9-4.3-1.6-6.5
				C63.7,86.3,62.7,86.3,62.6,87L62.6,87z"/>
			<path class="st0" d="M64.3,86.6c-0.2-1.3,0.5-2.5,1.7-2.9c0.8-0.3,1.5,0.1,1.9-0.8c0.5-1,1-1.8,2.2-2.1c0.6-0.2,1.4-0.1,2,0.2
				c0.4,0.2,0.7,0.6,1.2,0.8c0.7,0.4,1.2-0.4,2-0.5c0.5-0.1,0.9,0,1.3,0.3c0.4,0.3,0.5,0.7,0.9,1c0.3,0.2,0.5,0.3,0.9,0.3
				c0.6,0.1,1,0.3,1.4,0.7c0.8,0.8,1.3,2.1,1.1,3.2c-0.1,0.6,0.9,0.9,1,0.3c0.2-1.2-0.2-2.4-0.8-3.5c-0.3-0.5-0.7-0.9-1.2-1.3
				c-0.4-0.3-0.9-0.3-1.3-0.4c-0.5-0.1-0.7-0.8-1.2-1.1c-0.4-0.3-0.9-0.5-1.5-0.5c-0.5,0-1,0-1.4,0.2c-0.2,0.1-0.5,0.4-0.7,0.4
				c-0.2,0-0.5-0.4-0.7-0.5c-1-0.7-2.3-0.9-3.4-0.5c-1.3,0.4-1.8,1.3-2.5,2.3c-0.2,0.4-0.1,0.2-0.6,0.3c-0.2,0-0.4,0.1-0.6,0.1
				c-0.6,0.2-1.1,0.5-1.6,0.9c-0.9,0.8-1.2,2.2-1,3.3C63.4,87.5,64.4,87.3,64.3,86.6L64.3,86.6z"/>
			<path class="st0" d="M70.1,85.3C70.1,85.3,70.1,85.2,70.1,85.3C70.1,85.4,70.2,85.2,70.1,85.3C70.1,85.5,70.1,85.3,70.1,85.3
				C70.1,85.4,70,85.4,70.1,85.3C70.1,85.4,70.1,85.3,70.1,85.3C70.2,85.3,70.1,85.4,70.1,85.3c0,0,0.1,0,0.1,0c0,0,0.1,0,0.1,0
				c0,0,0.1,0,0,0c-0.1,0,0,0,0,0c0,0,0.1,0,0.1,0c0.1,0,0.2-0.1,0.3-0.1c0,0,0.1,0,0.1,0c0.1,0-0.2,0-0.1,0c0,0,0.1,0,0.1,0
				c0.1,0,0.1,0,0.2,0c0,0,0.1,0,0.1,0c0,0,0.1,0,0.1,0c-0.1,0,0,0,0,0c0,0,0.1,0,0.1,0c0,0,0.1,0.1,0.2,0.1c-0.1,0-0.1,0,0,0
				c0,0,0,0,0,0c0,0,0.1,0,0.1,0c0.1,0-0.1-0.1,0,0c0,0,0.1,0.1,0.2,0.1c0.2,0.1,0.4,0.1,0.6,0c0.2-0.1,0.2-0.3,0.2-0.5
				c0,0,0-0.1-0.1-0.1c-0.1-0.1-0.1-0.1,0,0c-0.1-0.2-0.5-0.3-0.7-0.2c-0.2,0.1-0.3,0.4-0.2,0.7c0,0,0.1,0.1,0.1,0.1
				c0-0.1-0.1-0.1-0.1-0.2c0,0,0,0,0,0c0.2-0.2,0.5-0.4,0.7-0.6c0.1,0.1,0.1,0.1,0.1,0c0,0,0,0,0,0c-0.1,0-0.1-0.1-0.2-0.1
				c-0.1-0.1-0.2-0.1-0.3-0.1c-0.2-0.1-0.4-0.1-0.5-0.1c-0.3,0-0.6,0-0.9,0.1c-0.3,0.1-0.6,0.2-0.8,0.3c-0.3,0.2-0.6,0.5-0.6,0.9
				c0,0.3,0.2,0.5,0.5,0.5C69.9,85.8,70.2,85.6,70.1,85.3L70.1,85.3z"/>
			<g>
				<path class="st4" d="M83.1,101.7C83.1,101.7,83.1,101.7,83.1,101.7C83.1,101.7,83.1,101.7,83.1,101.7l-1.5-1
					c0.3,0.2,0.7,0.5,1.2,0.7C82.8,101.5,82.9,101.6,83.1,101.7C83.1,101.7,83.1,101.7,83.1,101.7z"/>
				<path class="st0" d="M82.6,101.7C82.6,101.7,82.6,101.7,82.6,101.7c0-0.1,0-0.2,0.1-0.3c0,0,0,0,0,0c0.2-0.1,0.5-0.1,0.7-0.2
					c-0.4-0.3-0.9-0.6-1.3-0.9c-0.1,0-0.1-0.1-0.2-0.1c-0.2,0.3-0.3,0.6-0.5,0.9c0.2,0.2,0.5,0.3,0.7,0.5c0.3,0.2,0.5,0.4,0.8,0.5
					c0.2,0.1,0.6,0.1,0.7-0.2c0.1-0.2,0.1-0.5-0.2-0.7c-0.3-0.2-0.5-0.4-0.8-0.5c-0.2-0.2-0.5-0.3-0.7-0.5c-0.2-0.1-0.6-0.1-0.7,0.2
					c-0.1,0.3-0.1,0.5,0.2,0.7c0.4,0.3,0.9,0.6,1.3,0.9c0.1,0,0.1,0.1,0.2,0.1c0.1,0.1,0.3,0.1,0.4,0.1c0.1,0,0.2-0.1,0.3-0.2
					c0-0.1,0.1-0.2,0.1-0.3c0-0.3-0.2-0.5-0.5-0.5C82.8,101.2,82.6,101.4,82.6,101.7z"/>
			</g>
			<g>
				<path class="st4" d="M85.8,89.9c-0.9-0.5-1.7-1.5-2.2-2.4c-0.5-0.9-1.2-1.7-2.2-2c-0.3-0.1-0.8-0.1-1,0.2
					c-0.1,0.1-0.2,0.3-0.3,0.5c-0.4,1.1,0.5,2.7,0.8,3.8c0.2,0.6,0.6,1.9,0.7,2.5L85.8,89.9z"/>
			</g>
			<path class="st0" d="M86,89.5c-1-0.6-1.6-1.5-2.2-2.4c-0.6-0.9-1.4-1.8-2.4-2c-0.5-0.1-1.1,0-1.5,0.4c-0.4,0.4-0.5,0.9-0.5,1.4
				c0,1,0.5,2,0.8,2.9c0.3,0.9,0.6,1.9,0.8,2.8c0.1,0.6,1.1,0.4,1-0.3c-0.1-0.8-0.4-1.5-0.6-2.2c-0.2-0.8-0.6-1.6-0.8-2.4
				c-0.2-0.6-0.3-1.9,0.7-1.6c0.9,0.2,1.4,1.1,1.9,1.8c0.6,0.9,1.4,1.9,2.3,2.4C86.1,90.7,86.6,89.8,86,89.5L86,89.5z"/>
			<path class="st0" d="M78.6,94.8c-2.3,0.9-4.8,1.6-7.3,1.5c-1.3,0-2.5-0.3-3.8-0.4c-1-0.1-2.3-0.3-3.2,0.2
				c-0.9,0.5-1.2,1.6-0.9,2.5c0.3,0.9,1.1,1.3,1.9,1.5c2,0.6,4.2,0.7,6.2,0.8c3.3,0.3,6.5-0.1,9.7,0c0.7,0,0.7-1,0-1
				c-2.6,0-5.3,0.2-7.9,0.1c-1.9-0.1-3.8-0.2-5.6-0.5c-0.9-0.1-1.7-0.3-2.6-0.6c-0.5-0.2-0.8-0.5-0.9-1c-0.1-0.9,0.5-1.2,1.3-1.2
				c2.1-0.1,4.1,0.6,6.2,0.5c2.5-0.2,4.8-0.6,7.1-1.6C79.5,95.6,79.2,94.6,78.6,94.8L78.6,94.8z"/>
			<path class="st0" d="M85.8,90.6c0.6,0.4,1.1,1,1.4,1.7c0.2,0.3,0.3,0.7,0.3,1c0.1,0.5,0.2,0.8,0.5,1.2c0.2,0.2,0.5,0.2,0.7,0
				c0.2-0.2,0.2-0.5,0-0.7c0,0.1,0,0,0-0.1c0-0.1,0,0,0-0.1c0-0.1-0.1-0.2-0.1-0.3c0-0.2-0.1-0.4-0.1-0.6c-0.1-0.4-0.3-0.8-0.5-1.2
				c-0.4-0.8-1-1.4-1.7-1.9c-0.2-0.2-0.6,0-0.7,0.2C85.5,90.2,85.6,90.5,85.8,90.6L85.8,90.6z"/>
		</g>
		<g id="right_x5F_hand_2_">
			<path class="st0" d="M43.6,71c4.6-0.1,9.2-0.3,13.8-0.3c2.5,0,4.9,0.2,7.4,0.3C68.2,71,71.6,71,75,71c0.7,0,0.7-1,0-1
				c-3.3,0-6.6,0-9.9,0c-2.5-0.1-5.1-0.3-7.6-0.3c-4.6,0-9.2,0.2-13.8,0.3C43,70,43,71,43.6,71L43.6,71z"/>
			<path class="st0" d="M42.7,76.5c3.8-0.4,7.7-0.5,11.5-0.7c5.4-0.3,10.9-0.6,16.3-0.9c1.7-0.1,3.5-0.2,5.2-0.4
				c0.6-0.1,0.6-1.1,0-1c-4,0.5-8,0.6-12,0.8c-5.4,0.3-10.8,0.6-16.2,0.9c-1.6,0.1-3.3,0.2-4.9,0.3C42,75.5,42,76.5,42.7,76.5
				L42.7,76.5z"/>
			<g>
				<path class="st2" d="M65.1,74.6c-0.5,0-0.4,0-1.2-0.1c1.4,0.5,1.3,2.3,0.2,3c0.7,0.4,0.8,1.5,0.2,2c-0.5,0.5-2.4,0.6-3,0.8
					c-3.5,1.3-0.9,4.6-7.8,7.4c-2.3-0.8-5.1-1.8-7.4-2.6c0.9-3.8,1.5-5.5,3.3-9.6c1.5-3.3,1.7-5.5,4.2-7.6
					c1.9-1.2,13.2-1.5,10.8,2.5h0c-0.1,0.1-0.1,0.1-0.2,0.2c-0.3,0.2-0.7,0.4-1.1,0.4c1.1,0.4,2.6,0.6,3.2,1.6
					C66.7,73.5,66.1,74.5,65.1,74.6z"/>
			</g>
			<path class="st0" d="M63.1,71.5c1.7-0.1,2.9-2.1,1.5-3.4c-0.7-0.7-1.8-0.9-2.8-1.1c-1.2-0.2-2.4-0.3-3.5-0.4
				c-1.3,0-2.7,0.1-3.9,0.5c-1.2,0.4-2,1.2-2.7,2.3c-0.7,1-1.1,2.1-1.6,3.3c-0.6,1.4-1.1,2.8-1.7,4.2c-0.5,1.2-1,2.5-1.5,3.7
				c-0.6,1.5-0.8,3-1.2,4.5c-0.2,0.6,0.8,0.9,1,0.3c0.4-1.3,0.6-2.7,1-4c0.3-1,0.8-1.9,1.1-2.9c0.6-1.4,1.2-2.9,1.7-4.3
				c0.5-1.1,0.8-2.3,1.4-3.4c0.4-0.7,0.8-1.3,1.3-1.9c0.5-0.6,1.2-0.8,2-1c1.4-0.3,2.8-0.3,4.2-0.2c1.1,0.1,2.3,0.2,3.4,0.6
				c0.7,0.2,1.7,0.8,1.2,1.7c-0.2,0.4-0.6,0.5-1,0.5C62.5,70.5,62.5,71.5,63.1,71.5L63.1,71.5z"/>
			<path class="st0" d="M55.3,72.3c1-0.6,2.1-0.9,3.3-1.1c1.3-0.2,2.6,0,3.9,0.2c1,0.2,2.1,0.4,2.9,1c1,0.7,0.3,1.9-0.8,1.7
				c-0.6-0.1-0.6,0.9,0,1c1.3,0.2,2.6-0.9,2.3-2.3c-0.3-1.3-1.8-1.8-2.9-2.2c-0.7-0.2-1.4-0.3-2.2-0.4c-0.8-0.1-1.7-0.3-2.5-0.2
				c-1.6,0.1-3.1,0.6-4.4,1.4C54.3,71.7,54.8,72.6,55.3,72.3L55.3,72.3z"/>
			<path class="st0" d="M58.1,75.4C58.2,75.3,58.1,75.4,58.1,75.4c0.1-0.1,0.2-0.1,0.2-0.1c0.1-0.1,0.3-0.1,0.4-0.2
				c0.3-0.1,0.7-0.2,1-0.3c0.8-0.2,1.5-0.4,2.3-0.2c0.4,0.1,0.8,0.2,1.1,0.3c0.3,0.1,0.7,0.2,0.9,0.5c0.6,0.5,0.2,1.4-0.3,1.9
				c-0.2,0.2-0.2,0.5,0,0.7c0.2,0.2,0.5,0.2,0.7,0c0.8-0.6,1.2-1.9,0.7-2.8c-0.5-0.9-1.6-1.1-2.4-1.4c-1-0.3-2.1-0.2-3.1,0.1
				c-0.7,0.2-1.7,0.5-2.3,1C56.9,75.1,57.6,75.8,58.1,75.4L58.1,75.4z"/>
			<path class="st0" d="M53.7,88.2c0.9-0.2,1.6-0.8,2.4-1.3c0.7-0.6,1.6-1,2.2-1.6c1.1-1.1,1-3.1,2.3-4c1.1-0.8,2.5-0.5,3.6-1
				c1.3-0.6,1.2-2.5,0-3.1c-0.8-0.4-1.8-0.5-2.6-0.4c-1,0.1-1.7,0.5-2.6,1c-0.6,0.3-0.1,1.2,0.5,0.9c0.6-0.3,1.2-0.7,1.9-0.8
				c0.7-0.1,1.5,0,2.2,0.2c0.5,0.2,0.8,0.9,0.3,1.3c-0.3,0.3-1,0.3-1.4,0.4c-1,0.2-2,0.4-2.8,1.1c-1,0.9-1.1,2.3-1.8,3.4
				c-0.5,0.8-1.4,1.1-2,1.7c-0.8,0.6-1.4,1.3-2.4,1.5C52.8,87.4,53,88.3,53.7,88.2L53.7,88.2z"/>
		</g>
		<path class="st0" d="M37.7,94.8c0.9-2.3,1.8-4.5,2.8-6.7c0.4-1,0.9-2,1.4-2.9c0.2-0.3,0.3-0.7,0.6-0.8c0.4-0.1,1.3,0.4,1.7,0.6
			c2.8,0.9,5.5,1.9,8.3,2.9c0.6,0.2,1.3,0.5,1.9,0.7c0.9,0.3,1.1,0.3,0.8,1.3c-0.4,1.2-0.8,2.5-1.3,3.7c-1.1,2.9-2.2,5.7-3.3,8.6
			c-1.1,2.6-2.1,5.2-3.6,7.6c-1.5,2.5-3.4,4.1-6.3,4.5c-2.6,0.3-5.3-0.2-7-2.3c-1.6-2-2-5-2.1-7.6c-0.2-2.8,0-5.6,0.5-8.3
			c0.8-4.4,2-8.7,3.3-13c0.6-1.9,1.1-3.7,1.8-5.6c0.7-2.1,1.3-4.4,2.4-6.4c2.6-4.8,8.5-6.8,13.2-8.6c0.7-0.3,1.7-0.9,2.5-0.9
			c0.7,0,1.4,0.5,2,0.7c1.4,0.6,2.9,1.1,4.4,1.6c3.2,0.9,6.5,1.5,9.8,1.5c5.5,0,11.7-1.4,16.6-4.1c-0.2,0-0.3,0-0.5,0
			c3.9,1.7,8.2,3,11.5,5.8c3,2.7,4.8,6.3,6.2,10.1c0.8,2.3,1.6,4.5,2.3,6.8c1.1,3.9,2.4,7.7,3,11.7c0.4,2.3,0.6,4.6,0.7,7
			c0.1,2.1,0.1,4.2-0.4,6.3c-0.8,3-3.3,5.7-6.5,6.3c-4.3,0.8-8.3-0.6-11.8-3c-2.9-2-5.7-4.1-8.5-6.2c-0.4-0.3-1.5-0.9-1.8-1.4
			c-0.3-0.6,1-2,1.3-2.6c1.3-1.9,2.7-4,4.1-5.9c0.7-0.9,1.3-2,2.1-2.8c0.6-0.6,0.8-0.3,1.4,0.1c0.4,0.3,0.9,0.5,1.3,0.8
			c2,1.3,4,2.6,6,3.9c0.6,0.4,1.1-0.5,0.5-0.9c-2.4-1.5-4.7-3.1-7.1-4.6c-0.5-0.3-1.3-1-2-0.8c-0.4,0.2-0.7,0.6-0.9,1
			c-0.5,0.6-0.9,1.2-1.4,1.9c-0.9,1.2-1.8,2.5-2.7,3.7c-0.5,0.7-0.9,1.3-1.4,2c-0.2,0.3-0.5,0.6-0.7,1c0,0.1-0.5,0.7-0.2,0.2
			c-0.4,0.7-1.8,2-1.8,2.9c0.1,0.8,1.2,1.4,1.8,1.8c1.6,1.2,3.2,2.5,4.8,3.7c2.2,1.6,4.4,3.4,6.8,4.7c4,2.1,9.4,2.8,13.4,0.3
			c4-2.5,4.6-7.1,4.6-11.5c-0.1-6-1.5-11.6-3.1-17.2c-2.4-8.1-4.7-17.6-12.7-22c-1.2-0.7-2.5-1.2-3.8-1.7c-0.8-0.3-1.6-0.7-2.5-1
			c-0.7-0.3-1.4-0.8-2.2-0.9c-0.7-0.1-1.5,0.5-2.1,0.8c-1.2,0.5-2.4,1-3.7,1.4c-5.5,1.7-11.2,2.3-16.8,1.1c-2.8-0.6-5.6-1.4-8.2-2.6
			c-0.4-0.2-1-0.6-1.4-0.7c-0.4,0-0.9,0.2-1.3,0.4c-1.4,0.5-2.9,1.1-4.3,1.7c-4,1.7-8.6,3.6-11,7.4c-1.2,2-1.8,4.2-2.6,6.4
			c-0.6,1.6-1.1,3.3-1.6,4.9c-1.3,4.2-2.5,8.4-3.4,12.7c-1.5,7.2-2.9,21.3,7.7,21.4c2.1,0,4.4-0.4,6.1-1.8c1.8-1.5,2.9-3.7,3.9-5.7
			c2.4-4.9,4.3-10.1,6.1-15.2c0.4-1,0.8-2,1-3.1c0.3-1.1-0.2-1.3-1.2-1.7c-2.6-0.9-5.2-1.9-7.9-2.8c-1.2-0.4-2.5-0.9-3.7-1.3
			c-0.6-0.2-1.3-0.6-1.9-0.2c-0.6,0.4-0.9,1.5-1.2,2.1c-0.5,1-0.9,2-1.4,3c-0.9,2-1.7,3.9-2.5,6C36.5,95.2,37.5,95.5,37.7,94.8
			L37.7,94.8z"/>
		<path class="st0" d="M-0.3,117.6c5.9,0,11.8,0,17.7,0c11.2,0,22.5,0,33.7,0c13.1,0,26.2,0,39.2,0c11.4,0,22.9,0,34.3,0
			c6.3,0,12.7,0,19,0c0.3,0,0.5,0,0.8,0c0.7,0,0.7-1,0-1c-5.5,0-10.9,0-16.4,0c-11,0-22,0-33,0c-13.1,0-26.1,0-39.2,0
			c-11.6,0-23.3,0-34.9,0c-6.7,0-13.4,0-20.2,0c-0.3,0-0.6,0-0.9,0C-1,116.6-1,117.6-0.3,117.6L-0.3,117.6z"/>
		<g id="face_1_">
			<path class="st0" d="M71.7,37.1c-0.1,0.6-0.3,1.1-0.4,1.7c0,0.2-0.1,0.4,0,0.6c0.1,0.3,0.2,0.4,0.5,0.5c0.2,0.1,0.4,0.2,0.7,0.2
				c0.2,0,0.3,0,0.5-0.1c0.1,0,0.2-0.1,0.3-0.2c0.1-0.1,0.1-0.3,0.1-0.4c0-0.1-0.1-0.2-0.2-0.3c-0.1-0.1-0.2-0.1-0.4-0.1
				c0,0-0.1,0-0.1,0c0,0-0.1,0-0.1,0c0,0,0.1,0,0.1,0c0,0,0,0-0.1,0c0,0-0.1,0-0.1,0c-0.1,0,0.1,0,0,0c0,0-0.1,0-0.1,0
				c-0.1,0,0,0,0,0c0,0,0,0,0,0c-0.1,0-0.1,0,0,0c0,0,0,0,0,0c0,0,0,0,0,0c0,0.1,0,0.1,0,0.1c0-0.1,0,0.1,0,0c0,0,0-0.1,0-0.1
				c0-0.1,0-0.1,0,0c0,0,0-0.1,0-0.1c0-0.1,0-0.1,0-0.2c0.1-0.5,0.2-1,0.3-1.5c0.1-0.3-0.1-0.6-0.4-0.6
				C72.1,36.7,71.8,36.8,71.7,37.1L71.7,37.1z"/>
			<g>
				<path class="st0" d="M62.6,32.7c-0.3,0.9-0.1,3.1,1.7,3.3c2.4,0,2.5-2.6,1.7-3.9C65.3,31.1,63.4,30.7,62.6,32.7z"/>
			</g>
			<g>
				<path class="st0" d="M81.3,32.7c0.3,0.9,0.1,3.1-1.7,3.3c-2.4,0-2.5-2.6-1.7-3.9C78.6,31.1,80.5,30.7,81.3,32.7z"/>
			</g>
			<path class="st0" d="M68.4,44.9c1,0.9,2.5,1.2,3.8,1.2c1.3,0,2.8-0.3,3.8-1.2c0.5-0.5-0.3-1.2-0.7-0.7c-0.2,0.2-0.6,0.4-0.9,0.5
				c-0.7,0.3-1.4,0.4-2.1,0.4c-0.7,0-1.4-0.1-2.1-0.3c-0.2-0.1-0.4-0.2-0.6-0.3c-0.2-0.1-0.2-0.1-0.3-0.3
				C68.6,43.7,67.9,44.5,68.4,44.9L68.4,44.9z"/>
			<path class="st0" d="M74.5,43.1c0.4,1.2,1.3,2.3,2.4,2.9c0.2,0.1,0.6,0.1,0.7-0.2c0.1-0.2,0.1-0.6-0.2-0.7
				c-0.1-0.1-0.3-0.1-0.4-0.2c-0.1,0-0.1-0.1-0.2-0.1c0,0-0.1-0.1,0,0c0.1,0,0,0,0,0c-0.2-0.2-0.4-0.4-0.6-0.6c0,0,0-0.1-0.1-0.1
				c0,0.1,0,0,0,0c0-0.1-0.1-0.1-0.1-0.2c-0.1-0.1-0.1-0.2-0.2-0.4c-0.1-0.1-0.1-0.2-0.2-0.4c0,0,0-0.1,0-0.1c0-0.1,0,0.1,0,0
				c0-0.1-0.1-0.1-0.1-0.2c-0.1-0.2-0.4-0.4-0.6-0.4C74.6,42.6,74.4,42.9,74.5,43.1L74.5,43.1z"/>
		</g>
	</g>
	<g>
		<g>
			<path class="st4" d="M55.6,134.4c1-3.3,2.1-6.9,2.5-8.3c3,0,12.4-0.1,16.8-0.1c4.9,0,16.4,0,16.8,0.2c0.7,0.3,5.9,11,7,13.6
				c0,1.4-0.1,2.2,0,3.6c-3,0-44,0.1-44.8,0.1c0-0.8,0-2.7,0-3.3C54.1,139.2,54.8,136.9,55.6,134.4z"/>
		</g>
		<g>
			<path class="st5" d="M30.4,132.5c-1.1-1.6-1.7-4.6-1.8-6.4c0-0.4,0-0.8,0-0.8c0-2.9,5.2-3.8,10.4-3.8c6.4,0,11.2,1.9,10.5,5
				c-0.2,2.2-0.8,4.3-1.7,5.9c-0.9,1.6-3.6,3.8-4.4,3.8c-0.8,0.6-0.3,1.8-0.6,2.8c-0.5,1.2-7.2,1.3-7.6-0.2c-0.2-1,0.2-2.1-0.6-2.7
				C33.9,136.2,31.6,134.3,30.4,132.5C30.5,132.6,30.5,132.6,30.4,132.5z"/>
		</g>
		<path class="st0" d="M54.5,140.3c0.9-4.8,2.8-9.4,4.1-14.1c-0.2,0.1-0.3,0.2-0.5,0.4c7.3,0,14.6-0.1,21.9-0.1c3.5,0,7,0,10.5,0.1
			c0.3,0,0.8,0,1.1,0c0.1,0-0.2-0.2,0,0c0.1,0.1,0.2,0.3,0.3,0.4c0.7,1.1,1.3,2.4,1.9,3.5c1.6,3.1,3.2,6.2,4.5,9.4
			c0.3,0.6,1.1,0.1,0.9-0.5c-1.3-2.9-2.7-5.8-4.2-8.7c-0.7-1.3-1.3-2.7-2.1-3.9c-0.3-0.6-0.6-1.1-1.3-1.3c-1-0.2-2.2-0.1-3.3-0.1
			c-2,0-3.9,0-5.9-0.1c-3.7,0-7.3,0-11,0c-4.5,0-9,0.1-13.5,0.1c-0.2,0-0.4,0.2-0.5,0.4c-1.3,4.7-3.2,9.3-4.1,14.1
			C53.4,140.6,54.3,140.9,54.5,140.3L54.5,140.3z"/>
		<g>
			<path class="st6" d="M63.5,133.8c2.1-0.6,4.6-2.2,5.5-2.8c1.1-0.7,3.8-2.1,3.8-3.6c0-2.6-2.7-2.4-4.1-1.2
				c-0.4-3.1-6.2-2.8-5.9,0.5c-1.6-0.7-3.4,0.1-4.2,1.5c-1.1,1.7-0.9,4.2,1.4,4.7L63.5,133.8z"/>
		</g>
		<g>
			<path class="st4" d="M94.4,139.8c-2.1,0-34.4,0.3-36.9,0.3"/>
			<path class="st0" d="M94.4,139.3c-10.5,0-21,0.2-31.5,0.3c-1.8,0-3.5,0-5.3,0c-0.7,0-0.7,1,0,1c10.6,0,21.2-0.2,31.8-0.3
				c1.7,0,3.4,0,5.1,0C95.1,140.3,95.1,139.3,94.4,139.3L94.4,139.3z"/>
		</g>
		<path class="st0" d="M29.1,125.3c0.1-1.8,2.3-2.4,3.7-2.7c2.2-0.5,4.5-0.6,6.8-0.6c2.2,0,4.4,0.3,6.4,1c1.3,0.5,3,1.3,3.1,2.9
			c0,0.7,1,0.7,1,0c-0.1-1.7-1.5-2.9-3-3.5c-2.3-1.1-5-1.3-7.6-1.4c-2.7,0-5.6,0.1-8.2,0.9c-1.6,0.5-3.3,1.5-3.4,3.4
			C28.1,126,29.1,126,29.1,125.3L29.1,125.3z"/>
		<path class="st0" d="M28.1,125.9c0.2,3.2,1.1,6.4,3.4,8.6c0.5,0.5,1.1,1,1.6,1.4c0.4,0.3,1.3,0.6,1.5,1c0.3,0.6-0.1,1.5,0.2,2.1
			c0.1,0.3,0.4,0.6,0.7,0.7c1.7,1,4.4,0.8,6.2,0.3c0.7-0.2,1.4-0.4,1.7-1.2c0.2-0.7-0.2-1.8,0.3-2.3c0.3-0.3,1-0.5,1.3-0.7
			c1.3-0.9,2.6-2.1,3.3-3.5c1.1-1.9,1.5-4,1.7-6.2c0.1-0.7-1-0.6-1,0c-0.3,3.4-1.4,6.3-4.1,8.5c-0.4,0.3-0.9,0.7-1.4,0.9
			c-0.4,0.2-0.6,0.3-0.9,0.7c-0.4,0.8,0.2,2.3-0.7,2.7c-1.6,0.6-4.1,0.6-5.6,0c-0.4-0.1-0.5-0.2-0.6-0.6c-0.2-0.7,0.1-1.4-0.2-2
			c-0.4-0.8-1.5-1.1-2.2-1.6c-2.8-2.2-4-5.4-4.2-8.9C29.1,125.3,28.1,125.3,28.1,125.9L28.1,125.9z"/>
		<path class="st0" d="M60.2,132.4c-1.5-0.4-2-1.8-1.5-3.2c0.6-1.7,2.3-2.7,4-2c0.3,0.1,0.7-0.2,0.6-0.5c-0.2-2.7,4.5-3,4.9-0.4
			c0.1,0.4,0.6,0.4,0.8,0.2c1-0.9,2.9-1.2,3.2,0.5c0.1,0.6,1.1,0.4,1-0.3c-0.4-2.5-3.4-2.3-4.9-0.9c0.3,0.1,0.6,0.1,0.8,0.2
			c-0.5-3.7-7.1-3.2-6.9,0.7c0.2-0.2,0.4-0.3,0.6-0.5c-2.2-0.8-4.6,0.6-5.3,2.8c-0.6,1.9,0.2,3.9,2.2,4.4
			C60.6,133.5,60.9,132.5,60.2,132.4L60.2,132.4z"/>
		<g>
			<path class="st1" d="M71.9,136.8c-4.4,0.4-9.1-0.5-9.1-3.3c-0.1-3.5,5.6-4.4,7.9-4.4c2.2,0,3.9,0.2,5.8,0.8
				c2.6,0.8,5,3.1,2.4,5.1C77.8,135.7,75.1,136.5,71.9,136.8z"/>
			<path class="st0" d="M71.9,136.3c-1.5,0.1-3,0.1-4.4-0.1c-1.1-0.2-2.4-0.4-3.4-1.2c-0.8-0.6-1.1-1.6-0.7-2.5
				c0.3-0.9,1.2-1.4,2-1.8c1.6-0.8,3.5-1.1,5.3-1.1c1.7,0,3.4,0.2,5,0.6c1.3,0.3,2.9,0.9,3.6,2.2C80.8,135.4,73.3,136.1,71.9,136.3
				c-0.6,0.1-0.7,1.1,0,1c1.9-0.2,3.8-0.4,5.6-1.1c1.2-0.5,2.6-1.2,2.9-2.6c0.3-1.4-0.8-2.6-1.8-3.3c-1.5-1-3.3-1.3-5.1-1.6
				c-2.7-0.3-5.5-0.2-8,0.8c-2,0.8-4.1,2.8-3,5.1c0.6,1.3,2,1.9,3.3,2.3c1.9,0.5,4,0.5,6,0.4C72.5,137.2,72.5,136.2,71.9,136.3z"/>
		</g>
		<path class="st0" d="M81.3,129.7c1.1-0.2,2.2-0.3,3.4-0.3c1.3,0,2.7,0.1,3.9,0.6c0.9,0.4,1.8,1.2,1.5,2.3c-0.3,1-1.5,1.4-2.3,1.6
			c-1.1,0.3-2.4,0.5-3.5,0.5c-0.7,0-0.7,1,0,1c1.2,0,2.5-0.1,3.6-0.5c1.2-0.3,2.5-0.9,3.1-2c0.6-1.2,0-2.7-1.1-3.4
			c-1.2-0.9-2.8-1.1-4.3-1.1c-1.5-0.1-3,0-4.5,0.3C80.4,128.9,80.7,129.9,81.3,129.7L81.3,129.7z"/>
		<path class="st0" d="M74.3,132c-0.4,0.5-0.7,1-0.9,1.6c-0.1,0.3,0.1,0.6,0.4,0.6c0.3,0.1,0.5-0.1,0.6-0.4c0-0.2,0.1-0.3,0.2-0.4
			c0,0,0,0.1-0.1,0.1c0.1-0.3,0.3-0.5,0.4-0.7c0,0-0.1,0.1-0.1,0.1c0.1-0.1,0.1-0.2,0.2-0.3c0.2-0.2,0.2-0.5,0-0.7
			C74.8,131.8,74.5,131.8,74.3,132L74.3,132z"/>
		<path class="st0" d="M70.9,132c-0.4,0.5-0.7,1-0.9,1.6c-0.1,0.3,0.1,0.6,0.4,0.6c0.3,0.1,0.5-0.1,0.6-0.4c0-0.2,0.1-0.3,0.2-0.4
			c0,0,0,0.1-0.1,0.1c0.1-0.3,0.3-0.5,0.4-0.7c0,0-0.1,0.1-0.1,0.1c0.1-0.1,0.1-0.2,0.2-0.3c0.2-0.2,0.2-0.5,0-0.7
			C71.4,131.8,71.1,131.8,70.9,132L70.9,132z"/>
		<path class="st0" d="M67.8,131.7c-0.4,0.5-0.7,1-0.9,1.6c-0.1,0.3,0.1,0.6,0.4,0.6c0.3,0.1,0.5-0.1,0.6-0.4c0-0.2,0.1-0.3,0.2-0.4
			c0,0,0,0.1-0.1,0.1c0.1-0.3,0.3-0.5,0.4-0.7c0,0-0.1,0.1-0.1,0.1c0.1-0.1,0.1-0.2,0.2-0.2c0.2-0.2,0.2-0.5,0-0.7
			C68.3,131.5,68,131.5,67.8,131.7L67.8,131.7z"/>
		<path class="st0" d="M53.5,140.2c0,1.1,0,2.2,0,3.3c0,0.3,0.2,0.5,0.5,0.5c12.7,0,25.4-0.1,38-0.1c2.3,0,4.5,0,6.8,0
			c0.3,0,0.5-0.2,0.5-0.5c-0.1-1.2,0-2.4,0-3.6c0-0.7-1-0.7-1,0c0,1.2-0.1,2.4,0,3.6c0.2-0.2,0.3-0.3,0.5-0.5
			c-13.1,0-26.1,0.1-39.2,0.1c-1.9,0-3.7,0-5.6,0c0.2,0.2,0.3,0.3,0.5,0.5c0-1.1,0-2.2,0-3.3C54.5,139.6,53.5,139.6,53.5,140.2
			L53.5,140.2z"/>
		<g>
			<path class="st7" d="M32.1,128c-0.7-0.2-1.5-0.4-2.2-0.6c1.4-2.4,5.6-2.2,8-2.3c2.9-0.1,8.9-0.1,10.6,2.9
				c-2.6,0.6-6.1,0.8-9.4,0.8C37.1,128.8,34.5,128.5,32.1,128z"/>
		</g>
		<path class="st0" d="M49.1,126c-0.1,1.4-3.2,1.8-4.2,1.9c-2.2,0.4-4.5,0.5-6.8,0.4c-1.8-0.1-3.7-0.4-5.5-0.9
			c-0.9-0.3-3.4-0.9-3.5-2.2c0-0.6-1.1-0.7-1,0c0.1,1.6,1.9,2.3,3.1,2.8c2.2,0.8,4.5,1.2,6.8,1.3c2.7,0.1,5.6,0,8.2-0.6
			c1.4-0.3,3.6-0.9,3.7-2.7C50.2,125.3,49.2,125.3,49.1,126L49.1,126z"/>
	</g>
</g>
</svg>
