<svg width="9" height="14" viewBox="0 0 9 14" fill="none" xmlns="http://www.w3.org/2000/svg">
<path transform="scale(-1, 1) translate(-9, 0)" d="M0.996094 2.0429L6.53968 7.00095L1.0004 11.9552C0.841531 12.0972 0.752187 12.2816 0.752187 12.496C0.752187 12.7105 0.841531 12.8948 1.0004 13.0369C1.15741 13.1774 1.34799 13.2482 1.55922 13.25L1.55924 13.25C1.77183 13.2517 1.96411 13.1822 2.12225 13.0408L7.81972 7.94511L7.81973 7.9451C7.96441 7.81569 8.07597 7.66584 8.14748 7.49494L8.14749 7.49493C8.21462 7.33445 8.25 7.16927 8.25 7.00095C8.25 6.83263 8.21462 6.66744 8.14749 6.50697L8.14748 6.50695C8.07598 6.33608 7.96444 6.18624 7.81979 6.05685C7.81977 6.05683 7.81975 6.05681 7.81973 6.05679L2.12661 0.961175L2.12654 0.961113C1.9685 0.819763 1.77617 0.75 1.56347 0.75C1.35077 0.75 1.15844 0.819763 1.0004 0.961113C0.842141 1.10266 0.75227 1.2859 0.750041 1.49939L0.750041 1.49941C0.747811 1.71488 0.836613 1.90026 0.996094 2.0429Z" fill="white" stroke="white" stroke-width="0.5"/>
</svg>
