<?xml version="1.0" encoding="utf-8"?>
<!-- Generator: Adobe Illustrator 24.2.0, SVG Export Plug-In . SVG Version: 6.00 Build 0)  -->
<svg version="1.1" id="レイヤー_1" xmlns="http://www.w3.org/2000/svg" xmlns:xlink="http://www.w3.org/1999/xlink" x="0px"
	 y="0px" viewBox="0 0 1130 72" style="enable-background:new 0 0 1130 72;" xml:space="preserve" width="1130px" height="72px">
<style type="text/css">
	.st0{fill:#FFFFFF;}
</style>
<g>
	<g>
		<path class="st0" d="M91.1,28.2c0-0.3-0.2-0.5-0.2-0.5C91.1,28,91.1,28.2,91.1,28.2z"/>
		<path class="st0" d="M89.1,31.8c0.1-0.1,0.3-0.4,0.3-0.7c0,0,0,0,0-0.1C89.5,31.2,89.3,31.5,89.1,31.8z"/>
		<path class="st0" d="M87.1,34.5c0-0.1,0.4-0.1,0.5-0.2c0.2,0,1.1-0.2,0.6,0C87.8,34.4,87.5,34.5,87.1,34.5z"/>
		<path class="st0" d="M61.3,20.3c-0.1,0.1-0.1,0.2-0.1,0.2C61.2,20.5,61.3,20.4,61.3,20.3z"/>
		<path class="st0" d="M61.4,20.2c0,0-0.1,0.1-0.1,0.1C61.3,20.3,61.4,20.2,61.4,20.2z"/>
		<path class="st0" d="M71.7,15.7C71.8,14.6,71.8,14.9,71.7,15.7L71.7,15.7z"/>
		<path class="st0" d="M65.6,40.7C65.6,40.7,65.6,40.7,65.6,40.7L65.6,40.7z"/>
		<path class="st0" d="M61.1,20.7c-0.1,0.2-0.2,0.4-0.3,0.7C60.8,21.2,61,21,61.1,20.7z"/>
		<path class="st0" d="M61.2,20.5c0,0.1-0.1,0.1-0.1,0.2C61.1,20.6,61.1,20.6,61.2,20.5z"/>
		<path class="st0" d="M55.1,42.5c0.1-0.2,0.3-0.4,0.4-0.8c0,0,0-0.1,0-0.1C55.5,41.8,55.4,42.3,55.1,42.5z"/>
		<path class="st0" d="M49.4,49.8c-0.2,0-0.4-0.1-0.6-0.1C48.9,49.7,49,49.6,49.4,49.8z"/>
		<path class="st0" d="M52.9,45.6c0-0.1,0.4-0.1,0.6-0.2c0.2,0,1.2-0.2,0.7,0C53.7,45.5,53.3,45.5,52.9,45.6z"/>
		<path class="st0" d="M57.3,38.6c0-0.3-0.2-0.5-0.2-0.6C57.4,38.4,57.3,38.6,57.3,38.6z"/>
		<path class="st0" d="M36.7,46.8c0.1-0.1,0.2-0.3,0.2-0.6c0,0,0,0,0-0.1C36.9,46.2,36.9,46.6,36.7,46.8z"/>
		<path class="st0" d="M33.7,52.6c-0.1,0-0.2,0-0.3-0.1C33.5,52.5,33.6,52.4,33.7,52.6z"/>
		<path class="st0" d="M36.2,49c-0.2,0.1-0.4,0.1-0.6,0.2c0-0.1,0.2-0.1,0.3-0.2C36,49.1,36.5,48.9,36.2,49z"/>
		<path class="st0" d="M29.9,55.2c-0.1,0-0.1,0-0.2,0C29.7,55.2,29.8,55.1,29.9,55.2z"/>
		<path class="st0" d="M27.2,55.7C27.2,55.6,27.2,55.6,27.2,55.7C27.2,55.6,27.2,55.7,27.2,55.7C27.2,55.7,27.2,55.7,27.2,55.7z"/>
		<path class="st0" d="M27.2,55.7c0,0,0,0.1,0,0.1C27.2,55.8,27.2,55.7,27.2,55.7z"/>
		<path class="st0" d="M27.2,55.8c0,0.1,0,0.2,0.1,0.3C27.2,56,27.2,55.9,27.2,55.8z"/>
		<path class="st0" d="M24.4,49c0,0.1,0,0.1,0,0.2C24.4,48.7,24.4,48.8,24.4,49z"/>
		<path class="st0" d="M20.9,50.9c0.1-0.1,0.1-0.3,0.1-0.5c0,0,0,0,0,0C21.1,50.5,21,50.7,20.9,50.9z"/>
		<path class="st0" d="M18.7,55.2c-0.1,0-0.1,0-0.2,0C18.5,55.2,18.6,55.1,18.7,55.2z"/>
		<path class="st0" d="M20.3,52.6c0.1,0,0.5-0.1,0.3,0c-0.2,0.1-0.3,0.1-0.5,0.1C20.1,52.7,20.2,52.6,20.3,52.6z"/>
		<path class="st0" d="M21.8,48.5c0-0.2-0.1-0.3-0.1-0.4C21.8,48.4,21.8,48.5,21.8,48.5z"/>
		<path class="st0" d="M16,55.8c0,0.1,0,0.2,0.1,0.3C16,56,16,55.9,16,55.8z"/>
		<path class="st0" d="M15.9,55.7c0,0,0,0.1,0,0.1C16,55.8,15.9,55.7,15.9,55.7z"/>
		<path class="st0" d="M15.9,55.7C15.9,55.6,16,55.6,15.9,55.7C16,55.6,15.9,55.7,15.9,55.7C15.9,55.7,15.9,55.7,15.9,55.7z"/>
		<path class="st0" d="M13.2,49c0,0.1,0,0.1,0,0.2C13.2,48.7,13.2,48.8,13.2,49z"/>
		<path class="st0" d="M0.4,60.7c0,0-0.1,0.1-0.1,0.1C0.3,60.8,0.3,60.7,0.4,60.7z"/>
		<path class="st0" d="M0,70.1c0.2,0.4,0.5,0.5,0.7,0.5c0.4,0.1,0.7,0.1,1,0.1c0.1,0,0.2,0,0.3,0C2,71,2.2,71.1,2.3,71.1
			c0.1,0.1,0.3,0.1,0.4,0.1c0,0,0,0,0,0c0,0-0.1,0.1-0.1,0.1c0,0.1,0,0.4,0.4,0.6c0,0,0,0,0,0h2.3h4.9h7.4h0.7h10.5h0.7h2.8h0h0.9
			h6.2H40h6.4h0.7h1h10h8.5h2.9h0.2h0.6h0H72l0,0h906.5c-0.3,0-0.5,0-0.5,0h24.8h2.1h0.5h6.6h0.7h7.1h3.4h1.8h5.9h12.2h0.4h1.2h11
			c0,0,0,0,0.1,0c0.4-0.2,0.6-0.6,0.6-0.8l0.1,0.9h9.2h1h0.7h6.4h0.7h6.2h0.9h0h28.5h0.7h7.4h4.9h2.3c0,0,0,0,0,0
			c0.3-0.1,0.3-0.5,0.4-0.6c0,0.2,0,0.4,0,0.6h0.5c0-0.2,0-0.5,0-0.9c0.1-0.1,0.2-0.2,0.2-0.3c0.1,0,0.2,0,0.3,0c0.3,0,0.6,0,1-0.1
			c0.2-0.1,0.5-0.1,0.7-0.5c0.1-0.2,0-0.4-0.1-0.5c0,0-0.1-0.1-0.1-0.1c0.1,0.1,0.2,0.3,0.2,0.5c0,0.2-0.2,0.3-0.2,0.4
			c-0.1,0.1-0.2,0.1-0.2,0.1c0.2-0.1,0.5-0.3,0.4-0.6c-0.1-0.3-0.3-0.4-0.5-0.4c-0.1-0.1-0.2-0.1-0.4-0.1c0,0,0.1,0,0.1-0.1
			c0.3-0.2,0.5-0.6,0.4-0.7c0-0.1,0,0-0.2,0.3c0.1,0-0.1,0.3-0.4,0.4c-0.1,0-0.1,0-0.2,0c0.2-0.1,0.4-0.4,0.4-0.5
			c0,0,0.1-0.2,0.1-0.3c0-0.1,0-0.1-0.1-0.2c0.1,0,0.1-0.1,0.1-0.2c0,0-0.1,0.1-0.1,0.1c0,0,0-0.1,0-0.1c0.2-0.2,0.3-0.6,0.1-0.9
			c-0.2-0.3-0.4-0.4-0.6-0.4c0.1,0,0.2-0.1,0.3-0.2c0,0,0,0,0,0.1c0-0.1,0.1-0.3-0.1-0.4c0,0,0.1,0,0.1,0c0,0,0,0.1,0,0.1
			c0,0,0-0.1,0-0.1c0,0,0,0,0,0c0.1,0,0.2-0.1,0.4-0.2c0.1-0.1,0.1-0.1,0.2-0.2c0.1-0.1,0.1-0.3,0-0.5c0.1,0,0.2-0.1,0.3-0.1
			c0.2-0.2,0.2-0.5,0.2-0.6c0-0.1,0-0.1-0.1-0.1c0,0,0,0,0,0c0.1,0,0.1,0,0.2-0.1c0.1,0,0.2-0.2,0.2-0.4c0,0,0.1,0,0.1,0
			c0.2,0,0.3,0,0.5-0.1c0.1-0.1,0.3-0.1,0.3-0.5c0-0.2,0-0.4-0.1-0.5c0-0.1-0.1-0.2-0.1-0.2c0.1,0.1,0.2,0.4,0.2,0.6
			c0,0.2-0.1,0.3-0.1,0.4c-0.1,0.1-0.1,0.1-0.1,0.1c0.1-0.1,0.2-0.3,0.2-0.6c-0.1-0.3-0.2-0.4-0.2-0.4c-0.1-0.1-0.1-0.1-0.2-0.1
			c0,0,0,0,0-0.1c0.2-0.2,0.2-0.6,0.2-0.8c0-0.1,0,0-0.1,0.3c0,0-0.1,0.3-0.2,0.4c0,0-0.1,0-0.1,0c0.1-0.1,0.2-0.4,0.2-0.5
			c0,0,0.1-0.2,0.1-0.3c0-0.1,0-0.1,0-0.2c0.1-0.1,0.1-0.2,0.1-0.4c0,0.1-0.1,0.2-0.1,0.3c0,0,0-0.1,0-0.1c0.1-0.2,0.2-0.6,0-0.9
			c-0.1-0.3-0.3-0.4-0.4-0.5c-0.1-0.1-0.2-0.1-0.2-0.1c0,0,0,0,0,0c0,0,0,0,0,0c0,0,0,0,0,0c0.1-0.2,0.1-0.5,0-0.7
			c-0.1-0.4-0.2-0.6-0.4-0.7c0,0,0,0.1,0,0.1c-0.1-0.2-0.2-0.2-0.3-0.3c0.1,0.1,0,0-0.1,0c-0.1-0.1-0.1-0.1-0.2-0.1
			c0,0,0.1-0.1,0.1-0.2c0,0,0.1-0.2,0.1-0.3c0-0.1,0-0.2,0-0.3c-0.1-0.4-0.2-0.4-0.3-0.5c-0.3-0.1,0.1,0,0.2,0.4
			c-0.2-0.3-0.3-0.3-0.4-0.4c-0.1-0.1-0.2-0.1-0.2-0.1c0,0.1,0.4,0.2,0.1,0.2c-0.2-0.1,0.1,0.1-0.2,0l-0.1-0.2c0,0,0,0,0,0l0-0.4
			c0,0-0.2,0-0.5,0c-0.5,0,0.5-0.2,0-0.3l0.2,0c0,0,0,0,0,0c0.1,0,0.2,0,0.3,0c-0.2,0-0.5,0-0.4-0.1c0.1,0,0.3,0,0.4-0.1
			c-0.1-0.1,0-0.1,0-0.2c-0.4,0-0.7-0.1-1.2,0.1c0.1,0,0.3-0.1,0.2,0c-0.2,0.1-0.3,0.1-0.4,0.3c0,0.1-0.1,0.1-0.1,0.2
			c0,0.1,0,0.1-0.1,0.2c0,0,0,0.1,0,0.1c0,0.1,0,0.2,0,0.3c0,0.2,0.1,0.3,0.1,0.4c0,0,0,0,0,0.1c-0.2,0-0.4,0-0.6,0.1
			c0.1,0,0.1,0,0.1,0c-0.1,0.1-0.2,0-0.3,0.3c0,0.1,0,0.2,0,0.3c0,0.1,0.1,0.2,0.1,0.2c0,0,0,0,0,0l0,0c0,0,0.1,0,0.1,0.1
			c0,0,0.1,0,0.1,0c0,0,0,0,0,0c0.1,0.1,0.1,0.2,0.2,0.3c-0.1,0-0.1,0-0.2-0.1c0.2,0.3,0.3,0.2,0.3,0.2c-0.1,0-0.1-0.1-0.1-0.1
			c0.1,0,0.2,0,0.3,0.1c-0.1,0-0.1,0-0.2,0l0.1,0.1c-0.1,0-0.2-0.1-0.3-0.1c0,0.1-0.3,0.1-0.6,0.1c-0.2,0-0.3,0-0.5,0.2
			c-0.1,0.1-0.1,0.3-0.1,0.5c0,0.1,0,0.1,0.1,0.2c-0.1,0.2,0,0.4,0,0.5c0,0.1,0.1,0.1,0.1,0.1c0,0,0.1,0.1,0.2,0.2
			c0,0-0.1,0-0.1-0.1l-0.1,0.1c-0.1,0-0.3-0.1-0.2-0.1c-0.2,0-0.5,0.1-0.7,0.2c0.3,0,0.8,0.1,0.9,0c0.2,0.1-0.3,0.1-0.1,0.2
			c-0.4-0.1-0.3,0.1-0.7,0.1c0.1-0.1,0-0.1-0.2-0.1c-0.1,0-0.2,0.1-0.3,0.2c-0.1,0.1-0.1,0.3-0.1,0.2c0,0.1,0,0.3,0.1,0.5
			c0.1,0.1,0.1,0.2,0.2,0.3c0.1,0.1,0.2,0.2,0.3,0.3l0,0l0,0c0,0.1-0.1,0.2,0,0.4c0.1,0.3,0.2,0.4,0.3,0.4c0.1,0,0.1,0.1,0.1,0.1
			c0,0,0,0-0.1,0c-0.1,0-0.1,0-0.2,0.1c-0.1,0-0.2,0.1-0.2,0.3c0,0.2,0.1,0.2,0.2,0.3c0,0,0,0,0.1,0c0,0,0,0-0.1,0
			c-0.1,0-0.1-0.1-0.2-0.3c0-0.1,0-0.3,0-0.3c0-0.1,0-0.1,0-0.1c-0.1,0-0.1,0.3-0.1,0.4c0,0.1,0,0.1,0,0.2l-0.1-0.1c0,0,0,0-0.1,0
			l0-0.4c0,0-0.4,0-0.9,0c-0.9,0,1-0.2,0-0.3l0.4,0c0,0-0.1,0,0,0c0.2,0,0.3,0,0.5,0c-0.3,0-1,0-0.7-0.1c0.2,0,0.5,0,0.7-0.1
			c-0.2-0.1,0.1-0.1,0-0.2c-0.8,0-1.4-0.1-2.4,0.1c0.2,0,0.5,0,0.4,0c-0.3,0.1-0.5,0.1-0.8,0.3c-0.1,0.1-0.1,0.1-0.2,0.2
			c0,0.1-0.1,0.1-0.1,0.2c0,0,0,0.1,0,0.1c0,0.1,0,0.2,0,0.3c0,0.2,0.1,0.3,0.2,0.4c0,0,0,0,0.1,0.1c-0.4,0-0.7,0-1.1,0.1
			c0.1,0,0.2,0,0.2,0c-0.1,0.1-0.3,0-0.6,0.3c0,0.1-0.1,0.2,0,0.3c0.1,0.1,0.1,0.2,0.2,0.2c0,0,0.1,0,0.1,0c0.1,0,0.1,0,0.2,0.1
			c0.1,0,0.1,0,0.2,0c0,0,0,0,0,0c0.1,0.1,0.3,0.2,0.4,0.3c-0.1,0-0.3,0-0.4-0.1c0.4,0.3,0.6,0.2,0.5,0.2c-0.1,0-0.2-0.1-0.2-0.1
			c0.2,0,0.4,0,0.5,0.1c-0.1,0-0.2,0-0.4,0l0.2,0.1c-0.3,0-0.5-0.1-0.5-0.1c0,0.1-0.5,0.1-1.1,0.1c-0.3,0-0.6,0-1,0.2
			c-0.2,0.1-0.3,0.3-0.2,0.5c0,0.1,0.1,0.1,0.1,0.2c-0.2,0.2-0.1,0.4,0,0.5c0.1,0.1,0.1,0.1,0.2,0.1c0.1,0,0.1,0.1,0.4,0.2
			c-0.1,0-0.2,0-0.2-0.1l-0.2,0.1c-0.2,0-0.6-0.1-0.3-0.1c-0.4,0-0.9,0.1-1.4,0.2c0.6,0,1.5,0.1,1.8,0c0.4,0.1-0.5,0.1-0.2,0.2
			c-0.9-0.1-0.5,0.1-1.4,0.1c0.2-0.1,0-0.1-0.4-0.1c-0.2,0-0.3,0.1-0.5,0.2c-0.2,0.1-0.2,0.3-0.2,0.2c0,0.1,0,0.3,0.1,0.5
			c0.1,0.1,0.2,0.2,0.4,0.3c0.2,0.1,0.5,0.2,0.6,0.3l-0.1,0l0.1,0c-0.1,0.1-0.1,0.2-0.1,0.3c0.2,0.3,0.4,0.3,0.6,0.4
			c0.1,0,0.2,0.1,0.3,0.1c0,0-0.1,0-0.1,0c-0.1,0-0.2,0-0.4,0.1c-0.1,0-0.4,0.1-0.3,0.3c0,0.2,0.2,0.2,0.3,0.3
			c0.1,0,0.2,0.1,0.3,0.1c-0.2,0-0.5-0.1-0.7-0.3c-0.1-0.1,0-0.3,0.1-0.3c0-0.1,0.1-0.1,0-0.1c-0.1,0-0.3,0.2-0.2,0.4
			c0,0.2,0.1,0.2,0.2,0.3c0.1,0.1,0.2,0.1,0.3,0.2c0.2,0.1,0.3,0.1,0.4,0.1c0.2,0.1,0.5,0.1,1,0.2l-0.1,0c0.2,0,0.5,0,0.7,0.1
			c0,0-0.1,0-0.1,0.1c-0.1,0.1-0.1,0.3-0.1,0.4c0,0,0,0,0,0c-0.1,0-0.2,0-0.5,0.1c0.1,0,0.3-0.1,0.5,0c0,0,0.1,0.1,0.1,0.1
			c-0.1,0-0.2,0-0.2,0c0.1,0,0.2,0,0.2,0c0,0,0.1,0,0.1,0.1c-0.1,0-0.3,0-0.4,0c-2-0.1-4.6-0.3-7.6-0.5c-0.1-1.2-0.1-3.2,0-5.8
			c0.3,0,0.5,0,0.7,0c0,0-0.1-0.1-0.1-0.1c0.1,0,0.1,0,0.1,0l0-0.1c0,0,0,0,0,0c0,0,0,0,0,0l0-0.2c0.1,0,0.1,0,0.2,0
			c-0.1,0-0.1,0-0.2,0l0-0.1c0.4,0,0.7-0.2,0.8-0.4c0,0,0,0.1,0,0.1c0.1-0.1,0.1-0.5-0.1-0.6c0,0,0.1,0,0.1,0c0,0.1,0,0.1,0.1,0.2
			c0-0.1,0-0.1,0-0.2c0,0,0,0,0,0c0.2,0,0.3-0.1,0.5-0.2c0.1-0.1,0.2-0.1,0.3-0.3c0.1-0.1,0.1-0.4,0-0.6c0.1,0,0.2-0.1,0.4-0.2
			c0.2-0.2,0.2-0.7,0.2-0.8c0-0.1,0-0.1-0.1-0.2c0,0,0,0,0,0c0.1,0,0.2,0,0.3-0.1c0.1-0.1,0.2-0.2,0.3-0.5c0.1,0,0.1,0,0.2,0
			c0.2,0,0.4,0,0.7-0.2c0.1-0.1,0.3-0.2,0.5-0.7c0.1-0.2,0-0.5-0.1-0.7c-0.1-0.1-0.1-0.2-0.2-0.3c0.1,0.1,0.3,0.5,0.2,0.8
			c0,0.3-0.1,0.4-0.2,0.5c-0.1,0.1-0.1,0.1-0.2,0.1c0.1-0.1,0.3-0.4,0.3-0.9c-0.1-0.4-0.2-0.5-0.3-0.6c-0.1-0.1-0.2-0.1-0.2-0.2
			c0,0,0,0,0.1-0.1c0.2-0.3,0.3-0.8,0.3-1c0-0.2,0,0-0.1,0.5c0.1-0.1-0.1,0.4-0.3,0.6c0,0-0.1,0-0.1-0.1c0.1-0.2,0.3-0.5,0.3-0.7
			c0,0,0.1-0.3,0.1-0.5c0-0.1,0-0.2-0.1-0.2c0.1-0.1,0.1-0.3,0.2-0.5c0,0.1-0.1,0.3-0.2,0.5c0,0,0-0.1,0-0.1c0.1-0.2,0.2-0.8,0-1.2
			c-0.2-0.4-0.4-0.5-0.5-0.6c-0.2-0.1-0.3-0.2-0.3-0.2c0,0,0,0,0,0c0,0,0,0,0,0c0,0,0,0,0,0c0.1-0.3,0.1-0.7,0-1
			c-0.1-0.6-0.3-0.8-0.5-1c0,0,0,0.1,0,0.1c-0.2-0.2-0.3-0.3-0.4-0.4c0.1,0.1,0,0.1-0.1,0c-0.1-0.1-0.2-0.2-0.3-0.2
			c0,0,0.1-0.1,0.2-0.2c0-0.1,0.1-0.2,0.1-0.4c0-0.2,0-0.3,0-0.4c-0.1-0.5-0.3-0.5-0.4-0.6c-0.4-0.2,0.2,0.1,0.3,0.5
			c-0.2-0.4-0.4-0.4-0.5-0.5c-0.1-0.1-0.2-0.1-0.3-0.2c0.1,0.2,0.6,0.3,0.2,0.3c-0.2-0.2,0.1,0.2-0.3,0l-0.1-0.2c0,0,0,0,0,0l0-0.6
			c0,0-0.3,0-0.6,0.1c-0.7,0,0.7-0.3,0-0.4l0.3,0c0,0,0,0,0,0c0.1,0,0.2,0,0.4,0c-0.2,0-0.7,0-0.5-0.2c0.2,0,0.3-0.1,0.5-0.1
			c-0.1-0.1,0.1-0.2,0-0.2c-0.5,0-1-0.1-1.7,0.2c0.1,0,0.4-0.1,0.3,0c-0.2,0.1-0.4,0.2-0.6,0.4c-0.1,0.1-0.1,0.1-0.2,0.3
			c0,0.1-0.1,0.2-0.1,0.3c0,0.1,0,0.1,0,0.2c0,0.1,0,0.2,0,0.4c0,0.3,0.1,0.4,0.2,0.6c0,0,0,0,0,0.1c-0.3,0-0.5,0-0.8,0.1
			c0.1,0,0.1,0,0.2,0c-0.1,0.1-0.2,0-0.4,0.5c0,0.1,0,0.2,0,0.4c0,0.2,0.1,0.2,0.1,0.3c0,0,0,0,0.1,0.1v0c0.1,0,0.1,0.1,0.1,0.1
			c0.1,0,0.1,0,0.1,0.1c0,0,0,0,0,0c0.1,0.2,0.2,0.3,0.3,0.4c-0.1,0-0.2,0-0.3-0.1c0.3,0.4,0.4,0.3,0.4,0.3c-0.1,0-0.1-0.1-0.1-0.1
			c0.1,0,0.3,0.1,0.4,0.1c-0.1,0-0.2,0-0.3,0l0.1,0.1c-0.2,0-0.3-0.1-0.3-0.1c0,0.1-0.4,0.1-0.8,0.1c-0.2,0-0.4,0-0.7,0.3
			c-0.1,0.1-0.2,0.4-0.1,0.6c0,0.1,0.1,0.2,0.1,0.2c-0.1,0.3-0.1,0.6,0,0.6c0.1,0.1,0.1,0.1,0.1,0.1c0.1,0,0.1,0.1,0.3,0.2
			c-0.1,0-0.1,0-0.1-0.1l-0.1,0.1c-0.1,0-0.5-0.1-0.2-0.2c-0.3,0-0.6,0.1-1,0.2c0.4-0.1,1,0.2,1.3,0c0.3,0.1-0.4,0.1-0.1,0.2
			c-0.6-0.2-0.4,0.1-1,0.2c0.1-0.1,0-0.2-0.2-0.1c-0.1,0-0.2,0.1-0.4,0.3c-0.1,0.2-0.1,0.4-0.1,0.3c0,0.2,0,0.4,0.1,0.6
			c0.1,0.2,0.2,0.3,0.3,0.4c0.2,0.2,0.3,0.3,0.4,0.4l0,0l0.1,0c-0.1,0.1-0.1,0.3-0.1,0.5c0.1,0.5,0.3,0.5,0.4,0.6
			c0.1,0.1,0.1,0.1,0.2,0.1c0,0-0.1,0-0.1,0c-0.1,0-0.2,0-0.3,0.1c-0.1,0-0.2,0.1-0.2,0.4c0,0.2,0.1,0.3,0.2,0.4
			c0.1,0.1,0.2,0.1,0.2,0.1c-0.2-0.1-0.4-0.1-0.5-0.4c-0.1-0.2,0-0.4,0-0.4c0-0.1,0-0.1,0-0.1c-0.1,0.1-0.2,0.3-0.1,0.5
			c0,0.2,0.1,0.3,0.1,0.4c0.1,0.1,0.2,0.2,0.2,0.2c0.1,0.1,0.2,0.1,0.3,0.2c0.2,0.1,0.3,0.1,0.7,0.2l-0.1,0c0.2,0,0.3,0,0.5,0.1
			c0,0-0.1,0.1-0.1,0.1c-0.1,0.1-0.1,0.4,0,0.5h0c-0.1,0-0.2,0-0.3,0.1c0.1-0.1,0.2-0.1,0.4-0.1c0,0,0,0.1,0.1,0.1
			c-0.1,0-0.1,0-0.1,0c0.1,0,0.1,0,0.2,0c0,0,0,0.1,0.1,0.1c-0.1,0-0.3,0-0.4,0.1c-0.1,0.1-0.1,0.3,0,0.4c0.1,0.1,0.2,0.2,0.2,0.2
			c0.2,0.1,0.3,0.2,0.5,0.2c-0.1-0.1-0.1-0.1,0-0.1c0.1,0,0.2,0.1,0.3,0.1c0.1,0.1,0.2,0.2,0.5,0.2l0,0.2c-0.1,0-0.2,0.1-0.1,0.1
			c0,0,0.1,0,0.1,0l0,0.2c0,0,0,0,0,0c0,0,0,0,0,0c-0.1,0-0.2,0.1-0.3,0.2c0,0,0,0-0.1,0.1c-0.1,0.1-0.2,0.4-0.2,0.5c0,0,0,0,0.1,0
			c0.1,0.3,0.3,0.5,0.6,0.6c0,0,0,0,0.1,0c0,0,0.1,0,0.1,0c-0.1,1.8-0.2,3.8-0.2,5.8c-7.4-0.5-17-1.3-26.1-2.3
			c0.1-0.2,0.2-0.3,0.1-0.4c0-0.1,0,0-0.2,0.3c0,0,0,0,0,0.1c-0.1,0-0.1,0-0.2,0c0-0.1,0.1-0.1,0.1-0.2c0,0,0.1-0.2,0.1-0.3
			c0-0.1,0-0.1-0.1-0.2c0.1,0,0.1-0.1,0.1-0.2c0,0-0.1,0.1-0.1,0.1c0,0,0-0.1,0-0.1c0.2-0.2,0.3-0.6,0.1-0.9
			c-0.2-0.3-0.5-0.4-0.7-0.4c-0.2-0.1-0.4-0.1-0.5-0.1c0,0,0,0,0,0c0,0,0,0,0,0c0,0,0,0,0,0c0.1-0.2,0.1-0.5,0.1-0.7
			c-0.1-0.4-0.5-0.6-0.7-0.7c0,0,0,0.1,0,0.1c-0.2-0.2-0.4-0.2-0.6-0.3c0.1,0.1,0,0.1-0.1,0c0-0.5,0-1,0-1.6c0.3,0.1,0.7,0.1,1,0
			c0,0-0.1-0.1-0.2-0.1c0.1,0,0.2,0,0.2,0l0-0.2c0,0,0,0,0,0c0,0,0,0,0,0l0-0.2c0.1,0,0.2,0,0.3,0c-0.1,0-0.2,0-0.2,0l0-0.1
			c0.5,0,0.9-0.2,1-0.5c0,0,0,0.1,0,0.1c0.1-0.2,0.1-0.6-0.1-0.8c0,0,0.1,0,0.1,0c0.1,0.1,0.1,0.2,0.1,0.4c0,0.2-0.1,0.4-0.1,0.5
			c0.2-0.2,0.2-0.7,0.1-0.9c0,0,0,0,0,0c0.2-0.1,0.4-0.1,0.7-0.3c0.1-0.1,0.2-0.2,0.3-0.4c0.1-0.2,0.1-0.6,0.1-0.8
			c0.2,0,0.3-0.1,0.5-0.3c0.3-0.3,0.3-0.9,0.3-1.1c0-0.1-0.1-0.2-0.1-0.2c0,0,0,0,0-0.1c0.1,0,0.2,0,0.3-0.1
			c0.1-0.1,0.3-0.3,0.4-0.7c0.1,0,0.2,0,0.3,0c0.3,0,0.6,0,0.9-0.2c0.2-0.1,0.5-0.2,0.6-0.9c0.1-0.3,0-0.7-0.1-1
			c-0.1-0.2-0.2-0.3-0.2-0.4c0.2,0.2,0.4,0.7,0.3,1.1c0,0.4-0.2,0.6-0.2,0.7c-0.1,0.2-0.2,0.1-0.2,0.1c0.1-0.1,0.4-0.6,0.3-1.1
			c-0.1-0.5-0.3-0.6-0.4-0.8c-0.1-0.1-0.2-0.2-0.3-0.2c0,0,0-0.1,0.1-0.1c0.3-0.3,0.4-1.1,0.4-1.3c0-0.3,0-0.1-0.2,0.6
			c0.1-0.1-0.1,0.5-0.4,0.8c-0.1,0-0.1-0.1-0.2-0.1c0.2-0.2,0.4-0.6,0.4-0.9c0-0.1,0.1-0.4,0.1-0.6c0-0.1,0-0.2-0.1-0.3
			c0.1-0.2,0.2-0.4,0.2-0.7c0,0.2-0.1,0.4-0.2,0.6c0-0.1,0-0.1,0-0.2c0.2-0.3,0.3-1.1,0.1-1.6c-0.2-0.6-0.5-0.7-0.6-0.8
			c-0.2-0.1-0.4-0.2-0.4-0.3c0,0,0,0,0-0.1c0,0,0,0,0,0c0,0,0,0,0,0c0.1-0.4,0.1-0.9,0.1-1.3c-0.1-0.8-0.4-1.1-0.6-1.3
			c0,0.1,0,0.1,0,0.2c-0.2-0.3-0.4-0.4-0.6-0.5c0.1,0.1,0,0.1-0.2,0.1c-0.1-0.1-0.3-0.2-0.4-0.3c0.1,0,0.1-0.1,0.2-0.3
			c0.1-0.1,0.1-0.3,0.2-0.6c0-0.2,0-0.4,0-0.6c-0.2-0.7-0.4-0.7-0.5-0.8c-0.5-0.3,0.3,0.1,0.4,0.6c-0.3-0.5-0.5-0.5-0.7-0.7
			c-0.2-0.1-0.3-0.2-0.4-0.2c0.1,0.2,0.8,0.4,0.2,0.4c-0.3-0.2,0.2,0.2-0.4,0l-0.2-0.3c0,0,0,0-0.1,0l0-0.8c0,0-0.4,0-0.8,0.1
			c-0.9-0.1,0.9-0.4,0-0.5l0.3,0c0,0-0.1,0,0-0.1c0.2,0,0.3,0,0.5-0.1c-0.3-0.1-1,0-0.7-0.2c0.2,0,0.4-0.1,0.7-0.1
			c-0.2-0.1,0.1-0.2,0-0.3c-0.7,0-1.3-0.2-2.2,0.2c0.2,0,0.5-0.1,0.4,0c-0.3,0.2-0.5,0.2-0.7,0.5c-0.1,0.1-0.1,0.2-0.2,0.4
			c0,0.1-0.1,0.2-0.1,0.4c0,0.1,0,0.2,0,0.3c0,0.1,0,0.3,0,0.5c0,0.3,0.1,0.5,0.2,0.7c0,0,0,0.1,0.1,0.1c-0.3,0-0.7,0-1.1,0.1
			c0.1,0,0.2,0,0.2,0c-0.1,0.1-0.3,0-0.5,0.6c0,0.2-0.1,0.3,0,0.6c0.1,0.2,0.1,0.3,0.2,0.4c0,0,0.1,0.1,0.1,0.1v0
			c0.1,0.1,0.1,0.1,0.2,0.1c0.1,0,0.1,0.1,0.2,0.1c0,0,0,0,0,0c0.1,0.2,0.3,0.3,0.4,0.5c-0.1,0-0.3,0-0.4-0.2
			c0.3,0.5,0.5,0.4,0.5,0.4c-0.1,0-0.1-0.1-0.2-0.2c0.2,0,0.3,0.1,0.5,0.1c-0.1,0-0.2,0-0.3,0l0.2,0.1c-0.3,0-0.4-0.1-0.5-0.1
			c0,0.2-0.5,0.1-1,0.2c-0.2,0-0.4,0.1-0.6,0.2c0-0.7-0.1-0.5-0.1-0.1c0,0.1,0,0.1,0,0.2c0,0,0,0-0.1,0.1c0-0.1,0-0.2,0-0.2
			c0-0.1-0.1-0.3-0.1-0.4c0.2-0.2,0.3-0.5,0.4-0.9c-0.1,0.2-0.3,0.5-0.5,0.8c0-0.1,0-0.1-0.1-0.2c0.3-0.3,0.6-1.3,0.1-2
			c-0.4-0.7-0.9-0.9-1.2-1c-0.4-0.2-0.8-0.3-0.9-0.3c0,0,0,0,0-0.1c0,0,0,0,0,0c0,0,0,0,0,0c0.2-0.6,0.2-1.2,0.1-1.6
			c-0.2-0.9-0.8-1.4-1.2-1.6c0,0.1,0,0.1,0,0.2c-0.4-0.3-0.8-0.5-1.1-0.7c0.3,0.2,0,0.1-0.3,0.1c-0.3-0.2-0.5-0.3-0.7-0.3
			c0.1-0.1,0.2-0.1,0.4-0.3c0.1-0.1,0.3-0.4,0.3-0.7c0-0.3,0-0.5,0-0.7c-0.3-0.8-0.7-0.9-0.9-1c-1-0.3,0.5,0.1,0.7,0.8
			c-0.5-0.7-1-0.7-1.3-0.8c-0.4-0.1-0.6-0.2-0.7-0.3c0.2,0.3,1.4,0.6,0.4,0.5c-0.6-0.3,0.4,0.3-0.7,0l-0.4-0.4c0,0-0.1,0-0.1,0
			l0.1-1c0,0-0.7,0-1.6,0.1c-1.7-0.1,1.7-0.5,0-0.7l0.7,0c-0.1,0-0.1,0-0.1-0.1c0.3,0,0.6,0,0.9-0.1c-0.5-0.1-1.9,0-1.3-0.3
			c0.4-0.1,0.9-0.1,1.3-0.1c-0.4-0.2,0.1-0.3,0.1-0.4c-1.4,0-2.5-0.2-4.2,0.3c0.3,0,1-0.1,0.7,0.1c-0.6,0.2-0.9,0.3-1.4,0.6
			c-0.1,0.1-0.3,0.2-0.4,0.5c-0.1,0.1-0.2,0.3-0.2,0.5c0,0.1-0.1,0.2-0.1,0.3c0,0.2,0,0.4,0,0.6c0.1,0.4,0.2,0.7,0.4,0.9
			c0,0,0.1,0.1,0.1,0.1c-0.7,0-1.3,0-2,0.2c0.2,0,0.3,0,0.4,0c-0.2,0.1-0.6,0-1,0.8c-0.1,0.2-0.1,0.4,0,0.7c0.1,0.3,0.2,0.3,0.3,0.5
			c0.1,0,0.1,0.1,0.1,0.1v0c0.1,0.1,0.2,0.1,0.3,0.1c0.1,0,0.3,0.1,0.4,0.1c0,0,0,0,0,0c0.2,0.3,0.5,0.4,0.7,0.7
			c-0.2,0-0.5,0-0.8-0.2c0.6,0.6,1,0.5,0.9,0.5c-0.2,0-0.3-0.1-0.3-0.2c0.3,0,0.7,0.1,1,0.2c-0.2,0-0.4,0-0.7,0l0.3,0.1
			c-0.5,0-0.8-0.1-0.9-0.2c-0.1,0.2-0.9,0.1-1.9,0.2c-0.5,0.1-1.1,0.1-1.7,0.6c-0.3,0.2-0.5,0.7-0.4,1c0.1,0.2,0.1,0.3,0.2,0.4
			c-0.3,0.4-0.2,0.9,0,1.1c0.1,0.2,0.2,0.2,0.3,0.2c0.2,0,0.3,0.1,0.8,0.4c-0.2,0-0.3-0.1-0.3-0.1l-0.3,0.2c-0.3,0-1.2-0.2-0.6-0.3
			c-0.8,0.1-1.6,0.1-2.4,0.4c1-0.1,2.7,0.3,3.2,0c0.6,0.2-0.9,0.1-0.4,0.4c-1.5-0.3-0.9,0.1-2.5,0.3c0.3-0.2-0.1-0.3-0.6-0.2
			c-0.3,0.1-0.6,0.2-0.9,0.4c-0.3,0.3-0.3,0.6-0.4,0.5c-0.1,0.3,0,0.8,0.2,1c0.2,0.3,0.5,0.5,0.7,0.6c0.4,0.3,0.8,0.5,1.1,0.6
			l-0.1,0l0.1,0.1c-0.1,0.2-0.2,0.5-0.2,0.8c0.3,0.8,0.8,0.8,1,1c0.2,0.1,0.3,0.2,0.5,0.2c-0.1,0-0.2,0-0.2,0c-0.2,0-0.4,0-0.7,0.1
			c-0.2,0-0.6,0.2-0.6,0.7c0.1,0.4,0.4,0.5,0.5,0.6c0.2,0.1,0.4,0.2,0.6,0.2c-0.4-0.1-0.9-0.2-1.2-0.7c-0.1-0.3,0-0.6,0.1-0.7
			c0.1-0.1,0.1-0.2,0-0.2c-0.2,0.1-0.5,0.6-0.4,0.9c0,0.3,0.2,0.5,0.3,0.6c0.2,0.2,0.4,0.3,0.6,0.4c0.3,0.1,0.5,0.2,0.7,0.3
			c0.4,0.1,0.8,0.2,1.7,0.4l-0.2,0c0.4,0,0.8,0.1,1.2,0.1c-0.1,0-0.2,0.1-0.2,0.2c-0.2,0.2-0.3,0.6-0.1,0.9c0,0,0,0,0,0
			c-0.2,0-0.4-0.1-0.9,0.2c0.2-0.1,0.6-0.1,0.9-0.1c0.1,0.1,0.1,0.1,0.2,0.2c-0.2,0-0.4,0-0.4,0c0.2,0,0.3,0,0.4,0
			c0.1,0.1,0.1,0.1,0.2,0.2c-0.4,0-0.7,0-1.1,0.1c-0.3,0.2-0.1,0.6,0.1,0.7c0.2,0.2,0.4,0.3,0.6,0.3c0.4,0.2,0.8,0.3,1.3,0.4
			c-0.1-0.1-0.1-0.2,0-0.2c0.2,0,0.5,0.1,0.7,0.1c0.3,0.2,0.5,0.3,1.2,0.4l0,0.3c-0.3,0-0.5,0.1-0.2,0.1c0.1,0,0.1,0,0.2,0l0,0.4
			c0,0-0.1,0-0.1,0c0,0,0.1,0,0.1,0c-0.3,0.1-0.5,0.2-0.6,0.3c0,0-0.1,0.1-0.1,0.1c-0.3,0.2-0.4,0.6-0.4,0.8c0.1,0,0.1,0.1,0.2,0.1
			c0.2,0.5,0.8,0.8,1.5,1c0,0,0.1,0,0.3,0.1c0.1,0,0.1,0,0.2,0.1c-0.2,1.7-0.3,3.4-0.4,5.2c-2.2-0.5-4.2-1-5.8-1.5
			c0.1-0.3,0-0.6-0.2-0.9c-0.4-0.5-0.9-0.6-1.2-0.8c-0.4-0.1-0.7-0.2-0.8-0.2c0,0,0,0,0-0.1c0,0,0,0,0,0c0,0,0,0,0,0
			c0.2-0.4,0.2-0.9,0.1-1.2c-0.2-0.7-0.8-1-1.2-1.2c0,0,0,0.1,0,0.1c-0.4-0.3-0.7-0.4-1-0.5c0.3,0.1,0,0.1-0.3,0.1
			c-0.2-0.1-0.5-0.2-0.7-0.3c0.1,0,0.2-0.1,0.4-0.3c0.1-0.1,0.3-0.3,0.3-0.5c0-0.2,0-0.4,0-0.5c-0.3-0.6-0.7-0.7-0.9-0.8
			c-1-0.2,0.5,0.1,0.7,0.6c-0.5-0.5-0.9-0.5-1.2-0.6c-0.3-0.1-0.6-0.2-0.7-0.2c0.2,0.2,1.4,0.4,0.4,0.4c-0.6-0.2,0.4,0.2-0.7,0
			l-0.4-0.3c0,0-0.1,0-0.1,0l0.1-0.7c0,0-0.7,0-1.5,0.1c-1.6-0.1,1.6-0.4,0-0.5l0.6,0c-0.1,0-0.1,0-0.1,0c0.3,0,0.6,0,0.8,0
			c-0.5-0.1-1.8,0-1.2-0.2c0.4,0,0.8-0.1,1.2-0.1c-0.3-0.1,0.1-0.2,0.1-0.3c-1.3,0-2.3-0.1-4,0.2c0.3,0,0.9-0.1,0.7,0
			c-0.6,0.2-0.9,0.2-1.4,0.5c-0.1,0.1-0.2,0.2-0.4,0.4c-0.1,0.1-0.1,0.2-0.2,0.4c0,0.1-0.1,0.1-0.1,0.3c0,0.1,0,0.3,0,0.4
			c0.1,0.3,0.2,0.5,0.4,0.7c0,0,0.1,0.1,0.1,0.1c-0.6,0-1.2,0-1.9,0.1c0.2,0,0.3,0,0.4,0c-0.2,0.1-0.5,0-1,0.6
			c-0.1,0.1-0.1,0.3,0,0.5c0.1,0.2,0.2,0.3,0.3,0.3c0.1,0,0.1,0.1,0.1,0.1c0.1,0.1,0.2,0.1,0.3,0.1c0.1,0,0.2,0,0.4,0.1c0,0,0,0,0,0
			c0.2,0.2,0.5,0.3,0.7,0.5c-0.2,0-0.5,0-0.7-0.1c0.6,0.4,1,0.4,0.9,0.4c-0.2,0-0.3-0.1-0.3-0.2c0.3,0,0.6,0.1,0.9,0.1
			c-0.2,0-0.4,0-0.6,0l0.3,0.1c-0.5,0-0.8-0.1-0.8-0.1c-0.1,0.2-0.9,0.1-1.9,0.2c-0.4,0-0.9,0.1-1.3,0.3c-0.5-0.2-0.9-0.2-1.3-0.3
			c-0.3,0-0.6,0-0.8,0c0-0.3-0.1-0.6-0.1-1c0,0,0.1,0,0.1-0.1c0.1-0.1,0.2-0.1,0.3-0.3c0.1-0.2,0-0.4,0-0.5
			c-0.2-0.3-0.4-0.4-0.5-0.4c0-0.3,0-0.6-0.1-0.9c0.8-2.3,1.6-4.2,2.5-5.8c0.4,0,0.9,0,1.4,0.1c-0.2-0.1-0.8-0.1-1.3-0.1
			c0,0,0-0.1,0.1-0.1c0.1,0,0.1,0,0.2,0c-0.1,0-0.1,0-0.2,0c0.2-0.4,0.4-0.7,0.6-1c0.4,0,0.6,0,0.6,0l0.1-0.8c0.1,0,0.1,0,0.2,0
			c0.2,0.1,0.4,0.2,0.6,0.3l0.4,0.2l0.2,0.1l0,0h0c0-0.1,0-0.2,0-0.3l0,0l0,0c0,0.1,0,0,0-0.2l0,0l0,0c0,0,0-0.1,0-0.1l0,0l0.1,0
			l0,0l0.1,0l0.2,0l0.1,0l0,0h0l0,0h0c0.1-1-0.2,1.9,0.1-1.4c0.5,0,0.9,0,1.6-0.1c0.4-0.1-0.3-0.1-0.3-0.2c0.4,0,0.7-0.1,1-0.2
			c0.1,0,0.1-0.1,0.2-0.1c0,0.1,0,0.1,0,0c0.1,0,0.3-0.1,0.5-0.1c0.2-0.1,0.5-0.1,0.8-0.3c-1.1,0.5-0.9,0.4-0.4,0.4
			c0.2-0.1,0.7-0.2,1.2-0.7c0.2-0.3,0.4-0.7,0.4-1.3c0,0,0.1,0,0.1-0.1c0.2-0.1,0.3-0.1,0.3-0.1c0.6-0.2,1.2-0.6,1.3-1.1
			c0.1,0,0.1-0.1,0.2-0.1c0-0.2-0.1-0.4-0.3-0.6c0.4-0.1,0.9-0.2,1.5-0.4l-0.2-1.5c0.1-0.1,0.2-0.1,0.3-0.2c0.2-0.1,0.4-0.2,0.5-0.4
			c0.2-0.1,0.3-0.5,0-0.6c-0.3-0.1-0.7-0.1-1,0c0-0.1,0.1-0.1,0.1-0.2c0.1,0,0.2,0,0.3,0c0,0-0.1,0-0.3,0c0-0.1,0.1-0.1,0.1-0.2
			c0.3,0,0.7,0,0.9,0c-0.4-0.2-0.6-0.1-0.8-0.1c0,0,0,0,0,0c0.1-0.3,0-0.6-0.2-0.8c-0.1-0.1-0.2-0.1-0.2-0.1
			c0.4-0.1,0.7-0.2,1.1-0.2l-0.1,0c0.8-0.2,1.2-0.3,1.5-0.5c0.2-0.1,0.4-0.1,0.6-0.3c0.1-0.1,0.3-0.2,0.5-0.4
			c0.1-0.2,0.2-0.3,0.2-0.6c0-0.3-0.2-0.7-0.4-0.7c-0.1,0-0.1,0.1,0,0.2c0.1,0.1,0.3,0.4,0.2,0.7c-0.2,0.6-0.6,0.7-1,0.8
			c0.2-0.1,0.3-0.1,0.5-0.3c0.1-0.1,0.4-0.3,0.4-0.6c0-0.4-0.4-0.6-0.6-0.6c-0.2,0-0.4,0-0.6,0c-0.1,0-0.1,0-0.2,0
			c0.1-0.1,0.3-0.2,0.4-0.3c0.2-0.2,0.6-0.3,0.8-1c0-0.2-0.1-0.5-0.2-0.7l0.1-0.1l-0.1,0c0.2-0.1,0.5-0.3,0.9-0.6
			c0.2-0.2,0.4-0.3,0.5-0.6c0.2-0.3,0.2-0.7,0.1-1c0,0.1-0.1-0.2-0.4-0.5c-0.3-0.2-0.6-0.3-0.8-0.3c-0.5,0-0.9,0.1-0.5,0.2
			c-1.4,0-0.9-0.4-2.3,0c0.5-0.3-0.9-0.1-0.4-0.3c0.5,0.1,2-0.3,2.9-0.4c-0.8-0.1-1.5-0.1-2.2-0.1c0.5,0-0.2,0.2-0.5,0.3l-0.3-0.2
			c0,0.1-0.1,0.1-0.3,0.2c0.4-0.3,0.5-0.4,0.6-0.4c0.1,0,0.1-0.1,0.3-0.2c0,0,0,0,0-0.1c0.1,0,0.2,0,0.3,0.1l-0.3-0.2
			c0.1-0.2,0.1-0.5-0.2-0.8c0.1-0.1,0.1-0.2,0.2-0.4c0.1-0.3-0.1-0.7-0.4-0.9c-0.6-0.4-1.1-0.3-1.6-0.3c-0.2,0-0.3,0-0.5,0l-0.2-1
			c0.2,0.1,0.3,0.2,0.6,0.3c0.1,0,0.1,0,0-0.1l0-0.4c-0.1,0-0.2-0.1-0.3-0.1l-0.3-0.7c0-0.1-0.1-0.2-0.1-0.3c0,0,0-0.1-0.1-0.1
			l-0.1-0.3c0-0.4-0.5-0.8-1.4-1.1c-0.1,0-0.3-0.1-0.5-0.1c0,0,0,0,0,0c0-0.2,0-0.4-0.1-0.5c0,0,0,0,0,0c0.2,0,0.5-0.1,0.5-0.6
			c-0.1-0.5-0.5-0.6-0.7-0.7c-0.6-0.3-1.3-0.4-1.9-0.6c-0.1,0-0.1,0-0.2,0c0.3-0.2,0.6-0.5,0.6-0.9c0.1-0.6-0.3-1.1-0.9-1.2
			c-0.2,0-0.3,0-0.4,0.1v0c0,0-1.2,0-2.6,0l0,0c-0.5-0.1-1-0.1-1.5-0.1c0.9-0.2,1.7,0.1,1.8-0.1c-0.2-0.1-0.6,0-0.7-0.1
			c0.9-0.1,0.9,0,1.6,0.1c-0.9-0.2-2.1-0.3-3.4-0.2c-0.7,0.1-1.3,0.1-2.1,0.6c-0.1,0.1-0.5,0.5-0.4,1l0-0.1c-0.8,0-1.6,0.1-2.5,0.3
			c0.6-0.1,1.2,0,1.7,0l-0.4-0.1c0.3-0.1,1-0.1,1.3,0c0,0,0,0.1,0,0.1c0.3,0.5,0.5,0.4,0.7,0.5c0.3,0.1,0.6,0.2,0.8,0.3
			c0.3,0.1-0.2-0.2-0.3-0.2c0.7,0.2,1.1,0.2,1.7,0.3c0.2,0.1,0.4,0.1,0.5,0.2c0,0.1-0.7,0-1.1-0.1c0,0.2,0.3,0.2,0.8,0.3
			c0.1-0.1,0.4,0,0.9,0c0,0,0.1,0,0.1,0c-0.4,0-0.8-0.1-1.1,0c-0.8-0.1-1.8-0.3-2.9-0.4l0.3,0l-0.3,0c-0.6,0-1.2,0-1.9,0
			c-0.4,0.1-0.9,0.1-1.3,0.3c-0.2,0.3,0.5,0,1.3-0.1c0,0,0,0,0,0c0,0.1,0,0.2,0,0.3c-0.3,0-0.6,0.1-0.9,0.1c0.1,0.1,0,0.1-0.7,0.5
			c-0.1,0-0.2,0-0.3,0c0,0-0.1,0.1-0.3,0.4c-0.2,0.3-0.4,0.6-0.4,1.1c0,0.2,0,0.3,0.1,0.5l-0.1,0h-0.1c-0.1-0.3-0.1-0.7,0-1
			c-0.1,0.4-0.1,0.1,0-0.3c0.2-0.5,0.6-0.9,0.5-0.9c-0.5,0.4-0.9,1.1-0.8,2c0,0,0,0,0,0c0,0,0,0.1,0,0.1h0h0c0,0.1,0,0.3-0.1,0.4
			c-1,0-2-0.1-3.3,0.2c0.1-0.1-0.4-0.1-1.2,0.2c-0.4,0.2-1,0.4-1.6,1c-0.2,0.2-0.4,0.5-0.6,0.8c0.3-0.5,0.6-0.7,0.7-0.8
			c0.2-0.2,0.3-0.2,0.2-0.1c-0.3,0.3-0.7,0.7-0.9,1.2c-0.2,0.4-0.2,0.7-0.3,1.1c0,0.4,0,0.9,0.1,1.3c0.3,0.9,0.7,1.3,1,1.7
			c0.2,0.2,0.3,0.3,0.5,0.4c-0.3,0-0.6,0.1-0.9,0.1c-0.4,0.1-0.8,0.2-1.5,0.4c-0.3,0.2-0.8,0.4-1.3,0.9c-0.6,0.6-1,1.8-0.8,2.8
			c0.1,0.4,0.2,0.7,0.4,1c-0.4,0-0.7,0-1.1,0c0,0,0.1-0.1,0.1-0.1c0.2-0.3,0.3-0.5,0.4-0.9c0-0.2,0-0.4,0-0.6c0-0.1,0-0.2-0.1-0.3
			c-0.1-0.2-0.1-0.4-0.2-0.5c-0.2-0.3-0.3-0.4-0.4-0.5c-0.5-0.3-0.8-0.4-1.4-0.6c-0.2-0.2,0.4-0.1,0.7-0.1c-1.8-0.5-2.8-0.3-4.2-0.3
			c-0.1,0.1,0.4,0.2,0.1,0.4c0.4,0,0.9,0.1,1.3,0.1c0.6,0.3-0.7,0.2-1.3,0.3c0.3,0,0.6,0,0.9,0.1c0,0,0,0.1-0.1,0.1l0.7,0
			c-1.8,0.2,1.6,0.6,0,0.7c-0.8-0.1-1.6-0.1-1.6-0.1l0.1,1c0,0-0.1,0-0.1,0l-0.4,0.4c-1.1,0.3-0.1-0.3-0.7,0c-1,0.1,0.3-0.2,0.4-0.5
			c-0.1,0.1-0.4,0.2-0.7,0.3c-0.3,0.2-0.8,0.2-1.3,0.8c0.2-0.7,1.7-1.1,0.7-0.8c-0.2,0.2-0.6,0.2-0.9,1c-0.1,0.2-0.1,0.4,0,0.7
			c0,0.3,0.2,0.6,0.3,0.7c0.2,0.2,0.3,0.3,0.4,0.3c-0.2,0.1-0.5,0.2-0.7,0.3c-0.3,0-0.6,0.1-0.3-0.1c-0.3,0.2-0.7,0.3-1.1,0.7
			c0-0.1,0-0.1,0-0.2c-0.2,0.2-0.6,0.4-0.8,0.8c0,0,0,0,0,0c-0.1,0-0.2-0.1-0.3-0.1c0,0,0,0,0,0c0-0.1,0-0.3,0-0.4c0,0,0,0,0,0
			c0.2,0,0.4-0.1,0.4-0.4c0-0.4-0.3-0.4-0.4-0.5c-0.4-0.2-0.8-0.4-1.2-0.5c0,0-0.1,0-0.1,0c0.2-0.1,0.5-0.3,0.5-0.6
			c0.1-0.4-0.2-0.8-0.5-0.9c-0.1,0-0.2,0-0.3,0l0,0c0,0-0.8-0.1-1.8-0.2h0c-0.3-0.1-0.7-0.2-1-0.2c0.6-0.1,1.2,0.2,1.2,0.1
			c-0.1,0-0.4-0.1-0.5-0.1c0.6,0,0.6,0.1,1.1,0.2c-0.6-0.2-1.4-0.3-2.4-0.4c-0.5,0-0.9-0.1-1.5,0.2c-0.1,0.1-0.4,0.3-0.4,0.7l0,0
			c-0.5,0-1-0.1-1.7,0v-4.2l-0.4,0.3l-1-0.2v-1.8h-1.2l-0.3-5.3h-1.2v2h-2v-2.2h-2.2v2c0,0-2.7,1.5-2.7,4.2h-4.5v4.3h2.5v1.2h-12.8
			v-0.7h-6.7v4.8H972v8.2h-4.5v-7h-0.8v1.7h-1.5V43H961v-5.5h-1.7v0.7h-10v-1h-1.2v-3.3H946v-8.4h0.5V19h-0.7l-0.5,0.5h-4.2v-1h1
			l-13-14.7l-10,13h-53.1v2.7h-3.8v-0.7h-1.8v7h0.8v-0.6l-14.5-2l-0.8,0.7l15.2,2.8h-7.5V29h-7.8v0.7h-7.2v-2.3h-0.7v2.3h0.5v5.7
			l-0.8,1.2l-8.3-0.3l-0.2,2.8h-5.8l-0.7-17.2l-1.3-0.5l-1.2,17.8l-2.2,7.5l-1-0.5h-42.3l-2.2-1.8l-1.8-0.2l-2.7,0.7l-3.3,0.2
			l-1.2,1.2l-2-1.5l-31.8,0.2l-0.7-0.5h-42.5l-10.8-3.7l-5.2,0.2l-0.3,2.7l-2.3,0.2l-0.3,1.5l-2.3,1v-2.3h-27.6l-0.3-3.5
			c0,0-9.3-0.7-10-0.7c-0.7,0-11.5,7.8-11.5,7.8l-0.2,0.7h1.3l0.2,5l-5.3-0.2l-5.3-4.2l-3.2,0.3l-0.2,3.7l-14.8-4.3l-194,0.2
			l-3.8-1.8l-8.8-0.2l-1.8,1.2l-5.5-2l-4,0.3l0.5,1.8l-10.7,4l-6.5-2.3h-4.2l-4.5-2.3l-16-0.2l-13.5,4l-8.2,1.2l0.5-4.7l-14.3,1.7
			l-2.7,4.2l-3.3-2.7l-1.9,0.2V34.6l-5-2.7V15.1h-2v-2.5L257,0l-27,11.9v3.7h-3.7v18.7h-2.5c0,0-0.3,16,0,19.5l-1.1,0l-1.2-1.3
			l-11.7,0.2L184,53.2c0-0.6,0-1.1,0.1-1.7c1-2.2,2.1-4,3.1-5.5c0.4,0.1,0.9,0.1,1.3,0.2c-0.2-0.2-0.8-0.2-1.3-0.3
			c0,0,0.1-0.1,0.1-0.1c0.1,0,0.1,0,0.2,0c-0.1,0-0.1,0-0.2,0c0.2-0.3,0.5-0.7,0.7-1c0.4,0.1,0.6,0.1,0.6,0.1l0.2-0.8
			c0.1,0,0.1,0,0.2,0c0.2,0.1,0.3,0.3,0.5,0.4l0.4,0.3l0.2,0.1l0,0v0c0-0.1,0-0.2,0.1-0.3l0,0l0,0c0,0.1,0,0,0-0.2l0,0l0,0
			c0,0,0-0.1,0-0.1l0,0l0.1,0h0l0.1,0l0.2,0l0.1,0l0,0l0,0l0,0h0c0.1-0.4,0.1-0.2,0-0.1c0.1-0.2,0.1-0.6,0.3-1.3
			c0.5,0.1,0.9,0.1,1.6,0.1c0.4-0.1-0.3-0.1-0.2-0.3c0.4,0.1,0.7,0,1-0.1c0.1,0,0.2,0,0.2,0c0,0.1,0,0.1,0,0c0.1,0,0.3,0,0.5-0.1
			c0.2,0,0.5-0.1,0.9-0.2c-1.1,0.4-0.9,0.3-0.4,0.3c0.2,0,0.7-0.1,1.3-0.6c0.3-0.3,0.5-0.7,0.5-1.3c0,0,0.1,0,0.1,0
			c0.2,0,0.3-0.1,0.3-0.1c0.7-0.2,1.2-0.5,1.4-0.9c0.1,0,0.1,0,0.2-0.1c0-0.2-0.1-0.4-0.2-0.6c0.5,0,1-0.1,1.5-0.2l-0.1-1.6
			c0.1,0,0.2-0.1,0.4-0.1c0.2-0.1,0.4-0.2,0.5-0.3c0.2-0.1,0.3-0.5,0.1-0.6c-0.3-0.1-0.7-0.1-1-0.1c0.1,0,0.1-0.1,0.2-0.1
			c0.1,0,0.2,0,0.3,0c0,0-0.1,0-0.3,0c0.1-0.1,0.1-0.1,0.2-0.2c0.3,0,0.7,0,0.8,0.1c-0.4-0.2-0.6-0.1-0.8-0.2c0,0,0,0,0,0
			c0.1-0.3,0.1-0.6-0.1-0.8c-0.1-0.1-0.1-0.1-0.2-0.2c0.4-0.1,0.8-0.1,1.1-0.1l-0.1,0c0.8-0.1,1.2-0.2,1.6-0.3
			c0.2-0.1,0.4-0.1,0.6-0.2c0.1-0.1,0.3-0.2,0.5-0.4c0.1-0.1,0.2-0.3,0.3-0.6c0.1-0.3-0.2-0.7-0.3-0.8c-0.1,0-0.1,0.1,0,0.2
			c0.1,0.1,0.2,0.4,0.1,0.7c-0.3,0.5-0.7,0.6-1.1,0.7c0.2-0.1,0.3-0.1,0.5-0.2c0.2-0.1,0.4-0.2,0.5-0.6c0.1-0.4-0.4-0.6-0.5-0.7
			c-0.2-0.1-0.4-0.1-0.6-0.1c-0.1,0-0.1,0-0.2,0c0.2-0.1,0.3-0.1,0.5-0.2c0.2-0.2,0.6-0.2,0.9-0.9c0-0.2,0-0.5-0.1-0.7l0.1-0.1
			l-0.1,0c0.2-0.1,0.6-0.3,1-0.5c0.2-0.1,0.4-0.3,0.6-0.6c0.2-0.3,0.3-0.7,0.2-0.9c0,0.1-0.1-0.3-0.3-0.5c-0.2-0.2-0.6-0.3-0.8-0.4
			c-0.5-0.1-0.9,0-0.6,0.2c-1.4-0.1-0.9-0.5-2.3-0.2c0.5-0.2-0.9-0.2-0.3-0.4c0.5,0.2,2-0.1,2.9,0c-0.8-0.2-1.5-0.3-2.2-0.3
			c0.5,0.1-0.2,0.2-0.5,0.2l-0.3-0.2c0,0.1-0.1,0.1-0.3,0.1c0.4-0.2,0.5-0.3,0.7-0.4c0.1,0,0.2-0.1,0.3-0.2c0,0,0,0,0-0.1
			c0.1,0,0.2,0.1,0.3,0.1l-0.3-0.2c0.1-0.2,0.1-0.5-0.1-0.8c0.1-0.1,0.2-0.2,0.2-0.4c0.1-0.3-0.1-0.7-0.3-0.9
			c-0.5-0.4-1.1-0.4-1.5-0.5c-0.2,0-0.4,0-0.5,0l0-1c0.1,0.1,0.2,0.2,0.5,0.4c0.1,0,0.1,0,0-0.1l0.1-0.4c-0.1,0-0.2-0.1-0.3-0.1
			l-0.2-0.7c0-0.1,0-0.2-0.1-0.3c0,0,0-0.1-0.1-0.1l-0.1-0.3c0.1-0.4-0.4-0.8-1.3-1.2c-0.1-0.1-0.3-0.1-0.4-0.2c0,0,0,0,0,0
			c0-0.2,0-0.4,0-0.5c0,0,0,0,0,0c0.2,0,0.5-0.1,0.6-0.6c-0.1-0.5-0.4-0.6-0.6-0.8c-0.6-0.3-1.2-0.6-1.8-0.8c-0.1,0-0.1,0-0.2-0.1
			c0.4-0.1,0.7-0.4,0.7-0.8c0.1-0.6-0.2-1.2-0.8-1.3c-0.2,0-0.3,0-0.4,0l0,0c0,0-1.2-0.2-2.5-0.3l0,0c-0.5-0.1-1-0.2-1.5-0.3
			c0.9-0.1,1.7,0.3,1.8,0.1c-0.2-0.1-0.6-0.1-0.7-0.2c0.9,0,0.9,0.1,1.6,0.2c-0.8-0.3-2.1-0.5-3.4-0.5c-0.7,0-1.3-0.1-2.2,0.3
			c-0.2,0.1-0.6,0.4-0.5,1l0-0.1c-0.8-0.1-1.6-0.1-2.5,0c0.6,0,1.2,0.1,1.7,0.2l-0.3-0.1c0.3-0.1,1,0,1.3,0.1c0,0,0,0.1,0,0.1
			c0.3,0.5,0.4,0.5,0.6,0.6c0.3,0.2,0.5,0.3,0.8,0.4c0.3,0.1-0.2-0.2-0.3-0.2c0.6,0.2,1.1,0.3,1.7,0.5c0.2,0.1,0.4,0.2,0.5,0.2
			c0,0.1-0.7-0.1-1.1-0.2c0,0.2,0.3,0.2,0.7,0.4c0.1-0.1,0.4,0,0.9,0.1c0,0,0.1,0,0.1,0c-0.4-0.1-0.8-0.1-1.1-0.1
			c-0.8-0.2-1.8-0.5-2.9-0.7l0.3,0l-0.3,0c-0.6-0.1-1.2-0.2-1.9-0.2c-0.5,0-0.9,0-1.4,0.1c-0.3,0.2,0.5,0,1.3,0c0,0,0,0,0,0
			c0,0.1,0,0.2,0,0.3c-0.3,0-0.6,0-0.9,0c0.1,0.1,0,0.1-0.8,0.4c-0.1,0-0.2,0-0.3,0c0,0-0.1,0.1-0.3,0.3c-0.3,0.3-0.4,0.6-0.5,1
			c0,0.2,0,0.3,0,0.5l-0.1,0l-0.1,0c0-0.3,0-0.7,0.1-1c-0.2,0.4-0.1,0.1,0-0.3c0.2-0.5,0.7-0.8,0.6-0.8c-0.5,0.3-1,1-1,1.9
			c0,0,0,0,0,0c0,0,0,0.1,0,0.1l0,0h0c0,0.1-0.1,0.3-0.1,0.4c-1-0.1-1.9-0.3-3.3-0.2c0.1-0.1-0.3-0.1-1.2,0.1
			c-0.4,0.1-1,0.3-1.7,0.8c-0.3,0.2-0.5,0.5-0.7,0.7c0.3-0.4,0.6-0.7,0.8-0.8c0.3-0.2,0.3-0.2,0.2-0.1c-0.3,0.2-0.7,0.6-1,1.1
			c-0.2,0.3-0.3,0.7-0.4,1.1c-0.1,0.4-0.1,0.9,0,1.3c0.2,0.9,0.5,1.4,0.8,1.8c0.1,0.2,0.3,0.3,0.5,0.5c-0.3,0-0.6,0-1,0
			c-0.4,0-0.8,0.1-1.5,0.3c-0.3,0.1-0.8,0.3-1.4,0.8c-0.6,0.5-1.2,1.7-1.1,2.7c0.1,1.1,0.6,1.8,1,2.2c0.4,0.3,0.7,0.6,0.9,0.7
			c0.5,0.3,0.9,0.4,1.3,0.6c-0.2-0.1-0.7-0.4-1-0.8c-0.3-0.3-0.5-0.6-0.2-0.4c-0.4-0.2-0.8-0.5-1.3-1.4c-0.2-0.6-0.3-1.3,0-2
			c0.3-0.7,0.8-1.2,1.2-1.5c1.5-0.8,2-0.6,2.7-0.8c0.1,0.1-0.4,0.1-0.6,0.2c0.7-0.1,1-0.1,1.6-0.1c0,0,0.1,0.1,0.1,0.1
			c-0.2,0-0.5,0.1,0,0.1c0,0,0.1,0,0.1,0c0.1,0,0.1,0.1,0.2,0.1c-0.1,0.2-0.1,0.4-0.2,0.6c-0.1,0-0.2,0-0.4,0c0.1,0,0.3,0,0.4,0
			c0,0.1,0,0.2-0.1,0.3c-0.1,0-0.3,0-0.4,0c0.1-0.2,0.1-0.3-0.4-0.3c-0.6,0-1.1,0-1.7,0.2c-0.3,0.1-0.7,0.2-1.1,0.6
			c-0.5,0.4-0.7,1.3-0.5,1.8c0.4,1.1,0.9,1.2,1.2,1.4c0.3,0.2,0.6,0.2,0.8,0.3c0.1,0,0.2,0.1,0.2,0.1c-0.4,0.1,1.3,1,1.9,1.3
			c0-0.1,0.2-0.1,0.4,0c0,0.2-0.1,0.4-0.1,0.6c-0.8-0.4-0.4-0.3-0.9-0.8c-0.7-0.3-1.4-0.6-2.3-1.2c0.2,0.2,0.3,0.3,0.5,0.5
			c-0.6-0.3-1.5-0.5-1.9-2.2c-0.1-0.8,0.3-1.6,0.6-1.9c0.3-0.3,0.4-0.4,0.3-0.4c-0.4,0.2-1.1,1-1.1,1.8c0,0.9,0.4,1.5,0.7,1.9
			c0.6,0.6,1,0.8,1.3,1.1c-0.3-0.1-0.6-0.3-1-0.5c0.8,0.7,1,0.6,1.3,0.7c0.2,0,0.5,0.1,1.3,0.5c-0.7,0,0.1,0.1,0.8,0.4
			c-0.5,0.1-2.9-1.2-2.6-0.7c0.7,0.5,1.9,0.6,3,0.9c0,0.2-0.1,0.3-0.1,0.5c-0.1,0-0.2-0.1-0.4-0.1c0.1,0,0.3,0.1,0.4,0.1
			c0,0.1,0,0.1,0,0.2c-1.1,0-1.8,0.2-1.9,0.6c-0.1,0.4,0.5,0.9,1.5,1.3c-0.1,0.3-0.1,0.5-0.1,0.6l0,0l0,0c0-0.2,0.1-0.3,0.1-0.5
			c0,0.1,0,0.2,0,0.2c0,0,0,0.1,0,0.1c0,0,0,0-0.1,0.1l0,0l0,0l0,0c0,0.1,0,0.1,0,0.2l0,0l0.2,0.1c0.3,0.8,0.8,1.2,1.1,1.5
			c0.4,0.3,0.7,0.5,1,0.6c0.5,0.3,0.9,0.5,1.2,0.6c-0.2,0.8-0.3,1.3-0.4,1.5c0,0,0-0.1,0-0.1h0l0,0l0,0l0,0h0l0.1,0
			c0,0.1-0.1,0.1-0.1,0.2c-0.2,0.6-0.2,1.2,0.1,1.7c0.2,0.6,0.5,1,0.8,1.4c-1.1-0.7-1.1-1.3-1.1-1c0.1,0.1,0.2,0.6-0.4-0.4
			c0.8,1.7,2.4,2.4,3.2,2.5c-0.5,2.5-0.9,5.2-1.1,8l-5.9,0.1l-5.8-0.7l-11.5-1.3l-1-4.3h-47.5l-6.5,2.8l-7.2,1l-13.7-0.5
			c0.2-0.3,0.4-0.6,0.4-1.2c0,0,0.1,0,0.1,0c0.2,0,0.3-0.1,0.3-0.1c0.7-0.2,1.2-0.5,1.4-0.9c0.1,0,0.1,0,0.2-0.1
			c0-0.2-0.1-0.4-0.2-0.6c0.5,0,1-0.1,1.5-0.2l-0.1-1.6c0.1,0,0.2-0.1,0.4-0.1c0.2-0.1,0.4-0.2,0.5-0.3c0.2-0.1,0.3-0.5,0.1-0.6
			c-0.3-0.1-0.7-0.1-1-0.1c0.1,0,0.1-0.1,0.2-0.1c0.1,0,0.2,0,0.3,0c0,0-0.1,0-0.3,0c0.1-0.1,0.1-0.1,0.2-0.2c0.3,0,0.7,0,0.8,0.1
			c-0.4-0.2-0.6-0.1-0.8-0.2c0,0,0,0,0,0c0.1-0.3,0.1-0.6-0.1-0.8c-0.1-0.1-0.1-0.1-0.2-0.2c0.4-0.1,0.8-0.1,1.1-0.1l-0.1,0
			c0.8-0.1,1.2-0.2,1.6-0.3c0.2-0.1,0.4-0.1,0.6-0.2c0.1-0.1,0.3-0.2,0.5-0.4c0.1-0.1,0.2-0.3,0.3-0.6c0.1-0.3-0.2-0.7-0.3-0.8
			c-0.1,0-0.1,0.1,0,0.2c0.1,0.1,0.2,0.4,0.1,0.7c-0.3,0.5-0.7,0.6-1.1,0.7c0.2-0.1,0.3-0.1,0.5-0.2c0.2-0.1,0.4-0.2,0.5-0.6
			c0.1-0.4-0.4-0.6-0.5-0.7c-0.2-0.1-0.4-0.1-0.6-0.1c-0.1,0-0.1,0-0.2,0c0.2-0.1,0.3-0.1,0.5-0.2c0.2-0.2,0.6-0.2,0.9-0.9
			c0-0.2,0-0.5-0.1-0.7l0.1-0.1l-0.1,0c0.2-0.1,0.6-0.3,1-0.5c0.2-0.1,0.4-0.3,0.6-0.6c0.2-0.3,0.3-0.7,0.2-0.9
			c0,0.1-0.1-0.2-0.3-0.5c-0.2-0.2-0.6-0.3-0.8-0.4c-0.5-0.1-0.9,0-0.6,0.2c-1.4-0.1-0.9-0.5-2.3-0.2c0.5-0.2-0.9-0.2-0.3-0.4
			c0.5,0.2,2-0.1,2.9,0c-0.8-0.2-1.5-0.3-2.2-0.4c0.5,0.1-0.2,0.2-0.5,0.2l-0.3-0.2c0,0.1-0.1,0.1-0.3,0.1c0.4-0.2,0.5-0.3,0.7-0.4
			c0.1,0,0.2-0.1,0.3-0.2c0,0,0,0,0-0.1c0.1,0,0.2,0.1,0.3,0.1l-0.3-0.2c0.1-0.2,0.1-0.5-0.1-0.8c0.1-0.1,0.2-0.2,0.2-0.4
			c0.1-0.3-0.1-0.7-0.3-0.9c-0.5-0.4-1.1-0.4-1.5-0.5c-0.2,0-0.3,0-0.5,0l0-1c0.1,0.1,0.2,0.2,0.5,0.4c0.1,0,0.1,0,0-0.1l0.1-0.4
			c-0.1,0-0.2-0.1-0.3-0.1L85.2,30c0-0.1,0-0.2-0.1-0.3c0,0,0-0.1-0.1-0.1L85,29.3c0.1-0.4-0.4-0.8-1.3-1.2
			c-0.1-0.1-0.3-0.1-0.4-0.2c0,0,0,0,0,0c0-0.2,0-0.4,0-0.5c0,0,0,0,0,0c0.2,0,0.5-0.1,0.6-0.6c-0.1-0.5-0.4-0.6-0.6-0.8
			c-0.6-0.3-1.2-0.6-1.8-0.8c-0.1,0-0.1,0-0.2-0.1c0.4-0.1,0.7-0.4,0.7-0.8c0.1-0.6-0.2-1.2-0.8-1.3c-0.2,0-0.3,0-0.4,0l0,0
			c0,0-1.2-0.2-2.5-0.3l0,0c-0.5-0.1-1-0.2-1.5-0.3c0.9-0.1,1.7,0.3,1.8,0.1c-0.2-0.1-0.6-0.1-0.7-0.2c0.9,0,0.9,0.1,1.6,0.2
			c-0.8-0.3-2.1-0.5-3.4-0.5c-0.7,0-1.3-0.1-2.2,0.3c-0.2,0.1-0.6,0.4-0.5,1l0-0.1c-0.8-0.1-1.6-0.1-2.5,0c0.6,0,1.2,0.1,1.7,0.2
			l-0.3-0.1c0.3-0.1,1,0,1.3,0.1c0,0,0,0.1,0,0.1c0.3,0.5,0.4,0.5,0.6,0.6c0.3,0.2,0.6,0.3,0.8,0.4c0.3,0.1-0.2-0.2-0.2-0.2
			c0.6,0.3,1.1,0.3,1.7,0.5c0.2,0.1,0.4,0.2,0.5,0.2c0,0.1-0.7-0.1-1.1-0.2c0,0.2,0.3,0.2,0.7,0.4c0.1-0.1,0.4,0,0.9,0.1
			c0,0,0.1,0,0.1,0c-0.4-0.1-0.8-0.1-1.1-0.1c-0.8-0.2-1.8-0.5-2.9-0.7l0.3,0l-0.3,0c-0.6-0.1-1.2-0.2-1.9-0.2c-0.5,0-0.9,0-1.4,0.1
			c-0.3,0.2,0.5,0,1.3,0c0,0,0,0,0,0c0,0.1,0,0.2,0,0.3c-0.3,0-0.6,0-0.9,0c0.1,0.1,0,0.1-0.8,0.4c-0.1,0-0.2,0-0.3,0
			c0,0-0.1,0.1-0.3,0.3c-0.3,0.3-0.4,0.6-0.5,1c0,0.2,0,0.3,0,0.5l-0.1,0l-0.1,0c0-0.3,0-0.7,0.1-1c-0.2,0.4-0.1,0.1,0-0.3
			c0.2-0.5,0.7-0.8,0.6-0.8c-0.5,0.3-1,1-1,1.9c0,0,0,0,0,0c0,0,0,0.1,0,0.1l0,0h0c0,0.1-0.1,0.3-0.1,0.4c-1-0.1-1.9-0.3-3.3-0.2
			c0.1-0.1-0.3-0.1-1.2,0.1c-0.4,0.1-1,0.3-1.7,0.8c-0.3,0.2-0.5,0.5-0.7,0.7c0.3-0.4,0.6-0.7,0.8-0.7c0.3-0.2,0.3-0.2,0.2-0.1
			c-0.3,0.2-0.7,0.6-1,1.1c-0.2,0.3-0.3,0.7-0.4,1.1c-0.1,0.4-0.1,0.9,0,1.3c0.2,0.9,0.5,1.4,0.8,1.8c0.1,0.2,0.3,0.3,0.5,0.5
			c-0.3,0-0.6,0-1,0c-0.4,0-0.8,0.1-1.5,0.3c-0.3,0.1-0.8,0.3-1.4,0.8c-0.6,0.5-1.2,1.7-1.1,2.7c0.1,1.1,0.6,1.8,1,2.2
			c0.4,0.3,0.7,0.6,0.9,0.7c0.5,0.3,0.9,0.4,1.3,0.6c-0.2-0.1-0.7-0.4-1-0.8c-0.3-0.3-0.5-0.6-0.2-0.4c-0.4-0.2-0.8-0.5-1.3-1.4
			c-0.2-0.6-0.3-1.3,0-2c0.3-0.7,0.8-1.2,1.2-1.5c1.5-0.8,2-0.6,2.7-0.8c0.1,0.1-0.4,0.1-0.6,0.2c0.7-0.1,1-0.1,1.6-0.1
			c0,0,0.1,0.1,0.1,0.1c-0.2,0-0.5,0.1,0,0.1c0,0,0.1,0,0.1,0c0.1,0,0.1,0.1,0.2,0.1c-0.1,0.2-0.1,0.4-0.2,0.6c-0.1,0-0.2,0-0.4,0
			c0.1,0,0.3,0,0.4,0c0,0.1,0,0.2-0.1,0.3c-0.1,0-0.3,0-0.4,0c0.1-0.2,0.1-0.3-0.4-0.3c-0.6,0-1.1,0-1.7,0.2
			c-0.3,0.1-0.7,0.2-1.1,0.6c-0.5,0.4-0.7,1.3-0.5,1.8c0.4,1.1,0.9,1.2,1.2,1.4c0.3,0.2,0.6,0.2,0.8,0.3c0.1,0,0.2,0.1,0.2,0.1
			c-0.4,0.1,1.3,1,1.9,1.3c0-0.1,0.2-0.1,0.4,0c0,0.2-0.1,0.4-0.1,0.6c-0.8-0.4-0.4-0.3-0.9-0.8c-0.7-0.3-1.4-0.6-2.3-1.2
			c0.2,0.2,0.3,0.3,0.5,0.5c-0.6-0.3-1.5-0.5-1.9-2.2c-0.1-0.8,0.3-1.6,0.6-1.9c0.3-0.3,0.4-0.4,0.3-0.4c-0.4,0.2-1.1,1-1.1,1.8
			c0,0.9,0.4,1.5,0.7,1.9c0.6,0.6,1,0.8,1.3,1.1c-0.3-0.1-0.6-0.3-1-0.5c0.8,0.7,1,0.6,1.3,0.7c0.3,0,0.5,0.1,1.3,0.5
			c-0.7,0,0.1,0.1,0.8,0.4c-0.5,0.1-2.9-1.2-2.6-0.7c0.7,0.5,1.9,0.6,3,0.9c0,0.2-0.1,0.3-0.1,0.5c-0.1,0-0.2-0.1-0.4-0.1
			c0.1,0,0.3,0.1,0.4,0.1c0,0.1,0,0.1,0,0.2c-1.1,0-1.8,0.2-1.9,0.6c-0.1,0.4,0.5,0.9,1.5,1.3c-0.1,0.5-0.2,0.8-0.1,0.6l0,0l0,0
			c0-0.2,0.1-0.3,0.1-0.5c0,0.1,0,0.2,0,0.2c0,0,0,0.1,0,0.1c0,0,0,0-0.1,0.1l0,0l0,0h0c0,0.1,0,0.1,0,0.2l0,0l0.2,0.1
			c0.3,0.8,0.8,1.2,1.1,1.5c0.4,0.3,0.7,0.5,1,0.6c0.5,0.3,0.9,0.5,1.2,0.6c-0.3,1.3-0.4,1.7-0.5,1.8c0,0,0.1-0.2,0.1-0.4v0l0,0l0,0
			l0,0l0,0l0.1,0c0,0.1-0.1,0.1-0.1,0.2c-0.2,0.6-0.2,1.2,0.1,1.7c0.2,0.6,0.5,1,0.8,1.4c-1.1-0.7-1.1-1.3-1.1-1
			c0.1,0.1,0.2,0.6-0.4-0.4c0.8,1.7,2.4,2.4,3.2,2.5c-0.3,1.6-0.6,3.3-0.8,5c-0.4,0-0.8,0-1.2,0c0,0,0.1-0.1,0.1-0.1
			c0.2-0.2,0.3-0.4,0.4-0.7c0-0.2,0-0.3,0-0.4c0-0.1,0-0.2-0.1-0.3c-0.1-0.2-0.1-0.3-0.2-0.4c-0.2-0.2-0.3-0.3-0.4-0.4
			c-0.5-0.3-0.8-0.3-1.4-0.5c-0.2-0.1,0.4-0.1,0.7,0c-1.7-0.4-2.7-0.2-4-0.2c-0.1,0.1,0.4,0.2,0.1,0.3c0.4,0,0.8,0.1,1.2,0.1
			c0.6,0.2-0.7,0.1-1.2,0.2c0.3,0,0.6,0,0.8,0c0,0,0,0-0.1,0l0.6,0c-1.7,0.1,1.5,0.4,0,0.5c-0.8-0.1-1.5-0.1-1.5-0.1l0.1,0.7
			c0,0-0.1,0-0.1,0L61,57.7c-1,0.2-0.1-0.2-0.7,0c-1,0.1,0.3-0.2,0.4-0.4c-0.1,0-0.4,0.1-0.7,0.2c-0.3,0.1-0.7,0.1-1.2,0.6
			c0.2-0.5,1.6-0.8,0.7-0.6c-0.2,0.1-0.6,0.2-0.9,0.8c-0.1,0.2-0.1,0.3,0,0.5c0,0.2,0.2,0.5,0.3,0.5c0.2,0.2,0.3,0.2,0.4,0.3
			c-0.2,0.1-0.4,0.1-0.7,0.3c-0.3,0-0.6,0.1-0.3-0.1c-0.3,0.1-0.6,0.3-1,0.5c0-0.1,0-0.1,0-0.1c-0.4,0.2-0.9,0.5-1.2,1.2
			c-0.1,0.3-0.1,0.8,0.1,1.2c0,0,0,0,0,0c0,0,0,0,0,0c0,0,0,0,0,0.1c-0.1,0-0.4,0.1-0.8,0.2c-0.3,0.1-0.8,0.2-1.2,0.8
			c-0.4,0.5-0.2,1.3,0.1,1.5c0,0.1,0,0.1-0.1,0.2c-0.2-0.2-0.4-0.4-0.4-0.6c0.1,0.3,0.2,0.5,0.4,0.6c-0.1,0.1-0.1,0.2-0.1,0.3
			c0,0.2,0.2,0.5,0.2,0.6c0,0.3,0.4,0.7,0.7,0.9c-0.1,0-0.2,0-0.3,0.1c-0.5-0.2-0.8-0.8-0.7-0.7c-0.4-0.6-0.3-0.8-0.3-0.6
			c0,0.2,0.2,0.9,0.8,1.3c0,0,0.1,0.1,0.1,0.1c-0.2,0.1-0.4,0.1-0.6,0.2c-0.1,0-0.1,0.1-0.2,0.1c-0.1,0-0.3,0-0.4,0.1
			c0.1-0.1,0.2-0.1,0.2-0.2c-0.1,0-0.2,0.1-0.3,0.2c-1.1,0.2-2.3,0.3-3.5,0.5c0-0.1,0-0.2,0-0.2c0,0-0.1-0.1-0.2-0.2
			c-0.2-0.1-0.3-0.2-0.5-0.2c-0.3,0-0.5,0-0.4,0.1c-0.4,0-0.5-0.1-0.6-0.1c0-0.1,0-0.1,0-0.2c0.3,0,0.6,0,0.8,0
			c-0.3-0.1-0.6-0.1-0.8-0.1c-0.1-2.2-0.2-4.3-0.4-6.3c0.1,0,0.1,0,0.2-0.1c0.2,0,0.3-0.1,0.3-0.1c0.7-0.2,1.3-0.5,1.5-1
			c0.1,0,0.1,0,0.2-0.1c0-0.2-0.1-0.6-0.4-0.8c0,0-0.1-0.1-0.1-0.1c-0.2-0.1-0.4-0.2-0.6-0.3c0,0,0.1,0,0.1,0c0,0-0.1,0-0.1,0l0-0.4
			c0.1,0,0.1,0,0.2,0c0.3-0.1,0.1-0.1-0.2-0.1l0-0.3c0.7-0.1,0.8-0.2,1.2-0.4c0.2,0,0.5-0.1,0.7-0.1c0.1,0,0.1,0.1,0,0.2
			c0.4-0.1,0.8-0.2,1.3-0.4c0.2-0.1,0.4-0.2,0.6-0.3c0.2-0.1,0.4-0.5,0.1-0.7c-0.4-0.1-0.7-0.2-1.1-0.1c0.1-0.1,0.1-0.1,0.2-0.2
			c0.1,0,0.2,0,0.4,0c0,0-0.2,0-0.4,0c0.1-0.1,0.1-0.1,0.2-0.2c0.3,0,0.7,0,0.9,0.1c-0.5-0.2-0.7-0.2-0.9-0.2c0,0,0,0,0,0
			c0.2-0.3,0.1-0.7-0.1-0.9c-0.1-0.1-0.2-0.1-0.2-0.2c0.4-0.1,0.8-0.1,1.2-0.1l-0.2,0c0.9-0.2,1.3-0.2,1.7-0.4
			c0.2-0.1,0.4-0.1,0.7-0.3c0.1-0.1,0.3-0.2,0.6-0.4c0.1-0.2,0.3-0.3,0.3-0.6c0.1-0.3-0.2-0.8-0.4-0.9c-0.1,0-0.1,0.1,0,0.2
			c0.1,0.1,0.2,0.4,0.1,0.7c-0.3,0.6-0.8,0.6-1.2,0.7c0.2-0.1,0.4-0.1,0.6-0.2c0.2-0.1,0.5-0.2,0.5-0.6c0.1-0.5-0.4-0.7-0.6-0.7
			c-0.2-0.1-0.4-0.1-0.7-0.1c-0.1,0-0.2,0-0.2,0c0.2-0.1,0.3-0.2,0.5-0.2c0.3-0.2,0.7-0.2,1-1c0-0.3,0-0.6-0.2-0.8l0.1-0.1l-0.1,0
			c0.2-0.1,0.6-0.3,1.1-0.6c0.2-0.2,0.5-0.3,0.7-0.6c0.2-0.3,0.3-0.8,0.2-1c0,0.1-0.1-0.3-0.4-0.5c-0.3-0.3-0.6-0.4-0.9-0.4
			c-0.6-0.1-1,0-0.6,0.2c-1.6-0.2-1-0.6-2.5-0.3c0.6-0.3-1-0.2-0.4-0.4c0.5,0.2,2.2-0.1,3.2,0c-0.9-0.3-1.7-0.3-2.4-0.4
			c0.6,0.1-0.3,0.2-0.6,0.3l-0.3-0.2c0,0.1-0.2,0.1-0.3,0.1c0.5-0.3,0.6-0.3,0.8-0.4c0.1,0,0.2-0.1,0.3-0.2c0.1-0.1,0.3-0.6,0-1.1
			c0.1-0.1,0.2-0.2,0.2-0.4c0.1-0.4-0.1-0.8-0.4-1c-0.6-0.5-1.2-0.5-1.7-0.6c-1-0.1-1.9,0-1.9-0.2c0,0.1-0.4,0.2-0.9,0.2l0.3-0.1
			c-0.3,0-0.5,0-0.7,0c0.3-0.1,0.6-0.1,1-0.2c-0.1,0.1-0.1,0.2-0.3,0.2c-0.1,0,0.3,0.1,0.9-0.5c-0.3,0.2-0.5,0.2-0.8,0.2
			c0.2-0.2,0.5-0.4,0.7-0.7c0,0,0,0,0,0c0.1,0,0.2,0,0.4-0.1c0.1,0,0.2-0.1,0.3-0.1v0c0,0,0.1-0.1,0.1-0.1c0.1-0.1,0.2-0.2,0.3-0.5
			c0.1-0.3,0-0.5,0-0.7c-0.4-0.8-0.8-0.6-1-0.8c0.1,0,0.3,0,0.4,0c-0.7-0.2-1.4-0.2-2-0.2c0,0,0.1-0.1,0.1-0.1
			c0.2-0.3,0.3-0.5,0.4-0.9c0-0.2,0-0.4,0-0.6c0-0.1,0-0.2-0.1-0.3c-0.1-0.2-0.1-0.4-0.2-0.5c-0.2-0.3-0.3-0.4-0.4-0.5
			c-0.5-0.3-0.8-0.4-1.4-0.6c-0.2-0.2,0.4-0.1,0.7-0.1c-1.8-0.5-2.8-0.3-4.2-0.3c-0.1,0.1,0.4,0.2,0.1,0.4c0.4,0,0.9,0.1,1.3,0.1
			c0.6,0.3-0.7,0.2-1.3,0.3c0.3,0,0.6,0,0.9,0.1c0,0,0,0.1-0.1,0.1l0.7,0c-1.7,0.2,1.6,0.6,0,0.7C43.7,36,43,35.9,43,35.9l0.1,1
			c0,0-0.1,0-0.1,0l-0.4,0.4c-1.1,0.3-0.1-0.3-0.7,0c-1,0.1,0.3-0.2,0.4-0.5c-0.1,0.1-0.4,0.2-0.7,0.3c-0.3,0.2-0.8,0.2-1.3,0.8
			c0.2-0.7,1.7-1.1,0.7-0.8c-0.2,0.2-0.6,0.2-0.9,1c-0.1,0.2-0.1,0.4,0,0.7c0,0.3,0.2,0.6,0.3,0.7c0.2,0.2,0.3,0.3,0.4,0.3
			c-0.2,0.1-0.5,0.2-0.7,0.3c-0.3,0-0.6,0.1-0.3-0.1c-0.3,0.2-0.7,0.3-1.1,0.7c0-0.1,0-0.1,0-0.2c-0.4,0.2-1,0.7-1.2,1.6
			c-0.1,0.5-0.1,1.1,0.1,1.6c0,0,0,0,0,0c0,0,0,0,0,0c0,0,0,0,0,0.1c-0.1,0.1-0.4,0.2-0.9,0.3c-0.3,0.2-0.8,0.3-1.2,1
			c-0.5,0.7-0.2,1.7,0.1,2c0,0.1,0,0.1-0.1,0.2c-0.2-0.2-0.4-0.5-0.5-0.8c0.1,0.4,0.2,0.6,0.4,0.9c-0.1,0.1-0.1,0.2-0.1,0.4
			c0,0.1,0,0.1,0,0.2c0,0,0,0-0.1-0.1c0-0.1,0-0.1,0-0.2c0-0.3-0.1-0.5-0.1,0.1c-0.2-0.1-0.4-0.2-0.6-0.2c-0.5-0.1-1,0-1-0.2
			c0,0-0.2,0.2-0.5,0.1l0.2-0.1c-0.1,0-0.3,0-0.3,0c0.2,0,0.3-0.1,0.5-0.1c0,0.1-0.1,0.1-0.2,0.2c0,0,0.1,0.1,0.5-0.4
			c-0.1,0.1-0.3,0.1-0.4,0.2c0.1-0.2,0.2-0.3,0.4-0.5c0,0,0,0,0,0c0.1,0,0.1,0,0.2-0.1c0,0,0.1,0,0.2-0.1v0c0,0,0-0.1,0.1-0.1
			c0.1-0.1,0.1-0.1,0.2-0.4c0-0.2,0-0.4,0-0.6c-0.2-0.6-0.4-0.5-0.5-0.6c0.1,0,0.1,0,0.2,0c-0.4-0.2-0.7-0.1-1.1-0.1
			c0,0,0-0.1,0.1-0.1c0.1-0.2,0.2-0.4,0.2-0.7c0-0.2,0-0.3,0-0.5c0-0.1,0-0.2,0-0.3c0-0.2-0.1-0.3-0.1-0.4c-0.1-0.2-0.2-0.3-0.2-0.4
			c-0.3-0.3-0.4-0.3-0.7-0.5c-0.1-0.1,0.2-0.1,0.4,0c-0.9-0.4-1.5-0.2-2.2-0.2c0,0.1,0.2,0.2,0,0.3c0.2,0,0.5,0.1,0.7,0.1
			c0.3,0.2-0.4,0.2-0.7,0.2c0.2,0,0.3,0,0.5,0.1c0,0,0,0,0,0.1l0.3,0c-0.9,0.1,0.8,0.5,0,0.5c-0.4-0.1-0.8-0.1-0.8-0.1l0,0.8
			c0,0,0,0-0.1,0l-0.2,0.3c-0.6,0.2-0.1-0.2-0.4,0c-0.5,0.1,0.1-0.2,0.2-0.4c-0.1,0-0.2,0.1-0.4,0.2c-0.2,0.1-0.4,0.1-0.7,0.7
			c0.1-0.6,0.9-0.9,0.4-0.6c-0.1,0.1-0.3,0.2-0.5,0.8c0,0.2,0,0.4,0,0.6c0,0.2,0.1,0.5,0.2,0.6c0.1,0.2,0.2,0.2,0.2,0.3
			c-0.1,0.1-0.2,0.1-0.4,0.3c-0.2,0-0.3,0.1-0.2-0.1c-0.2,0.1-0.4,0.3-0.6,0.5c0-0.1,0-0.1,0-0.2c-0.2,0.2-0.5,0.5-0.6,1.3
			c-0.1,0.3,0,0.7,0,1.1c0,0-0.1,0-0.1,0c0,0.1,0.2,0.1,0,0.2c0,0,0.1,0,0.1,0c-0.1,0-0.2,0.1-0.4,0.3c-0.2,0.1-0.4,0.3-0.6,0.8
			c-0.1,0.2-0.1,0.4-0.1,0.6c0,0.1-0.1,0.2-0.1,0.3c0,0.1,0,0.3,0,0.4c0,0.2,0.1,0.4,0.1,0.4c0.1,0.1,0.1,0.1,0.1,0.2c0,0,0,0,0,0.1
			c0,0,0,0,0,0c0-0.1,0-0.2,0,0c-0.1,0-0.1,0.1-0.2,0.1c-0.1,0-0.2,0-0.1,0c-0.1,0.1-0.3,0.2-0.4,0.4c0,0,0-0.1,0-0.1
			c-0.2,0.1-0.4,0.4-0.5,1c-0.1,0.3,0,0.7,0,1c0,0,0,0,0,0c0,0,0,0,0,0c0,0,0,0,0,0c0,0-0.2,0.1-0.3,0.2c-0.1,0.1-0.3,0.2-0.5,0.6
			c-0.2,0.4-0.1,1,0,1.2c0,0,0,0.1,0,0.1c-0.1-0.1-0.2-0.3-0.2-0.5c0,0.2,0.1,0.4,0.2,0.5c0,0.1,0,0.1-0.1,0.2
			c0,0.2,0.1,0.4,0.1,0.5c0,0.2,0.2,0.5,0.3,0.7c0,0-0.1,0-0.1,0.1c-0.2-0.2-0.3-0.7-0.3-0.6c-0.2-0.5-0.1-0.7-0.1-0.5
			c0,0.2,0.1,0.7,0.3,1c0,0,0,0,0.1,0.1c-0.1,0-0.2,0.1-0.2,0.2c-0.1,0.1-0.2,0.2-0.3,0.6c-0.1,0.4,0.1,0.8,0.3,0.9
			c0,0-0.1,0-0.2-0.1c0-0.1-0.1-0.2-0.2-0.5c0-0.3,0.1-0.7,0.2-0.8c-0.1,0.1-0.1,0.1-0.2,0.3c-0.1,0.2-0.1,0.5-0.1,0.7
			c0.1,0.5,0.3,0.6,0.5,0.7c0.3,0.1,0.5,0.1,0.7,0.2c0.1,0,0.1,0,0.2,0c0.1,0.3,0.2,0.5,0.3,0.5c0.1,0.1,0.2,0.1,0.3,0.1
			c0,0,0,0,0,0c0,0.1,0,0.1-0.1,0.2c0,0.1,0,0.6,0.2,0.8c0.1,0.1,0.3,0.2,0.4,0.2c-0.1,0.2,0,0.5,0,0.6c0.1,0.2,0.2,0.3,0.3,0.3
			c0.2,0.1,0.3,0.2,0.5,0.2c0,0,0,0,0,0c0,0,0,0.1,0,0.2c0-0.1,0-0.1,0.1-0.2c0,0,0.1,0,0.1,0c-0.1,0.1-0.1,0.5-0.1,0.6
			c0,0,0-0.1,0-0.1c0.1,0.3,0.4,0.4,0.8,0.4l0,0.1c-0.1,0-0.1,0-0.2,0c0.1,0,0.1,0,0.2,0l0,0.2c0,0,0,0,0,0c0,0,0,0,0,0l0,0.1
			c0,0,0,0,0.1,0c-0.1,0-0.1,0-0.1,0.1c0.2,0,0.5,0,0.7,0c0.1,2,0.1,3.7,0,4.9c-3.8,0.3-7.4,0.6-10.6,0.8c0-2.1-0.1-4-0.2-5.8
			c0,0,0.1,0,0.1,0c0.1,0,0.1,0,0.1,0c0.3-0.1,0.5-0.3,0.6-0.6c0,0,0.1,0,0.1,0c0-0.1,0-0.4-0.2-0.5c0,0,0,0-0.1-0.1
			c-0.1-0.1-0.2-0.1-0.3-0.2c0,0,0,0,0,0c0,0,0,0,0,0l0-0.2c0,0,0,0,0.1,0c0.1,0,0-0.1-0.1-0.1l0-0.2c0.3-0.1,0.3-0.1,0.5-0.2
			c0.1,0,0.2-0.1,0.3-0.1c0,0,0,0.1,0,0.1c0.2-0.1,0.3-0.1,0.5-0.2c0.1-0.1,0.2-0.1,0.2-0.2c0.1-0.1,0.1-0.3,0-0.4
			c-0.1-0.1-0.3-0.1-0.4-0.1c0,0,0-0.1,0.1-0.1c0,0,0.1,0,0.2,0c0,0-0.1,0-0.1,0c0,0,0-0.1,0.1-0.1c0.1,0,0.3,0,0.4,0.1
			c-0.2-0.1-0.3-0.1-0.3-0.1c0,0,0,0,0,0c0.1-0.2,0-0.4,0-0.5c0,0-0.1-0.1-0.1-0.1c0.2,0,0.3-0.1,0.5-0.1l-0.1,0
			c0.4-0.1,0.5-0.1,0.7-0.2c0.1,0,0.2-0.1,0.3-0.2c0.1,0,0.1-0.1,0.2-0.2c0.1-0.1,0.1-0.2,0.1-0.4c0-0.2-0.1-0.5-0.1-0.5
			c0,0,0,0.1,0,0.1c0,0.1,0.1,0.3,0,0.4c-0.1,0.4-0.3,0.4-0.5,0.4c0.1,0,0.1-0.1,0.2-0.1c0.1-0.1,0.2-0.1,0.2-0.4
			c0-0.3-0.2-0.4-0.2-0.4c-0.1,0-0.2-0.1-0.3-0.1c0,0-0.1,0-0.1,0c0.1,0,0.1-0.1,0.2-0.1c0.1-0.1,0.3-0.1,0.4-0.6
			c0-0.2,0-0.3-0.1-0.5l0.1,0l0,0c0.1-0.1,0.2-0.2,0.4-0.4c0.1-0.1,0.2-0.2,0.3-0.4c0.1-0.2,0.1-0.5,0.1-0.6c0,0,0-0.2-0.1-0.3
			c-0.1-0.2-0.2-0.2-0.4-0.3c-0.2-0.1-0.4,0-0.2,0.1c-0.6-0.1-0.4-0.3-1-0.2c0.2-0.2-0.4-0.1-0.1-0.2c0.2,0.1,0.9-0.1,1.3,0
			c-0.3-0.2-0.7-0.2-1-0.2c0.2,0-0.1,0.1-0.2,0.2l-0.1-0.1c0,0-0.1,0.1-0.1,0.1C19.9,56,20,56,20,56c0,0,0.1,0,0.1-0.1
			c0.1-0.1,0.1-0.4,0-0.6c0-0.1,0.1-0.1,0.1-0.2c0-0.2,0-0.5-0.1-0.6c-0.2-0.3-0.5-0.3-0.7-0.3c-0.4,0-0.7,0-0.8-0.1
			c0,0-0.2,0.1-0.3,0.1l0.1-0.1c-0.1,0-0.2,0-0.3,0c0.1,0,0.2-0.1,0.4-0.1c0,0,0,0.1-0.1,0.1c0,0,0.1,0.1,0.4-0.3
			c-0.1,0.1-0.2,0.1-0.3,0.1c0.1-0.1,0.2-0.2,0.3-0.4c0,0,0,0,0,0c0,0,0.1,0,0.1-0.1c0,0,0.1,0,0.1-0.1v0c0,0,0,0,0.1-0.1
			c0-0.1,0.1-0.1,0.1-0.3c0-0.2,0-0.3,0-0.4c-0.2-0.5-0.3-0.4-0.4-0.5c0,0,0.1,0,0.2,0c-0.3-0.1-0.5-0.1-0.8-0.1c0,0,0,0,0-0.1
			c0.1-0.2,0.1-0.3,0.2-0.6c0-0.1,0-0.2,0-0.4c0-0.1,0-0.1,0-0.2c0-0.1-0.1-0.2-0.1-0.3c-0.1-0.2-0.1-0.2-0.2-0.3
			c-0.2-0.2-0.3-0.2-0.6-0.4c-0.1-0.1,0.2,0,0.3,0c-0.7-0.3-1.1-0.2-1.7-0.2c0,0.1,0.2,0.1,0,0.2c0.2,0,0.3,0,0.5,0.1
			C17,50,16.4,50,16.2,50c0.1,0,0.2,0,0.4,0c0,0,0,0,0,0l0.3,0c-0.7,0.1,0.6,0.4,0,0.4c-0.3,0-0.6-0.1-0.6-0.1l0,0.6c0,0,0,0,0,0
			L16,51.3c-0.4,0.2,0-0.2-0.3,0c-0.4,0,0.1-0.1,0.2-0.3c0,0-0.2,0.1-0.3,0.2c-0.1,0.1-0.3,0.1-0.5,0.5c0.1-0.4,0.7-0.7,0.3-0.5
			c-0.1,0.1-0.2,0.1-0.4,0.6c0,0.1,0,0.3,0,0.4c0,0.2,0.1,0.4,0.1,0.4c0.1,0.1,0.1,0.2,0.2,0.2c-0.1,0-0.2,0.1-0.3,0.2
			c-0.1,0-0.2,0-0.1,0c-0.1,0.1-0.3,0.2-0.4,0.4c0,0,0-0.1,0-0.1c-0.2,0.1-0.4,0.4-0.5,1c-0.1,0.3,0,0.7,0,1c0,0,0,0,0,0
			c0,0,0,0,0,0c0,0,0,0,0,0c0,0-0.2,0.1-0.3,0.2c-0.1,0.1-0.3,0.2-0.5,0.6c-0.2,0.4-0.1,1,0,1.2c0,0,0,0.1,0,0.1
			c-0.1-0.1-0.2-0.3-0.2-0.5c0,0.2,0.1,0.4,0.2,0.5c0,0.1,0,0.1-0.1,0.2c0,0.2,0.1,0.4,0.1,0.5c0,0.2,0.2,0.5,0.3,0.7
			c0,0-0.1,0-0.1,0.1c-0.2-0.2-0.3-0.7-0.3-0.6c-0.2-0.5-0.1-0.7-0.1-0.5c0,0.2,0.1,0.7,0.3,1c0,0,0,0,0.1,0.1
			c-0.1,0-0.2,0.1-0.2,0.2c-0.1,0.1-0.2,0.2-0.3,0.6c-0.1,0.4,0.1,0.8,0.3,0.9c0,0-0.1,0-0.2-0.1c0-0.1-0.1-0.2-0.2-0.5
			c0-0.3,0.1-0.7,0.2-0.8c-0.1,0.1-0.1,0.1-0.2,0.3c-0.1,0.2-0.1,0.5-0.1,0.7c0.1,0.5,0.3,0.6,0.5,0.7c0.3,0.1,0.5,0.1,0.7,0.2
			c0.1,0,0.1,0,0.2,0c0.1,0.3,0.2,0.5,0.3,0.5c0.1,0.1,0.2,0.1,0.3,0.1c0,0,0,0,0,0c0,0.1,0,0.1-0.1,0.2c0,0.1,0,0.6,0.2,0.8
			c0.1,0.1,0.3,0.2,0.4,0.2c-0.1,0.2,0,0.5,0,0.6c0.1,0.2,0.2,0.3,0.3,0.3c0.2,0.1,0.3,0.2,0.5,0.2c0,0,0,0,0,0c0,0,0,0.1,0,0.2
			c0-0.1,0-0.1,0.1-0.2c0,0,0.1,0,0.1,0c-0.1,0.1-0.1,0.5-0.1,0.6c0,0,0-0.1,0-0.1c0.1,0.3,0.4,0.4,0.8,0.4l0,0.1
			c-0.1,0-0.1,0-0.2,0c0.1,0,0.1,0,0.2,0l0,0.2c0,0,0,0,0,0c0,0,0,0,0,0l0,0.1c0,0,0,0,0.1,0c-0.1,0-0.1,0-0.1,0.1
			c0.2,0,0.5,0,0.7,0c0.1,2.6,0,4.6,0,5.8c-3,0.2-5.6,0.4-7.6,0.5c-0.1,0-0.3,0-0.4,0c0,0,0.1,0,0.1-0.1c0.1,0,0.1,0,0.2,0
			c0,0-0.1,0-0.2,0c0,0,0.1-0.1,0.1-0.1c0.2,0,0.4,0,0.5,0c-0.3-0.1-0.4-0.1-0.5-0.1c0,0,0,0,0,0c0.1-0.1,0.1-0.3-0.1-0.4
			c0,0-0.1-0.1-0.1-0.1C9.8,71,10,71,10.2,71l-0.1,0c0.5-0.1,0.7-0.1,1-0.2c0.1,0,0.2-0.1,0.4-0.1c0.1,0,0.2-0.1,0.3-0.2
			c0.1-0.1,0.1-0.1,0.2-0.3c0-0.1-0.1-0.3-0.2-0.4c-0.1,0,0,0,0,0.1c0,0,0.1,0.2,0.1,0.3c-0.2,0.3-0.4,0.3-0.7,0.3
			c0.1,0,0.2-0.1,0.3-0.1c0.1,0,0.3-0.1,0.3-0.3c0-0.2-0.2-0.3-0.3-0.3c-0.1,0-0.2,0-0.4-0.1c0,0-0.1,0-0.1,0c0.1,0,0.2-0.1,0.3-0.1
			c0.2-0.1,0.4-0.1,0.6-0.4c0-0.1,0-0.3-0.1-0.3l0.1,0l-0.1,0c0.1-0.1,0.3-0.1,0.6-0.3c0.1-0.1,0.3-0.1,0.4-0.3
			c0.1-0.1,0.2-0.3,0.1-0.5c0,0-0.1-0.1-0.2-0.2c-0.2-0.1-0.3-0.2-0.5-0.2c-0.3,0-0.5,0-0.4,0.1c-0.9-0.1-0.5-0.2-1.4-0.1
			c0.3-0.1-0.6-0.1-0.2-0.2c0.3,0.1,1.2-0.1,1.8,0c-0.5-0.1-0.9-0.1-1.4-0.2c0.3,0-0.1,0.1-0.3,0.1l-0.2-0.1c0,0-0.1,0-0.2,0.1
			c0.3-0.1,0.3-0.2,0.4-0.2c0,0,0.1,0,0.2-0.1c0.1-0.1,0.2-0.3,0-0.5c0.1,0,0.1-0.1,0.1-0.2c0.1-0.2,0-0.4-0.2-0.5
			c-0.3-0.2-0.7-0.2-1-0.2c-0.6,0-1,0-1.1-0.1c0,0-0.2,0.1-0.5,0.1l0.2-0.1c-0.1,0-0.3,0-0.4,0c0.2,0,0.3,0,0.5-0.1
			c0,0-0.1,0.1-0.2,0.1c0,0,0.2,0,0.5-0.2c-0.2,0.1-0.3,0.1-0.4,0.1c0.1-0.1,0.3-0.2,0.4-0.3c0,0,0,0,0,0c0.1,0,0.1,0,0.2,0
			c0.1,0,0.1,0,0.2-0.1c0,0,0.1,0,0.1,0c0.1-0.1,0.1-0.1,0.2-0.2c0.1-0.1,0-0.2,0-0.3c-0.2-0.3-0.4-0.3-0.6-0.3c0.1,0,0.1,0,0.2,0
			c-0.4-0.1-0.8-0.1-1.1-0.1c0,0,0,0,0.1-0.1c0.1-0.1,0.2-0.2,0.2-0.4c0-0.1,0-0.2,0-0.3c0-0.1,0-0.1,0-0.1c0-0.1-0.1-0.2-0.1-0.2
			c-0.1-0.1-0.2-0.2-0.2-0.2c-0.3-0.2-0.5-0.2-0.8-0.3c-0.1-0.1,0.2,0,0.4,0c-1-0.2-1.6-0.1-2.4-0.1c0,0.1,0.2,0.1,0,0.2
			c0.2,0,0.5,0,0.7,0.1C6,62.7,5.3,62.7,5,62.7c0.2,0,0.3,0,0.5,0c0,0,0,0,0,0l0.4,0c-1,0.1,0.9,0.3,0,0.3c-0.5,0-0.9,0-0.9,0l0,0.4
			c0,0,0,0-0.1,0l-0.2,0.2c-0.6,0.1-0.1-0.1-0.4,0c-0.6,0,0.2-0.1,0.2-0.2c-0.1,0-0.2,0.1-0.4,0.1c-0.2,0.1-0.4,0.1-0.7,0.4
			c0.1-0.3,1-0.5,0.4-0.4c-0.1,0.1-0.3,0.1-0.5,0.5c0,0.1-0.1,0.2,0,0.3c0,0.1,0.1,0.3,0.2,0.3c0.1,0.1,0.2,0.1,0.2,0.2
			c-0.1,0-0.3,0.1-0.4,0.1c-0.2,0-0.3,0-0.2,0C2.9,65,2.7,65,2.5,65.2c0,0,0-0.1,0-0.1c-0.2,0.1-0.5,0.3-0.7,0.7
			c-0.1,0.2-0.1,0.5,0.1,0.7c0,0,0,0,0,0c0,0,0,0,0,0c0,0,0,0,0,0c-0.1,0-0.2,0.1-0.5,0.1c-0.2,0.1-0.4,0.1-0.7,0.4
			c-0.3,0.3-0.1,0.7,0.1,0.9c0,0,0,0.1,0,0.1c-0.1,0-0.1-0.1-0.1-0.1c0,0.1,0.1,0.1,0.1,0.2c0,0.1-0.1,0.1-0.1,0.2
			c0,0.1,0.1,0.3,0.1,0.3c0,0.2,0.2,0.4,0.4,0.5c-0.1,0-0.1,0-0.2,0c-0.3-0.1-0.5-0.5-0.4-0.4c-0.2-0.4-0.2-0.5-0.2-0.3
			c0,0.1,0.1,0.5,0.4,0.7c0,0,0.1,0,0.1,0.1c-0.1,0-0.2,0.1-0.4,0.1c-0.1,0.1-0.3,0.1-0.5,0.4c-0.1,0.3,0.2,0.6,0.4,0.6
			c-0.1,0-0.1,0-0.2-0.1c-0.1,0-0.2-0.1-0.2-0.4c0-0.2,0.1-0.4,0.2-0.5c0,0-0.1,0-0.1,0.1C0,69.7,0,70,0,70.1z M1125,64.8
			C1125,64.8,1124.9,64.8,1125,64.8C1124.9,64.8,1125,64.8,1125,64.8C1125,64.8,1125,64.8,1125,64.8C1125,64.8,1125,64.8,1125,64.8z
			 M1125.8,71.3C1125.8,71.2,1125.9,71.2,1125.8,71.3C1125.9,71.2,1125.9,71.2,1125.8,71.3c0.1,0,0.1,0.1,0.1,0.1
			C1125.9,71.3,1125.9,71.3,1125.8,71.3z M1078,50.2c0,0,0.1-0.1,0.1-0.1c0,0,0,0,0.1-0.1c0,0.1,0,0.2,0,0.3
			C1078.2,50.3,1078.1,50.2,1078,50.2z M1078.2,49.4c0,0.1,0.1,0.2,0.1,0.3c0,0.1-0.1,0.1-0.1,0.2c-0.1,0.1-0.2,0.2-0.3,0.3
			c-0.1,0-0.2-0.1-0.3-0.1C1077.8,49.9,1078,49.6,1078.2,49.4z M1081.1,63.2c0,0.1,0,0.2,0,0.4c0,0,0,0,0,0c-0.3-0.1-0.2-0.1,0,0
			c0,0,0,0,0,0.1c-0.1-0.1-0.2-0.1-0.3-0.1c-0.2-0.1-0.4-0.1-0.4-0.1c0.1,0.1,0.8,0.2,0.2,0.2c-0.3-0.1,0.2,0.1-0.4,0l-0.2-0.2
			c0,0,0,0-0.1,0l0-0.4c0,0-0.4,0-0.9,0c-0.9,0,1-0.2,0-0.3l0.4,0c0,0-0.1,0,0,0c0.2,0,0.3,0,0.5,0c-0.3,0-1,0-0.7-0.1
			c0.2,0,0.5,0,0.7-0.1c-0.2-0.1,0.1-0.1,0-0.2c-0.8,0-1.4-0.1-2.4,0.1c0.2,0,0.5,0,0.4,0c-0.3,0.1-0.5,0.1-0.8,0.3
			c-0.1,0.1-0.1,0.1-0.2,0.2c0,0.1-0.1,0.1-0.1,0.2c0,0,0,0.1,0,0.1c0,0.1,0,0.2,0,0.3c0,0.2,0.1,0.3,0.2,0.4c0,0,0,0,0.1,0.1
			c-0.4,0-0.7,0-1.1,0.1c0.1,0,0.2,0,0.2,0c-0.1,0.1-0.3,0-0.6,0.3c0,0.1-0.1,0.2,0,0.3c0.1,0.1,0.1,0.2,0.2,0.2c0,0,0.1,0,0.1,0
			c0.1,0,0.1,0,0.2,0.1c0.1,0,0.1,0,0.2,0c0,0,0,0,0,0c0.1,0.1,0.3,0.2,0.4,0.3c-0.1,0-0.3,0-0.4-0.1c0.4,0.3,0.6,0.2,0.5,0.2
			c-0.1,0-0.2-0.1-0.2-0.1c0.2,0,0.4,0,0.5,0.1c-0.1,0-0.2,0-0.4,0l0.2,0.1c-0.3,0-0.5-0.1-0.5-0.1c0,0.1-0.5,0.1-1.1,0.1
			c-0.1,0-0.2,0-0.2,0c-0.2-0.3-0.4-0.5-0.6-0.5c0,0,0,0.1,0,0.1c-0.2-0.2-0.4-0.2-0.6-0.3c0.2,0.1,0,0-0.2,0
			c-0.1-0.1-0.3-0.1-0.4-0.1c0.1,0,0.1-0.1,0.2-0.2c0.1,0,0.2-0.2,0.2-0.3c0-0.1,0-0.2,0-0.3c-0.2-0.4-0.4-0.4-0.5-0.5
			c-0.6-0.1,0.3,0,0.4,0.4c-0.3-0.3-0.5-0.3-0.7-0.4c-0.2-0.1-0.4-0.1-0.4-0.1c0.1,0.1,0.8,0.2,0.2,0.2c-0.3-0.1,0.2,0.1-0.4,0
			l-0.2-0.2c0,0,0,0-0.1,0l0-0.4c0,0-0.4,0-0.9,0c-0.9,0,1-0.2,0-0.3l0.4,0c0,0-0.1,0,0,0c0.2,0,0.3,0,0.5,0c-0.3,0-1,0-0.7-0.1
			c0.2,0,0.5,0,0.7-0.1c-0.2-0.1,0.1-0.1,0-0.2c-0.8,0-1.4-0.1-2.4,0.1c0.2,0,0.5,0,0.4,0c-0.3,0.1-0.5,0.1-0.8,0.3
			c-0.1,0.1-0.1,0.1-0.2,0.2c0,0.1-0.1,0.1-0.1,0.2c0,0,0,0.1,0,0.1c0,0.1,0,0.2,0,0.3c0,0.2,0.1,0.3,0.2,0.4c0,0,0,0,0.1,0.1
			c-0.4,0-0.7,0-1.1,0.1c0.1,0,0.2,0,0.2,0c-0.1,0.1-0.3,0-0.6,0.3c0,0.1-0.1,0.2,0,0.3c0.1,0.1,0.1,0.2,0.2,0.2c0,0,0.1,0,0.1,0
			c0.1,0,0.1,0,0.2,0.1c0.1,0,0.1,0,0.2,0c0,0,0,0,0,0c0.1,0.1,0.3,0.2,0.4,0.3c-0.1,0-0.3,0-0.4-0.1c0.4,0.3,0.6,0.2,0.5,0.2
			c-0.1,0-0.2-0.1-0.2-0.1c0.2,0,0.4,0,0.5,0.1c-0.1,0-0.2,0-0.4,0l0.2,0.1c-0.3,0-0.5-0.1-0.5-0.1c0,0.1-0.5,0.1-1.1,0.1
			c-0.1,0-0.1,0-0.2,0c0-1.4,0-2.9,0.1-4.5c0.7,0.1,1.4,0.1,1.9,0c-0.1-0.1-0.2-0.1-0.3-0.1c0.2,0,0.3,0,0.3,0l0-0.2c0,0,0,0,0.1,0
			c0,0,0,0-0.1,0l0-0.3c0.2,0,0.3,0,0.5,0c-0.2,0-0.3,0-0.5,0l0-0.1c0.9-0.1,1.7-0.3,2-0.7c0,0,0,0.1,0,0.1c0.2-0.2,0.2-0.8-0.2-1
			c0.1,0,0.2,0,0.3,0c0.1,0.1,0.2,0.3,0.2,0.5c0,0.3-0.1,0.6-0.3,0.7c0.3-0.3,0.4-0.8,0.1-1.1c0,0,0,0,0-0.1
			c0.4-0.1,0.8-0.2,1.3-0.4c0.2-0.1,0.4-0.2,0.6-0.6c0.2-0.2,0.2-0.7,0.1-1.1c0.3,0,0.6-0.1,1-0.3c0.6-0.3,0.6-1.1,0.6-1.4
			c-0.1-0.1-0.1-0.2-0.2-0.3c0,0,0.1,0,0.1-0.1c0.2,0,0.4,0,0.7-0.2c0.2-0.1,0.6-0.4,0.7-0.9c0.1,0,0.1,0,0.2,0c0,0,0.1,0.1,0.1,0.1
			c0.2,0.2,0.4,0.4,0.6,0.5l0,0l0.1,0c-0.1,0.2-0.1,0.4-0.1,0.6c0.2,0.6,0.4,0.6,0.5,0.8c0.1,0.1,0.2,0.1,0.3,0.2c0,0-0.1,0-0.1,0
			c-0.1,0-0.2,0-0.3,0.1c-0.1,0-0.3,0.2-0.3,0.6c0,0.3,0.2,0.4,0.3,0.5c0.1,0.1,0.2,0.1,0.3,0.2c-0.2-0.1-0.5-0.1-0.6-0.6
			c-0.1-0.2,0-0.5,0.1-0.6c0-0.1,0.1-0.2,0-0.2c-0.1,0.1-0.2,0.5-0.2,0.7c0,0.3,0.1,0.4,0.2,0.5c0.1,0.2,0.2,0.3,0.3,0.3
			c0.2,0.1,0.3,0.2,0.4,0.2c0.2,0.1,0.4,0.2,0.9,0.3l-0.1,0c0.2,0,0.4,0,0.6,0.1c0,0-0.1,0.1-0.1,0.1c-0.1,0.2-0.1,0.5-0.1,0.7
			c0,0,0,0,0,0c-0.1,0-0.2,0-0.5,0.1c0.1-0.1,0.3-0.1,0.5-0.1c0,0.1,0.1,0.1,0.1,0.2c-0.1,0-0.2,0-0.2,0c0.1,0,0.1,0,0.2,0
			c0,0,0.1,0.1,0.1,0.1c-0.2,0-0.4,0-0.6,0.1c-0.2,0.1-0.1,0.5,0,0.5c0.1,0.1,0.2,0.2,0.3,0.3c0.2,0.1,0.4,0.2,0.7,0.3
			c-0.1-0.1-0.1-0.1,0-0.2c0.1,0,0.2,0.1,0.4,0.1c0.2,0.1,0.3,0.2,0.6,0.3l0,0.2c-0.1,0-0.2,0.1-0.1,0.1c0,0,0.1,0,0.1,0l0,0.3
			c0,0,0,0-0.1,0c0,0,0,0,0,0c-0.1,0.1-0.2,0.1-0.3,0.2c0,0-0.1,0-0.1,0.1c-0.2,0.2-0.2,0.5-0.2,0.7c0,0,0.1,0.1,0.1,0.1
			c0.1,0.4,0.4,0.7,0.8,0.8c0,0,0,0,0.1,0.1C1081,63.2,1081.1,63.2,1081.1,63.2z M1056.3,70.7C1056.3,70.7,1056.4,70.7,1056.3,70.7
			c0.1-0.1,0.1-0.1,0.1-0.1l0,0.2C1056.4,70.8,1056.4,70.8,1056.3,70.7z M1007.9,63C1007.9,63,1007.9,63,1007.9,63
			C1008,63,1008,63,1007.9,63C1007.9,63,1007.9,63,1007.9,63z M1013.3,57.3C1013.3,57.2,1013.3,57.2,1013.3,57.3
			C1013.3,57.2,1013.3,57.2,1013.3,57.3z M1009.9,65.6C1009.9,65.6,1009.9,65.6,1009.9,65.6L1009.9,65.6
			C1009.9,65.6,1009.9,65.6,1009.9,65.6z M1009.7,65.6c0.1,0,0.2,0,0.3,0c0,0,0,0,0,0C1009.8,65.6,1009.8,65.6,1009.7,65.6z
			 M1012.8,57.3C1012.9,57.2,1012.9,57.2,1012.8,57.3C1012.9,57.2,1012.9,57.2,1012.8,57.3C1012.9,57.3,1012.9,57.3,1012.8,57.3z
			 M1005.9,39c0.1,0,0.3,0,0.4,0c0,0,0,0,0,0c0,0.1,0,0.1,0,0.2c-0.1,0-0.3,0-0.4,0V39z M1010.4,39.5c-0.3-0.1-0.5-0.1-0.8-0.1
			c-0.5-0.2-1.2-0.4-2-0.5l0.2,0l-0.2,0c-0.4-0.1-0.9-0.1-1.3-0.1c-0.2,0-0.3,0-0.5,0v-0.8c0.4,0,0.8,0.1,1.1,0.1l-0.2-0.1
			c0.2-0.1,0.7,0,0.9,0.1c0,0,0,0.1,0,0.1c0.2,0.3,0.3,0.3,0.4,0.4c0.2,0.1,0.4,0.2,0.5,0.3c0.2,0.1-0.1-0.1-0.2-0.2
			c0.4,0.2,0.7,0.2,1.2,0.3c0.1,0.1,0.2,0.1,0.4,0.2c0,0.1-0.5-0.1-0.7-0.2c0,0.1,0.2,0.1,0.5,0.3
			C1009.8,39.4,1010,39.4,1010.4,39.5C1010.4,39.5,1010.4,39.5,1010.4,39.5z M1011.1,57.5c0.3,0,0.5,0,0.7,0c0.1,0,0.1,0,0.2,0
			c0,0.1,0,0.1,0,0c0.1,0,0.1,0,0.2,0l0,0.3c0,0,0,0-0.1,0l-0.2,0.2c-0.6,0.1-0.1-0.1-0.4,0c-0.6,0,0.2-0.1,0.2-0.2
			c-0.1,0-0.2,0.1-0.4,0.1c-0.2,0.1-0.4,0.1-0.7,0.4c0.1-0.3,1-0.5,0.4-0.4c-0.1,0.1-0.3,0.1-0.5,0.5c0,0.1-0.1,0.2,0,0.3
			c0,0.1,0.1,0.3,0.2,0.3c0.1,0.1,0.2,0.1,0.2,0.2c-0.1,0-0.3,0.1-0.4,0.1c-0.2,0-0.3,0-0.2,0c-0.2,0.1-0.4,0.2-0.6,0.3
			c0,0,0-0.1,0-0.1c-0.2,0.1-0.5,0.3-0.7,0.7c-0.1,0.2-0.1,0.5,0.1,0.7c0,0,0,0,0,0c0,0,0,0,0,0c0,0,0,0,0,0c-0.1,0-0.2,0.1-0.5,0.1
			c-0.2,0.1-0.4,0.1-0.7,0.4c-0.3,0.3-0.1,0.7,0.1,0.9c0,0,0,0.1,0,0.1c-0.1,0-0.1-0.1-0.1-0.1c0,0,0.1,0.1,0.1,0.1
			c-0.4,0-0.7,0-1.1,0c0,0.1,0.2,0.1,0,0.2c0.2,0,0.5,0,0.7,0.1c0.3,0.1-0.4,0.1-0.7,0.1c0.2,0,0.3,0,0.5,0c0,0,0,0,0,0l0.4,0
			c0,0,0,0,0,0c-0.5,0-0.2,0.1,0.1,0.2c0,0,0,0.1,0.1,0.1c0,0-0.1,0-0.1,0c-0.5,0-0.9,0-0.9,0l0,0.4c0,0,0,0-0.1,0l-0.2,0.2
			c-0.6,0.1-0.1-0.1-0.4,0c-0.6,0,0.2-0.1,0.2-0.2c-0.1,0-0.2,0.1-0.4,0.1c-0.1,0-0.1,0-0.2,0.1v-0.1c0,0,0,0,0,0v-1.3
			c0.5-1,1-1.9,1.6-2.6c0.3,0.1,0.6,0.1,0.9,0.1c-0.1-0.1-0.5-0.2-0.9-0.2c0,0,0-0.1,0.1-0.1c0,0,0.1,0,0.1,0c0,0-0.1,0-0.1,0
			c0.2-0.2,0.3-0.5,0.5-0.7c0.3,0,0.4,0.1,0.4,0.1l0.1-0.6c0,0,0.1,0,0.1,0c0.1,0.1,0.2,0.2,0.4,0.3l0.3,0.2l0.1,0.1l0,0v0
			c0-0.1,0-0.1,0-0.2l0,0v0c0,0,0-0.1,0-0.1l0,0l0,0c0,0,0,0,0-0.1l0,0l0,0l0,0l0.1,0l0.1,0l0.1,0l0,0l0,0l0,0h0c0,0.1,0,0.1,0,0.1
			c0-0.1,0.1-0.4,0.2-1.1c0.3,0.1,0.6,0.1,1.1,0.1C1011.6,57.6,1011.1,57.6,1011.1,57.5z M1038.5,51.8c-0.1,1.4-0.2,2.7-0.2,4.2
			c-0.2-0.1-0.5-0.1-0.8-0.2c-0.2-0.1,0.4-0.1,0.7,0c-1.7-0.4-2.7-0.2-4-0.2c-0.1,0.1,0.4,0.2,0.1,0.3c0.4,0,0.8,0.1,1.2,0.1
			c0.6,0.2-0.7,0.1-1.2,0.2c0.3,0,0.6,0,0.8,0c0,0,0,0-0.1,0l0.6,0c-1.7,0.1,1.5,0.4,0,0.5c-0.8-0.1-1.5-0.1-1.5-0.1l0.1,0.7
			c0,0-0.1,0-0.1,0l-0.4,0.3c-1,0.2-0.1-0.2-0.7,0c-1,0.1,0.3-0.2,0.4-0.4c-0.1,0-0.4,0.1-0.7,0.2c-0.3,0.1-0.7,0.1-1.2,0.6
			c0.2-0.5,1.6-0.8,0.7-0.6c-0.2,0.1-0.6,0.2-0.9,0.8c-0.1,0.2-0.1,0.3,0,0.5c0,0.2,0.2,0.5,0.3,0.5c0.2,0.2,0.3,0.2,0.4,0.3
			c-0.2,0.1-0.4,0.1-0.7,0.3c-0.3,0-0.6,0.1-0.3-0.1c-0.3,0.1-0.6,0.3-1,0.5c0-0.1,0-0.1,0-0.1c-0.4,0.2-0.9,0.5-1.2,1.2
			c-0.1,0.3-0.1,0.8,0.1,1.2c0,0,0,0,0,0c0,0,0,0,0,0c0,0,0,0,0,0.1c-0.1,0-0.4,0.1-0.8,0.2c-0.3,0.1-0.8,0.2-1.2,0.8
			c-0.4,0.5-0.2,1.3,0.1,1.5c0,0.1,0,0.1-0.1,0.2c-0.2-0.2-0.4-0.4-0.4-0.6c0.1,0.3,0.2,0.5,0.4,0.6c-0.1,0.1-0.1,0.2-0.1,0.3
			c0,0.2,0.2,0.5,0.2,0.6c0,0.3,0.4,0.7,0.7,0.9c-0.1,0-0.2,0-0.3,0.1c-0.5-0.2-0.8-0.8-0.7-0.7c-0.4-0.6-0.3-0.8-0.3-0.6
			c0,0.2,0.3,0.9,0.8,1.3c0,0,0.1,0.1,0.1,0.1c-0.2,0.1-0.4,0.1-0.6,0.2c-0.1,0-0.1,0.1-0.2,0.1c-0.1,0-0.3,0-0.4,0.1
			c0.1-0.1,0.1-0.1,0.2-0.2c-0.1,0-0.2,0.1-0.3,0.2c-0.3,0.1-0.7,0.1-1.1,0.2c-0.1-2.4-0.2-4.8-0.4-7c0.1,0,0.1,0,0.2-0.1
			c0.2,0,0.3-0.1,0.3-0.1c0.7-0.2,1.3-0.5,1.5-1c0.1,0,0.1,0,0.2-0.1c0-0.2-0.1-0.6-0.4-0.8c0,0-0.1-0.1-0.1-0.1
			c-0.2-0.1-0.4-0.2-0.6-0.3c0,0,0.1,0,0.1,0c0,0-0.1,0-0.1,0l0-0.4c0.1,0,0.1,0,0.2,0c0.3-0.1,0.1-0.1-0.2-0.1l0-0.3
			c0.7-0.1,0.8-0.2,1.2-0.4c0.2,0,0.5-0.1,0.7-0.1c0.1,0,0.1,0.1,0,0.2c0.4-0.1,0.8-0.2,1.3-0.4c0.2-0.1,0.4-0.2,0.6-0.3
			c0.2-0.1,0.4-0.5,0.1-0.7c-0.4-0.1-0.7-0.2-1.1-0.1c0.1-0.1,0.1-0.1,0.2-0.2c0.1,0,0.2,0,0.4,0c0,0-0.2,0-0.4,0
			c0.1-0.1,0.1-0.1,0.2-0.2c0.3,0,0.7,0,0.9,0.1c-0.5-0.2-0.7-0.2-0.9-0.2c0,0,0,0,0,0c0.1-0.3,0.1-0.7-0.1-0.9
			c-0.1-0.1-0.2-0.1-0.2-0.2c0.4-0.1,0.8-0.1,1.2-0.1l-0.2,0c0.9-0.2,1.3-0.2,1.7-0.4c0.2-0.1,0.4-0.1,0.7-0.3
			c0.1-0.1,0.3-0.2,0.6-0.4c0.1-0.2,0.3-0.3,0.3-0.6c0.1-0.3-0.2-0.8-0.4-0.9c-0.1,0-0.1,0.1,0,0.2c0.1,0.1,0.2,0.4,0.1,0.7
			c-0.3,0.6-0.8,0.6-1.2,0.7c0.2-0.1,0.4-0.1,0.6-0.2c0.2-0.1,0.5-0.2,0.5-0.6c0.1-0.5-0.4-0.7-0.6-0.7c-0.2-0.1-0.4-0.1-0.7-0.1
			c-0.1,0-0.2,0-0.2,0c0.2-0.1,0.3-0.2,0.5-0.2c0.3-0.2,0.7-0.2,1-1c0-0.3,0-0.6-0.2-0.8l0.1-0.1l-0.1,0c0.2-0.1,0.6-0.3,1.1-0.6
			c0.2-0.2,0.5-0.3,0.7-0.6c0.2-0.3,0.3-0.8,0.2-1c0,0.1-0.1-0.3-0.4-0.5c-0.3-0.3-0.6-0.4-0.9-0.4c-0.6-0.1-1,0-0.6,0.2
			c-1.6-0.2-1-0.6-2.5-0.3c0.6-0.3-1-0.2-0.4-0.4c0.5,0.2,2.2-0.1,3.2,0c-0.9-0.3-1.7-0.3-2.5-0.4c0.6,0.1-0.3,0.2-0.6,0.3l-0.3-0.2
			c0,0.1-0.2,0.1-0.3,0.1c0.5-0.3,0.6-0.3,0.8-0.4c0.1,0,0.2-0.1,0.3-0.2c0.1-0.1,0.3-0.6,0-1.1c0.1-0.1,0.2-0.2,0.2-0.4
			c0.1-0.4-0.1-0.8-0.4-1c-0.6-0.5-1.2-0.5-1.7-0.6c-1-0.1-1.9,0-1.9-0.2c0,0.1-0.4,0.2-0.9,0.2l0.3-0.1c-0.3,0-0.5,0-0.7,0
			c0.3-0.1,0.6-0.1,1-0.2c-0.1,0.1-0.1,0.2-0.3,0.2c-0.1,0,0.3,0.1,0.9-0.5c-0.3,0.2-0.5,0.2-0.8,0.2c0.2-0.2,0.5-0.4,0.7-0.7
			c0,0,0,0,0,0c0.1,0,0.2,0,0.4-0.1c0.1,0,0.2-0.1,0.3-0.1v0c0,0,0.1-0.1,0.1-0.1c0.1-0.1,0.2-0.2,0.3-0.5c0-0.1,0-0.1,0-0.1
			c0.1,0,0.2,0.1,0.3,0.1c0.6,0.2,1,0.3,1.4,0.4c-0.2-0.1-0.7-0.3-1.1-0.6c-0.4-0.3-0.6-0.5-0.2-0.4c-0.1-0.1-0.3-0.1-0.4-0.2
			c-0.2-0.4-0.4-0.5-0.6-0.5c0,0,0-0.1-0.1-0.1c0.1,0,0.1,0,0.2,0c-0.1,0-0.2,0-0.2-0.1c-0.1-0.1-0.2-0.2-0.3-0.4
			c-0.3-0.5-0.4-1.2-0.3-2c0.2-0.8,0.6-1.3,1-1.6c1.4-1,1.9-0.8,2.6-1.1c0.1,0.1-0.4,0.2-0.6,0.3c0.7-0.1,1-0.3,1.6-0.3
			c0,0,0.1,0,0.1,0.1c-0.2,0.1-0.4,0.1,0,0.1c0,0,0.1,0,0.1,0c0.1,0,0.1,0.1,0.2,0.1c0,0.2-0.1,0.4-0.1,0.6c-0.1,0-0.2,0-0.4,0
			c0.1,0,0.3,0,0.4,0c0,0.1,0,0.2,0,0.3c-0.1,0-0.3,0-0.4,0.1c0.1-0.2,0-0.3-0.4-0.3c-0.6,0.1-1.1,0.2-1.7,0.4
			c-0.3,0.2-0.7,0.3-1.1,0.8c-0.4,0.5-0.6,1.4-0.3,1.9c0.5,1.1,1,1.1,1.3,1.3c0.3,0.1,0.6,0.2,0.8,0.2c0.1,0,0.2,0.1,0.3,0.1
			c-0.4,0.1,1.4,0.8,2,1.1c0-0.1,0.2-0.1,0.4-0.1c0,0.2,0,0.4-0.1,0.6c-0.9-0.3-0.4-0.3-1-0.7c-0.8-0.2-1.5-0.5-2.4-1
			c0.2,0.2,0.4,0.3,0.5,0.4c-0.6-0.3-1.5-0.4-2.2-2c-0.2-0.8,0.1-1.6,0.4-1.9c0.2-0.3,0.3-0.4,0.3-0.4c-0.4,0.2-1,1.1-0.9,1.9
			c0.1,0.9,0.6,1.5,0.9,1.8c0.7,0.6,1.1,0.7,1.5,0.9c-0.3-0.1-0.6-0.2-1-0.4c0.9,0.6,1.1,0.5,1.3,0.6c0.3,0,0.5,0,1.4,0.3
			c-0.7,0.1,0.2,0.1,0.8,0.3c-0.5,0.1-3-0.8-2.6-0.4c0.7,0.4,2,0.4,3,0.6c0,0.2,0,0.3,0,0.5c-0.1,0-0.3,0-0.4,0
			c0.1,0,0.3,0.1,0.4,0.1c0,0.1,0,0.1,0,0.2c-1.1,0.1-1.8,0.4-1.8,0.8c0,0.4,0.6,0.8,1.6,1.1c-0.1,0.5-0.1,0.8-0.1,0.6l0,0l0,0
			c0-0.2,0-0.4,0.1-0.5c0,0.1,0,0.2,0.1,0.2c0,0,0,0.1,0,0.1c0,0,0,0,0,0.1l0,0l0,0h0c0,0.1,0,0.1,0,0.2l0,0l0.2,0
			c0.4,0.8,0.9,1.1,1.3,1.3c0.4,0.2,0.7,0.4,1,0.5c0.6,0.2,1,0.4,1.3,0.5c-0.2,1.3-0.2,1.8-0.3,1.8c0,0,0-0.2,0.1-0.4h0h0l0,0l0,0
			l0,0l0.1,0c0,0.1,0,0.1-0.1,0.2c-0.2,0.6,0,1.2,0.3,1.7c0.2,0.6,0.6,1,0.9,1.3c-1.2-0.6-1.3-1.1-1.2-0.9c0.1,0.1,0.3,0.6-0.4-0.3
			C1036,51.3,1037.7,51.8,1038.5,51.8z M1043.8,63.8C1043.8,63.8,1043.8,63.8,1043.8,63.8c-0.1,0-0.1,0-0.1,0l-0.3,0.1l-0.3-0.1
			c0,0-0.1,0.1-0.3,0.1c0,0,0,0,0,0c0.3-0.1,0.4-0.2,0.5-0.2C1043.5,63.6,1043.6,63.7,1043.8,63.8z M1022.7,68.2c0-0.1,0-0.2,0-0.2
			c0,0-0.1-0.1-0.2-0.2c-0.2-0.1-0.3-0.2-0.5-0.2c-0.3,0-0.5,0-0.4,0.1c-0.9-0.1-0.5-0.2-1.4-0.1c0.3-0.1-0.6-0.1-0.2-0.2
			c0.3,0.1,1.2-0.1,1.8,0c-0.5-0.1-0.9-0.1-1.4-0.2c0.3,0-0.1,0.1-0.3,0.1l-0.2-0.1c0,0-0.1,0-0.2,0.1c0.3-0.1,0.3-0.2,0.4-0.2
			c0,0,0.1,0,0.2-0.1c0.1-0.1,0.2-0.3,0-0.5c0.1,0,0.1-0.1,0.1-0.2c0.1-0.2,0-0.4-0.2-0.5c-0.3-0.2-0.7-0.2-1-0.2
			c-0.6,0-1,0-1.1-0.1c0,0-0.2,0.1-0.5,0.1l0.2-0.1c-0.1,0-0.3,0-0.4,0c0.2,0,0.3,0,0.5-0.1c0,0-0.1,0.1-0.2,0.1c0,0,0.2,0,0.5-0.2
			c-0.2,0.1-0.3,0.1-0.4,0.1c0.1-0.1,0.3-0.2,0.4-0.3c0,0,0,0,0,0c0.1,0,0.1,0,0.2,0c0,0,0.1,0,0.2-0.1c0,0,0.1,0,0.1,0
			c0.1-0.1,0.1-0.1,0.2-0.2c0,0,0,0,0,0c0,0,0,0,0,0c0.1-0.1,0.1-0.1,0.2-0.3c0-0.1-0.1-0.3-0.2-0.4c-0.1,0,0,0,0,0.1
			c0,0,0.1,0.2,0.1,0.3c0,0,0,0-0.1,0.1c0,0,0,0,0-0.1c0,0,0,0,0-0.1c0-0.2-0.2-0.3-0.3-0.3c-0.1,0-0.2,0-0.4-0.1c0,0-0.1,0-0.1,0
			c0.1,0,0.2-0.1,0.3-0.1c0.2-0.1,0.4-0.1,0.6-0.4c0-0.1,0-0.2-0.1-0.3l0.1,0l-0.1,0c0.1-0.1,0.3-0.1,0.6-0.3
			c0.1-0.1,0.3-0.1,0.4-0.3c0.1-0.1,0.2-0.3,0.1-0.5c0,0-0.1-0.1-0.2-0.2c-0.2-0.1-0.3-0.2-0.5-0.2c-0.3,0-0.5,0-0.4,0.1
			c-0.9-0.1-0.5-0.2-1.4-0.1c0.3-0.1-0.6-0.1-0.2-0.2c0.3,0.1,1.2-0.1,1.8,0c-0.5-0.1-0.9-0.1-1.4-0.2c0.3,0-0.1,0.1-0.3,0.1
			l-0.2-0.1c0,0-0.1,0-0.2,0.1c0.3-0.1,0.3-0.2,0.4-0.2c0,0,0.1,0,0.2-0.1c0.1-0.1,0.2-0.3,0-0.5c0.1,0,0.1-0.1,0.1-0.2
			c0.1-0.2,0-0.4-0.2-0.5c-0.3-0.2-0.7-0.2-1-0.2c-0.6,0-1,0-1.1-0.1c0,0-0.2,0.1-0.5,0.1l0.2-0.1c-0.1,0-0.3,0-0.4,0
			c0.2,0,0.3,0,0.5-0.1c0,0-0.1,0.1-0.2,0.1c0,0,0.2,0,0.5-0.2c-0.2,0.1-0.3,0.1-0.4,0.1c0.1-0.1,0.3-0.2,0.4-0.3c0,0,0,0,0,0
			c0.1,0,0.1,0,0.2,0c0.1,0,0.1,0,0.2-0.1c0,0,0.1,0,0.1,0c0.1-0.1,0.1-0.1,0.2-0.2c0.1-0.1,0-0.2,0-0.3c-0.2-0.3-0.4-0.3-0.6-0.3
			c0.1,0,0.1,0,0.2,0c-0.4-0.1-0.8-0.1-1.1-0.1c0,0,0,0,0.1-0.1c0.1-0.1,0.2-0.2,0.2-0.4c0-0.1,0-0.2,0-0.3c0-0.1,0-0.1,0-0.1
			c0-0.1-0.1-0.2-0.1-0.2c-0.1-0.1-0.2-0.2-0.2-0.2c-0.3-0.2-0.5-0.2-0.8-0.3c-0.1-0.1,0.2,0,0.4,0c-0.3-0.1-0.5-0.1-0.7-0.1
			c0-0.1,0.1-0.2,0.1-0.4c0,0,0.1,0,0.1,0c0.1,0,0.2,0,0.2-0.1c0.5-0.1,0.8-0.3,1-0.6c0,0,0.1,0,0.1-0.1c0-0.1,0-0.3-0.1-0.4
			c0.3,0,0.6,0,0.9-0.1c0,0.1-0.1,0.1-0.1,0.2c0,0.2,0,1,0.6,1.4c0.3,0.2,0.6,0.3,1,0.3c-0.1,0.4-0.1,0.9,0.1,1.1
			c0.2,0.4,0.5,0.4,0.6,0.6c0.5,0.2,0.9,0.3,1.3,0.4c0,0,0,0,0,0.1c-0.2,0.3-0.2,0.8,0.1,1.1c-0.1-0.1-0.3-0.4-0.3-0.7
			c0-0.2,0.1-0.4,0.2-0.5c0.1,0,0.2,0,0.3,0c-0.4,0.2-0.3,0.8-0.2,1c0,0,0-0.1,0-0.1c0.3,0.4,1.1,0.6,2,0.7l0,0.1
			c-0.2,0-0.3,0-0.5,0c0.2,0,0.3,0,0.5,0l0,0.3c0,0,0,0-0.1,0c0,0,0,0,0.1,0l0,0.2c0,0,0.1,0,0.3,0c-0.2,0-0.3,0.1-0.3,0.1
			c0.5,0,1.2,0,1.9,0c0.1,2.7,0.1,5.1,0.1,7C1023.3,68.1,1023,68.2,1022.7,68.2z M778.4,64.7c0,0,4.2-0.2,5-0.3
			c0.8-0.2,4.2,0.5,5.3-0.3c1.2-0.8,1.2-1.7,1.8-2c0.7-0.3,13-0.2,15.7,0.3l-0.5,4l-1.8-2c0,0-1.2,1.5-1.7,2c-0.5,0.5-1,0.7-1,0.7
			l-0.3-2.2c0,0-1.5-0.7-1.8-0.2c-0.3,0.5-0.5,2-0.5,2s-0.3,0.8-0.7,0.3c-0.3-0.5-1.2-3.3-1.2-3.3s-0.8,0.2-1.5,0.2
			c-0.7,0-3,0.8-3.8,1.2c-0.8,0.3-2.3,0.7-2.3,0.7L778.4,64.7z M719.4,47.8l30.3-0.5l0.5,1l0.5,3c0,0-10.5-0.3-11.8,0.5
			c-1.3,0.8-18,3.2-18.8,3.8c-0.8,0.7,0.2-5.5,0.2-5.5l-0.7-0.3L719.4,47.8z M717.3,50.7h-0.5v-2.2h0.7L717.3,50.7z M716.6,52.8h0.5
			v4h-0.5V52.8z M677.8,48.8h33.8c0,0,1.7,2.8-0.7,5.7c0,0-1,0.3-4.8,1.5c-3.8,1.2-4.8,2.7-4.8,2.7l-0.7,2.8c0,0-3.5-0.3-5.3,1.3
			c-1.8,1.7-4,1-4,1l-4.7-1c0,0-4.3-3-5.3-3c-1,0-3.5-0.7-3.5-0.7V48.8z M636.5,48.7l26,0.1l-0.3,8.1c0,0-2.7-3.7-4.2-2.1
			c-1.5,1.6-2.3,3.2-3,2c-0.7-1.2-4.5-2.3-5-1.5c-0.5,0.8-0.8,3.6-2.7,0.7c-1.8-2.9-4.2-4.4-4.2-4.4l-4.3,1.6h-2.3V48.7z M32.3,64.9
			c-0.1,0-0.2,0-0.1,0C32,65,31.8,65,31.6,65.2c0,0,0-0.1,0-0.1c-0.2,0.1-0.5,0.3-0.7,0.7c-0.1,0.2-0.1,0.5,0.1,0.7c0,0,0,0,0,0
			c0,0,0,0,0,0c0,0,0,0,0,0c-0.1,0-0.2,0.1-0.5,0.1c-0.2,0.1-0.4,0.1-0.7,0.4c-0.3,0.3-0.1,0.7,0.1,0.9c0,0,0,0.1,0,0.1
			c-0.1,0-0.1-0.1-0.1-0.1c0,0.1,0.1,0.1,0.1,0.2c0,0.1-0.1,0.1-0.1,0.2c0,0.1,0.1,0.3,0.1,0.3c0,0.2,0.2,0.4,0.4,0.5
			c-0.1,0-0.1,0-0.2,0c-0.3-0.1-0.5-0.5-0.4-0.4c-0.2-0.4-0.2-0.5-0.2-0.3c0,0.1,0.1,0.5,0.4,0.7c0,0,0.1,0,0.1,0.1
			c-0.1,0-0.2,0.1-0.4,0.1c-0.1,0.1-0.2,0.1-0.3,0.2c0-0.1,0-0.1,0-0.2c0,0,0.1-0.1,0.1-0.1c0,0-0.1,0-0.1,0.1
			c0-1.4-0.1-2.8-0.2-4.1c0,0,0.1,0,0.1,0c0.1,0,0.1,0,0.1,0c0.3-0.1,0.5-0.3,0.6-0.6c0,0,0.1,0,0.1,0c0-0.1,0-0.4-0.2-0.5
			c0,0,0,0-0.1-0.1c-0.1-0.1-0.2-0.1-0.3-0.2c0,0,0,0,0,0c0,0,0,0,0,0l0-0.2c0,0,0,0,0.1,0c0.1,0,0-0.1-0.1-0.1l0-0.2
			c0.3-0.1,0.3-0.1,0.5-0.2c0.1,0,0.2-0.1,0.3-0.1c0,0,0,0.1,0,0.1c0.2-0.1,0.3-0.1,0.5-0.2c0.1-0.1,0.2-0.1,0.2-0.2
			c0,0,0,0,0.1-0.1c0.1,0,0.1,0,0.1,0l0,0.1c-0.1,0-0.2,0-0.2,0c0.1,0,0.2,0,0.3,0l0,0.2c0,0,0,0,0,0c0,0,0,0,0,0l0,0.2
			c0,0,0.1,0,0.2,0c-0.1,0-0.1,0.1-0.2,0.1c0.3,0,0.6,0,1,0C32.3,63.9,32.3,64.4,32.3,64.9z M29.5,70.3
			C29.5,70.4,29.5,70.4,29.5,70.3C29.4,70.3,29.4,70.3,29.5,70.3C29.5,70.3,29.5,70.3,29.5,70.3z M26.4,51.5
			C26.4,51.6,26.4,51.6,26.4,51.5c0,0.1,0,0.1,0,0.1C26.3,51.6,26.4,51.6,26.4,51.5z M35.8,50C35.8,50.1,35.8,50.1,35.8,50
			c0.1,0.1,0.2,0.1,0.2,0.2c-0.1,0-0.2,0.1-0.2,0.1C35.8,50.2,35.8,50.1,35.8,50z M36.4,50.1c-0.1,0-0.2,0.1-0.3,0.1
			c-0.1-0.1-0.2-0.2-0.3-0.3c0-0.1,0-0.1-0.1-0.2c0-0.1,0.1-0.2,0.1-0.3C36,49.6,36.2,49.9,36.4,50.1z M46.7,65.7
			c-0.1,0-0.1,0-0.2,0c-0.6,0-1,0-1.1-0.1c0,0-0.2,0.1-0.5,0.1l0.2-0.1c-0.1,0-0.3,0-0.4,0c0.2,0,0.3,0,0.5-0.1c0,0-0.1,0.1-0.2,0.1
			c0,0,0.2,0,0.5-0.2c-0.2,0.1-0.3,0.1-0.4,0.1c0.1-0.1,0.3-0.2,0.4-0.3c0,0,0,0,0,0c0.1,0,0.1,0,0.2,0c0.1,0,0.1,0,0.2-0.1
			c0,0,0.1,0,0.1,0c0.1-0.1,0.1-0.1,0.2-0.2c0.1-0.1,0-0.2,0-0.3c-0.2-0.3-0.4-0.3-0.6-0.3c0.1,0,0.1,0,0.2,0
			c-0.4-0.1-0.8-0.1-1.1-0.1c0,0,0,0,0.1-0.1c0.1-0.1,0.2-0.2,0.2-0.4c0-0.1,0-0.2,0-0.3c0-0.1,0-0.1,0-0.1c0-0.1-0.1-0.2-0.1-0.2
			c-0.1-0.1-0.2-0.2-0.2-0.2c-0.3-0.2-0.5-0.2-0.8-0.3c-0.1-0.1,0.2,0,0.4,0c-1-0.2-1.6-0.1-2.4-0.1c0,0.1,0.2,0.1,0,0.2
			c0.2,0,0.5,0,0.7,0.1c0.3,0.1-0.4,0.1-0.7,0.1c0.2,0,0.3,0,0.5,0c0,0,0,0,0,0l0.4,0c-1,0.1,0.9,0.3,0,0.3c-0.5,0-0.9,0-0.9,0
			l0,0.4c0,0,0,0-0.1,0l-0.2,0.2c-0.6,0.1-0.1-0.1-0.4,0c-0.6,0,0.2-0.1,0.2-0.2c-0.1,0-0.2,0.1-0.4,0.1c-0.2,0.1-0.4,0.1-0.7,0.4
			c0.1-0.3,1-0.5,0.4-0.4c-0.1,0.1-0.3,0.1-0.5,0.5c0,0.1-0.1,0.2,0,0.3c0,0.1,0.1,0.3,0.2,0.3c0.1,0.1,0.2,0.1,0.2,0.2
			c-0.1,0-0.3,0.1-0.4,0.1c-0.2,0-0.3,0-0.2,0c-0.2,0.1-0.4,0.2-0.6,0.3c0,0,0-0.1,0-0.1c-0.2,0.1-0.4,0.2-0.6,0.5
			c-0.1,0-0.2,0-0.2,0c-0.6,0-1,0-1.1-0.1c0,0-0.2,0.1-0.5,0.1l0.2-0.1c-0.1,0-0.3,0-0.4,0c0.2,0,0.3,0,0.5-0.1c0,0-0.1,0.1-0.2,0.1
			c0,0,0.2,0,0.5-0.2c-0.2,0.1-0.3,0.1-0.4,0.1c0.1-0.1,0.3-0.2,0.4-0.3c0,0,0,0,0,0c0.1,0,0.1,0,0.2,0c0.1,0,0.1,0,0.2-0.1
			c0,0,0.1,0,0.1,0c0.1-0.1,0.1-0.1,0.2-0.2c0.1-0.1,0-0.2,0-0.3c-0.2-0.3-0.4-0.3-0.6-0.3c0.1,0,0.1,0,0.2,0
			c-0.4-0.1-0.8-0.1-1.1-0.1c0,0,0,0,0.1-0.1c0.1-0.1,0.2-0.2,0.2-0.4c0-0.1,0-0.2,0-0.3c0-0.1,0-0.1,0-0.1c0-0.1-0.1-0.2-0.1-0.2
			c-0.1-0.1-0.2-0.2-0.2-0.2c-0.3-0.2-0.5-0.2-0.8-0.3c-0.1-0.1,0.2,0,0.4,0c-1-0.2-1.6-0.1-2.4-0.1c0,0.1,0.2,0.1,0,0.2
			c0.2,0,0.5,0,0.7,0.1c0.3,0.1-0.4,0.1-0.7,0.1c0.2,0,0.3,0,0.5,0c0,0,0,0,0,0l0.4,0c-1,0.1,0.9,0.3,0,0.3c-0.5,0-0.9,0-0.9,0
			l0,0.4c0,0,0,0-0.1,0l-0.2,0.2c-0.6,0.1-0.1-0.1-0.4,0c-0.6,0,0.2-0.1,0.2-0.2c-0.1,0-0.2,0.1-0.4,0.1c-0.1,0-0.2,0.1-0.3,0.1
			c0,0,0,0,0-0.1c0.2-0.1,0.3-0.1,0,0c0,0,0,0,0,0c0-0.1,0-0.2,0-0.4c0,0,0.1,0,0.1-0.1c0.1,0,0.2-0.1,0.1-0.1
			c0.4-0.2,0.7-0.4,0.8-0.8c0,0,0.1,0,0.1-0.1c0-0.2-0.1-0.5-0.2-0.7c0,0,0,0-0.1-0.1c-0.1-0.1-0.2-0.2-0.3-0.2c0,0,0,0,0,0
			c0,0,0,0-0.1,0l0-0.3c0,0,0.1,0,0.1,0c0.2,0,0-0.1-0.1-0.1l0-0.2c0.4-0.1,0.4-0.2,0.6-0.3c0.1,0,0.2-0.1,0.4-0.1
			c0.1,0,0.1,0.1,0,0.2c0.2-0.1,0.4-0.2,0.7-0.3c0.1-0.1,0.2-0.1,0.3-0.3c0.1-0.1,0.2-0.4,0-0.5c-0.2-0.1-0.4-0.1-0.6-0.1
			c0,0,0.1-0.1,0.1-0.1c0.1,0,0.1,0,0.2,0c0,0-0.1,0-0.2,0c0,0,0.1-0.1,0.1-0.2c0.2,0,0.4,0,0.5,0.1c-0.2-0.2-0.4-0.1-0.5-0.1
			c0,0,0,0,0,0c0.1-0.2,0.1-0.6-0.1-0.7c0-0.1-0.1-0.1-0.1-0.1c0.2,0,0.4-0.1,0.6-0.1l-0.1,0c0.5-0.1,0.7-0.2,0.9-0.3
			c0.1,0,0.2-0.1,0.4-0.2c0.1-0.1,0.2-0.1,0.3-0.3c0.1-0.1,0.1-0.2,0.2-0.5c0-0.2-0.1-0.6-0.2-0.7c0,0,0,0.1,0,0.2
			c0,0.1,0.1,0.4,0.1,0.6c-0.1,0.5-0.4,0.5-0.6,0.6c0.1,0,0.2-0.1,0.3-0.2c0.1-0.1,0.2-0.2,0.3-0.5c0-0.4-0.2-0.5-0.3-0.6
			c-0.1-0.1-0.2-0.1-0.3-0.1c0,0-0.1,0-0.1,0c0.1-0.1,0.2-0.1,0.3-0.2c0.1-0.2,0.4-0.2,0.5-0.8c0-0.2,0-0.5-0.1-0.6l0.1,0l0,0
			c0.1-0.1,0.3-0.2,0.6-0.5c0,0,0.1-0.1,0.1-0.1c0.1,0,0.1,0,0.2,0c0.1,0.5,0.5,0.8,0.7,0.9c0.3,0.1,0.5,0.2,0.7,0.2
			c0,0,0,0,0.1,0.1c-0.1,0.1-0.1,0.2-0.2,0.3c0,0.2,0,1,0.6,1.4c0.3,0.2,0.6,0.3,1,0.3c-0.1,0.4-0.1,0.9,0.1,1.1
			c0.2,0.4,0.5,0.4,0.6,0.6c0.5,0.2,0.9,0.3,1.3,0.4c0,0,0,0,0,0.1c-0.2,0.3-0.2,0.8,0.1,1.1c-0.1-0.1-0.3-0.4-0.3-0.7
			c0-0.2,0.1-0.4,0.2-0.5c0.1,0,0.2,0,0.3,0c-0.4,0.2-0.3,0.8-0.2,1c0,0,0-0.1,0-0.1c0.3,0.4,1.1,0.6,2,0.7l0,0.1
			c-0.2,0-0.3,0-0.5,0c0.2,0,0.3,0,0.5,0l0,0.3c0,0,0,0-0.1,0c0,0,0,0,0.1,0l0,0.2c0,0,0.1,0,0.3,0c-0.2,0-0.3,0.1-0.3,0.1
			c0.5,0,1.2,0,1.9,0C46.7,62.8,46.7,64.3,46.7,65.7z M67.1,60.9C67.1,60.9,67,61,66.8,61C66.8,61,66.9,61,67.1,60.9
			c0.1,0.1,0.1,0.1,0.1,0.2c-0.2,0-0.4,0.1-0.6,0.1l0.3-0.1c-0.3,0-0.5,0-0.6,0C66.5,60.9,66.8,60.9,67.1,60.9z M67.3,60.6
			c0,0.1,0,0.1,0,0.2c-0.1,0-0.2,0-0.3,0C67.1,60.7,67.2,60.6,67.3,60.6z"/>
		<path class="st0" d="M0.6,59.3c-0.1-0.1-0.1-0.1-0.1-0.2C0.5,59.2,0.6,59.3,0.6,59.3z"/>
		<path class="st0" d="M29.8,59.3c-0.1-0.1-0.1-0.1-0.1-0.2C29.7,59.2,29.7,59.3,29.8,59.3z"/>
		<path class="st0" d="M205,20c0-0.3-0.2-0.5-0.2-0.5C205,19.8,205,20,205,20z"/>
		<path class="st0" d="M203,23.5c0.1-0.1,0.3-0.4,0.3-0.7c0,0,0,0,0-0.1C203.4,22.9,203.2,23.3,203,23.5z"/>
		<path class="st0" d="M201,26.3c0-0.1,0.4-0.1,0.5-0.2c0.2,0,1.1-0.2,0.6,0C201.7,26.2,201.4,26.2,201,26.3z"/>
		<path class="st0" d="M194.2,34.1C194.1,34.4,194.1,34.5,194.2,34.1L194.2,34.1z"/>
		<path class="st0" d="M175.3,12c0,0-0.1,0.1-0.1,0.1C175.2,12.1,175.3,12,175.3,12z"/>
		<path class="st0" d="M175,12.5c-0.1,0.2-0.2,0.5-0.3,0.7C174.7,13,174.8,12.7,175,12.5z"/>
		<path class="st0" d="M176.4,27.9L176.4,27.9C176.3,28,176.3,28,176.4,27.9z"/>
		<path class="st0" d="M175,12.3c0,0,0,0.1-0.1,0.1C175,12.4,175,12.4,175,12.3z"/>
		<path class="st0" d="M190.8,35.9C190.8,36,190.8,36,190.8,35.9L190.8,35.9z"/>
		<path class="st0" d="M175.2,12.1c-0.1,0.1-0.1,0.2-0.2,0.2C175.1,12.3,175.1,12.2,175.2,12.1z"/>
		<path class="st0" d="M179.5,32.3C179.5,32.7,179.5,32.5,179.5,32.3L179.5,32.3z"/>
		<path class="st0" d="M190.8,35.7c0,0.1,0,0.2-0.1,0.3C190.8,35.9,190.8,35.8,190.8,35.7z"/>
		<path class="st0" d="M185.6,7.4C185.7,6.4,185.7,6.7,185.6,7.4L185.6,7.4z"/>
		<path class="st0" d="M190.3,35.7C190.3,36,190.3,35.8,190.3,35.7L190.3,35.7z"/>
		<path class="st0" d="M190.4,35.7C190.3,35.9,190.3,35.8,190.4,35.7L190.4,35.7z"/>
		<path class="st0" d="M1009.6,50L1009.6,50C1009.6,50,1009.6,50,1009.6,50z"/>
		<path class="st0" d="M1006.4,30.2C1006.5,29.4,1006.5,29.6,1006.4,30.2L1006.4,30.2z"/>
		<path class="st0" d="M1010,50C1010,50,1009.9,50,1010,50L1010,50z"/>
		<path class="st0" d="M1009.7,49.8C1009.6,50.1,1009.6,49.9,1009.7,49.8L1009.7,49.8z"/>
		<path class="st0" d="M1058.5,41.6C1058.5,41.6,1058.5,41.7,1058.5,41.6c0.1,0.4,0.3,0.7,0.4,0.9
			C1058.6,42.3,1058.5,41.8,1058.5,41.6z"/>
		<path class="st0" d="M1065.2,49.7c-0.2,0-0.4,0.1-0.6,0.1C1065,49.6,1065.1,49.7,1065.2,49.7z"/>
		<path class="st0" d="M1061.1,45.6c-0.4-0.1-0.8-0.1-1.2-0.2c-0.5-0.2,0.4,0,0.7,0C1060.7,45.4,1061.1,45.5,1061.1,45.6z"/>
		<path class="st0" d="M1056.9,38c0,0.1-0.1,0.3-0.2,0.6C1056.7,38.6,1056.6,38.4,1056.9,38z"/>
		<path class="st0" d="M1077.1,46.1C1077.1,46.1,1077.1,46.1,1077.1,46.1c0,0.4,0.1,0.6,0.2,0.7
			C1077.1,46.6,1077.1,46.2,1077.1,46.1z"/>
		<path class="st0" d="M1080.5,52.5c-0.1,0-0.2,0-0.3,0.1C1080.4,52.4,1080.5,52.5,1080.5,52.5z"/>
		<path class="st0" d="M1078.1,49.1c0.1,0,0.3,0.1,0.3,0.2c-0.2-0.1-0.4-0.1-0.6-0.2C1077.5,48.9,1078,49.1,1078.1,49.1z"/>
		<path class="st0" d="M1087.6,44.6c0-0.1,0-0.2,0-0.3C1087.6,44,1087.6,43.9,1087.6,44.6z"/>
		<path class="st0" d="M1123.8,53.7C1123.8,53.7,1123.8,53.7,1123.8,53.7c0,0.2,0.1,0.3,0.1,0.4C1123.8,54,1123.8,53.8,1123.8,53.7z
			"/>
		<path class="st0" d="M1123.3,52.3c0,0,0-0.1,0.1-0.3C1123.3,52.1,1123.3,52.2,1123.3,52.3z"/>
		<path class="st0" d="M1127.6,57.7C1127.6,57.7,1127.6,57.7,1127.6,57.7C1127.6,57.7,1127.6,57.7,1127.6,57.7z"/>
		<path class="st0" d="M1127.6,57.7C1127.6,57.6,1127.6,57.6,1127.6,57.7C1127.6,57.6,1127.6,57.6,1127.6,57.7
			C1127.6,57.6,1127.6,57.6,1127.6,57.7z"/>
		<path class="st0" d="M1127.6,57.7c0,0.1,0,0.2-0.1,0.2C1127.6,57.9,1127.6,57.8,1127.6,57.7z"/>
		<path class="st0" d="M1129.7,52.9c0-0.1,0-0.1,0-0.2C1129.7,52.5,1129.7,52.4,1129.7,52.9z"/>
		<path class="st0" d="M1107.5,50.4C1107.5,50.4,1107.5,50.4,1107.5,50.4c0,0.3,0.1,0.4,0.2,0.5
			C1107.5,50.7,1107.5,50.5,1107.5,50.4z"/>
		<path class="st0" d="M1110.1,55.2c-0.1,0-0.2,0-0.2,0C1110,55.1,1110.1,55.2,1110.1,55.2z"/>
		<path class="st0" d="M1108.5,52.7c-0.2,0-0.3-0.1-0.5-0.1c-0.2-0.1,0.2,0,0.3,0C1108.3,52.6,1108.5,52.7,1108.5,52.7z"/>
		<path class="st0" d="M1106.8,48.5c0,0,0-0.1,0.1-0.4C1106.8,48.2,1106.8,48.4,1106.8,48.5z"/>
		<path class="st0" d="M1112.6,55.7c0,0,0-0.1,0-0.1C1112.6,55.6,1112.6,55.6,1112.6,55.7C1112.6,55.7,1112.6,55.7,1112.6,55.7z"/>
		<path class="st0" d="M1112.6,55.8c0,0,0-0.1,0-0.1C1112.6,55.7,1112.6,55.8,1112.6,55.8z"/>
		<path class="st0" d="M1112.6,55.8c0,0.1,0,0.2-0.1,0.3C1112.6,56,1112.6,55.9,1112.6,55.8z"/>
		<path class="st0" d="M1115.4,49.3c0-0.1,0-0.2,0-0.2C1115.4,48.8,1115.4,48.7,1115.4,49.3z"/>
		<path class="st0" d="M1127.9,59.3c0-0.1,0.1-0.1,0.1-0.2C1128,59.2,1128,59.2,1127.9,59.3z"/>
		<path class="st0" d="M1128.3,60.8c0,0-0.1-0.1-0.1-0.1C1128.2,60.7,1128.3,60.8,1128.3,60.8z"/>
		<path class="st0" d="M1007.9,53.5c-0.1-0.1-0.1-0.1-0.1-0.2C1007.8,53.4,1007.8,53.4,1007.9,53.5z"/>
		<path class="st0" d="M1084.2,59.3c0-0.1,0.1-0.1,0.1-0.2C1084.3,59.2,1084.3,59.2,1084.2,59.3z"/>
		<path class="st0" d="M1059.3,24.2c-0.1-0.3-0.2-0.5-0.2-0.5C1059.3,24,1059.3,24.2,1059.3,24.2z"/>
		<path class="st0" d="M1057.7,27.9c0.1-0.2,0.3-0.4,0.3-0.8c0,0,0,0,0-0.1C1058,27.3,1057.9,27.7,1057.7,27.9z"/>
		<path class="st0" d="M1056,30.9c0-0.1,0.3-0.2,0.5-0.2c0.2,0,1-0.3,0.6-0.1C1056.8,30.7,1056.4,30.8,1056,30.9z"/>
		<path class="st0" d="M1050.1,39.4C1050,39.7,1050,39.8,1050.1,39.4L1050.1,39.4z"/>
		<path class="st0" d="M1028.7,20c-0.1,0.2-0.2,0.5-0.2,0.8C1028.5,20.5,1028.6,20.3,1028.7,20z"/>
		<path class="st0" d="M1035.3,39.4C1035.3,39.4,1035.3,39.4,1035.3,39.4L1035.3,39.4z"/>
		<path class="st0" d="M1038.6,13.8C1038.7,12.8,1038.7,13,1038.6,13.8L1038.6,13.8z"/>
		<path class="st0" d="M1028.7,19.8c0,0.1,0,0.1-0.1,0.2C1028.7,19.9,1028.7,19.9,1028.7,19.8z"/>
		<path class="st0" d="M1028.9,19.6c0,0.1-0.1,0.2-0.1,0.3C1028.8,19.7,1028.8,19.7,1028.9,19.6z"/>
		<path class="st0" d="M1028.9,19.5c0,0,0,0.1-0.1,0.1C1028.9,19.5,1028.9,19.5,1028.9,19.5z"/>
		<path class="st0" d="M1046.4,41.4C1046.4,41.7,1046.4,41.6,1046.4,41.4L1046.4,41.4z"/>
		<path class="st0" d="M1046.5,41.4C1046.5,41.6,1046.5,41.5,1046.5,41.4L1046.5,41.4z"/>
		<path class="st0" d="M1032,42.5c0.1-0.2,0.3-0.4,0.4-0.8c0,0,0-0.1,0-0.1C1032.4,41.8,1032.3,42.3,1032,42.5z"/>
		<path class="st0" d="M1026.3,49.8c-0.2,0-0.4-0.1-0.6-0.1C1025.8,49.7,1025.9,49.6,1026.3,49.8z"/>
		<path class="st0" d="M1031,45.3c-0.4,0.1-0.8,0.2-1.2,0.2c0-0.1,0.4-0.1,0.6-0.2C1030.6,45.4,1031.5,45.2,1031,45.3z"/>
		<path class="st0" d="M1034.2,38.6c0-0.3-0.2-0.5-0.2-0.6C1034.3,38.4,1034.2,38.6,1034.2,38.6z"/>
	</g>
</g>
</svg>
